<?xml version="1.0" encoding="UTF-8" standalone="no"?>
<!-- Created with Inkscape (http://www.inkscape.org/) -->

<svg
   xmlns:dc="http://purl.org/dc/elements/1.1/"
   xmlns:cc="http://creativecommons.org/ns#"
   xmlns:rdf="http://www.w3.org/1999/02/22-rdf-syntax-ns#"
   xmlns:svg="http://www.w3.org/2000/svg"
   xmlns="http://www.w3.org/2000/svg"
   xmlns:sodipodi="http://sodipodi.sourceforge.net/DTD/sodipodi-0.dtd"
   xmlns:inkscape="http://www.inkscape.org/namespaces/inkscape"
   version="1.1"
   width="64"
   height="64"
   id="svg2985"
   inkscape:version="0.48.2 r9819"
   sodipodi:docname="apple.svg"
   inkscape:export-filename="/Users/paul/src/OpenRAWeb/content/images/platforms/osx.png"
   inkscape:export-xdpi="90"
   inkscape:export-ydpi="90">
  <sodipodi:namedview
     pagecolor="#ffffff"
     bordercolor="#666666"
     borderopacity="1"
     objecttolerance="10"
     gridtolerance="10"
     guidetolerance="10"
     inkscape:pageopacity="0"
     inkscape:pageshadow="2"
     inkscape:window-width="1623"
     inkscape:window-height="1006"
     id="namedview6"
     showgrid="false"
     inkscape:zoom="8"
     inkscape:cx="19.176274"
     inkscape:cy="46.627533"
     inkscape:window-x="57"
     inkscape:window-y="0"
     inkscape:window-maximized="1"
     inkscape:current-layer="svg2985"
     fit-margin-top="0"
     fit-margin-left="0"
     fit-margin-right="0"
     fit-margin-bottom="0"
     showguides="true"
     inkscape:guide-bbox="true"
     inkscape:snap-global="false">
    <sodipodi:guide
       orientation="0,1"
       position="58,8"
       id="guide3818" />
    <sodipodi:guide
       orientation="0,1"
       position="46.875,56"
       id="guide3820" />
    <sodipodi:guide
       orientation="1,0"
       position="8,49.875"
       id="guide3822" />
    <sodipodi:guide
       orientation="1,0"
       position="56,42.25"
       id="guide3824" />
  </sodipodi:namedview>
  <metadata
     id="metadata2991">
    <rdf:RDF>
      <cc:Work
         rdf:about="">
        <dc:format>image/svg+xml</dc:format>
        <dc:type
           rdf:resource="http://purl.org/dc/dcmitype/StillImage" />
        <dc:title></dc:title>
      </cc:Work>
    </rdf:RDF>
  </metadata>
  <defs
     id="defs2989" />
  <path
     inkscape:connector-curvature="0"
     d="m 22.316388,14.653636 c 1.574673,0 3.474491,0.325146 5.699904,0.975885 2.246014,0.651187 3.73649,0.976333 4.471427,0.976333 0.944535,0 2.487858,-0.367244 4.629073,-1.102181 2.141214,-0.73449 3.999382,-1.102182 5.573608,-1.102182 2.582356,0 4.881217,0.692838 6.896584,2.078515 1.133532,0.797637 2.256763,1.878769 3.369245,3.243396 -1.679472,1.427776 -2.907502,2.697904 -3.68409,3.810387 -1.406726,2.015366 -2.109865,4.240779 -2.109865,6.675789 0,2.666106 0.745238,5.069767 2.235713,7.21143 1.490476,2.141215 3.190997,3.495093 5.102013,4.062083 -0.798533,2.582356 -2.121062,5.282052 -3.968481,8.094608 -2.791954,4.218833 -5.563307,6.32825 -8.313163,6.32825 -1.091881,0 -2.603406,-0.344851 -4.534575,-1.039033 -1.910567,-0.694182 -3.526891,-1.039033 -4.849419,-1.039033 -1.322977,0 -2.865852,0.358287 -4.629073,1.070383 C 26.462668,55.632755 25.045642,56 23.953761,56 20.657965,56 17.424869,53.209837 14.254921,47.625032 11.084974,42.10248 9.5,36.686071 9.5,31.374908 c -4.4e-6,-4.933617 1.207115,-8.953602 3.621345,-12.060849 2.435055,-3.107247 5.500159,-4.660423 9.194998,-4.660423 M 42.155163,2.246592 c 0.08375,0.272952 0.136597,0.514411 0.157647,0.724277 0.0206,0.210002 0.03135,0.419913 0.03135,0.629825 0,1.343622 -0.314845,2.813004 -0.944535,4.408726 -0.630138,1.595275 -1.627073,3.075449 -2.9917,4.440077 -1.175631,1.154581 -2.34096,1.931169 -3.495541,2.330211 -0.73449,0.231096 -1.84742,0.409344 -3.337895,0.535192 0.0421,-3.190997 0.871086,-5.951601 2.487858,-8.281813 1.637373,-2.330212 4.334829,-3.92571 8.092816,-4.786272"
     id="path3043"
     style="fill:#c0c0c0;fill-opacity:1"
     inkscape:export-filename="/Users/paul/src/OpenRAWeb/content/images/platforms/path3043.png"
     inkscape:export-xdpi="90"
     inkscape:export-ydpi="90" />
</svg>
