<?xml version="1.0" encoding="UTF-8" standalone="no"?>
<!-- Created with Inkscape (http://www.inkscape.org/) -->

<svg
   xmlns:dc="http://purl.org/dc/elements/1.1/"
   xmlns:cc="http://creativecommons.org/ns#"
   xmlns:rdf="http://www.w3.org/1999/02/22-rdf-syntax-ns#"
   xmlns:svg="http://www.w3.org/2000/svg"
   xmlns="http://www.w3.org/2000/svg"
   xmlns:sodipodi="http://sodipodi.sourceforge.net/DTD/sodipodi-0.dtd"
   xmlns:inkscape="http://www.inkscape.org/namespaces/inkscape"
   version="1.1"
   width="64"
   height="64"
   id="svg2985"
   inkscape:version="0.48.2 r9819"
   sodipodi:docname="desura.svg"
   inkscape:export-filename="/Users/paul/src/OpenRAWeb/content/images/platforms/desura.png"
   inkscape:export-xdpi="90"
   inkscape:export-ydpi="90">
  <sodipodi:namedview
     pagecolor="#ffffff"
     bordercolor="#666666"
     borderopacity="1"
     objecttolerance="10"
     gridtolerance="10"
     guidetolerance="10"
     inkscape:pageopacity="0"
     inkscape:pageshadow="2"
     inkscape:window-width="1623"
     inkscape:window-height="1006"
     id="namedview6"
     showgrid="false"
     inkscape:zoom="11.313708"
     inkscape:cx="14.156696"
     inkscape:cy="30.81051"
     inkscape:window-x="57"
     inkscape:window-y="0"
     inkscape:window-maximized="1"
     inkscape:current-layer="svg2985"
     fit-margin-top="0"
     fit-margin-left="0"
     fit-margin-right="0"
     fit-margin-bottom="0"
     showguides="true"
     inkscape:guide-bbox="true"
     inkscape:snap-global="false">
    <sodipodi:guide
       orientation="0,1"
       position="58,8"
       id="guide3818" />
    <sodipodi:guide
       orientation="0,1"
       position="46.875,56"
       id="guide3820" />
    <sodipodi:guide
       orientation="1,0"
       position="8,49.875"
       id="guide3822" />
    <sodipodi:guide
       orientation="1,0"
       position="56,42.25"
       id="guide3824" />
  </sodipodi:namedview>
  <metadata
     id="metadata2991">
    <rdf:RDF>
      <cc:Work
         rdf:about="">
        <dc:format>image/svg+xml</dc:format>
        <dc:type
           rdf:resource="http://purl.org/dc/dcmitype/StillImage" />
        <dc:title></dc:title>
      </cc:Work>
    </rdf:RDF>
  </metadata>
  <defs
     id="defs2989" />
  <path
     style="fill:#ffffff;fill-opacity:1;stroke:none;stroke-width:0.64623958000000004;stroke-linejoin:round;stroke-miterlimit:3.98290490999999980;stroke-opacity:1;stroke-dasharray:none"
     d="M 32,10.94429 20.367688,19.506964 8.0487466,18.658774 3.3231198,33.885794 15.359332,43.983287 20.448468,43.619777 8.4526463,33.239554 12.047354,22.859331 23.073816,23.747911 32,16.558496 l 8.926184,7.189415 11.026463,-0.88858 3.594708,10.380223 -11.995823,10.380223 5.089137,0.36351 12.036211,-10.097493 -4.725626,-15.22702 -12.318942,0.84819 z m 0.12117,9.451253 c 0,0 -5.463374,4.85658 -5.896936,5.694986 -0.337698,0.65305 -0.363126,1.228948 -0.12117,4.079387 0.354676,4.178254 1.217377,7.615923 2.665739,10.582173 1.13779,2.330199 2.73009,4.483287 3.311977,4.483287 0.171296,0 0.753562,-0.54292 1.252089,-1.2117 2.834502,-3.802543 4.344036,-8.536121 4.725627,-14.823119 l 0.16156,-2.908078 z m -18.054317,6.058495 -1.817549,6.058497 13.65181,10.824513 c 0,0 -0.264913,-1.103398 -0.848189,-2.261839 -2.015461,-4.00287 -3.311978,-8.790948 -3.311978,-12.359332 0,-0.888422 -0.05529,-1.671095 -0.16156,-1.736769 -0.482553,-0.298232 -7.512534,-0.52507 -7.512534,-0.52507 z m 35.866295,0 c 0,0 -7.029982,0.226838 -7.512535,0.52507 -0.106319,0.06568 -0.16156,0.848347 -0.16156,1.736769 0,3.568384 -1.296517,8.356462 -3.311978,12.359332 -1.123438,2.231254 -0.807799,2.342619 -0.807799,2.342619 4.485185,-3.375787 8.847062,-6.927588 13.207521,-10.461003 z M 18.954039,47.254875 31.91922,53.67688 45.045961,47.254875 z"
     id="rect3055"
     inkscape:connector-curvature="0"
     sodipodi:nodetypes="cccccccccccccccccccccssssccccccssccccssccccccc"
     inkscape:export-filename="/Users/paul/src/OpenRAWeb/content/images/platforms/rect3055.png"
     inkscape:export-xdpi="90"
     inkscape:export-ydpi="90" />
</svg>
