<?xml version="1.0" encoding="UTF-8" standalone="no"?>
<!-- Created with Inkscape (http://www.inkscape.org/) -->

<svg
   xmlns:dc="http://purl.org/dc/elements/1.1/"
   xmlns:cc="http://creativecommons.org/ns#"
   xmlns:rdf="http://www.w3.org/1999/02/22-rdf-syntax-ns#"
   xmlns:svg="http://www.w3.org/2000/svg"
   xmlns="http://www.w3.org/2000/svg"
   xmlns:xlink="http://www.w3.org/1999/xlink"
   xmlns:sodipodi="http://sodipodi.sourceforge.net/DTD/sodipodi-0.dtd"
   xmlns:inkscape="http://www.inkscape.org/namespaces/inkscape"
   version="1.1"
   width="64"
   height="64"
   id="svg2985"
   inkscape:version="0.48.2 r9819"
   sodipodi:docname="rpm.svg"
   inkscape:export-filename="/Users/paul/src/OpenRAWeb/content/images/platforms/rpm.png"
   inkscape:export-xdpi="90"
   inkscape:export-ydpi="90">
  <sodipodi:namedview
     pagecolor="#ffffff"
     bordercolor="#666666"
     borderopacity="1"
     objecttolerance="10"
     gridtolerance="10"
     guidetolerance="10"
     inkscape:pageopacity="0"
     inkscape:pageshadow="2"
     inkscape:window-width="1623"
     inkscape:window-height="1006"
     id="namedview6"
     showgrid="false"
     inkscape:zoom="7.9999996"
     inkscape:cx="7.9477731"
     inkscape:cy="24.329444"
     inkscape:window-x="57"
     inkscape:window-y="0"
     inkscape:window-maximized="1"
     inkscape:current-layer="svg2985"
     fit-margin-top="0"
     fit-margin-left="0"
     fit-margin-right="0"
     fit-margin-bottom="0"
     showguides="true"
     inkscape:guide-bbox="true"
     inkscape:snap-global="false">
    <sodipodi:guide
       orientation="0,1"
       position="11.5,8"
       id="guide2985" />
    <sodipodi:guide
       orientation="1,0"
       position="8,58.25"
       id="guide2987" />
    <sodipodi:guide
       orientation="0,1"
       position="24,56"
       id="guide2989" />
    <sodipodi:guide
       orientation="1,0"
       position="56,52"
       id="guide2991" />
  </sodipodi:namedview>
  <metadata
     id="metadata2991">
    <rdf:RDF>
      <cc:Work
         rdf:about="">
        <dc:format>image/svg+xml</dc:format>
        <dc:type
           rdf:resource="http://purl.org/dc/dcmitype/StillImage" />
        <dc:title></dc:title>
      </cc:Work>
    </rdf:RDF>
  </metadata>
  <defs
     id="defs2989">
    <radialGradient
       r="102"
       fy="293.59906"
       fx="132"
       cy="293.59906"
       cx="132"
       gradientTransform="matrix(0.4163383,0,0,-0.2121724,-229.11743,89.4873)"
       gradientUnits="userSpaceOnUse"
       id="radialGradient7452"
       xlink:href="#linearGradient5565"
       inkscape:collect="always" />
    <radialGradient
       r="103.84375"
       fy="37.250149"
       fx="132.01065"
       cy="37.250149"
       cx="132.01065"
       gradientTransform="matrix(0.8055285,0,0,0.76141,-280.49057,5.397877)"
       gradientUnits="userSpaceOnUse"
       id="radialGradient7448"
       xlink:href="#linearGradient5518"
       inkscape:collect="always" />
    <radialGradient
       r="102"
       fy="293.59906"
       fx="132"
       cy="293.59906"
       cx="132"
       gradientTransform="matrix(0.973397,0,0,0.496058,-302.6492,46.47171)"
       gradientUnits="userSpaceOnUse"
       id="radialGradient7445"
       xlink:href="#linearGradient5565"
       inkscape:collect="always" />
    <radialGradient
       r="59.25"
       fy="20.619284"
       fx="89.75"
       cy="20.619284"
       cx="89.75"
       gradientTransform="matrix(1.2953248,0,0,0.4782317,-324.44978,39.573848)"
       gradientUnits="userSpaceOnUse"
       id="radialGradient7442"
       xlink:href="#linearGradient5565"
       inkscape:collect="always" />
    <radialGradient
       r="59.25"
       fy="38.506714"
       fx="105.75"
       cy="38.506714"
       cx="105.75"
       gradientTransform="matrix(1.1114461,0,0,0.4806888,-312.84137,35.556688)"
       gradientUnits="userSpaceOnUse"
       id="radialGradient7439"
       xlink:href="#linearGradient5745"
       inkscape:collect="always" />
    <radialGradient
       r="12.438205"
       fy="117.97007"
       fx="158.0618"
       cy="117.97007"
       cx="158.0618"
       gradientTransform="matrix(1.3398186,0,0,0.8371328,-364.94142,-2.4832991)"
       gradientUnits="userSpaceOnUse"
       id="radialGradient7436"
       xlink:href="#linearGradient5755"
       inkscape:collect="always" />
    <radialGradient
       r="83.063794"
       fy="81.171234"
       fx="40.807701"
       cy="81.171234"
       cx="40.807701"
       gradientTransform="matrix(0.8055285,0,0,0.8581734,-280.89333,-5.1982178)"
       gradientUnits="userSpaceOnUse"
       id="radialGradient7433"
       xlink:href="#linearGradient5767"
       inkscape:collect="always" />
    <radialGradient
       r="83.063794"
       fy="81.171234"
       fx="40.807701"
       cy="81.171234"
       cx="40.807701"
       gradientTransform="matrix(0.8055285,0,0,0.8581734,-280.89333,-5.1982178)"
       gradientUnits="userSpaceOnUse"
       id="radialGradient7430"
       xlink:href="#linearGradient5767"
       inkscape:collect="always" />
    <radialGradient
       r="13"
       fy="146.19427"
       fx="98"
       cy="146.19427"
       cx="98"
       gradientTransform="matrix(0.8055285,0,0,0.6428737,-277.26846,26.336695)"
       gradientUnits="userSpaceOnUse"
       id="radialGradient7426"
       xlink:href="#linearGradient5831"
       inkscape:collect="always" />
    <radialGradient
       r="26"
       fy="187.76793"
       fx="164.25"
       cy="187.76793"
       cx="164.25"
       gradientTransform="matrix(1.0611289,0,0,0.2149989,-319.25082,97.19835)"
       gradientUnits="userSpaceOnUse"
       id="radialGradient7423"
       xlink:href="#linearGradient5841"
       inkscape:collect="always" />
    <radialGradient
       gradientUnits="userSpaceOnUse"
       r="95.130482"
       fy="183.06195"
       fx="176.80099"
       cy="183.06195"
       cx="176.80099"
       id="radialGradient7722"
       xlink:href="#linearGradient7716"
       inkscape:collect="always" />
    <radialGradient
       gradientUnits="userSpaceOnUse"
       r="94.569832"
       fy="161.34077"
       fx="161.34077"
       cy="161.34077"
       cx="161.34077"
       id="radialGradient7698"
       xlink:href="#linearGradient7692"
       inkscape:collect="always" />
    <radialGradient
       r="97"
       fy="389.68997"
       fx="114.19282"
       cy="389.68997"
       cx="114.19282"
       gradientTransform="matrix(1.95879,0,0,1.95879,-70.92974,-531.03957)"
       gradientUnits="userSpaceOnUse"
       id="radialGradient7464"
       xlink:href="#linearGradient6128"
       inkscape:collect="always" />
    <linearGradient
       y2="549.03125"
       x2="65"
       y1="325.21426"
       x1="65"
       gradientTransform="translate(87.75001,-316.75)"
       gradientUnits="userSpaceOnUse"
       id="linearGradient7462"
       xlink:href="#linearGradient4871"
       inkscape:collect="always" />
    <linearGradient
       y2="39.739437"
       x2="100"
       y1="166.72182"
       x1="100"
       gradientUnits="userSpaceOnUse"
       id="linearGradient7394"
       xlink:href="#linearGradient5681"
       inkscape:collect="always" />
    <linearGradient
       y2="164.39177"
       x2="98.727234"
       y1="42.150482"
       x1="98.727234"
       gradientUnits="userSpaceOnUse"
       id="linearGradient7392"
       xlink:href="#linearGradient5478"
       inkscape:collect="always" />
    <linearGradient
       inkscape:collect="always"
       id="linearGradient6128">
      <stop
         style="stop-color:#4f4f4f;stop-opacity:1;"
         offset="0"
         id="stop6130" />
      <stop
         style="stop-color:#4f4f4f;stop-opacity:0;"
         offset="1"
         id="stop6132" />
    </linearGradient>
    <linearGradient
       inkscape:collect="always"
       id="linearGradient4871">
      <stop
         style="stop-color:#ffffff;stop-opacity:1"
         offset="0"
         id="stop4873" />
      <stop
         id="stop5460"
         offset="0.21496402"
         style="stop-color:#d2d6ce;stop-opacity:1;" />
      <stop
         id="stop5458"
         offset="0.35827339"
         style="stop-color:#cfd3cc;stop-opacity:1" />
      <stop
         id="stop4879"
         offset="0.87165469"
         style="stop-color:#e4e7e2;stop-opacity:1" />
      <stop
         style="stop-color:#cdcfca;stop-opacity:1"
         offset="1"
         id="stop4875" />
    </linearGradient>
    <linearGradient
       id="linearGradient7224">
      <stop
         style="stop-color:#3a7202;stop-opacity:1;"
         offset="0"
         id="stop7226" />
      <stop
         id="stop7228"
         offset="0.69790977"
         style="stop-color:#4e9c04;stop-opacity:1;" />
      <stop
         style="stop-color:#50a004;stop-opacity:1;"
         offset="0.75"
         id="stop7230" />
      <stop
         style="stop-color:#7bf508;stop-opacity:1;"
         offset="1"
         id="stop7232" />
    </linearGradient>
    <linearGradient
       inkscape:collect="always"
       xlink:href="#linearGradient5478"
       id="linearGradient7238"
       x1="98.727234"
       y1="42.150482"
       x2="98.727234"
       y2="164.39177"
       gradientUnits="userSpaceOnUse" />
    <clipPath
       clipPathUnits="userSpaceOnUse"
       id="clipPath7252">
      <path
         style="font-size:20.48839951px;fill:#4e9a06;fill-opacity:1;fill-rule:evenodd;stroke:none;stroke-width:3.36292505;stroke-miterlimit:4;stroke-dasharray:none;stroke-opacity:1;font-family:TrebuchetMS-Bold"
         d="M 99.999999,30.15625 C 61.429321,30.15625 30.15625,61.425757 30.15625,100 C 30.15625,138.57424 61.429321,169.84375 99.999999,169.84375 C 138.57068,169.84375 169.84374,138.57424 169.84375,100 C 169.84375,61.425763 138.57068,30.15625 99.999999,30.15625 z M 100.33443,39.828904 C 133.56795,39.828904 160.53125,66.770043 160.53125,100 C 160.53125,133.23353 133.56439,160.1711 100.33443,160.1711 C 82.389612,160.1711 66.287228,152.30637 55.263983,139.84824 C 59.79648,136.33049 67.379614,137.1887 76.718752,138.25328 C 81.194274,138.76243 86.296201,139.34487 91.562158,139.46236 C 106.27405,139.54781 122.10349,136.86276 131.87345,132.59375 C 138.18974,129.82369 142.2338,127.99948 144.76174,125.69941 C 145.67323,124.95171 146.15189,123.70262 146.63968,122.4066 L 146.9741,121.53194 C 147.38356,120.48516 147.97116,118.23268 148.23463,117.00432 C 148.35213,116.46668 148.4098,115.88852 148.02883,115.58943 L 146.6654,115.84669 C 142.37858,118.41735 131.66827,123.31339 121.63484,123.51278 C 109.20165,123.77269 84.142746,110.99635 81.529349,109.64693 L 81.272099,109.33823 C 80.645458,107.84282 76.895333,98.940154 76.101346,97.067335 C 94.138737,108.9451 109.09321,115.51941 120.55439,116.54126 C 133.29735,117.6735 143.23739,110.71627 147.4886,107.74327 C 148.3182,107.17715 148.95227,106.73322 149.21219,106.63709 L 149.49517,106.17403 C 148.79019,101.69494 142.10444,80.020513 137.06992,74.815088 C 135.67421,73.387338 134.56456,71.997838 132.31077,70.673343 C 114.08824,60.052432 70.821318,53.655846 68.795405,53.360326 L 68.460982,53.463225 L 68.332357,53.746201 C 68.332357,53.746201 68.170082,62.730625 68.152279,63.727558 C 66.667554,63.236214 62.063798,61.728958 55.469788,59.920236 C 64.073522,49.274392 77.258818,39.828904 100.33443,39.828904 z M 116.23256,71.676625 C 116.53961,71.672018 116.84957,71.666388 117.15867,71.676625 C 127.36656,72.043352 135.38655,80.64108 135.03764,90.841854 C 134.85605,95.776678 132.77552,100.3362 129.17231,103.70442 C 125.55841,107.09044 120.86144,108.85532 115.89814,108.6951 C 105.70804,108.31413 97.688042,99.716405 98.019162,89.529869 C 98.193631,84.587923 100.28565,79.999104 103.91022,76.641573 C 107.2949,73.467187 111.62686,71.745746 116.23256,71.676625 z M 115.74378,77.130354 C 112.77085,77.311098 109.96536,78.518227 107.76899,80.577521 C 105.26598,82.927439 103.78906,86.109055 103.67869,89.555596 C 103.4437,96.676556 109.01582,102.66919 116.12966,102.93267 C 119.58688,103.03948 122.86633,101.82829 125.39071,99.4855 C 127.90797,97.124901 129.3742,93.914 129.48101,90.481698 C 129.71956,83.350057 124.12172,77.379587 117.00432,77.130354 C 116.5735,77.114333 116.16849,77.104534 115.74378,77.130354 z M 119.1395,83.587366 C 122.30121,83.587366 124.85049,85.305484 124.85048,87.420407 C 124.85048,89.524657 122.30121,91.253449 119.1395,91.253456 C 115.96711,91.253456 113.4028,89.521092 113.4028,87.420407 C 113.4028,85.305484 115.96711,83.587366 119.1395,83.587366 z"
         id="path7254" />
    </clipPath>
    <linearGradient
       inkscape:collect="always"
       xlink:href="#linearGradient5681"
       id="linearGradient7256"
       x1="100"
       y1="166.72182"
       x2="100"
       y2="39.739437"
       gradientUnits="userSpaceOnUse" />
    <linearGradient
       inkscape:collect="always"
       xlink:href="#linearGradient5779"
       id="linearGradient7263"
       x1="130"
       y1="127"
       x2="136"
       y2="21"
       gradientUnits="userSpaceOnUse" />
    <radialGradient
       inkscape:collect="always"
       xlink:href="#linearGradient5486"
       id="radialGradient7278"
       cx="215.5"
       cy="126.5"
       fx="215.5"
       fy="126.5"
       r="93"
       gradientUnits="userSpaceOnUse"
       gradientTransform="matrix(1.9237282,0,0,1.9237282,-195.69229,-115.35161)" />
    <linearGradient
       inkscape:collect="always"
       xlink:href="#linearGradient5478"
       id="linearGradient7280"
       gradientUnits="userSpaceOnUse"
       x1="98.727234"
       y1="42.150482"
       x2="98.727234"
       y2="164.39177" />
    <linearGradient
       inkscape:collect="always"
       xlink:href="#linearGradient5681"
       id="linearGradient7282"
       gradientUnits="userSpaceOnUse"
       x1="100"
       y1="166.72182"
       x2="100"
       y2="39.739437" />
    <radialGradient
       inkscape:collect="always"
       xlink:href="#linearGradient6139"
       id="radialGradient7285"
       cx="128.1001"
       cy="41.361626"
       fx="128.1001"
       fy="41.361626"
       r="92.518206"
       gradientTransform="matrix(1.1034495,0,0,0.6647087,-11.751883,26.932667)"
       gradientUnits="userSpaceOnUse" />
    <radialGradient
       inkscape:collect="always"
       xlink:href="#linearGradient6139"
       id="radialGradient7287"
       gradientUnits="userSpaceOnUse"
       gradientTransform="matrix(1.8165702,0,0,-2.1318194,-104.60272,289.64588)"
       cx="128.1001"
       cy="36.926102"
       fx="128.1001"
       fy="36.926102"
       r="92.518206" />
    <linearGradient
       y2="147.46704"
       x2="409.03015"
       y1="174.69807"
       x1="409.03015"
       gradientUnits="userSpaceOnUse"
       id="linearGradient6933"
       xlink:href="#linearGradient6692"
       inkscape:collect="always" />
    <linearGradient
       y2="147.46704"
       x2="409.03015"
       y1="174.69807"
       x1="409.03015"
       gradientUnits="userSpaceOnUse"
       id="linearGradient6931"
       xlink:href="#linearGradient6692"
       inkscape:collect="always" />
    <linearGradient
       y2="177.51506"
       x2="395.88181"
       y1="157.09328"
       x1="310.13846"
       gradientUnits="userSpaceOnUse"
       id="linearGradient6929"
       xlink:href="#linearGradient6684"
       inkscape:collect="always" />
    <linearGradient
       y2="147.46704"
       x2="409.03015"
       y1="174.69807"
       x1="409.03015"
       gradientUnits="userSpaceOnUse"
       id="linearGradient6927"
       xlink:href="#linearGradient6692"
       inkscape:collect="always" />
    <linearGradient
       y2="177.51506"
       x2="395.88181"
       y1="157.09328"
       x1="310.13846"
       gradientUnits="userSpaceOnUse"
       id="linearGradient6925"
       xlink:href="#linearGradient6684"
       inkscape:collect="always" />
    <linearGradient
       y2="147.46704"
       x2="409.03015"
       y1="174.69807"
       x1="409.03015"
       gradientUnits="userSpaceOnUse"
       id="linearGradient6923"
       xlink:href="#linearGradient6692"
       inkscape:collect="always" />
    <linearGradient
       y2="177.51506"
       x2="395.88181"
       y1="157.09328"
       x1="310.13846"
       gradientUnits="userSpaceOnUse"
       id="linearGradient6921"
       xlink:href="#linearGradient6684"
       inkscape:collect="always" />
    <linearGradient
       y2="147.46704"
       x2="409.03015"
       y1="174.69807"
       x1="409.03015"
       gradientUnits="userSpaceOnUse"
       id="linearGradient6919"
       xlink:href="#linearGradient6692"
       inkscape:collect="always" />
    <linearGradient
       y2="177.51506"
       x2="395.88181"
       y1="157.09328"
       x1="310.13846"
       gradientUnits="userSpaceOnUse"
       id="linearGradient6917"
       xlink:href="#linearGradient6684"
       inkscape:collect="always" />
    <linearGradient
       y2="147.46704"
       x2="409.03015"
       y1="174.69807"
       x1="409.03015"
       gradientUnits="userSpaceOnUse"
       id="linearGradient6915"
       xlink:href="#linearGradient6692"
       inkscape:collect="always" />
    <linearGradient
       y2="177.51506"
       x2="395.88181"
       y1="157.09328"
       x1="310.13846"
       gradientUnits="userSpaceOnUse"
       id="linearGradient6913"
       xlink:href="#linearGradient6684"
       inkscape:collect="always" />
    <linearGradient
       y2="147.46704"
       x2="409.03015"
       y1="174.69807"
       x1="409.03015"
       gradientUnits="userSpaceOnUse"
       id="linearGradient6911"
       xlink:href="#linearGradient6692"
       inkscape:collect="always" />
    <linearGradient
       y2="177.51506"
       x2="395.88181"
       y1="157.09328"
       x1="310.13846"
       gradientUnits="userSpaceOnUse"
       id="linearGradient6909"
       xlink:href="#linearGradient6684"
       inkscape:collect="always" />
    <linearGradient
       y2="147.46704"
       x2="409.03015"
       y1="174.69807"
       x1="409.03015"
       gradientUnits="userSpaceOnUse"
       id="linearGradient6907"
       xlink:href="#linearGradient6692"
       inkscape:collect="always" />
    <linearGradient
       y2="177.51506"
       x2="395.88181"
       y1="157.09328"
       x1="310.13846"
       gradientUnits="userSpaceOnUse"
       id="linearGradient6905"
       xlink:href="#linearGradient6684"
       inkscape:collect="always" />
    <linearGradient
       y2="147.46704"
       x2="409.03015"
       y1="174.69807"
       x1="409.03015"
       gradientUnits="userSpaceOnUse"
       id="linearGradient6903"
       xlink:href="#linearGradient6692"
       inkscape:collect="always" />
    <linearGradient
       y2="177.51506"
       x2="395.88181"
       y1="157.09328"
       x1="310.13846"
       gradientUnits="userSpaceOnUse"
       id="linearGradient6901"
       xlink:href="#linearGradient6684"
       inkscape:collect="always" />
    <radialGradient
       r="93.5"
       fy="3.5"
       fx="93"
       cy="3.5"
       cx="93"
       gradientUnits="userSpaceOnUse"
       id="radialGradient6817"
       xlink:href="#linearGradient6807"
       inkscape:collect="always" />
    <radialGradient
       gradientUnits="userSpaceOnUse"
       r="93.5"
       fy="3.5"
       fx="93"
       cy="3.5"
       cx="93"
       id="radialGradient6813"
       xlink:href="#linearGradient6807"
       inkscape:collect="always" />
    <radialGradient
       r="26"
       fy="187.76793"
       fx="164.25"
       cy="187.76793"
       cx="164.25"
       gradientTransform="matrix(1.2266314,0,0,0.2485319,272.34909,-113.88511)"
       gradientUnits="userSpaceOnUse"
       id="radialGradient6802"
       xlink:href="#linearGradient5841"
       inkscape:collect="always" />
    <radialGradient
       r="13"
       fy="146.19427"
       fx="98"
       cy="146.19427"
       cx="98"
       gradientTransform="matrix(0.9311654,0,0,0.7431416,320.87937,-195.79894)"
       gradientUnits="userSpaceOnUse"
       id="radialGradient6800"
       xlink:href="#linearGradient5831"
       inkscape:collect="always" />
    <radialGradient
       r="83.063794"
       fy="81.171234"
       fx="40.807701"
       cy="81.171234"
       cx="40.807701"
       gradientTransform="matrix(0.9311654,0,0,0.9920213,316.68913,-232.2523)"
       gradientUnits="userSpaceOnUse"
       id="radialGradient6798"
       xlink:href="#linearGradient5767"
       inkscape:collect="always" />
    <radialGradient
       r="83.063794"
       fy="81.171234"
       fx="40.807701"
       cy="81.171234"
       cx="40.807701"
       gradientTransform="matrix(0.9311654,0,0,0.9920213,316.68913,-232.2523)"
       gradientUnits="userSpaceOnUse"
       id="radialGradient6796"
       xlink:href="#linearGradient5767"
       inkscape:collect="always" />
    <radialGradient
       r="12.438205"
       fy="117.97007"
       fx="158.0618"
       cy="117.97007"
       cx="158.0618"
       gradientTransform="matrix(1.5487879,0,0,0.967699,219.5322,-229.11394)"
       gradientUnits="userSpaceOnUse"
       id="radialGradient6794"
       xlink:href="#linearGradient5755"
       inkscape:collect="always" />
    <radialGradient
       r="59.25"
       fy="38.506714"
       fx="105.75"
       cy="38.506714"
       cx="105.75"
       gradientTransform="matrix(1.2847965,0,0,0.555661,279.75821,-185.14092)"
       gradientUnits="userSpaceOnUse"
       id="radialGradient6792"
       xlink:href="#linearGradient5745"
       inkscape:collect="always" />
    <radialGradient
       r="59.25"
       fy="20.619284"
       fx="89.75"
       cy="20.619284"
       cx="89.75"
       gradientTransform="matrix(1.4973544,0,0,0.5528207,266.33925,-180.49721)"
       gradientUnits="userSpaceOnUse"
       id="radialGradient6790"
       xlink:href="#linearGradient5565"
       inkscape:collect="always" />
    <radialGradient
       r="102"
       fy="293.59906"
       fx="132"
       cy="293.59906"
       cx="132"
       gradientTransform="matrix(1.1252161,0,0,0.5734273,291.54003,-172.5235)"
       gradientUnits="userSpaceOnUse"
       id="radialGradient6788"
       xlink:href="#linearGradient5565"
       inkscape:collect="always" />
    <radialGradient
       r="103.84375"
       fy="37.250149"
       fx="132.01065"
       cy="37.250149"
       cx="132.01065"
       gradientTransform="matrix(0.9311654,0,0,0.8801658,317.15471,-220.00355)"
       gradientUnits="userSpaceOnUse"
       id="radialGradient6786"
       xlink:href="#linearGradient5518"
       inkscape:collect="always" />
    <radialGradient
       r="102"
       fy="293.59906"
       fx="132"
       cy="293.59906"
       cx="132"
       gradientTransform="matrix(0.4812739,0,0,-0.2452646,376.54043,-122.79884)"
       gradientUnits="userSpaceOnUse"
       id="radialGradient6784"
       xlink:href="#linearGradient5565"
       inkscape:collect="always" />
    <linearGradient
       y2="39.739437"
       x2="100"
       y1="166.72182"
       x1="100"
       gradientUnits="userSpaceOnUse"
       id="linearGradient6782"
       xlink:href="#linearGradient5681"
       inkscape:collect="always" />
    <linearGradient
       y2="153.70456"
       x2="148.27702"
       y1="18.832932"
       x1="60.836216"
       gradientUnits="userSpaceOnUse"
       id="linearGradient6780"
       xlink:href="#linearGradient5478"
       inkscape:collect="always" />
    <linearGradient
       y2="164.39177"
       x2="98.727234"
       y1="42.150482"
       x1="98.727234"
       gradientUnits="userSpaceOnUse"
       id="linearGradient6778"
       xlink:href="#linearGradient5478"
       inkscape:collect="always" />
    <linearGradient
       gradientUnits="userSpaceOnUse"
       y2="147.46704"
       x2="409.03015"
       y1="174.69807"
       x1="409.03015"
       id="linearGradient6698"
       xlink:href="#linearGradient6692"
       inkscape:collect="always" />
    <linearGradient
       gradientUnits="userSpaceOnUse"
       y2="177.51506"
       x2="395.88181"
       y1="157.09328"
       x1="310.13846"
       id="linearGradient6690"
       xlink:href="#linearGradient6684"
       inkscape:collect="always" />
    <radialGradient
       r="38.670935"
       fy="-92.591293"
       fx="695.23529"
       cy="-92.591293"
       cx="695.23529"
       gradientTransform="matrix(1.4932927,0,0,1.2526157,-342.95448,17.844423)"
       gradientUnits="userSpaceOnUse"
       id="radialGradient6036"
       xlink:href="#linearGradient5975"
       inkscape:collect="always" />
    <radialGradient
       gradientUnits="userSpaceOnUse"
       gradientTransform="matrix(1.4932927,0,0,1.2526157,-342.95448,17.844423)"
       r="38.670935"
       fy="-92.591293"
       fx="695.23529"
       cy="-92.591293"
       cx="695.23529"
       id="radialGradient5981"
       xlink:href="#linearGradient5975"
       inkscape:collect="always" />
    <radialGradient
       r="92.518206"
       fy="36.926102"
       fx="128.1001"
       cy="36.926102"
       cx="128.1001"
       gradientTransform="matrix(1.8165702,0,0,-2.1318194,-104.60272,289.64588)"
       gradientUnits="userSpaceOnUse"
       id="radialGradient6149"
       xlink:href="#linearGradient6139"
       inkscape:collect="always" />
    <radialGradient
       gradientUnits="userSpaceOnUse"
       gradientTransform="matrix(0.1320268,-2.8899511e-2,6.169099e-2,0.281834,175.55307,56.036224)"
       r="92.518206"
       fy="36.448391"
       fx="255.1118"
       cy="36.448391"
       cx="255.1118"
       id="radialGradient6145"
       xlink:href="#linearGradient6139"
       inkscape:collect="always" />
    <linearGradient
       y2="39.739437"
       x2="100"
       y1="166.72182"
       x1="100"
       gradientUnits="userSpaceOnUse"
       id="linearGradient5624"
       xlink:href="#linearGradient5681"
       inkscape:collect="always" />
    <linearGradient
       y2="164.39177"
       x2="98.727234"
       y1="42.150482"
       x1="98.727234"
       gradientUnits="userSpaceOnUse"
       id="linearGradient5622"
       xlink:href="#linearGradient5478"
       inkscape:collect="always" />
    <radialGradient
       gradientTransform="matrix(1.7617562,0,0,1.4394897,-156.77001,-27.903608)"
       gradientUnits="userSpaceOnUse"
       r="93"
       fy="159.98334"
       fx="214.93239"
       cy="159.98334"
       cx="214.93239"
       id="radialGradient5492"
       xlink:href="#linearGradient5486"
       inkscape:collect="always" />
    <linearGradient
       gradientUnits="userSpaceOnUse"
       y2="21"
       x2="136"
       y1="127"
       x1="130"
       id="linearGradient5785"
       xlink:href="#linearGradient5779"
       inkscape:collect="always" />
    <linearGradient
       gradientUnits="userSpaceOnUse"
       y2="39.739437"
       x2="100"
       y1="166.72182"
       x1="100"
       id="linearGradient5687"
       xlink:href="#linearGradient5681"
       inkscape:collect="always" />
    <clipPath
       id="clipPath5677"
       clipPathUnits="userSpaceOnUse">
      <path
         id="path5679"
         d="M 99.999999,30.15625 C 61.429321,30.15625 30.15625,61.425757 30.15625,100 C 30.15625,138.57424 61.429321,169.84375 99.999999,169.84375 C 138.57068,169.84375 169.84374,138.57424 169.84375,100 C 169.84375,61.425763 138.57068,30.15625 99.999999,30.15625 z M 100.33443,39.828904 C 133.56795,39.828904 160.53125,66.770043 160.53125,100 C 160.53125,133.23353 133.56439,160.1711 100.33443,160.1711 C 82.389612,160.1711 66.287228,152.30637 55.263983,139.84824 C 59.79648,136.33049 67.379614,137.1887 76.718752,138.25328 C 81.194274,138.76243 86.296201,139.34487 91.562158,139.46236 C 106.27405,139.54781 122.10349,136.86276 131.87345,132.59375 C 138.18974,129.82369 142.2338,127.99948 144.76174,125.69941 C 145.67323,124.95171 146.15189,123.70262 146.63968,122.4066 L 146.9741,121.53194 C 147.38356,120.48516 147.97116,118.23268 148.23463,117.00432 C 148.35213,116.46668 148.4098,115.88852 148.02883,115.58943 L 146.6654,115.84669 C 142.37858,118.41735 131.66827,123.31339 121.63484,123.51278 C 109.20165,123.77269 84.142746,110.99635 81.529349,109.64693 L 81.272099,109.33823 C 80.645458,107.84282 76.895333,98.940154 76.101346,97.067335 C 94.138737,108.9451 109.09321,115.51941 120.55439,116.54126 C 133.29735,117.6735 143.23739,110.71627 147.4886,107.74327 C 148.3182,107.17715 148.95227,106.73322 149.21219,106.63709 L 149.49517,106.17403 C 148.79019,101.69494 142.10444,80.020513 137.06992,74.815088 C 135.67421,73.387338 134.56456,71.997838 132.31077,70.673343 C 114.08824,60.052432 70.821318,53.655846 68.795405,53.360326 L 68.460982,53.463225 L 68.332357,53.746201 C 68.332357,53.746201 68.170082,62.730625 68.152279,63.727558 C 66.667554,63.236214 62.063798,61.728958 55.469788,59.920236 C 64.073522,49.274392 77.258818,39.828904 100.33443,39.828904 z M 116.23256,71.676625 C 116.53961,71.672018 116.84957,71.666388 117.15867,71.676625 C 127.36656,72.043352 135.38655,80.64108 135.03764,90.841854 C 134.85605,95.776678 132.77552,100.3362 129.17231,103.70442 C 125.55841,107.09044 120.86144,108.85532 115.89814,108.6951 C 105.70804,108.31413 97.688042,99.716405 98.019162,89.529869 C 98.193631,84.587923 100.28565,79.999104 103.91022,76.641573 C 107.2949,73.467187 111.62686,71.745746 116.23256,71.676625 z M 115.74378,77.130354 C 112.77085,77.311098 109.96536,78.518227 107.76899,80.577521 C 105.26598,82.927439 103.78906,86.109055 103.67869,89.555596 C 103.4437,96.676556 109.01582,102.66919 116.12966,102.93267 C 119.58688,103.03948 122.86633,101.82829 125.39071,99.4855 C 127.90797,97.124901 129.3742,93.914 129.48101,90.481698 C 129.71956,83.350057 124.12172,77.379587 117.00432,77.130354 C 116.5735,77.114333 116.16849,77.104534 115.74378,77.130354 z M 119.1395,83.587366 C 122.30121,83.587366 124.85049,85.305484 124.85048,87.420407 C 124.85048,89.524657 122.30121,91.253449 119.1395,91.253456 C 115.96711,91.253456 113.4028,89.521092 113.4028,87.420407 C 113.4028,85.305484 115.96711,83.587366 119.1395,83.587366 z"
         style="font-size:20.48839951px;fill:#4e9a06;fill-opacity:1;fill-rule:evenodd;stroke:none;stroke-width:3.36292505;stroke-miterlimit:4;stroke-dasharray:none;stroke-opacity:1;font-family:TrebuchetMS-Bold" />
    </clipPath>
    <linearGradient
       gradientUnits="userSpaceOnUse"
       y2="164.39177"
       x2="98.727234"
       y1="42.150482"
       x1="98.727234"
       id="linearGradient5484"
       xlink:href="#linearGradient5478"
       inkscape:collect="always" />
    <linearGradient
       id="linearGradient5478">
      <stop
         id="stop5480"
         offset="0"
         style="stop-color:#3a7202;stop-opacity:1;" />
      <stop
         style="stop-color:#4e9c04;stop-opacity:1;"
         offset="0.69790977"
         id="stop5626" />
      <stop
         id="stop5628"
         offset="0.75"
         style="stop-color:#50a004;stop-opacity:1;" />
      <stop
         id="stop5482"
         offset="1"
         style="stop-color:#7bf508;stop-opacity:1;" />
    </linearGradient>
    <linearGradient
       id="linearGradient5518"
       inkscape:collect="always">
      <stop
         id="stop5520"
         offset="0"
         style="stop-color:#ffffff;stop-opacity:1;" />
      <stop
         id="stop5522"
         offset="1"
         style="stop-color:#ffffff;stop-opacity:0;" />
    </linearGradient>
    <linearGradient
       id="linearGradient5565"
       inkscape:collect="always">
      <stop
         id="stop5567"
         offset="0"
         style="stop-color:#8ae234;stop-opacity:1;" />
      <stop
         id="stop5569"
         offset="1"
         style="stop-color:#8ae234;stop-opacity:0;" />
    </linearGradient>
    <linearGradient
       id="linearGradient5681"
       inkscape:collect="always">
      <stop
         id="stop5683"
         offset="0"
         style="stop-color:#000000;stop-opacity:1;" />
      <stop
         id="stop5685"
         offset="1"
         style="stop-color:#000000;stop-opacity:0.48124999" />
    </linearGradient>
    <linearGradient
       id="linearGradient5745"
       inkscape:collect="always">
      <stop
         id="stop5747"
         offset="0"
         style="stop-color:#ffffff;stop-opacity:1;" />
      <stop
         id="stop5749"
         offset="1"
         style="stop-color:#ffffff;stop-opacity:0;" />
    </linearGradient>
    <linearGradient
       id="linearGradient5755"
       inkscape:collect="always">
      <stop
         id="stop5757"
         offset="0"
         style="stop-color:#ffffff;stop-opacity:1;" />
      <stop
         id="stop5759"
         offset="1"
         style="stop-color:#ffffff;stop-opacity:0;" />
    </linearGradient>
    <linearGradient
       id="linearGradient5767"
       inkscape:collect="always">
      <stop
         id="stop5769"
         offset="0"
         style="stop-color:#ffffff;stop-opacity:1;" />
      <stop
         id="stop5771"
         offset="1"
         style="stop-color:#ffffff;stop-opacity:0;" />
    </linearGradient>
    <linearGradient
       id="linearGradient5779"
       inkscape:collect="always">
      <stop
         id="stop5781"
         offset="0"
         style="stop-color:#73d216;stop-opacity:1;" />
      <stop
         id="stop5783"
         offset="1"
         style="stop-color:#73d216;stop-opacity:0;" />
    </linearGradient>
    <linearGradient
       id="linearGradient5831"
       inkscape:collect="always">
      <stop
         id="stop5833"
         offset="0"
         style="stop-color:#ffffff;stop-opacity:1;" />
      <stop
         id="stop5835"
         offset="1"
         style="stop-color:#ffffff;stop-opacity:0;" />
    </linearGradient>
    <linearGradient
       id="linearGradient5841"
       inkscape:collect="always">
      <stop
         id="stop5843"
         offset="0"
         style="stop-color:#ffffff;stop-opacity:1;" />
      <stop
         id="stop5845"
         offset="1"
         style="stop-color:#ffffff;stop-opacity:0;" />
    </linearGradient>
    <linearGradient
       id="linearGradient5486"
       inkscape:collect="always">
      <stop
         id="stop5488"
         offset="0"
         style="stop-color:#ffffff;stop-opacity:1;" />
      <stop
         id="stop5490"
         offset="1"
         style="stop-color:#ffffff;stop-opacity:0;" />
    </linearGradient>
    <linearGradient
       id="linearGradient6139"
       inkscape:collect="always">
      <stop
         id="stop6141"
         offset="0"
         style="stop-color:#ffffff;stop-opacity:1;" />
      <stop
         id="stop6143"
         offset="1"
         style="stop-color:#ffffff;stop-opacity:0;" />
    </linearGradient>
    <linearGradient
       id="linearGradient5975"
       inkscape:collect="always">
      <stop
         style="stop-color:#6eda08;stop-opacity:1"
         offset="0"
         id="stop5979" />
      <stop
         style="stop-color:#4e9a06;stop-opacity:1;"
         offset="1"
         id="stop5977" />
    </linearGradient>
    <linearGradient
       id="linearGradient6684"
       inkscape:collect="always">
      <stop
         id="stop6686"
         offset="0"
         style="stop-color:#b5b5ad;stop-opacity:1;" />
      <stop
         id="stop6688"
         offset="1"
         style="stop-color:#b5b5ad;stop-opacity:0;" />
    </linearGradient>
    <linearGradient
       id="linearGradient6692"
       inkscape:collect="always">
      <stop
         id="stop6694"
         offset="0"
         style="stop-color:#ffffff;stop-opacity:1;" />
      <stop
         id="stop6696"
         offset="1"
         style="stop-color:#ffffff;stop-opacity:0;" />
    </linearGradient>
    <linearGradient
       id="linearGradient6807"
       inkscape:collect="always">
      <stop
         id="stop6809"
         offset="0"
         style="stop-color:#ffffff;stop-opacity:1;" />
      <stop
         id="stop6811"
         offset="1"
         style="stop-color:#ffffff;stop-opacity:0;" />
    </linearGradient>
    <linearGradient
       id="linearGradient7692"
       inkscape:collect="always">
      <stop
         id="stop7694"
         offset="0"
         style="stop-color:#ffffff;stop-opacity:1;" />
      <stop
         id="stop7696"
         offset="1"
         style="stop-color:#ffffff;stop-opacity:0;" />
    </linearGradient>
    <linearGradient
       id="linearGradient7716"
       inkscape:collect="always">
      <stop
         id="stop7718"
         offset="0"
         style="stop-color:#000000;stop-opacity:0.18674699" />
      <stop
         id="stop7720"
         offset="1"
         style="stop-color:#000000;stop-opacity:0;" />
    </linearGradient>
  </defs>
  <g
     id="g4851"
     inkscape:label="Layer 1"
     transform="matrix(0.24340045,0,0,0.24340045,20.659955,20.659955)"
     style="fill:#73ba25;fill-opacity:1">
    <path
       inkscape:connector-curvature="0"
       id="path2445"
       d="m 100,30.15625 c -38.57068,0 -69.84375,31.269508 -69.84375,69.84375 0,38.57424 31.273072,69.84375 69.84375,69.84375 38.57068,0 69.84374,-31.26951 69.84375,-69.84375 0,-38.57424 -31.27307,-69.84375 -69.84375,-69.84375 z m 0.33443,9.672652 c 33.23352,0 60.19682,26.941143 60.19682,60.171098 0,33.23353 -26.96686,60.1711 -60.19682,60.1711 -17.944821,0 -34.047203,-7.86473 -45.070445,-20.32286 4.532491,-3.51775 12.115629,-2.65954 21.454765,-1.59496 4.475525,0.50915 9.577453,1.09159 14.843405,1.20908 14.711895,0.0855 30.541335,-2.5996 40.311295,-6.86861 6.31629,-2.77006 10.36035,-4.59427 12.88829,-6.89434 0.91149,-0.7477 1.39015,-1.99679 1.87794,-3.29281 l 0.33442,-0.87466 c 0.40946,-1.04678 0.99706,-3.29926 1.26053,-4.52762 0.1175,-0.53764 0.17517,-1.1158 -0.2058,-1.41489 l -1.36343,0.25726 c -4.28682,2.57066 -14.99713,7.4667 -25.03056,7.66609 -12.43319,0.25991 -37.492093,-12.51643 -40.105489,-13.86585 l -0.257252,-0.3087 c -0.626644,-1.49541 -4.376768,-10.39808 -5.170752,-12.270896 18.037389,11.877766 32.991863,18.452076 44.453043,19.473926 12.74296,1.13224 22.683,-5.82499 26.93421,-8.79799 0.8296,-0.56612 1.46367,-1.01005 1.72359,-1.10618 l 0.28298,-0.46306 c -0.70498,-4.47909 -7.39073,-26.153517 -12.42525,-31.35894 -1.39571,-1.427752 -2.50536,-2.81725 -4.75915,-4.141747 C 114.08824,60.052429 70.821318,53.655843 68.795407,53.360325 l -0.334426,0.1029 -0.128626,0.282977 c 0,0 -0.162274,8.984421 -0.180076,9.981353 -1.484722,-0.491344 -6.088485,-1.998597 -12.682493,-3.80732 8.603733,-10.645844 21.789033,-20.091332 44.864644,-20.091333 z m 15.89813,31.847721 c 0.30705,-0.0046 0.61701,-0.01024 0.92611,0 10.20789,0.366729 18.22788,8.964457 17.87897,19.165228 -0.18159,4.934825 -2.26212,9.494349 -5.86533,12.862569 -3.6139,3.38602 -8.31087,5.1509 -13.27417,4.99068 -10.1901,-0.38097 -18.2101,-8.978697 -17.878976,-19.165231 0.174464,-4.941948 2.266486,-9.530764 5.891056,-12.888294 3.38468,-3.174391 7.71664,-4.895833 12.32234,-4.964952 z m -0.48878,5.453729 c -2.97293,0.180743 -5.77842,1.387872 -7.97479,3.447169 -2.50301,2.349915 -3.97993,5.531532 -4.0903,8.978073 -0.23499,7.120959 5.33713,13.113596 12.45097,13.377076 3.45722,0.10681 6.73667,-1.10438 9.26105,-3.447173 2.51726,-2.360599 3.98349,-5.571496 4.0903,-9.003798 0.23855,-7.131643 -5.35929,-13.102113 -12.47669,-13.351347 -0.43082,-0.01602 -0.83583,-0.02582 -1.26054,0 z m 3.39572,6.45701 c 3.16171,0 5.71099,1.718121 5.71098,3.833045 0,2.104248 -2.54927,3.833044 -5.71098,3.833046 -3.17239,0 -5.7367,-1.732365 -5.7367,-3.833046 0,-2.114922 2.56431,-3.833043 5.7367,-3.833045 z"
       style="font-size:20.48839951px;fill:#73ba25;fill-opacity:1;fill-rule:evenodd;stroke:none;font-family:TrebuchetMS-Bold" />
  </g>
  <g
     id="g6117"
     transform="matrix(0.6129282,0,0,0.615551,-146.62265,64.379565)"
     style="fill:#ffffff;fill-opacity:1">
    <path
       inkscape:connector-curvature="0"
       id="path2095"
       d="m 560.78054,141.07184 -0.16152,0 c -0.1867,0 -0.34854,-0.16185 -0.34854,-0.34854 l 0,-2.50132 -0.54768,0.83376 c -0.0621,0.087 -0.17428,0.12426 -0.27368,0.12426 l -0.0625,0 c -0.0994,0 -0.21154,-0.0373 -0.27367,-0.12426 l -0.5601,-0.83376 0,2.50132 c 0,0.18669 -0.16185,0.34854 -0.36097,0.34854 l -0.16154,0 c -0.18669,0 -0.34854,-0.16185 -0.34854,-0.34854 l 0,-2.98687 -1.6803,0 0,2.98687 c 0,0.18669 -0.17427,0.34854 -0.37307,0.34854 l -0.14943,0 c -0.1867,0 -0.34855,-0.16185 -0.34855,-0.34854 l 0,-2.98687 -1.25687,0 c -0.18669,0 -0.33611,-0.12458 -0.33611,-0.32339 l 0,-0.17426 c 0,-0.19913 0.14942,-0.3237 0.33611,-0.3237 l 4.40559,0 c 0.17428,0 0.28611,0.0621 0.34856,0.16185 l 0.83376,1.25687 0.83378,-1.25687 c 0.0621,-0.0873 0.16185,-0.16185 0.34855,-0.16185 l 0.5601,0 0,3.83307 c 0,0.18669 -0.17428,0.34854 -0.3734,0.34854"
       style="fill:#ffffff;fill-opacity:1;stroke:none" />
    <path
       inkscape:connector-curvature="0"
       id="path2097"
       d="m 416.72658,135.83248 c -6.02344,0 -9.35885,5.10236 -9.35885,8.6369 l 0,4.53017 c 0,5.18966 4.24374,8.41293 8.18895,8.41293 l 13.81415,0 c 1.72999,0 2.09096,1.1323 2.09096,2.09063 l 0,2.92474 c 0,0.31096 -0.0497,3.12388 -2.09096,3.12388 l -18.85438,0 c -1.867,0 -3.22327,1.29415 -3.22327,3.07383 l 0,0.80894 c 0,1.76726 1.34385,3.07416 3.22327,3.07416 l 19.88759,0 c 5.18966,0 8.54993,-3.60941 8.54993,-9.20975 l 0,-4.89082 c 0,-5.2521 -3.78337,-7.604 -7.52945,-7.604 l -13.59017,0 c -2.05369,0 -2.97444,-1.51845 -2.97444,-2.61348 l 0,-2.68833 c 0,-1.70482 1.1323,-2.67559 3.12354,-2.67559 l 15.0589,0 c 1.84184,0 3.22328,-1.31931 3.22328,-3.07416 l 0,-0.80893 c 0,-1.74241 -1.4063,-3.07385 -3.28539,-3.07385 l -16.22881,0"
       style="fill:#ffffff;fill-opacity:1;stroke:none" />
    <path
       inkscape:connector-curvature="0"
       id="path2099"
       d="m 473.2655,135.83248 c -1.7797,0 -3.22326,1.44357 -3.22326,3.22326 l 0,23.14815 c 0,1.84181 -1.50601,3.33541 -3.33542,3.33541 l -10.50389,0 c -1.84183,0 -3.33543,-1.4936 -3.33543,-3.33541 l 0,-23.14815 c 0,-1.77969 -1.43113,-3.22326 -3.22326,-3.22326 l -1.02047,0 c -1.79212,0 -3.22327,1.41872 -3.22327,3.22326 l 0,24.03162 c 0,5.58792 4.39317,9.64527 10.45388,9.64527 l 11.22584,0 c 6.06071,0 10.45387,-4.05735 10.45387,-9.64527 l 0,-24.03162 c 0,-1.80454 -1.41871,-3.22326 -3.22326,-3.22326 l -1.02048,0"
       style="fill:#ffffff;fill-opacity:1;stroke:none" />
    <path
       inkscape:connector-curvature="0"
       id="path2101"
       d="m 493.38949,135.83248 c -6.02342,0 -9.35884,5.10236 -9.35884,8.6369 l 0,4.53017 c 0,5.18966 4.25617,8.41293 8.18895,8.41293 l 13.81414,0 c 1.73,0 2.1034,1.1323 2.1034,2.09063 l 0,2.92474 c 0,0.31096 -0.0621,3.12388 -2.1034,3.12388 l -18.85437,0 c -1.86699,0 -3.22327,1.29415 -3.22327,3.07383 l 0,0.80894 c 0,1.76726 1.35628,3.07416 3.22327,3.07416 l 19.87516,0 c 5.20209,0 8.54961,-3.60941 8.54961,-9.20975 l 0,-4.89082 c 0,-5.2521 -3.77061,-7.604 -7.52914,-7.604 l -13.59048,0 c -2.05337,0 -2.97412,-1.51845 -2.97412,-2.61348 l 0,-2.68833 c 0,-1.70482 1.1323,-2.67559 3.11112,-2.67559 l 15.05891,0 c 1.8294,0 3.22327,-1.31931 3.22327,-3.07416 l 0,-0.80893 c 0,-1.74241 -1.4063,-3.07385 -3.29813,-3.07385 l -16.21608,0"
       style="fill:#ffffff;fill-opacity:1;stroke:none" />
    <path
       inkscape:connector-curvature="0"
       id="path2103"
       d="m 525.16212,135.83248 c -1.77938,0 -3.1484,1.319 -3.1484,3.07383 l 0,30.52819 c 0,1.74241 1.319,3.07416 3.08627,3.07416 l 24.33046,0 c 1.86699,0 3.22359,-1.29447 3.22359,-3.07416 l 0,-0.80894 c 0,-1.76726 -1.34417,-3.07383 -3.22359,-3.07383 0,0 -19.02865,0 -19.92487,0 0,-0.7965 0,-6.98179 0,-7.77829 0.89622,0 14.59854,0 14.59854,0 1.86667,0 3.22326,-1.29446 3.22326,-3.08659 l 0,-0.79649 c 0,-1.7797 -1.35659,-3.08627 -3.22326,-3.08627 0,0 -13.70232,0 -14.59854,0 0,-0.79649 0,-7.19334 0,-7.98983 0.89622,0 18.91682,0 18.91682,0 1.867,0 3.22359,-1.29446 3.22359,-3.07416 l 0,-0.80892 c 0,-1.7797 -1.35659,-3.07384 -3.22359,-3.07384 l -23.24753,0"
       style="fill:#ffffff;fill-opacity:1;stroke:none" />
    <path
       inkscape:connector-curvature="0"
       id="path2105"
       d="m 318.3093,150.35583 c -3.03665,0 -5.51327,2.36463 -5.51327,5.28937 l 0,11.51195 c 0,2.96201 2.3895,5.37636 5.3266,5.37636 l 7.44225,0 c 2.93711,0 5.33902,-2.41435 5.33902,-5.37636 l 0,-11.51195 c 0,-2.91231 -2.4766,-5.28937 -5.51326,-5.28937 l -7.08134,0 z m -1.60546,16.35305 0,-10.50358 c 0,-1.23234 1.00808,-2.24039 2.24017,-2.24039 l 5.79949,0 c 1.20721,0 2.24014,1.02079 2.24014,2.24039 l 0,10.50358 c 0,1.23235 -1.00805,2.24038 -2.24014,2.24038 l -5.84929,0 c -1.23208,0 -2.19037,-0.98318 -2.19037,-2.24038"
       style="fill:#ffffff;fill-opacity:1;stroke:none" />
    <path
       inkscape:connector-curvature="0"
       id="path2107"
       d="m 347.77981,150.21914 c -2.15309,0 -3.75857,0.77165 -5.06534,1.39387 -0.78404,0.37309 -1.46852,0.69678 -2.00367,0.69678 -0.22401,0 -0.43559,-0.0994 -0.54761,-0.27368 l -0.48535,-0.94592 c -0.11202,-0.24883 -0.60983,-0.73436 -1.23209,-0.73436 l -0.72182,0 c -0.69693,0 -1.26942,0.62253 -1.26942,1.40628 l 0,29.18433 c 0,0.90832 0.70939,1.63027 1.63033,1.63027 l 0.63471,0 c 0.89606,0 1.63034,-0.73437 1.63034,-1.63027 l 0,-9.68255 c 0,-0.2861 0.18667,-0.58495 0.36091,-0.58495 0.53515,0 1.21963,0.29885 2.01613,0.67225 1.29431,0.58494 2.91222,1.33142 5.06531,1.33142 l 0.67192,0 c 3.79579,0 6.16044,-2.1652 6.16044,-5.65003 l 0,-11.13855 c 0,-3.43482 -2.41435,-5.66247 -6.16044,-5.66247 l -0.68435,0 0,0 0,-0.0124 z m -7.44238,16.26576 0,-10.0432 c 0,-1.38144 1.08276,-2.46436 2.46418,-2.46436 l 5.42615,0 c 1.38145,0 2.46405,1.08292 2.46405,2.46436 l 0,10.0432 c 0,1.35659 -1.09503,2.46436 -2.46405,2.46436 l -5.42615,0 c -1.35654,0 -2.46418,-1.10777 -2.46418,-2.46436"
       style="fill:#ffffff;fill-opacity:1;stroke:none" />
    <path
       inkscape:connector-curvature="0"
       id="path2109"
       d="m 365.651,150.35583 c -3.03657,0 -5.51304,2.36463 -5.51304,5.28937 l 0,11.42465 c 0,2.96201 2.40191,5.47608 5.23936,5.47608 l 7.67887,0 c 0.94561,0 1.63028,-0.64739 1.63028,-1.54329 l 0,-0.49798 c 0,-0.8959 -0.68467,-1.54296 -1.63028,-1.54296 l -6.29743,0 c -1.76727,0 -2.70076,-0.85895 -2.70076,-2.51407 0,0 0,-2.87473 0,-3.33542 0.5104,0 11.37526,0 11.37526,0 1.81697,0 2.912,-1.11987 2.912,-3.01171 l 0,-4.43044 c 0,-2.91232 -2.47647,-5.28907 -5.51304,-5.28907 l -7.16848,0 -0.0127,-0.0252 z m -1.60543,5.79946 c 0,-1.21961 0.95835,-2.19038 2.19037,-2.19038 l 5.98616,0 c 1.23234,0 2.19037,0.95834 2.19037,2.19038 0,0 0,3.099 0,3.55939 -0.48522,0 -9.88135,0 -10.3669,0 0,-0.46039 0,-3.55939 0,-3.55939"
       style="fill:#ffffff;fill-opacity:1;stroke:none" />
    <path
       inkscape:connector-curvature="0"
       id="path2111"
       d="m 394.17581,150.21914 c -2.14066,0 -3.75851,0.75922 -5.05298,1.38145 -0.80892,0.37309 -1.5057,0.7092 -2.0658,0.7092 -0.24882,0 -0.34854,-0.0248 -0.53524,-0.36098 l -0.44795,-0.82135 c -0.24883,-0.51007 -0.68435,-0.77163 -1.28173,-0.77163 l -0.63497,0 c -0.7589,0 -1.30657,0.58493 -1.30657,1.40628 l 0,19.1408 c 0,0.90865 0.72163,1.64302 1.63027,1.64302 l 0.63465,0 c 0.89622,0 1.63027,-0.73437 1.63027,-1.64302 l 0,-14.48606 c 0,-1.35659 1.10777,-2.46436 2.46437,-2.46436 l 5.42606,0 c 1.35659,0 2.46405,1.10777 2.46405,2.46436 l 0,14.48606 c 0,0.90865 0.72194,1.64302 1.63059,1.64302 l 0.63465,0 c 0.8959,0 1.63027,-0.73437 1.63027,-1.64302 l 0,-15.02131 c 0,-3.43481 -2.41435,-5.66246 -6.16044,-5.66246 l -0.68435,0"
       style="fill:#ffffff;fill-opacity:1;stroke:none" />
  </g>
  <g
     id="g4396"
     transform="matrix(0.12770033,0,0,0.12770033,1.9522082,1.9520055)">
    <path
       style="fill:#294172"
       id="voice"
       d="m 266.62575,133.50613 c 0,-73.52485 -59.60353,-133.1303 -133.12783,-133.1303 -73.49124,0 -133.07153,59.5554 -133.12367,133.03642 l 0,103.02105 c 0.03955,16.68433 13.5712,30.19087 30.26602,30.19087 l 102.91165,0 c 73.49975,-0.0288 133.07383,-59.61275 133.07383,-133.11804"
       inkscape:connector-curvature="0" />
    <path
       style="fill:none;stroke:#3c6eb4;stroke-width:29.20999908"
       id="in"
       d="m 77.126289,142.09756 c 0,0 47.844751,0 47.844751,0 0,0 0,47.84478 0,47.84478 0,26.41029 -21.43445,47.84473 -47.844751,47.84473 -26.41031,0 -47.844759,-21.43444 -47.844759,-47.84473 0,-26.41031 21.434449,-47.84478 47.844759,-47.84478 z"
       inkscape:connector-curvature="0" />
    <use
       xlink:href="#in"
       id="finity"
       transform="matrix(-1,0,0,-1,249.71151,284.2882)"
       x="0"
       y="0"
       width="1"
       height="1" />
    <path
       style="fill:#ffffff"
       id="free"
       d="m 139.6074,127.52923 0,62.34618 c 0,34.50402 -27.97537,62.48 -62.48061,62.48 -5.23494,0 -8.95649,-0.59101 -13.80235,-1.8577 -7.06595,-1.84912 -12.84046,-7.64253 -12.84286,-14.38111 0,-8.14513 5.91236,-14.0699 14.75029,-14.0699 4.20637,0 5.73267,0.80765 11.89492,0.80765 18.19161,0 32.94764,-14.73519 32.97955,-32.92679 l 0,-28.65657 c 0,-2.56775 -2.08663,-4.64825 -4.65867,-4.64825 l -21.66521,-0.004 c -8.07212,0 -14.59401,-6.43843 -14.59401,-14.53266 -0.0043,-8.14456 6.5888,-14.55657 14.74808,-14.55657"
       inkscape:connector-curvature="0" />
    <use
       xlink:href="#free"
       id="dom"
       transform="matrix(-1,0,0,-1,249.71152,284.28821)"
       x="0"
       y="0"
       width="1"
       height="1" />
  </g>
</svg>
