<?xml version="1.0" encoding="UTF-8" standalone="no"?>
<!-- Created with Inkscape (http://www.inkscape.org/) -->

<svg
   xmlns:dc="http://purl.org/dc/elements/1.1/"
   xmlns:cc="http://creativecommons.org/ns#"
   xmlns:rdf="http://www.w3.org/1999/02/22-rdf-syntax-ns#"
   xmlns:svg="http://www.w3.org/2000/svg"
   xmlns="http://www.w3.org/2000/svg"
   xmlns:sodipodi="http://sodipodi.sourceforge.net/DTD/sodipodi-0.dtd"
   xmlns:inkscape="http://www.inkscape.org/namespaces/inkscape"
   width="1600"
   height="750.0011"
   id="svg2"
   version="1.1"
   inkscape:version="0.48.2 r9819"
   sodipodi:docname="weblogos.svg"
   inkscape:export-filename="/Users/paul/Desktop/bgb.png"
   inkscape:export-xdpi="57.599998"
   inkscape:export-ydpi="57.599998"
   style="enable-background:new">
  <defs
     id="defs4">
    <inkscape:perspective
       sodipodi:type="inkscape:persp3d"
       inkscape:vp_x="0 : 256 : 1"
       inkscape:vp_y="0 : 1000 : 0"
       inkscape:vp_z="512 : 256 : 1"
       inkscape:persp3d-origin="256 : 170.66667 : 1"
       id="perspective3988" />
    <marker
       style="overflow:visible"
       id="Arrow1Lend"
       refX="0"
       refY="0"
       orient="auto"
       inkscape:stockid="Arrow1Lend">
      <path
         transform="matrix(-0.8,0,0,-0.8,-10,0)"
         style="fill-rule:evenodd;stroke:#000000;stroke-width:1pt;marker-start:none"
         d="M 0,0 5,-5 -12.5,0 5,5 0,0 z"
         id="path4339"
         inkscape:connector-curvature="0" />
    </marker>
    <marker
       style="overflow:visible"
       id="TriangleOutL"
       refX="0"
       refY="0"
       orient="auto"
       inkscape:stockid="TriangleOutL">
      <path
         transform="scale(0.8,0.8)"
         style="fill-rule:evenodd;stroke:#000000;stroke-width:1pt;marker-start:none"
         d="m 5.77,0 -8.65,5 0,-10 8.65,5 z"
         id="path4479"
         inkscape:connector-curvature="0" />
    </marker>
    <filter
       id="filter3186"
       inkscape:label="Desaturate"
       x="0"
       y="0"
       width="1"
       height="1"
       inkscape:menu="Color"
       inkscape:menu-tooltip="Render in shades of gray by reducing saturation to zero"
       color-interpolation-filters="sRGB">
      <feTurbulence
         id="feTurbulence3188"
         type="fractalNoise"
         baseFrequency="0.40000000000000002"
         numOctaves="10"
         seed="406"
         result="fbSourceGraphic" />
      <feColorMatrix
         result="fbSourceGraphicAlpha"
         in="fbSourceGraphic"
         values="0 0 0 -1 0 0 0 0 -1 0 0 0 0 -1 0 0 0 0 1 0"
         id="feColorMatrix3980" />
      <feColorMatrix
         id="feColorMatrix3982"
         type="saturate"
         values="0"
         in="fbSourceGraphic" />
    </filter>
    <filter
       inkscape:collect="always"
       id="filter4024"
       color-interpolation-filters="sRGB">
      <feBlend
         inkscape:collect="always"
         mode="multiply"
         in2="BackgroundImage"
         id="feBlend4026" />
    </filter>
  </defs>
  <sodipodi:namedview
     id="base"
     pagecolor="#ffffff"
     bordercolor="#666666"
     borderopacity="1.0"
     inkscape:pageopacity="0.0"
     inkscape:pageshadow="2"
     inkscape:zoom="0.28389064"
     inkscape:cx="485.27304"
     inkscape:cy="527.8927"
     inkscape:document-units="px"
     inkscape:current-layer="layer1"
     showgrid="false"
     inkscape:window-width="1383"
     inkscape:window-height="856"
     inkscape:window-x="198"
     inkscape:window-y="178"
     inkscape:window-maximized="0"
     showguides="true"
     inkscape:guide-bbox="true"
     fit-margin-top="0"
     fit-margin-left="0"
     fit-margin-right="0"
     fit-margin-bottom="0"
     inkscape:snap-global="false">
    <sodipodi:guide
       orientation="1,0"
       position="400.00003,285.67114"
       id="guide4408" />
    <sodipodi:guide
       orientation="0,1"
       position="-82.024361,400"
       id="guide4410" />
    <sodipodi:guide
       orientation="1,0"
       position="200,365"
       id="guide4486" />
    <sodipodi:guide
       orientation="1,0"
       position="600,353"
       id="guide4488" />
    <sodipodi:guide
       orientation="1,0"
       position="800,226"
       id="guide4490" />
    <sodipodi:guide
       orientation="1,0"
       position="1000,468"
       id="guide4492" />
    <sodipodi:guide
       orientation="1,0"
       position="1400,656"
       id="guide4494" />
    <sodipodi:guide
       orientation="1,0"
       position="1200,704"
       id="guide4496" />
    <sodipodi:guide
       orientation="0,1"
       position="600,600"
       id="guide4498" />
    <sodipodi:guide
       orientation="0,1"
       position="600,200"
       id="guide4500" />
  </sodipodi:namedview>
  <metadata
     id="metadata7">
    <rdf:RDF>
      <cc:Work
         rdf:about="">
        <dc:format>image/svg+xml</dc:format>
        <dc:type
           rdf:resource="http://purl.org/dc/dcmitype/StillImage" />
        <dc:title></dc:title>
      </cc:Work>
    </rdf:RDF>
  </metadata>
  <g
     inkscape:label="Layer 1"
     inkscape:groupmode="layer"
     id="layer1"
     transform="translate(2.5597095e-5,-302.3739)">
    <rect
       style="fill:#000000;fill-opacity:1;fill-rule:evenodd;stroke:none"
       id="rect4484"
       width="1972"
       height="1182"
       x="-239.00311"
       y="49.378113" />
    <g
       id="g3833"
       transform="translate(1202,397.17157)">
      <path
         sodipodi:nodetypes="ccccccccccc"
         inkscape:connector-curvature="0"
         id="path3835"
         transform="translate(-2.5597095e-5,302.3739)"
         d="m 199.6875,27.8125 -33.5625,87.5625 -94.5,4.75 72.93661,59.07642 -26.33831,91.62977 80.3079,-53.14369 79.13296,54.18566 -24.78921,-92.93566 72.94546,-58.97487 -94.08631,-3.18561 z"
         style="fill:#140100;fill-opacity:1;stroke:#280800;stroke-width:2;stroke-miterlimit:4;stroke-opacity:1;stroke-dasharray:none" />
      <path
         style="fill:#000000;fill-opacity:1;stroke:#280800;stroke-width:2;stroke-miterlimit:4;stroke-opacity:1;stroke-dasharray:none"
         d="m 189.53125,81.0625 c 0.34734,0.01204 0.79593,0.09471 1.34375,0.25 5.1671,1.46475 20.52909,9.326818 28.6875,14.46875 16.59312,10.458 27.17092,24.66662 33.25,43.03125 2.73059,8.24897 3.16363,10.94856 3.21875,20.5 0.0717,12.43038 -1.53411,19.2214 -6.25,26.5 l -2.9375,4.5 L 251.375,195 c 2.58718,2.67866 4.27611,5.26153 3.96875,6.0625 -5.10182,5.86493 -9.74586,9.63288 -15.8125,15.0625 l -7.90625,-7.6875 -3.75,1.8125 c -11.84475,5.70905 -23.1196,7.5235 -35.25,5.65625 -10.84898,-1.67001 -18.4348,-5.578 -27.53125,-14.21875 l -7.71875,-7.375 -2.625,3.5 c -4.94212,6.59036 -14.31451,15.86657 -17.625,17.4375 -4.36236,2.07007 -5.73234,1.98326 -8.96875,-0.5625 -6.38696,-5.02399 -5.37308,-12.08824 2.78125,-19.53125 2.91421,-2.66 7.87262,-6.14067 11,-7.71875 3.36287,-1.6969 5.69994,-3.53553 5.71875,-4.5 0.0584,-2.99259 2.55867,-5.12338 6.0625,-5.15625 1.86437,-0.0175 4.27613,-0.6925 5.34375,-1.5 3.10966,-2.35203 4.36896,-1.81868 11.53125,4.8125 9.73682,9.01482 15.98477,12.21324 23.53125,12.0625 5.67441,-0.11334 16.76852,-3.23727 18.8125,-5.28125 -10.88942,-15.02108 -20.52657,-24.07141 -34.5,-39.125 l -6.46875,6.03125 c -3.54367,3.31494 -7.71875,6.03125 -7.71875,6.03125 L 146.625,143 c 0,0 6.86249,-7.34874 15.25,-15.03125 L 177.125,114 l 13.28125,-0.71875 c 11.94007,-0.64289 12.89107,-1.19122 14.65625,0.40625 1.08027,0.97763 2.5625,3.17049 2.5625,4.0625 0,0.892 -3.12611,4.71781 -6.9375,8.5 l -6.9375,6.875 c 12.56431,11.49811 22.83688,25.90148 36,36.6875 1.13748,0.018 3.87573,-6.77681 5,-12.375 3.61054,-17.97819 -10.08878,-41.93607 -38.3125,-66.96875 -6.8919,-6.112689 -9.33761,-9.490512 -6.90625,-9.40625 z"
         transform="translate(-2.5597095e-5,302.3739)"
         id="path3837"
         inkscape:connector-curvature="0"
         sodipodi:nodetypes="ssssscccccccscccsssscssssccccccccsscccsss" />
    </g>
    <g
       id="g4558">
      <path
         style="fill:#140100;fill-opacity:1;stroke:#280800;stroke-width:2;stroke-miterlimit:4;stroke-opacity:1;stroke-dasharray:none"
         d="m 199.6875,27.8125 -33.5625,87.5625 -94.5,4.75 72.93661,59.07642 -26.33831,91.62977 80.3079,-53.14369 79.13296,54.18566 -24.78921,-92.93566 72.94546,-58.97487 -94.08631,-3.18561 z"
         transform="translate(-2.5597095e-5,302.3739)"
         id="path4554"
         inkscape:connector-curvature="0"
         sodipodi:nodetypes="ccccccccccc" />
      <path
         sodipodi:nodetypes="ssssscccccccscccsssscssssccccccccsscccsss"
         inkscape:connector-curvature="0"
         id="path4173"
         transform="translate(-2.5597095e-5,302.3739)"
         d="m 189.53125,81.0625 c 0.34734,0.01204 0.79593,0.09471 1.34375,0.25 5.1671,1.46475 20.52909,9.326818 28.6875,14.46875 16.59312,10.458 27.17092,24.66662 33.25,43.03125 2.73059,8.24897 3.16363,10.94856 3.21875,20.5 0.0717,12.43038 -1.53411,19.2214 -6.25,26.5 l -2.9375,4.5 L 251.375,195 c 2.58718,2.67866 4.27611,5.26153 3.96875,6.0625 -5.10182,5.86493 -9.74586,9.63288 -15.8125,15.0625 l -7.90625,-7.6875 -3.75,1.8125 c -11.84475,5.70905 -23.1196,7.5235 -35.25,5.65625 -10.84898,-1.67001 -18.4348,-5.578 -27.53125,-14.21875 l -7.71875,-7.375 -2.625,3.5 c -4.94212,6.59036 -14.31451,15.86657 -17.625,17.4375 -4.36236,2.07007 -5.73234,1.98326 -8.96875,-0.5625 -6.38696,-5.02399 -5.37308,-12.08824 2.78125,-19.53125 2.91421,-2.66 7.87262,-6.14067 11,-7.71875 3.36287,-1.6969 5.69994,-3.53553 5.71875,-4.5 0.0584,-2.99259 2.55867,-5.12338 6.0625,-5.15625 1.86437,-0.0175 4.27613,-0.6925 5.34375,-1.5 3.10966,-2.35203 4.36896,-1.81868 11.53125,4.8125 9.73682,9.01482 15.98477,12.21324 23.53125,12.0625 5.67441,-0.11334 16.76852,-3.23727 18.8125,-5.28125 -10.88942,-15.02108 -20.52657,-24.07141 -34.5,-39.125 l -6.46875,6.03125 c -3.54367,3.31494 -7.71875,6.03125 -7.71875,6.03125 L 146.625,143 c 0,0 6.86249,-7.34874 15.25,-15.03125 L 177.125,114 l 13.28125,-0.71875 c 11.94007,-0.64289 12.89107,-1.19122 14.65625,0.40625 1.08027,0.97763 2.5625,3.17049 2.5625,4.0625 0,0.892 -3.12611,4.71781 -6.9375,8.5 l -6.9375,6.875 c 12.56431,11.49811 22.83688,25.90148 36,36.6875 1.13748,0.018 3.87573,-6.77681 5,-12.375 3.61054,-17.97819 -10.08878,-41.93607 -38.3125,-66.96875 -6.8919,-6.112689 -9.33761,-9.490512 -6.90625,-9.40625 z"
         style="fill:#000000;fill-opacity:1;stroke:#280800;stroke-width:2;stroke-miterlimit:4;stroke-opacity:1;stroke-dasharray:none" />
    </g>
    <g
       id="g4510"
       transform="translate(-6,3)">
      <path
         sodipodi:nodetypes="ccccccccccccccccccccccccccccccccccccccccccccccccccccccccccccccccccccc"
         inkscape:connector-curvature="0"
         id="path3093"
         d="m 568.68993,915.392 6.51287,-8.4863 8.99845,-7.7667 10.22953,-4.7609 7.15606,0.1958 7.31397,11.5478 3.11492,-1.9865 3.26388,-12.5467 3.92395,-7.1343 6.46556,-6.5096 8.71745,-4.6004 8.49526,9.2703 2.9461,-3.2706 -5.49468,-13.9457 -0.0889,-14.6749 1.47336,-1.4111 11.04088,-0.2141 0.31753,-4.5583 -16.70733,-9.6014 -6.79621,-10.5948 8.04326,-7.9626 -0.21448,-1.9865 -3.86433,2.3342 -19.82227,0 -9.62796,-6.2906 2.0794,-7.3573 -1.98431,-0.5282 -15.25207,14.467 -9.4449,0.1974 -2.05281,-6.398 -3.16163,1.395 -1.05273,13.7283 -8.69688,9.2238 -0.0787,3.4142 5.38033,3.3109 1.98222,11.2569 4.53081,9.9325 0,11.2569 -8.49526,9.6014 4.83116,-10.5251 -0.38329,-9.7683 -6.44432,-7.4379 -6.04975,-1.4444 -7.24527,-6.2504 -0.4834,-7.3975 1.85776,-4.9844 -0.54536,-7.3296 4.10228,-13.5508 8.66114,-6.799 -0.56636,-9.6015 14.44193,-8.6082 17.2737,0.6622 10.26057,-2.7858 11.7098,1.3478 16.82463,12.6949 12.26538,4.0367 10.44313,12.2335 3.79226,8.4074 0.24923,10.8219 6.31279,10.1902 -0.26599,13.3604 -9.04443,19.5708 -3.66705,13.7518 -19.17888,14.3973 -19.40166,7.849 -9.46208,8.0597 -13.66945,4.1268 -16.70734,0.331 z"
         style="fill:#140100;fill-opacity:1;stroke:#280300;stroke-width:2;stroke-miterlimit:4;stroke-opacity:1;stroke-dasharray:none" />
      <path
         inkscape:connector-curvature="0"
         d="m 634.81181,767.27097 74.88793,120.13333 -31.23668,44.6818 -145.77116,0 -31.23668,-44.6818 74.88793,-120.13333 z m 7.60893,-14.04674 -73.68652,0 -83.29781,134.18007 40.04702,58.7286 160.1881,0 40.04702,-58.7286 z"
         style="fill:#140100;fill-opacity:1;stroke:#280300;stroke-width:2;stroke-miterlimit:4;stroke-opacity:1;stroke-dasharray:none"
         id="path5446" />
    </g>
    <path
       id="path6111"
       style="fill:#141200;fill-opacity:1;fill-rule:evenodd;stroke:#282400;stroke-width:2;stroke-linecap:butt;stroke-linejoin:miter;stroke-miterlimit:4;stroke-opacity:1;stroke-dasharray:none"
       d="m 166.85725,817.35919 -16.53766,0.78287 -30.6411,-6.78638 c 2.17824,-4.04198 4.61773,-7.85508 7.3136,-11.40463 z m 23.99227,-12.26492 -9.55349,0.28995 -42.3932,-18.5176 c 1.82739,-1.65213 3.71453,-3.22311 5.58994,-4.76587 z m -32.9261,131.22512 C 120.71031,916.96028 102.34028,875.57781 110.42874,836.31012 l 56.10283,38.08292 11.29046,24.64584 10.71149,5.79899 2.60549,11.88796 -3.18449,5.21904 6.07949,16.81722 0.28949,-14.49759 20.26495,0.28998 14.47498,13.04781 -12.44849,-21.16643 -15.05395,-0.28998 -9.55349,-38.85343 44.58291,10.43826 5.21098,14.49756 -15.34347,2.89957 21.42296,0.28998 13.60648,-19.13682 -10.42199,-20.00714 -34.16091,-20.29653 43.71439,-20.00661 -103.98118,-51.5943 c 25.75821,-13.99095 57.72797,-15.29758 85.6659,-0.76362 44.65965,23.23301 62.2154,78.21842 39.16884,123.35181 -23.4335,45.18758 -78.6889,62.69188 -123.54898,39.35478 z m -4.69886,9.0606 c -49.85632,-25.9364 -69.279961,-87.44216 -43.38392,-137.37623 25.89604,-49.93408 87.30547,-69.38799 137.1618,-43.45159 49.63361,25.82056 69.14462,86.92993 43.53123,137.09005 -26.04336,50.22037 -87.45278,69.67407 -137.30911,43.73777 z"
       inkscape:connector-curvature="0"
       sodipodi:nodetypes="ccccccccccsccccccccccccccccccccccscsssscs" />
    <g
       transform="scale(1.0152588,0.98497054)"
       style="font-size:17.91491699px;font-style:normal;font-variant:normal;font-weight:bold;font-stretch:normal;text-align:start;line-height:125%;letter-spacing:0px;word-spacing:0px;writing-mode:lr-tb;text-anchor:start;fill:#000000;fill-opacity:1;stroke:none;font-family:Sans;-inkscape-font-specification:Sans Bold"
       id="text3979" />
    <g
       id="g4506"
       transform="translate(2.3264747,6.1074286)">
      <path
         sodipodi:nodetypes="ccccccccccccccccccccccccccc"
         inkscape:connector-curvature="0"
         id="rect4387"
         d="m 521.01615,374.4706 54.27731,25.47173 5.19338,-15.25003 16.63639,-8.96736 19.11204,8.58227 3.48792,12.70834 -5.86454,0.69319 0.92424,2.2556 59.63574,-25.41671 11.49803,8.95636 -86.79918,137.63533 0.0845,-33.63633 52.92478,-77.504 -3.73651,-0.041 -49.89277,72.19005 0.76701,-35.88047 24.08969,-29.52386 -52.06574,0 24.90309,29.5208 -0.0651,35.97733 -50.14623,-72.77105 -3.95946,0.088 c 0,0 36.04235,51.90588 54.09731,78.00138 l -0.0151,33.66745 -87.39876,-137.73472 12.31224,-9.02239 z"
         style="fill:#000914;fill-opacity:1;fill-rule:evenodd;stroke:#001328;stroke-width:2;stroke-linejoin:round;stroke-miterlimit:4;stroke-opacity:1;stroke-dasharray:none" />
      <path
         inkscape:connector-curvature="0"
         id="path4372"
         d="m 726.00001,357.70974 -254.93728,0.24205 126.34633,202.54146 128.59095,-202.78351 z m -232.16128,12.81838 209.1322,0 L 597.53009,536.34188 493.83873,370.52812 z"
         style="fill:#000914;fill-opacity:1;stroke:#001328;stroke-width:2;stroke-linecap:butt;stroke-linejoin:miter;stroke-miterlimit:4;stroke-opacity:1;stroke-dasharray:none" />
    </g>
    <path
       sodipodi:nodetypes="ccccccccccsccccccccccccccccccccccscsssscs"
       inkscape:connector-curvature="0"
       d="m 1367.8879,416.42964 -16.5377,0.78287 -30.6411,-6.78638 c 2.1783,-4.04198 4.6178,-7.85508 7.3136,-11.40463 z m 23.9923,-12.26492 -9.5535,0.28995 -42.3932,-18.5176 c 1.8274,-1.65213 3.7145,-3.22311 5.5899,-4.76587 z m -32.9261,131.22512 c -37.2131,-19.35911 -55.5832,-60.74158 -47.4947,-100.00927 l 56.1028,38.08292 11.2905,24.64584 10.7115,5.79899 2.6055,11.88796 -3.1845,5.21904 6.0794,16.81722 0.2895,-14.49759 20.265,0.28998 14.475,13.04781 -12.4485,-21.16643 -15.054,-0.28998 -9.5534,-38.85343 44.5828,10.43826 5.211,14.49756 -15.3435,2.89957 21.423,0.28998 13.6065,-19.13682 -10.422,-20.00714 -34.1609,-20.29653 43.7144,-20.00661 -103.9812,-51.5943 c 25.7582,-13.99095 57.728,-15.29758 85.6659,-0.76362 44.6596,23.23301 62.2154,78.21842 39.1688,123.35181 -23.4335,45.18758 -78.6889,62.69188 -123.5489,39.35478 z m -4.6989,9.0606 c -49.8563,-25.9364 -69.2799,-87.44216 -43.3839,-137.37623 25.896,-49.93408 87.3054,-69.38799 137.1618,-43.45159 49.6336,25.82056 69.1446,86.92993 43.5312,137.09005 -26.0434,50.22037 -87.4528,69.67407 -137.3091,43.73777 z"
       style="fill:#141200;fill-opacity:1;fill-rule:evenodd;stroke:#282400;stroke-width:2;stroke-linecap:butt;stroke-linejoin:miter;stroke-miterlimit:4;stroke-opacity:1;stroke-dasharray:none"
       id="path4514" />
    <g
       transform="translate(395.63665,-398.63665)"
       id="g4516">
      <path
         style="fill:#140100;fill-opacity:1;stroke:#280300;stroke-width:2;stroke-miterlimit:4;stroke-opacity:1;stroke-dasharray:none"
         d="m 568.68993,915.392 6.51287,-8.4863 8.99845,-7.7667 10.22953,-4.7609 7.15606,0.1958 7.31397,11.5478 3.11492,-1.9865 3.26388,-12.5467 3.92395,-7.1343 6.46556,-6.5096 8.71745,-4.6004 8.49526,9.2703 2.9461,-3.2706 -5.49468,-13.9457 -0.0889,-14.6749 1.47336,-1.4111 11.04088,-0.2141 0.31753,-4.5583 -16.70733,-9.6014 -6.79621,-10.5948 8.04326,-7.9626 -0.21448,-1.9865 -3.86433,2.3342 -19.82227,0 -9.62796,-6.2906 2.0794,-7.3573 -1.98431,-0.5282 -15.25207,14.467 -9.4449,0.1974 -2.05281,-6.398 -3.16163,1.395 -1.05273,13.7283 -8.69688,9.2238 -0.0787,3.4142 5.38033,3.3109 1.98222,11.2569 4.53081,9.9325 0,11.2569 -8.49526,9.6014 4.83116,-10.5251 -0.38329,-9.7683 -6.44432,-7.4379 -6.04975,-1.4444 -7.24527,-6.2504 -0.4834,-7.3975 1.85776,-4.9844 -0.54536,-7.3296 4.10228,-13.5508 8.66114,-6.799 -0.56636,-9.6015 14.44193,-8.6082 17.2737,0.6622 10.26057,-2.7858 11.7098,1.3478 16.82463,12.6949 12.26538,4.0367 10.44313,12.2335 3.79226,8.4074 0.24923,10.8219 6.31279,10.1902 -0.26599,13.3604 -9.04443,19.5708 -3.66705,13.7518 -19.17888,14.3973 -19.40166,7.849 -9.46208,8.0597 -13.66945,4.1268 -16.70734,0.331 z"
         id="path4518"
         inkscape:connector-curvature="0"
         sodipodi:nodetypes="ccccccccccccccccccccccccccccccccccccccccccccccccccccccccccccccccccccc" />
      <path
         id="path4520"
         style="fill:#140100;fill-opacity:1;stroke:#280300;stroke-width:2;stroke-miterlimit:4;stroke-opacity:1;stroke-dasharray:none"
         d="m 634.81181,767.27097 74.88793,120.13333 -31.23668,44.6818 -145.77116,0 -31.23668,-44.6818 74.88793,-120.13333 z m 7.60893,-14.04674 -73.68652,0 -83.29781,134.18007 40.04702,58.7286 160.1881,0 40.04702,-58.7286 z"
         inkscape:connector-curvature="0" />
    </g>
    <g
       transform="translate(402.6347,407.15829)"
       id="g4522">
      <path
         style="fill:#000914;fill-opacity:1;fill-rule:evenodd;stroke:#001328;stroke-width:2;stroke-linejoin:round;stroke-miterlimit:4;stroke-opacity:1;stroke-dasharray:none"
         d="m 521.01615,374.4706 54.27731,25.47173 5.19338,-15.25003 16.63639,-8.96736 19.11204,8.58227 3.48792,12.70834 -5.86454,0.69319 0.92424,2.2556 59.63574,-25.41671 11.49803,8.95636 -86.79918,137.63533 0.0845,-33.63633 52.92478,-77.504 -3.73651,-0.041 -49.89277,72.19005 0.76701,-35.88047 24.08969,-29.52386 -52.06574,0 24.90309,29.5208 -0.0651,35.97733 -50.14623,-72.77105 -3.95946,0.088 c 0,0 36.04235,51.90588 54.09731,78.00138 l -0.0151,33.66745 -87.39876,-137.73472 12.31224,-9.02239 z"
         id="path4524"
         inkscape:connector-curvature="0"
         sodipodi:nodetypes="ccccccccccccccccccccccccccc" />
      <path
         style="fill:#000914;fill-opacity:1;stroke:#001328;stroke-width:2;stroke-linecap:butt;stroke-linejoin:miter;stroke-miterlimit:4;stroke-opacity:1;stroke-dasharray:none"
         d="m 726.00001,357.70974 -254.93728,0.24205 126.34633,202.54146 128.59095,-202.78351 z m -232.16128,12.81838 209.1322,0 L 597.53009,536.34188 493.83873,370.52812 z"
         id="path4526"
         inkscape:connector-curvature="0" />
    </g>
    <rect
       style="fill:#272d2c;fill-opacity:0.50196078;stroke:#4a0000;stroke-width:0.52678019;stroke-linejoin:round;stroke-miterlimit:3.98290491;stroke-opacity:1;stroke-dasharray:none"
       id="rect3026"
       width="2166.5483"
       height="1301.0497"
       x="-301.31573"
       y="-24.625204" />
  </g>
  <g
     inkscape:groupmode="layer"
     id="layer3"
     inkscape:label="Noise"
     style="opacity:0.2;display:inline;filter:url(#filter4024)"
     transform="translate(2.5597095e-5,237.9883)" />
</svg>
