<?xml version="1.0" encoding="UTF-8" standalone="no"?>
<!-- Created with Inkscape (http://www.inkscape.org/) -->
<svg xmlns:dc="http://purl.org/dc/elements/1.1/" xmlns:cc="http://creativecommons.org/ns#" xmlns:rdf="http://www.w3.org/1999/02/22-rdf-syntax-ns#" xmlns:svg="http://www.w3.org/2000/svg" xmlns="http://www.w3.org/2000/svg" xmlns:sodipodi="http://sodipodi.sourceforge.net/DTD/sodipodi-0.dtd" xmlns:inkscape="http://www.inkscape.org/namespaces/inkscape" width="500" height="500" id="svg2" version="1.1" inkscape:version="0.48.0 r9654" sodipodi:docname="Nouveau document 1">
  <defs id="defs4"/>
  <sodipodi:namedview id="base" pagecolor="#ffffff" bordercolor="#666666" borderopacity="1.0" inkscape:pageopacity="0.0" inkscape:pageshadow="2" inkscape:zoom="0.35" inkscape:cx="-59.285714" inkscape:cy="405.71429" inkscape:document-units="px" inkscape:current-layer="layer1" showgrid="false" inkscape:window-width="1470" inkscape:window-height="805" inkscape:window-x="351" inkscape:window-y="108" inkscape:window-maximized="0"/>
  <metadata id="metadata7">
    <rdf:RDF>
      <cc:Work rdf:about="">
        <dc:format>image/svg+xml</dc:format>
        <dc:type rdf:resource="http://purl.org/dc/dcmitype/StillImage"/>
        <dc:title/>
      </cc:Work>
    </rdf:RDF>
  </metadata>
  <g inkscape:label="Calque 1" inkscape:groupmode="layer" id="layer1" transform="translate(0,-552.36218)">
    <g id="g3035" transform="translate(-5.3733074,1.9695641)">
      <path inkscape:connector-curvature="0" id="path3033" d="m 197.87868,956.62479 -57.1928,-29.19119 57.4428,-0.25812 c 31.5935,-0.14197 83.27375,-0.14197 114.84493,0 l 57.40215,0.25812 -57.11467,29 c -31.41307,15.95 -57.35651,29.08605 -57.65211,29.19119 -0.2956,0.10517 -26.2743,-12.94484 -57.7303,-29 z" style="fill:#333333;fill-opacity:1"/>
      <path inkscape:connector-curvature="0" id="path3031" d="m 246.58648,903.1836 c -12.6895,-12.7018 -21.1633,-27.61424 -28.3694,-49.92564 -7.8382,-24.26847 -11.6739,-52.8941 -11.5969,-86.54593 l 0.049,-21.27844 24.2013,-24.80511 24.2013,-24.80511 24.83472,24.80511 24.83477,24.80511 -0.52854,26 c -0.73474,36.1442 -3.95314,58.14909 -12.16921,83.20377 -5.06272,15.43861 -11.59491,28.59171 -19.48258,39.22982 -5.30296,7.15213 -15.37806,17.06642 -17.34326,17.06642 -0.4886,0 -4.3725,-3.4875 -8.6309,-7.75 z" style="fill:#333333;fill-opacity:1"/>
      <path inkscape:connector-curvature="0" id="path3029" d="m 72.571376,861.46212 c -38.6517,-32.89865 -54.4042,-46.88945 -54.1707,-48.11243 0.5444,-2.85142 39.8853,-133.46394 40.3352,-133.91392 0.229,-0.22898 23.7982,2.03607 52.376004,5.03345 28.5778,2.99738 53.1989,5.45306 54.7135,5.45708 2.1938,0.006 11.5357,-7.62436 45.9316,-37.5155 23.7477,-20.63753 43.5245,-37.40003 43.9483,-37.24999 0.4239,0.15004 19.94547,16.9228 43.38132,37.27278 30.01372,26.06176 43.40501,37.08254 45.29774,37.27919 1.47792,0.15355 26.28816,-2.19541 55.13387,-5.21992 28.84572,-3.0245 52.54804,-5.39781 52.67183,-5.27402 0.71618,0.71618 40.3849,134.40474 40.15748,135.33572 -0.15184,0.62155 -24.69606,21.88609 -54.54273,47.25457 l -54.26667,46.12447 -19.23333,-0.0876 c -10.57833,-0.0482 -21.43085,-0.38568 -24.11671,-0.75 l -4.88339,-0.6624 57.63339,-47.80539 c 31.69836,-26.29298 57.63338,-48.07759 57.63338,-48.41024 0,-0.63038 -30.05881,-93.37026 -30.57536,-94.3336 -0.16197,-0.30207 -20.91128,1.99733 -46.10957,5.10978 l -45.81507,5.65899 -10,-8.60554 c -5.5,-4.73305 -21.8687,-18.87529 -36.37489,-31.42721 l -26.37489,-22.82167 -2.6251,2.41254 c -1.4438,1.32689 -17.7405,15.47071 -36.2149,31.43071 l -33.5897,29.01817 -42.9103,-5.32678 c -23.6006,-2.92972 -44.351604,-5.34319 -46.113304,-5.36327 -3.1788,-0.0362 -3.2266,0.0373 -6.3143,9.7135 -1.7111,5.3625 -8.4822,26.19149 -15.0469,46.28664 -6.5647,20.09515 -11.9104,37.19515 -11.8795,38 0.031,0.80485 25.9,22.83836 57.486704,48.96337 l 57.4302,47.5 -4.7365,0.66239 c -2.6052,0.36432 -13.5116,0.68303 -24.2366,0.70824 l -19.5,0.0458 -54.500104,-46.38791 z" style="fill:#333333;fill-opacity:1"/>
      <path inkscape:connector-curvature="0" id="path3027" d="m 205.51418,899.76496 c -16.554,-12.86646 -86.6784,-71.55652 -112.207004,-93.91082 l -2.7643,-2.42055 7.6149,-28 c 4.188104,-15.4 7.950204,-28.35811 8.360004,-28.7958 0.4099,-0.43769 14.6544,0.79982 31.6544,2.75 17,1.95019 31.1745,3.5458 31.4989,3.5458 0.3244,0 0.8855,6.50838 1.2469,14.46306 2.2289,49.05155 16.0223,94.90265 39.0975,129.96477 3.5935,5.46029 6.4004,10.06106 6.2376,10.22393 -0.1629,0.16286 -4.9954,-3.35632 -10.7389,-7.8204 z" style="fill:#333333;fill-opacity:1"/>
      <path inkscape:connector-curvature="0" id="path3025" d="m 300.15004,898.3165 c 23.55871,-35.10062 39.42142,-88.39054 39.42142,-132.43413 0,-8.3592 0.37136,-12.94878 1.04774,-12.94878 0.57626,0 15.02851,-1.59775 32.11611,-3.55056 17.0876,-1.95281 31.27226,-3.34666 31.52147,-3.09746 0.46543,0.46543 15.04631,52.77862 15.53995,55.75413 0.44966,2.7104 -108.24432,94.57034 -123.50256,104.37504 -2.28515,1.4684 -1.60187,0.0334 3.85587,-8.09825 z" style="fill:#333333;fill-opacity:1"/>
    </g>
  </g>
</svg>