<?xml version="1.0" encoding="utf-8"?>
<!-- Generator: Adobe Illustrator 17.0.0, SVG Export Plug-In . SVG Version: 6.00 Build 0)  -->
<!DOCTYPE svg PUBLIC "-//W3C//DTD SVG 1.1//EN" "http://www.w3.org/Graphics/SVG/1.1/DTD/svg11.dtd">
<svg version="1.1" id="Layer_1" xmlns="http://www.w3.org/2000/svg" xmlns:xlink="http://www.w3.org/1999/xlink" x="0px" y="0px"
	 width="130px" height="120px" viewBox="0 0 130 120" enable-background="new 0 0 130 120" xml:space="preserve">
<linearGradient id="SVGID_1_" gradientUnits="userSpaceOnUse" x1="-236.6" y1="-325.9" x2="-116.6" y2="-325.9" gradientTransform="matrix(4.489659e-011 -1 -1 -4.489659e-011 -260.9 -116.6)">
	<stop  offset="0" style="stop-color:#005374"/>
	<stop  offset="1" style="stop-color:#0080B0"/>
</linearGradient>
<path fill="url(#SVGID_1_)" stroke="#4A3494" stroke-width="2.6021" d="M119.167,120H10.833c0,0-10.833,0-10.833-10S0,10,0,10
	S0,0,10.833,0s108.333,0,108.333,0S130,0,130,10s0,100,0,100S130,120,119.167,120z"/>
<path display="none" fill="none" enable-background="new    " d="z"/>
<g id="g3035" transform="translate(-5.3733074,1.9695641)">
	<path id="path3033" inkscape:connector-curvature="0" fill="#FFFFFF" stroke="#000006" stroke-width="2.125" d="M60.062,89.05
		l-10.257-5.235l10.302-0.046c5.666-0.025,14.935-0.025,20.597,0l10.295,0.046l-10.243,5.201c-5.634,2.861-10.287,5.216-10.34,5.235
		C70.363,94.27,65.703,91.929,60.062,89.05L60.062,89.05z"/>
	<path id="path3031" inkscape:connector-curvature="0" fill="#FFFFFF" stroke="#000006" stroke-width="2.125" d="M68.797,79.465
		c-2.276-2.278-3.796-4.952-5.088-8.954c-1.406-4.352-2.094-9.486-2.08-15.521l0.009-3.816l4.34-4.449l4.34-4.449l4.454,4.449
		l4.454,4.449l-0.095,4.663c-0.132,6.482-0.709,10.429-2.182,14.922c-0.908,2.769-2.079,5.128-3.494,7.036
		c-0.951,1.283-2.758,3.061-3.11,3.061C70.258,80.855,69.561,80.23,68.797,79.465L68.797,79.465z"/>
	<path id="path3029" inkscape:connector-curvature="0" fill="#FFFFFF" stroke="#000006" stroke-width="2.125" d="M37.589,71.983
		c-6.932-5.9-9.757-8.409-9.715-8.629c0.098-0.511,7.153-23.936,7.234-24.017c0.041-0.041,4.268,0.365,9.393,0.903
		s9.541,0.978,9.813,0.979c0.393,0.001,2.069-1.367,8.238-6.728c4.259-3.701,7.806-6.707,7.882-6.681
		c0.076,0.027,3.577,3.035,7.78,6.685c5.383,4.674,7.784,6.651,8.124,6.686c0.265,0.028,4.715-0.394,9.888-0.936
		c5.173-0.542,9.424-0.968,9.446-0.946c0.128,0.128,7.243,24.105,7.202,24.272c-0.027,0.111-4.429,3.925-9.782,8.475l-9.732,8.272
		l-3.449-0.016c-1.897-0.009-3.843-0.069-4.325-0.135l-0.876-0.119l10.336-8.574c5.685-4.715,10.336-8.622,10.336-8.682
		c0-0.113-5.391-16.745-5.483-16.918c-0.029-0.054-3.75,0.358-8.269,0.916l-8.217,1.015l-1.793-1.543
		c-0.986-0.849-3.922-3.385-6.524-5.636l-4.73-4.093l-0.471,0.433c-0.259,0.238-3.182,2.775-6.495,5.637l-6.024,5.204l-7.696-0.955
		c-4.233-0.525-7.954-0.958-8.27-0.962c-0.57-0.006-0.579,0.007-1.132,1.742c-0.307,0.962-1.521,4.697-2.699,8.301
		c-1.177,3.604-2.136,6.671-2.131,6.815c0.006,0.144,4.645,4.096,10.31,8.781l10.3,8.519l-0.849,0.119
		c-0.467,0.065-2.423,0.122-4.347,0.127l-3.497,0.008L37.589,71.983L37.589,71.983z"/>
	<path id="path3027" inkscape:connector-curvature="0" fill="#FFFFFF" stroke="#000006" stroke-width="2.125" d="M61.431,78.852
		c-2.969-2.308-15.545-12.833-20.124-16.842l-0.496-0.434l1.366-5.022c0.751-2.762,1.426-5.086,1.499-5.164
		c0.074-0.078,2.628,0.143,5.677,0.493s5.591,0.636,5.649,0.636s0.159,1.167,0.224,2.594c0.4,8.797,2.873,17.02,7.012,23.308
		c0.644,0.979,1.148,1.804,1.119,1.834C63.328,80.284,62.461,79.653,61.431,78.852L61.431,78.852z"/>
	<path id="path3025" inkscape:connector-curvature="0" fill="#FFFFFF" stroke="#000006" stroke-width="2.125" d="M78.404,78.592
		c4.225-6.295,7.07-15.852,7.07-23.751c0-1.499,0.067-2.322,0.188-2.322c0.103,0,2.695-0.287,5.76-0.637
		c3.065-0.35,5.608-0.6,5.653-0.556c0.083,0.083,2.698,9.466,2.787,9.999c0.081,0.486-19.413,16.961-22.149,18.719
		C77.302,80.308,77.425,80.051,78.404,78.592L78.404,78.592z"/>
</g>
</svg>
