<?xml version="1.0" encoding="UTF-8" standalone="no"?>
<svg
   xmlns:dc="http://purl.org/dc/elements/1.1/"
   xmlns:cc="http://creativecommons.org/ns#"
   xmlns:rdf="http://www.w3.org/1999/02/22-rdf-syntax-ns#"
   xmlns:svg="http://www.w3.org/2000/svg"
   xmlns="http://www.w3.org/2000/svg"
   xml:space="preserve"
   id="Layer_1"
   viewBox="0 0 31.999999 32.000001"
   height="32"
   width="32"
   version="1.1"><metadata
     id="metadata17"><rdf:RDF><cc:Work
         rdf:about=""><dc:format>image/svg+xml</dc:format><dc:type
           rdf:resource="http://purl.org/dc/dcmitype/StillImage" /><dc:title></dc:title></cc:Work></rdf:RDF></metadata><defs
     id="defs15" /><path
     style="fill:#7289da;fill-opacity:1"
     id="Blue_1_"
     d="m 30.23397,32.000125 c 0.975209,0 1.76603,-0.79082 1.76603,-1.76628 V 1.7660256 C 32,0.79044565 31.209304,-1.2435e-4 30.23397,-1.2435e-4 H 1.7661534 c -0.9755818,0 -1.7661544,0.79057 -1.7661544,1.76614995 V 30.233845 c 0,0.97533 0.7904485,1.76628 1.7661544,1.76628 H 30.23397 z" /><style
     id="style4721">.st0{fill:#7289DA;}</style><path
     id="path4725"
     d="m 21.712328,24.629999 c 0,0 -0.739726,-0.883562 -1.356164,-1.664383 2.691781,-0.760274 3.719178,-2.445206 3.719178,-2.445206 -0.842466,0.554795 -1.643836,0.945206 -2.363014,1.212328 -1.027398,0.431508 -2.013699,0.719179 -2.979452,0.883562 -1.972603,0.369863 -3.780822,0.267124 -5.321918,-0.02055 -1.171233,-0.226028 -2.178082,-0.554796 -3.020548,-0.883562 -0.4726022,-0.184931 -0.986301,-0.410959 -1.4999998,-0.69863 -0.061643,-0.0411 -0.1232871,-0.06164 -0.1849311,-0.10274 -0.041095,-0.02055 -0.061643,-0.0411 -0.082191,-0.06164 -0.3698631,-0.205479 -0.5753428,-0.349315 -0.5753428,-0.349315 0,0 0.9863012,1.643836 3.5958907,2.424657 C 11.027398,23.705343 10.267123,24.63 10.267123,24.63 5.7260274,24.486164 4,21.506712 4,21.506712 4,14.890274 6.9589037,9.527261 6.9589037,9.527261 9.9178087,7.3080811 12.732876,7.3697251 12.732876,7.3697251 l 0.20548,0.246575 C 9.2397265,8.684793 7.5342468,10.308081 7.5342468,10.308081 c 0,0 0.4520548,-0.246575 1.2123286,-0.59589 2.1986306,-0.965754 3.9452056,-1.2328767 4.6643836,-1.2945207 0.123288,-0.020548 0.226027,-0.041095 0.349315,-0.041095 1.253425,-0.1643834 2.671233,-0.2054788 4.150685,-0.041095 1.952055,0.2260277 4.047945,0.8013697 6.184932,1.9726027 0,0 -1.623288,-1.541096 -5.116438,-2.6095894 L 19.267124,7.369726 c 0,0 2.815068,-0.061643 5.773973,2.157534 0,0 2.958903,5.363014 2.958903,11.979452 0,0 -1.746575,2.979452 -6.287671,3.123288 z"
     class="st0"
     style="fill:#ffffff;fill-opacity:0.94117647;stroke-width:0.20547946" /><path
     id="path4723"
     d="m 12.157534,15.034108 c -1.171234,0 -2.095891,1.027398 -2.095891,2.280822 0,1.253425 0.945205,2.280823 2.095891,2.280823 1.171232,0 2.09589,-1.027398 2.09589,-2.280823 0.02055,-1.253424 -0.924658,-2.280822 -2.09589,-2.280822 z m 7.5,0 c -1.171233,0 -2.095891,1.027398 -2.095891,2.280822 0,1.253425 0.945205,2.280823 2.095891,2.280823 1.171232,0 2.09589,-1.027398 2.09589,-2.280823 0,-1.253424 -0.924658,-2.280822 -2.09589,-2.280822 z"
     class="st0"
     style="fill:#7289da;stroke-width:0.20547946" /></svg>