<?xml version="1.0" encoding="UTF-8" standalone="no"?>
<!-- Created with Inkscape (http://www.inkscape.org/) -->

<svg
   xmlns:dc="http://purl.org/dc/elements/1.1/"
   xmlns:cc="http://creativecommons.org/ns#"
   xmlns:rdf="http://www.w3.org/1999/02/22-rdf-syntax-ns#"
   xmlns:svg="http://www.w3.org/2000/svg"
   xmlns="http://www.w3.org/2000/svg"
   version="1.1"
   width="32"
   height="32"
   viewBox="0 0 31.999999 32.000001"
   id="Layer_1"
   xml:space="preserve"><metadata
     id="metadata9"><rdf:RDF><cc:Work
         rdf:about=""><dc:format>image/svg+xml</dc:format><dc:type
           rdf:resource="http://purl.org/dc/dcmitype/StillImage" /><dc:title></dc:title></cc:Work></rdf:RDF></metadata><defs
     id="defs7" /><path
     d="m 30.23397,32.000001 c 0.975209,0 1.76603,-0.79082 1.76603,-1.76628 V 1.7659013 c 0,-0.97558 -0.790696,-1.76615 -1.76603,-1.76615 H 1.7661534 c -0.9755818,0 -1.7661544,0.79057 -1.7661544,1.76615 V 30.233721 c 0,0.97533 0.7904485,1.76628 1.7661544,1.76628 H 30.23397 z"
     id="Blue_1_"
     style="fill:#3c5a99" /><path
     d="m 22.079537,32.000001 v -12.39226 h 4.159477 l 0.622823,-4.82948 h -4.7823 v -3.08332 c 0,-1.39825 0.388271,-2.3511097 2.393323,-2.3511097 l 2.557348,-10e-4 v -4.31953 c -0.442284,-0.0589 -1.960352,-0.19035 -3.726507,-0.19035 -3.687145,0 -6.211464,2.25066 -6.211464,6.3838097 v 3.56162 h -4.170156 v 4.82948 h 4.170156 v 12.39214 h 4.9873 z"
     id="f"
     style="fill:#ffffff" /></svg>