<?xml version="1.0" encoding="UTF-8" standalone="no"?>
<!-- Created with Inkscape (http://www.inkscape.org/) -->

<svg
   xmlns:dc="http://purl.org/dc/elements/1.1/"
   xmlns:cc="http://creativecommons.org/ns#"
   xmlns:rdf="http://www.w3.org/1999/02/22-rdf-syntax-ns#"
   xmlns:svg="http://www.w3.org/2000/svg"
   xmlns="http://www.w3.org/2000/svg"
   xmlns:sodipodi="http://sodipodi.sourceforge.net/DTD/sodipodi-0.dtd"
   xmlns:inkscape="http://www.inkscape.org/namespaces/inkscape"
   version="1.1"
   width="32"
   height="32"
   viewBox="0 0 31.999999 32.000001"
   id="Layer_1"
   xml:space="preserve"
   inkscape:version="0.91 r13725"
   sodipodi:docname="gamereplays.svg"><sodipodi:namedview
     pagecolor="#ffffff"
     bordercolor="#666666"
     borderopacity="1"
     objecttolerance="10"
     gridtolerance="10"
     guidetolerance="10"
     inkscape:pageopacity="0"
     inkscape:pageshadow="2"
     inkscape:window-width="1093"
     inkscape:window-height="822"
     id="namedview9"
     showgrid="false"
     inkscape:zoom="8"
     inkscape:cx="7.7718568"
     inkscape:cy="16.054496"
     inkscape:window-x="1449"
     inkscape:window-y="488"
     inkscape:window-maximized="0"
     inkscape:current-layer="Layer_1"
     showguides="false"
     inkscape:guide-bbox="true" /><metadata
     id="metadata9"><rdf:RDF><cc:Work
         rdf:about=""><dc:format>image/svg+xml</dc:format><dc:type
           rdf:resource="http://purl.org/dc/dcmitype/StillImage" /><dc:title></dc:title></cc:Work></rdf:RDF></metadata><defs
     id="defs7" /><path
     d="m 30.23397,32.000001 c 0.975209,0 1.76603,-0.79082 1.76603,-1.76628 L 32,1.7659013 c 0,-0.97558 -0.790696,-1.76615 -1.76603,-1.76615 l -28.467817,0 c -0.975581,0 -1.766154,0.79057 -1.766154,1.76615 l 0,28.4678197 c 0,0.97533 0.790448,1.76628 1.766154,1.76628 l 28.467817,0 z"
     id="Blue_1_"
     style="fill:#ffffff;fill-opacity:1"
     inkscape:connector-curvature="0" /><style
     type="text/css"
     id="style3036" /><g
     id="g4184" /><path
     style="fill:#595858;fill-opacity:1;fill-rule:evenodd;stroke:none;stroke-width:0.1;stroke-linecap:butt;stroke-linejoin:miter;stroke-miterlimit:4;stroke-dasharray:none;stroke-opacity:0.67142855"
     d="m 2.673828,11.439453 c 3.590509,8.089231 4.87822,9.65398 13.445313,18.927735 l -0.0039,0.0078 c 0.0021,-0.0022 0.0038,-0.0036 0.0059,-0.0059 3.6e-4,-3.9e-4 -3.61e-4,-0.0016 0,-0.002 8.567093,-9.273755 9.854804,-10.838504 13.445312,-18.927735 -1.828677,1.721109 -5.503906,4.648438 -5.503906,4.648438 l -5.880859,9.460937 -2.060547,4.814453 -2.0625,-4.814453 -5.88086,-9.460937 c 0,0 -3.675229,-2.927329 -5.503906,-4.648438 z"
     id="path4241"
     inkscape:connector-curvature="0" /><g
     id="g4161"
     style="fill:#00aaff;fill-opacity:1"><path
       style="fill:#00aaff;fill-opacity:1"
       d="m 2.9140625,2.6386719 c 0.8036342,3.8206948 1.528819,5.5811896 2.4765625,8.3125001 1.0353524,2.951643 2.8059077,6.297206 4.5996094,9.24414 1.8681586,3.162517 6.2597646,10.164063 6.2597646,10.164063 0.05788,0.03056 4.393561,-7.001546 6.26172,-10.164063 1.793701,-2.946933 3.562304,-6.292497 4.597656,-9.24414 0.947744,-2.7313105 1.674882,-4.4918053 2.478516,-8.3125001 0,0 -2.117767,2.7144119 -2.88086,3.703125 -2.814953,3.2270411 -5.473006,4.9651291 -9.724609,6.8222651 l 0.714844,2.083985 c 1.403093,-0.0051 4.382812,0.01563 4.382812,0.01563 l -3.509766,2.599609 1.298829,4.214844 C 18.692894,21.262155 17.350064,20.330856 16.25,19.568359 c -1.084253,0.740374 -2.452328,1.701418 -3.617188,2.509766 l 1.296876,-4.214844 -3.507813,-2.599609 c 0,0 2.977766,-0.02073 4.380859,-0.01563 l 0.714844,-2.083985 C 11.265975,11.306926 8.6079218,9.568838 5.7929688,6.3417969 5.0298765,5.3530838 2.9140625,2.6386719 2.9140625,2.6386719 Z"
       id="path4171"
       inkscape:connector-curvature="0"
       sodipodi:nodetypes="ccccccccccccccccccccc" /></g></svg>