<?xml version="1.0" encoding="UTF-8" standalone="no"?>
<!-- Created with Inkscape (http://www.inkscape.org/) -->

<svg
   xmlns:dc="http://purl.org/dc/elements/1.1/"
   xmlns:cc="http://creativecommons.org/ns#"
   xmlns:rdf="http://www.w3.org/1999/02/22-rdf-syntax-ns#"
   xmlns:svg="http://www.w3.org/2000/svg"
   xmlns="http://www.w3.org/2000/svg"
   version="1.1"
   width="32"
   height="32"
   viewBox="0 0 31.999999 32.000001"
   id="Layer_1"
   xml:space="preserve"><metadata
     id="metadata9"><rdf:RDF><cc:Work
         rdf:about=""><dc:format>image/svg+xml</dc:format><dc:type
           rdf:resource="http://purl.org/dc/dcmitype/StillImage" /><dc:title></dc:title></cc:Work></rdf:RDF></metadata><defs
     id="defs7" /><path
     d="m 30.23397,32.000001 c 0.975209,0 1.76603,-0.79082 1.76603,-1.76628 V 1.7659013 c 0,-0.97558 -0.790696,-1.76615 -1.76603,-1.76615 H 1.7661534 c -0.9755818,0 -1.7661544,0.79057 -1.7661544,1.76615 V 30.233721 c 0,0.97533 0.7904485,1.76628 1.7661544,1.76628 H 30.23397 z"
     id="Blue_1_"
     style="fill:#f4f4f4;fill-opacity:1" /><style
     type="text/css"
     id="style3036" /><g
     transform="matrix(0.05357143,0,0,0.05357143,2.2857134,2.2869826)"
     id="g3038"><path
       d="M 256,32 C 132.3,32 32,134.8 32,261.7 c 0,101.5 64.2,187.5 153.2,217.9 11.2,2.1 15.3,-5 15.3,-11.1 0,-5.5 -0.2,-19.9 -0.3,-39.1 -62.3,13.9 -75.5,-30.8 -75.5,-30.8 C 114.5,372.1 99.8,365 99.8,365 c -20.3,-14.3 1.5,-14 1.5,-14 22.5,1.6 34.3,23.7 34.3,23.7 20,35.1 52.4,25 65.2,19.1 2,-14.8 7.8,-25 14.2,-30.7 -49.7,-5.8 -102,-25.5 -102,-113.5 0,-25.1 8.7,-45.6 23,-61.6 -2.3,-5.8 -10,-29.2 2.2,-60.8 0,0 18.8,-6.2 61.6,23.5 17.9,-5.1 37,-7.6 56.1,-7.7 19,0.1 38.2,2.6 56.1,7.7 42.8,-29.7 61.5,-23.5 61.5,-23.5 12.2,31.6 4.5,55 2.2,60.8 14.3,16.1 23,36.6 23,61.6 0,88.2 -52.4,107.6 -102.3,113.3 8,7.1 15.2,21.1 15.2,42.5 0,30.7 -0.3,55.5 -0.3,63 0,6.1 4,13.3 15.4,11 C 415.9,449.1 480,363.1 480,261.7 480,134.8 379.7,32 256,32 z"
       id="path3040"
       style="fill-rule:evenodd" /></g></svg>