<?xml version="1.0" encoding="UTF-8"?>
<!-- Generator: Adobe Illustrator 15.0.0, SVG Export Plug-In . SVG Version: 6.00 Build 0)  -->
<!DOCTYPE svg PUBLIC "-//W3C//DTD SVG 1.1//EN" "http://www.w3.org/Graphics/SVG/1.1/DTD/svg11.dtd">
<svg version="1.1" id="svg2" xmlns:rdf="http://www.w3.org/1999/02/22-rdf-syntax-ns#" xmlns:cc="http://creativecommons.org/ns#" xmlns:dc="http://purl.org/dc/elements/1.1/" xmlns="http://www.w3.org/2000/svg" xmlns:xlink="http://www.w3.org/1999/xlink" x="0px" y="0px" width="256px" height="256px" viewBox="0 0 256 256" enable-background="new 0 0 256 256" xml:space="preserve">
<path id="rect1942_1_" fill="#DD4B38" d="M209.018,10.505H44.983c-19.599,0-35.487,15.888-35.487,35.487v164.015  c0,19.599,15.888,35.486,35.487,35.486h164.033c19.604,0,35.487-15.888,37.487-34.819V46.66  C244.504,26.394,228.615,10.505,209.018,10.505z"/>
<linearGradient id="SVGID_1_" gradientUnits="userSpaceOnUse" x1="93.9995" y1="1181.167" x2="93.9995" y2="1308.795" gradientTransform="matrix(1 0 0 1 34 -1170)">
	<stop offset="0" style="stop-color:#FFFFFF;stop-opacity:0.85"/>
	<stop offset="0.66" style="stop-color:#FFFFFF;stop-opacity:0"/>
</linearGradient>
<path fill="url(#SVGID_1_)" d="M209.018,10.505H44.983c-19.599,0-35.487,15.889-35.487,35.487v69.409  c36.33,14.751,76.046,22.896,117.671,22.896c42.263,0,82.558-8.395,119.336-23.576V46.66  C244.504,26.394,228.615,10.505,209.018,10.505z"/>
<polygon id="_x2B__3_" fill="#FFFFFF" points="183.615,27.97 202.141,27.97 202.141,71.183 245.51,71.183 245.51,89.32   202.141,89.32 202.141,132.926 183.615,132.926 183.615,89.32 140.404,89.32 140.404,71.183 183.615,71.183 "/>
<path fill="#FFFFFF" d="M107.66,177.771l-12.285-9.555c-3.738-3.088-8.846-7.187-8.846-14.706c0-7.53,5.108-12.331,9.54-16.77  c14.312-11.268,27.649-23.257,27.649-48.562c0-23.098-12.479-36.074-20.848-43.323c2.801,0,20.882,0,20.882,0l19.13-15.433h-72.03  c-17.865,0.328-39.176,3.019-58.605,19.091c-0.909,0.781-1.889,1.7-2.751,2.517v83.348c9.35,7.764,22.037,13.646,37.5,13.646  c3.415,0,7.152-0.352,10.91-0.678c-1.702,4.104-3.41,7.527-3.41,13.342c0,10.595,5.448,17.074,10.218,23.248  c-13.021,0.881-39.776-1.33-55.218,11.017c0,0,0,10.585,0,14.336s0.308,5.339,0.308,5.339c7.033-9.562,17.964-13.833,22.888-15.632  c14.305-4.791,32.721-5.479,35.8-5.479c3.391,0,5.089,0,7.81,0.354c25.908,18.479,44.475,27.978,44.674,45.452  c0.028,3.388-0.928,4.443-1.436,6.176h19.944c2.068-4.807,2.75-10.477,2.75-16.807C142.23,205.082,122.643,190.434,107.66,177.771z   M64.176,134.381c-29.311,0-41.338-33.891-41.338-56.788c0-8.916,0.888-18.135,6.687-25.319c5.46-6.839,14.988-11.282,23.861-11.282  c28.273,0,42.546,38.295,42.546,62.923c0,4.933-2.508,14.579-8.909,21.906C81.425,132.208,72.688,134.381,64.176,134.381z"/>
<g>
	
		<linearGradient id="SVGID_2_" gradientUnits="userSpaceOnUse" x1="93.9995" y1="1308.001" x2="93.9995" y2="1415.5118" gradientTransform="matrix(1 0 0 1 34 -1170)">
		<stop offset="0" style="stop-color:#000000;stop-opacity:0.15"/>
		<stop offset="0.6626" style="stop-color:#000000;stop-opacity:0"/>
	</linearGradient>
	<path fill="url(#SVGID_2_)" d="M9.496,115.401v94.605c0,19.6,15.888,35.486,35.487,35.486h164.033   c19.604,0,35.488-15.889,37.488-34.819v-95.952c-36.779,15.181-77.074,23.576-119.337,23.576   C85.542,138.298,45.825,130.152,9.496,115.401z"/>
</g>
<path fill="none" stroke="#DD4B38" stroke-width="2" stroke-miterlimit="10" d="M246.503,114.721V46.66  c-1.999-20.266-17.888-36.155-37.485-36.155H44.982c-19.599,0-35.486,15.889-35.486,35.487v69.409"/>
<g>
	<g>
		<g>
			<path fill="none" stroke="#B03C2D" stroke-width="2" stroke-miterlimit="10" d="M9.496,115.401v94.605     c0,19.6,15.888,35.486,35.486,35.486h164.034c19.604,0,35.487-15.889,37.487-34.819v-95.952"/>
		</g>
	</g>
</g>
</svg>