<?xml version="1.0" encoding="UTF-8"?>
<!-- Generator: Adobe Illustrator 16.0.0, SVG Export Plug-In . SVG Version: 6.00 Build 0)  -->
<!DOCTYPE svg PUBLIC "-//W3C//DTD SVG 1.1//EN" "http://www.w3.org/Graphics/SVG/1.1/DTD/svg11.dtd">
<svg version="1.1" id="Layer_1" xmlns="http://www.w3.org/2000/svg" xmlns:xlink="http://www.w3.org/1999/xlink" x="0px" y="0px" width="79.37px" height="79.37px" viewBox="0 0 79.37 79.37" enable-background="new 0 0 79.37 79.37" xml:space="preserve">
<path fill="#DD4B38" d="M70.91,1.935h-62c-3.866,0-7.5,1.5-7.5,6.5v64.643c0,3.866,3.634,4.857,7.5,4.857h62  c3.866,0,6.5-0.991,6.5-4.857V8.435C77.41,3.435,74.776,1.935,70.91,1.935z"/>
<polygon id="_x2B__3_" fill="#FFFFFF" points="57.91,7.435 63.91,7.435 63.91,21.435 77.96,21.435 77.96,27.312 63.91,27.312   63.91,41.435 57.91,41.435 57.91,27.312 43.91,27.312 43.91,21.435 57.91,21.435 "/>
<linearGradient id="SVGID_1_" gradientUnits="userSpaceOnUse" x1="23.5156" y1="77.4351" x2="23.5156" y2="7.4355">
	<stop offset="0" style="stop-color:#F2F2F2"/>
	<stop offset="0.2413" style="stop-color:#F6F6F6"/>
	<stop offset="1" style="stop-color:#FFFFFF"/>
</linearGradient>
<path fill="url(#SVGID_1_)" d="M33.71,55.495l-3.979-3.096c-1.212-0.999-2.867-2.328-2.867-4.763c0-2.441,1.655-3.996,3.09-5.434  c4.637-3.65,8.957-7.535,8.957-15.732c0-7.483-4.043-11.686-6.753-14.035c0.909,0,6.765,0,6.765,0l6.198-5H21.787  C15.998,7.542,9.094,8.412,2.801,13.621c-0.295,0.254-0.614,0.549-0.891,0.814v27c3.026,2.516,7.139,4.425,12.148,4.425  c1.106,0,2.316-0.114,3.533-0.223c-0.551,1.331-1.104,2.44-1.104,4.324c0,3.432,1.764,5.533,3.312,7.531  C15.58,57.778,6.91,57.06,1.91,61.06v6.375c2.278-3.097,5.918-4.481,7.513-5.064c4.636-1.553,10.599-1.775,11.597-1.775  c1.098,0,1.65,0,2.53,0.114c8.395,5.985,14.409,9.064,14.472,14.726c0.012,1.097-0.299,1.438-0.463,2h6.463  c0.666-1.556,0.889-3.396,0.889-5.444C44.91,64.344,38.564,59.596,33.71,55.495z M19.623,41.435  c-9.495,0-13.393-10.977-13.393-18.396c0-2.887,0.289-5.873,2.166-8.201c1.77-2.216,4.857-3.656,7.73-3.656  c9.158,0,13.783,12.408,13.783,20.387c0,1.598-0.812,4.722-2.884,7.095C25.21,40.733,22.381,41.435,19.623,41.435z"/>
<g>
</g>
<g>
</g>
<g>
</g>
<g>
</g>
<g>
</g>
<g>
</g>
</svg>