<?xml version="1.0" encoding="UTF-8" standalone="no"?>
<svg
   xmlns:dc="http://purl.org/dc/elements/1.1/"
   xmlns:cc="http://creativecommons.org/ns#"
   xmlns:rdf="http://www.w3.org/1999/02/22-rdf-syntax-ns#"
   xmlns:svg="http://www.w3.org/2000/svg"
   xmlns="http://www.w3.org/2000/svg"
   xml:space="preserve"
   id="Layer_1"
   viewBox="0 0 31.999999 32.000001"
   height="32"
   width="32"
   version="1.1"><metadata
     id="metadata9"><rdf:RDF><cc:Work
         rdf:about=""><dc:format>image/svg+xml</dc:format><dc:type
           rdf:resource="http://purl.org/dc/dcmitype/StillImage" /><dc:title></dc:title></cc:Work></rdf:RDF></metadata><defs
     id="defs7" /><path
     style="fill:#191919;fill-opacity:1"
     id="Blue_1_"
     d="m 30.23397,32.000001 c 0.975209,0 1.76603,-0.79082 1.76603,-1.76628 V 1.7659013 c 0,-0.97558 -0.790696,-1.76615 -1.76603,-1.76615 H 1.7661534 c -0.9755818,0 -1.7661544,0.79057 -1.7661544,1.76615 V 30.233721 c 0,0.97533 0.7904485,1.76628 1.7661544,1.76628 H 30.23397 z" /><style
     id="style3036"
     type="text/css" /><path
     id="path4195"
     d="m 5.8157223,3.7202939 -3.5761582,4.1980988 0,1.1952142 c 0,1.5155141 1.3931469,2.8473991 2.657863,2.8473991 1.5186233,0 2.7839614,-1.280109 2.7841169,-2.7987322 0,1.5186232 1.2216467,2.7987322 2.740426,2.7987322 1.518778,0 2.701554,-1.280109 2.701554,-2.7987322 0,1.5186232 1.299389,2.7987322 2.818168,2.7987322 1.518468,0 2.779297,-1.280109 2.779297,-2.7987322 0,1.5186232 1.226778,2.7987322 2.745246,2.7987322 1.518778,0 2.696734,-1.280109 2.696734,-2.7987322 0,1.5186232 1.30452,2.7987322 2.822988,2.7987322 1.518779,0 2.774477,-1.280109 2.774477,-2.7987322 l 0,-1.2438811 -3.887129,-4.1980988 c -6.786304,-0.018036 -20.0575827,0 -20.0575827,0 z"
     style="fill:#ff5b5b;fill-rule:evenodd;fill-opacity:1" /><path
     id="path4197"
     d="m 7.6824769,11.261323 c -0.1446012,0.258106 -0.3457989,0.478894 -0.5539935,0.686001 -0.5731183,0.570008 -1.3637602,0.92327 -2.2301234,0.92327 -0.2229657,0 -0.7920413,-0.131385 -0.7920413,-0.131385 l 0,15.548514 23.9447113,0 0,-15.635896 c -0.357616,0.140558 -0.658324,0.218612 -1.06414,0.218612 -0.867141,0 -1.65685,-0.352951 -2.230279,-0.923271 -0.207728,-0.207106 -0.385137,-0.442044 -0.529582,-0.699683 -0.144601,0.258105 -0.326519,0.492266 -0.534403,0.699683 -0.573429,0.569542 -1.35894,0.923115 -2.225459,0.923115 -0.866829,0 -1.657005,-0.352951 -2.230278,-0.92327 -0.207729,-0.207107 -0.389957,-0.4422 -0.534403,-0.699683 -0.144601,0.258105 -0.321077,0.492265 -0.529427,0.699683 -0.573429,0.569542 -1.363604,0.923115 -2.230279,0.923115 -0.866674,0 -1.656849,-0.352951 -2.230123,-0.923271 -0.207884,-0.206795 -0.385137,-0.4422 -0.529582,-0.699683 -0.144601,0.258105 -0.325742,0.492421 -0.534247,0.699683 -0.57374,0.570475 -1.360029,0.923737 -2.226081,0.923737 -0.8666742,0 -1.6568496,-0.352951 -2.2301233,-0.92327 C 7.9848955,11.740528 7.8272336,11.518807 7.6826324,11.261323 Z m 3.4439961,2.872588 c 1.044393,0 1.787301,0.676361 2.050538,1.695721 l 5.772386,0 c 0.262769,-1.01936 1.000857,-1.695565 2.045407,-1.695565 1.659026,0 3.482867,1.703495 4.052253,3.78513 l 1.360495,4.970549 c 0.569542,2.081479 -0.323409,3.784975 -1.982435,3.784975 -1.45643,0 -3.039735,-1.312295 -3.789951,-3.04129 l -9.149212,0 c -0.75006,1.728995 -2.3332096,3.04129 -3.7897944,3.04129 -1.6593374,0 -2.5519776,-1.70334 -1.9824355,-3.784975 L 7.074219,17.919197 c 0.5693866,-2.081946 2.3929163,-3.785286 4.052254,-3.785286 z"
     style="fill:#9bdee3;fill-opacity:1" /><path
     id="path4199"
     d="m 14.016475,18.538028 -1.949473,2.091275 1.920553,0 0,2.155957 3.828821,0 0,-2.155957 2.048362,0 -1.949784,-2.091275 -1.949162,-2.091275 z"
     style="fill:#ff3b3b;fill-opacity:1" /><path
     style="fill:#ff9797;fill-opacity:1;fill-rule:evenodd"
     d="m 7.681544,9.162274 c 0,1.518623 1.2216467,2.798732 2.740426,2.798732 1.518778,0 2.701554,-1.280109 2.701554,-2.798732 L 13.838799,3.72 l -4.0114,0 z"
     id="path4214" /><path
     id="path4222"
     d="m 18.720989,9.162274 c 0,1.518623 1.226778,2.798732 2.745246,2.798732 1.518778,0 2.696734,-1.280109 2.696734,-2.798732 L 21.859999,3.72 l -4.01,0 z"
     style="fill:#ff9797;fill-opacity:1;fill-rule:evenodd" /></svg>