<?xml version="1.0" encoding="UTF-8" standalone="no"?>
<!-- Created with Inkscape (http://www.inkscape.org/) -->

<svg
   xmlns:dc="http://purl.org/dc/elements/1.1/"
   xmlns:cc="http://creativecommons.org/ns#"
   xmlns:rdf="http://www.w3.org/1999/02/22-rdf-syntax-ns#"
   xmlns:svg="http://www.w3.org/2000/svg"
   xmlns="http://www.w3.org/2000/svg"
   version="1.1"
   width="32"
   height="32"
   viewBox="0 0 31.999999 32.000001"
   id="Layer_1"
   xml:space="preserve"><metadata
     id="metadata9"><rdf:RDF><cc:Work
         rdf:about=""><dc:format>image/svg+xml</dc:format><dc:type
           rdf:resource="http://purl.org/dc/dcmitype/StillImage" /><dc:title></dc:title></cc:Work></rdf:RDF></metadata><defs
     id="defs7" /><path
     d="m 30.23397,32.000001 c 0.975209,0 1.76603,-0.79082 1.76603,-1.76628 V 1.7659013 c 0,-0.97558 -0.790696,-1.76615 -1.76603,-1.76615 H 1.7661534 c -0.9755818,0 -1.7661544,0.79057 -1.7661544,1.76615 V 30.233721 c 0,0.97533 0.7904485,1.76628 1.7661544,1.76628 H 30.23397 z"
     id="Blue_1_"
     style="fill:#bf4040;fill-opacity:1" /><g
     transform="translate(-220.50128,236.00081)"
     id="Layer_3" /><path
     d="M 14.327027,11.296956 V 5.1199767 c 0,0 -4.6841277,1.2353958 -4.6841277,6.1769793 0,3.706187 3.3459457,4.941583 3.3459457,4.941583 v 10.500865 l 0.669091,0.617697 h 4.684127 l 0.669091,-0.617697 V 16.238539 c 0,0 3.345945,-1.235396 3.345945,-4.941583 0,-4.9415835 -4.684127,-6.1769793 -4.684127,-6.1769793 v 6.1769793 h -3.345945 z"
     id="path3136"
     style="fill:#ffffff;stroke:#000000;stroke-width:1.28579998;stroke-linejoin:round;stroke-miterlimit:4;stroke-opacity:1;stroke-dasharray:none" /><path
     d=""
     id="path3138"
     style="fill:none;stroke:#ff0000;stroke-opacity:1" /></svg>