<?xml version="1.0" encoding="UTF-8" standalone="no"?>
<!-- Created with Inkscape (http://www.inkscape.org/) -->

<svg
   xmlns:dc="http://purl.org/dc/elements/1.1/"
   xmlns:cc="http://creativecommons.org/ns#"
   xmlns:rdf="http://www.w3.org/1999/02/22-rdf-syntax-ns#"
   xmlns:svg="http://www.w3.org/2000/svg"
   xmlns="http://www.w3.org/2000/svg"
   version="1.1"
   width="32"
   height="32"
   viewBox="0 0 31.999999 32.000001"
   id="Layer_1"
   xml:space="preserve"><metadata
     id="metadata9"><rdf:RDF><cc:Work
         rdf:about=""><dc:format>image/svg+xml</dc:format><dc:type
           rdf:resource="http://purl.org/dc/dcmitype/StillImage" /><dc:title></dc:title></cc:Work></rdf:RDF></metadata><defs
     id="defs7" /><path
     d="m 30.23397,32.000001 c 0.975209,0 1.76603,-0.79082 1.76603,-1.76628 V 1.7659013 c 0,-0.97558 -0.790696,-1.76615 -1.76603,-1.76615 H 1.7661534 c -0.9755818,0 -1.7661544,0.79057 -1.7661544,1.76615 V 30.233721 c 0,0.97533 0.7904485,1.76628 1.7661544,1.76628 H 30.23397 z"
     id="Blue_1_"
     style="fill:#cee3f8;fill-opacity:1" /><circle
     cx="49.683998"
     cy="11.836"
     r="2.7019999"
     transform="matrix(0.83898471,0,0,0.83898471,-34.955737,4.7896981)"
     id="circle21800"
     style="fill:#ffffff;stroke:#000000;stroke-width:1.10000002" /><circle
     cx="71.786003"
     cy="11.836"
     r="2.7019999"
     transform="matrix(0.83898471,0,0,0.83898471,-34.955737,4.7896981)"
     id="circle21802"
     style="fill:#ffffff;stroke:#000000;stroke-width:1.10000002" /><path
     d="m 22.28483,6.7629898 c 0,0 0,0 -4.533872,-1.0671885 l -1.666224,5.2671457"
     id="path21804"
     style="fill:none;stroke:#000000;stroke-width:0.92288321;stroke-linecap:round;stroke-linejoin:round" /><circle
     cx="70.431"
     cy="2.789"
     r="2.1300001"
     transform="matrix(0.83898471,0,0,0.83898471,-34.955737,4.7896981)"
     id="circle21808"
     style="fill:#ffffff;stroke:#000000;stroke-width:1.10000002" /><ellipse
     cx="60.675999"
     cy="15.552"
     rx="12.238"
     ry="7.987"
     transform="matrix(0.83898471,0,0,0.83898471,-34.955737,4.7896981)"
     id="ellipse21820"
     style="fill:#ffffff;stroke:#000000;stroke-width:1.10000002" /><g
     transform="matrix(0.83898471,0,0,0.83898471,-34.955737,4.7896981)"
     id="g21824"><path
       d="m 135.90625,159.65625 c -13.67995,0 -25.15625,11.4763 -25.15625,25.15625 0,13.67995 11.4763,24.78125 25.15625,24.78125 13.67995,0 24.78125,-11.1013 24.78125,-24.78125 0,-13.67995 -11.1013,-25.15625 -24.78125,-25.15625 z"
       transform="matrix(0.07946,0,0,0.07946,45.637601,-0.68559946)"
       id="circle21826"
       style="fill:#ff4500;stroke:none" /><path
       d="m 244.46875,159.65625 c -13.68691,0 -25.1875,11.46934 -25.1875,25.15625 0,13.68691 11.50059,24.78125 25.1875,24.78125 13.68692,0 24.78125,-11.09434 24.78125,-24.78125 0,-13.68691 -11.09433,-25.15625 -24.78125,-25.15625 z"
       transform="matrix(0.07946,0,0,0.07946,45.637601,-0.68559946)"
       id="circle21828"
       style="fill:#ff4500;stroke:none" /><path
       d="m 56.507,19.229 c 1.066,1.066 2.786,1.271 4.212,1.271"
       id="path21830"
       style="fill:none;stroke:#000000;stroke-width:1.10000002;stroke-linecap:round" /><path
       d="M 64.963,19.229 C 63.896,20.295 62.177,20.5 60.75,20.5"
       id="path21832"
       style="fill:none;stroke:#000000;stroke-width:1.10000002;stroke-linecap:round" /></g><g
     transform="translate(-220.50128,236.00081)"
     id="Layer_3" /></svg>