<?xml version="1.0" encoding="UTF-8" standalone="no"?>
<svg
   xmlns:dc="http://purl.org/dc/elements/1.1/"
   xmlns:cc="http://creativecommons.org/ns#"
   xmlns:rdf="http://www.w3.org/1999/02/22-rdf-syntax-ns#"
   xmlns:svg="http://www.w3.org/2000/svg"
   xmlns="http://www.w3.org/2000/svg"
   xml:space="preserve"
   id="Layer_1"
   viewBox="0 0 31.999999 32.000001"
   height="32"
   width="32"
   version="1.1"><metadata
     id="metadata17"><rdf:RDF><cc:Work
         rdf:about=""><dc:format>image/svg+xml</dc:format><dc:type
           rdf:resource="http://purl.org/dc/dcmitype/StillImage" /><dc:title></dc:title></cc:Work></rdf:RDF></metadata><defs
     id="defs15"><linearGradient
       gradientUnits="userSpaceOnUse"
       y1="0"
       gradientTransform="matrix(6.7261921,0,0,6.7334167,-680.27365,-583.57066)"
       id="a"
       x2="116.68872"
       x1="116.68872"
       y2="232.87497"><stop
         stop-color="#111D2E"
         offset="0"
         id="stop4207" /><stop
         stop-color="#051839"
         offset=".21248"
         id="stop4209" /><stop
         stop-color="#0A1B48"
         offset=".40695"
         id="stop4211" /><stop
         stop-color="#132E62"
         offset=".58110"
         id="stop4213" /><stop
         stop-color="#144B7E"
         offset=".73760"
         id="stop4215" /><stop
         stop-color="#136497"
         offset=".87279"
         id="stop4217" /><stop
         stop-color="#1387B8"
         offset="1"
         id="stop4219" /></linearGradient></defs><path
     style="fill:#000000;fill-opacity:1"
     id="Blue_1_"
     d="m 30.23397,32.000125 c 0.975209,0 1.76603,-0.79082 1.76603,-1.76628 L 32,1.7660256 C 32,0.79044565 31.209304,-1.2435e-4 30.23397,-1.2435e-4 l -28.467817,0 c -0.975581,0 -1.766154,0.79057 -1.766154,1.76614995 l 0,28.4678194 c 0,0.97533 0.790448,1.76628 1.766154,1.76628 l 28.467817,0 z" /><g
     transform="matrix(0.14859274,0,0,0.14859274,-1.2544787,-1.3110556)"
     id="g4237"><path
       style="fill:#ffffff"
       d="m 110.5,87.322 c 0,0.196 0,0.392 0.01,0.576 L 82.002,129.31 c -4.618,-0.21 -9.252,0.6 -13.646,2.41 -1.937,0.79 -3.752,1.76 -5.455,2.88 l -54.4586108,-22.42112 0,39.66996 L 49.144,168.68 c 2.222,9.93 9.034,18.64 19.084,22.83 16.443,6.87 35.402,-0.96 42.242,-17.41 1.78,-4.3 2.61,-8.81 2.49,-13.31 l 40.79,-29.15 c 0.33,0.01 0.67,0.02 1,0.02 24.41,0 44.25,-19.9 44.25,-44.338 C 199,62.882 179.16,43 154.75,43 130.35,43 110.5,62.882 110.5,87.322 Z m -6.84,83.918 c -5.294,12.71 -19.9,18.74 -32.596,13.45 -5.857,-2.44 -10.279,-6.91 -12.83,-12.24 l 14.405,5.97 c 9.363,3.9 20.105,-0.54 23.997,-9.9 3.904,-9.37 -0.525,-20.13 -9.883,-24.03 l -14.891,-6.17 c 5.746,-2.18 12.278,-2.26 18.381,0.28 6.153,2.56 10.927,7.38 13.457,13.54 2.53,6.16 2.52,12.96 -0.04,19.1 m 51.09,-54.38 c -16.25,0 -29.48,-13.25 -29.48,-29.538 0,-16.275 13.23,-29.529 29.48,-29.529 16.26,0 29.49,13.254 29.49,29.529 0,16.288 -13.23,29.538 -29.49,29.538 M 132.66,87.277 c 0,-12.253 9.92,-22.191 22.14,-22.191 12.23,0 22.15,9.938 22.15,22.191 0,12.254 -9.92,22.183 -22.15,22.183 -12.22,0 -22.14,-9.929 -22.14,-22.183 z"
       id="path4223" /></g></svg>