<?xml version="1.0" encoding="UTF-8"?>
<svg version="1.1" viewBox="0 0 32 32" xmlns="http://www.w3.org/2000/svg" xmlns:cc="http://creativecommons.org/ns#" xmlns:dc="http://purl.org/dc/elements/1.1/" xmlns:rdf="http://www.w3.org/1999/02/22-rdf-syntax-ns#" xmlns:xlink="http://www.w3.org/1999/xlink">
<defs>
<linearGradient id="f" x1="24.312" x2="24.312" y1="22.969" y2="41.031" gradientTransform="matrix(.8 0 0 .8 -3.2 12.026)" gradientUnits="userSpaceOnUse">
<stop stop-color="#fff" offset="0"/>
<stop stop-color="#fff" stop-opacity="0" offset="1"/>
</linearGradient>
<linearGradient id="e" x1="7.6485" x2="41.862" y1="26.437" y2="26.437" gradientTransform="matrix(0 .2964 -.2894 0 23.607 16.96)" gradientUnits="userSpaceOnUse">
<stop stop-color="#fff" offset="0"/>
<stop stop-color="#fff" stop-opacity="0" offset="1"/>
</linearGradient>
<linearGradient id="d" x1="24" x2="24" y1="5" y2="43" gradientTransform="matrix(.8 0 0 .8 -3.2 12.826)" gradientUnits="userSpaceOnUse">
<stop stop-color="#fff" offset="0"/>
<stop stop-color="#fff" stop-opacity="0" offset="1"/>
</linearGradient>
<radialGradient id="b" cx="48.424" cy="-48.028" r="38.213" gradientTransform="matrix(0 .82096 -1.3249 .00075258 -48.078 -24.24)" gradientUnits="userSpaceOnUse">
<stop stop-color="#fafafa" offset="0"/>
<stop stop-color="#e6e6e6" offset="1"/>
</radialGradient>
<radialGradient id="a" cx="9.3331" cy="8.4498" r="20" gradientTransform="matrix(0 1.6383 -2.1928 -6.913e-8 34.529 4.9561)" gradientUnits="userSpaceOnUse">
<stop stop-color="#a3c0d0" offset="0"/>
<stop stop-color="#427da1" offset="1"/>
</radialGradient>
<linearGradient id="c" x1="14.049" x2="14.049" y1="44.137" y2="4" gradientTransform="matrix(.8 0 0 .8 -3.2 12.8)" gradientUnits="userSpaceOnUse">
<stop stop-color="#2e4a5a" offset="0"/>
<stop stop-color="#6e8796" offset="1"/>
</linearGradient>
</defs>
<metadata>
<rdf:RDF>
<cc:Work rdf:about="">
<dc:format>image/svg+xml</dc:format>
<dc:type rdf:resource="http://purl.org/dc/dcmitype/StillImage"/>
<dc:title/>
</cc:Work>
</rdf:RDF>
</metadata>
<g transform="translate(0,-16)">
<rect x=".4" y="16.4" width="31.2" height="31.2" rx="1.7858" ry="1.7858" fill="url(#a)" stroke="url(#c)" stroke-linecap="round" stroke-linejoin="round" stroke-width=".8"/>
<path d="m13.6 17.601a1.6132 1.6132 0 0 0 -1.625 1.625v3.175h-0.925a1.6132 1.6132 0 0 0 -1.2 2.7l4.05 4.6c-0.0505 0.08863-0.14298 0.19682-0.175 0.275-0.15672 0.3826-0.2 0.66922-0.2 0.975v0.1l-0.075-0.075c-0.22254-0.22254-0.47946-0.41981-0.875-0.575-0.19777-0.07759-0.42663-0.1416-0.775-0.125-0.34836 0.0166-0.84324 0.16824-1.175 0.5l-1.225 1.225c-0.33175 0.33175-0.4834 0.82664-0.5 1.175-0.0166 0.34836 0.0474 0.57723 0.125 0.775 0.15519 0.39554 0.35245 0.65246 0.575 0.875l0.075 0.075h-0.1c-0.30577 0-0.59239 0.04328-0.975 0.2-0.1913 0.07835-0.43063 0.17199-0.675 0.425-0.24437 0.25301-0.5 0.73183-0.5 1.225v1.75c0 0.49317 0.25563 0.97199 0.5 1.225 0.24437 0.25301 0.4837 0.34664 0.675 0.425 0.38261 0.15672 0.66922 0.2 0.975 0.2h0.1l-0.075 0.075c-0.22254 0.22254-0.41981 0.47946-0.575 0.875-0.07759 0.19777-0.1416 0.42663-0.125 0.775 0.0166 0.34837 0.16824 0.84325 0.5 1.175l1.225 1.225c0.33175 0.33176 0.82663 0.4834 1.175 0.5 0.34837 0.0166 0.57723-0.0474 0.775-0.125 0.39554-0.15519 0.65246-0.35245 0.875-0.575l0.075-0.075v0.1c0 0.30578 0.04329 0.5924 0.2 0.975 0.07835 0.1913 0.17199 0.43063 0.425 0.675 0.25301 0.24437 0.73183 0.5 1.225 0.5h1.75c0.49317 0 0.97199-0.25563 1.225-0.5 0.25301-0.24437 0.34664-0.4837 0.425-0.675 0.15672-0.3826 0.2-0.66923 0.2-0.975v-0.1l0.075 0.075c0.22254 0.22254 0.47946 0.41981 0.875 0.575 0.19777 0.07759 0.42663 0.1416 0.775 0.125 0.34837-0.0166 0.84325-0.16824 1.175-0.5l1.225-1.225c0.33176-0.33175 0.4834-0.82663 0.5-1.175 0.0166-0.34837-0.0474-0.57723-0.125-0.775-0.15519-0.39554-0.35246-0.65246-0.575-0.875l-0.075-0.075h0.1c0.30578 0 0.5924-0.04329 0.975-0.2 0.1913-0.07835 0.43063-0.17199 0.675-0.425 0.24437-0.25301 0.5-0.73183 0.5-1.225v-1.75c0-0.49317-0.25563-0.97199-0.5-1.225-0.24437-0.25301-0.4837-0.34664-0.675-0.425-0.3826-0.15672-0.66923-0.2-0.975-0.2h-0.1l0.075-0.075c0.22254-0.22254 0.41981-0.47946 0.575-0.875 0.07759-0.19777 0.1416-0.42664 0.125-0.775-0.0166-0.34837-0.16824-0.84325-0.5-1.175l-1.225-1.225c-0.33175-0.33176-0.82663-0.4834-1.175-0.5-0.34837-0.0166-0.57723 0.0474-0.775 0.125-0.39554 0.15519-0.65246 0.35246-0.875 0.575l-0.075 0.075v-0.1c0-0.30578-0.04329-0.5924-0.2-0.975-0.0729-0.17796-0.1825-0.40014-0.4-0.625l3.775-4.25a1.6132 1.6132 0 0 0 -1.2 -2.7h-0.925v-3.175a1.6132 1.6132 0 0 0 -1.625 -1.625zm2.65 19.425c0.34168 0 0.6 0.25832 0.6 0.6 0 0.34168-0.25832 0.6-0.6 0.6-0.34168 0-0.6-0.25832-0.6-0.6 0-0.34167 0.25832-0.6 0.6-0.6z" opacity=".05"/>
<path d="m13.525 18.451a0.77108 0.77108 0 0 0 -0.7 0.775v4.025h-1.775a0.77108 0.77108 0 0 0 -0.575 1.275l4.625 5.225c-0.12705 0.04928-0.27347 0.07608-0.35 0.15-0.13533 0.13071-0.20238 0.25874-0.25 0.375-0.09525 0.23253-0.125 0.4534-0.125 0.675v1.325c-0.20047 0.07186-0.3863 0.15782-0.575 0.25l-0.95-0.95c-0.15972-0.15972-0.33715-0.28168-0.575-0.375-0.11893-0.04666-0.26374-0.08389-0.45-0.075-0.18626 0.0089-0.42866 0.07866-0.6 0.25l-1.225 1.225c-0.17134 0.17134-0.24112 0.41374-0.25 0.6-0.0089 0.18626 0.02834 0.33107 0.075 0.45 0.09332 0.23786 0.21528 0.41528 0.375 0.575l0.95 0.95c-0.09218 0.1887-0.17814 0.37453-0.25 0.575h-1.325c-0.2216 0-0.44247 0.02976-0.675 0.125-0.11627 0.04763-0.24429 0.11467-0.375 0.25-0.13071 0.13533-0.25 0.37122-0.25 0.625v1.75c0 0.25378 0.11929 0.48967 0.25 0.625 0.13071 0.13533 0.25874 0.20238 0.375 0.25 0.23253 0.09525 0.4534 0.125 0.675 0.125h1.325c0.07186 0.20047 0.15782 0.3863 0.25 0.575l-0.95 0.95c-0.15972 0.15972-0.28168 0.33715-0.375 0.575-0.04666 0.11893-0.08389 0.26374-0.075 0.45 0.0089 0.18626 0.07866 0.42866 0.25 0.6l1.225 1.225c0.17134 0.17134 0.41374 0.24112 0.6 0.25 0.18626 0.0089 0.33107-0.02834 0.45-0.075 0.23786-0.09332 0.41528-0.21528 0.575-0.375l0.95-0.95c0.1887 0.09219 0.37453 0.17813 0.575 0.25v1.325c0 0.2216 0.02975 0.44247 0.125 0.675 0.04763 0.11627 0.11467 0.24429 0.25 0.375 0.13533 0.13071 0.37122 0.25 0.625 0.25h1.75c0.25378 0 0.48967-0.11929 0.625-0.25 0.13533-0.13071 0.20238-0.25873 0.25-0.375 0.09524-0.23253 0.125-0.4534 0.125-0.675v-1.325c0.20047-0.07186 0.3863-0.15782 0.575-0.25l0.95 0.95c0.15972 0.15972 0.33715 0.28168 0.575 0.375 0.11893 0.04666 0.26374 0.08389 0.45 0.075 0.18626-0.0089 0.42867-0.07866 0.6-0.25l1.225-1.225c0.17134-0.17134 0.24112-0.41374 0.25-0.6 0.0089-0.18626-0.02834-0.33107-0.075-0.45-0.09332-0.23786-0.21528-0.41528-0.375-0.575l-0.95-0.95c0.09219-0.1887 0.17813-0.37453 0.25-0.575h1.325c0.2216 0 0.44247-0.02975 0.675-0.125 0.11626-0.04763 0.24429-0.11467 0.375-0.25 0.13071-0.13533 0.25-0.37122 0.25-0.625v-1.75c0-0.25378-0.11929-0.48967-0.25-0.625-0.13071-0.13533-0.25873-0.20238-0.375-0.25-0.23253-0.09525-0.4534-0.125-0.675-0.125h-1.325c-0.07186-0.20047-0.15782-0.3863-0.25-0.575l0.95-0.95c0.15972-0.15972 0.28168-0.33714 0.375-0.575 0.04666-0.11893 0.08389-0.26374 0.075-0.45-0.0089-0.18626-0.07866-0.42866-0.25-0.6l-1.225-1.225c-0.17133-0.17134-0.41374-0.24112-0.6-0.25-0.18626-0.0089-0.33107 0.02834-0.45 0.075-0.23786 0.09332-0.41528 0.21528-0.575 0.375l-0.95 0.95c-0.1887-0.09219-0.37453-0.17813-0.575-0.25v-1.325c0-0.2216-0.02975-0.44247-0.125-0.675-0.04763-0.11627-0.11467-0.24429-0.25-0.375-0.13533-0.13071-0.37122-0.25-0.625-0.25h-0.125l4.525-5.125a0.77108 0.77108 0 0 0 -0.575 -1.275h-1.775v-4.025a0.77108 0.77108 0 0 0 -0.775 -0.775h-4.8a0.77108 0.77108 0 0 0 -0.075 0zm2.725 17.725c0.80169 0 1.45 0.64831 1.45 1.45 0 0.80169-0.64831 1.45-1.45 1.45-0.80169 0-1.45-0.64831-1.45-1.45 0-0.80169 0.64831-1.45 1.45-1.45z" opacity=".05"/>
<path d="m13.6 19.226v4.8h-2.55l4.95 5.6 4.95-5.6h-2.55v-4.8zm1.775 11.2c-0.13831 0-0.225 0.23594-0.225 0.525v1.825c-0.55684 0.1268-1.0812 0.3539-1.55 0.65l-1.3-1.3c-0.2044-0.2044-0.4272-0.2978-0.525-0.2l-1.225 1.225c-0.0978 0.09781-0.0045 0.3206 0.2 0.525l1.3 1.3c-0.2961 0.46876-0.5232 0.99316-0.65 1.55h-1.825c-0.28906 0-0.525 0.08669-0.525 0.225v1.75c0 0.13831 0.23594 0.225 0.525 0.225h1.825c0.1268 0.55684 0.3539 1.0812 0.65 1.55l-1.3 1.3c-0.2044 0.2044-0.2978 0.4272-0.2 0.525l1.225 1.225c0.0978 0.09781 0.3206 0.0045 0.525-0.2l1.3-1.3c0.46876 0.2961 0.99316 0.5232 1.55 0.65v1.825c0 0.28906 0.08668 0.525 0.225 0.525h1.75c0.13832 0 0.225-0.23594 0.225-0.525v-1.825c0.55684-0.1268 1.0812-0.3539 1.55-0.65l1.3 1.3c0.2044 0.2044 0.4272 0.2978 0.525 0.2l1.225-1.225c0.09781-0.0978 0.0045-0.3206-0.2-0.525l-1.3-1.3c0.2961-0.46876 0.5232-0.99316 0.65-1.55h1.825c0.28906 0 0.525-0.08669 0.525-0.225v-1.75c0-0.13832-0.23594-0.225-0.525-0.225h-1.825c-0.1268-0.55684-0.3539-1.0812-0.65-1.55l1.3-1.3c0.2044-0.2044 0.2978-0.4272 0.2-0.525l-1.225-1.225c-0.0978-0.0978-0.3206-0.0045-0.525 0.2l-1.3 1.3c-0.46876-0.2961-0.99316-0.5232-1.55-0.65v-1.825c0-0.28906-0.08668-0.525-0.225-0.525zm0.875 4.975c1.2229 0 2.225 1.0021 2.225 2.225 0 1.2229-1.0021 2.225-2.225 2.225-1.2229 0-2.225-1.0021-2.225-2.225 0-1.2229 1.0021-2.225 2.225-2.225z" fill="url(#b)"/>
<rect x="1.2" y="17.226" width="29.6" height="29.6" rx="1.0922" ry="1.0922" fill="none" opacity=".4" stroke="url(#d)" stroke-linecap="round" stroke-linejoin="round" stroke-width=".8"/>
<path d="m19.941 24.399-3.9411 4.5687-4.0295-4.5421h2.0295v-4.8h4v4.8l1.9411-0.02668z" fill="none" stroke="url(#e)" stroke-width=".79864"/>
<path d="m15.55 30.801c-0.0093 0.04305-0.025 0.08016-0.025 0.15v1.825a0.38548 0.38548 0 0 1 -0.3 0.375c-0.51077 0.11631-0.99074 0.32569-1.425 0.6a0.38548 0.38548 0 0 1 -0.475 -0.05l-1.3-1.3c-0.04268-0.04267-0.06685-0.05305-0.1-0.075l-0.975 0.975c0.02194 0.03315 0.03233 0.05732 0.075 0.1l1.3 1.3a0.38548 0.38548 0 0 1 0.05 0.475c-0.27431 0.43426-0.48369 0.91423-0.6 1.425a0.38548 0.38548 0 0 1 -0.375 0.3h-1.825c-0.06984 0-0.10696 0.01568-0.15 0.025v1.4c0.04305 0.0093 0.08016 0.025 0.15 0.025h1.825a0.38548 0.38548 0 0 1 0.375 0.3c0.11631 0.51077 0.32569 0.99074 0.6 1.425a0.38548 0.38548 0 0 1 -0.05 0.475l-1.3 1.3c-0.04267 0.04268-0.05306 0.06685-0.075 0.1l0.975 0.975c0.03315-0.02195 0.05732-0.03233 0.1-0.075l1.3-1.3a0.38548 0.38548 0 0 1 0.475 -0.05c0.43426 0.27431 0.91422 0.48369 1.425 0.6a0.38548 0.38548 0 0 1 0.3 0.375v1.825c0 0.06984 0.01567 0.10696 0.025 0.15h1.4c0.0092-0.04304 0.025-0.08017 0.025-0.15v-1.825a0.38548 0.38548 0 0 1 0.3 -0.375c0.51078-0.11631 0.99074-0.32569 1.425-0.6a0.38548 0.38548 0 0 1 0.475 0.04999l1.3 1.3c0.04268 0.04267 0.06685 0.05305 0.1 0.075l0.975-0.975c-0.02195-0.03315-0.03233-0.05732-0.075-0.1l-1.3-1.3a0.38548 0.38548 0 0 1 -0.04999 -0.475c0.27431-0.43426 0.48369-0.91423 0.6-1.425a0.38548 0.38548 0 0 1 0.375 -0.3h1.825c0.06984 0 0.10696-0.01567 0.15-0.025v-1.4c-0.04304-0.0093-0.08016-0.025-0.15-0.025h-1.825a0.38548 0.38548 0 0 1 -0.375 -0.29998c-0.11631-0.51078-0.32569-0.99074-0.6-1.425a0.38548 0.38548 0 0 1 0.04999 -0.475l1.3-1.3c0.04267-0.04267 0.05307-0.06685 0.075-0.1l-0.975-0.975c-0.03315 0.02195-0.05732 0.03233-0.1 0.075l-1.3 1.3a0.38548 0.38548 0 0 1 -0.475 0.04999c-0.43425-0.27428-0.91422-0.48367-1.425-0.59997a0.38548 0.38548 0 0 1 -0.3 -0.375v-1.825c0-0.06984-0.01567-0.10696-0.025-0.15zm0.7 4.225c1.4335 0 2.6 1.1665 2.6 2.6 0 1.4335-1.1665 2.6-2.6 2.6-1.4335 0-2.6-1.1665-2.6-2.6 0-1.4335 1.1665-2.6 2.6-2.6z" fill="none" stroke="url(#f)" stroke-width=".8"/>
</g>
</svg>
