<?xml version="1.0" encoding="UTF-8"?>
<svg version="1.1" viewBox="0 0 24 24" xmlns="http://www.w3.org/2000/svg" xmlns:cc="http://creativecommons.org/ns#" xmlns:dc="http://purl.org/dc/elements/1.1/" xmlns:rdf="http://www.w3.org/1999/02/22-rdf-syntax-ns#">
<metadata>
<rdf:RDF>
<cc:Work rdf:about="">
<dc:format>image/svg+xml</dc:format>
<dc:type rdf:resource="http://purl.org/dc/dcmitype/StillImage"/>
<dc:title/>
</cc:Work>
</rdf:RDF>
</metadata>
<path d="m11.998 1c-0.97939 2.4007-1.5701 3.9711-2.6605 6.3005 0.66856 0.70854 1.4892 1.5337 2.8219 2.4656-1.4328-0.58947-2.4101-1.1813-3.1405-1.7954-1.3955 2.9114-3.5819 7.0586-8.0188 15.029 3.4872-2.0129 6.1905-3.2538 8.7098-3.7273-0.10818-0.46519-0.16968-0.96839-0.16551-1.4934l0.0041-0.1117c0.05533-2.2338 1.2176-3.9515 2.5943-3.8349s2.4469 2.0231 2.3916 4.2569c-0.01041 0.42032-0.05783 0.82467-0.14068 1.1997 2.4919 0.48738 5.1663 1.7252 8.6064 3.7108-0.67832-1.2486-1.2838-2.3741-1.862-3.446-0.91074-0.70575-1.8607-1.6243-3.7984-2.6187 1.3319 0.34601 2.2855 0.74521 3.0288 1.1914-5.8786-10.943-6.3546-12.397-8.3705-17.127z" fill="#1793d1" fill-rule="evenodd"/>
</svg>
