<?xml version="1.0" encoding="UTF-8" standalone="no"?>
<!-- Created with Inkscape (http://www.inkscape.org/) -->

<svg
   xmlns:dc="http://purl.org/dc/elements/1.1/"
   xmlns:cc="http://creativecommons.org/ns#"
   xmlns:rdf="http://www.w3.org/1999/02/22-rdf-syntax-ns#"
   xmlns:svg="http://www.w3.org/2000/svg"
   xmlns="http://www.w3.org/2000/svg"
   version="1.1"
   width="64"
   height="64"
   id="svg2985">
  <defs
     id="defs7" />
  <metadata
     id="metadata2991">
    <rdf:RDF>
      <cc:Work
         rdf:about="">
        <dc:format>image/svg+xml</dc:format>
        <dc:type
           rdf:resource="http://purl.org/dc/dcmitype/StillImage" />
        <dc:title></dc:title>
      </cc:Work>
    </rdf:RDF>
  </metadata>
  <path
     d="m 31.994825,4.31747 c -2.448465,6.05642 -3.925261,10.01803 -6.651306,15.894415 1.671407,1.787462 3.722981,3.869049 7.054729,6.220007 C 28.816291,24.94482 26.372959,23.451833 24.547017,21.902558 21.058199,29.247315 15.592225,39.709593 4.5,59.81747 c 8.718116,-5.077921 15.476244,-8.208513 21.774495,-9.403065 -0.27045,-1.173553 -0.424211,-2.442979 -0.413767,-3.767488 l 0.01035,-0.281779 c 0.138336,-5.635183 3.043891,-9.96864 6.4858,-9.674408 3.44191,0.294233 6.117269,5.10372 5.978935,10.738906 -0.02602,1.060364 -0.144568,2.080421 -0.351703,3.026514 6.22987,1.22952 12.915734,4.352098 21.515891,9.36132 -1.695788,-3.149846 -3.209421,-5.989201 -4.654886,-8.6934 -2.276841,-1.780412 -4.651699,-4.097624 -9.495955,-6.606149 3.329663,0.872888 5.713661,1.879969 7.571938,3.005641 C 38.224658,19.917803 37.034562,16.249568 31.994825,4.31747 z"
     id="path2518"
     style="fill:#1793d1;fill-opacity:1;fill-rule:evenodd;stroke:none" />
</svg>
