<?xml version="1.0" encoding="UTF-8" standalone="no"?>
<!-- Created with Inkscape (http://www.inkscape.org/) -->

<svg
   xmlns:dc="http://purl.org/dc/elements/1.1/"
   xmlns:cc="http://creativecommons.org/ns#"
   xmlns:rdf="http://www.w3.org/1999/02/22-rdf-syntax-ns#"
   xmlns:svg="http://www.w3.org/2000/svg"
   xmlns="http://www.w3.org/2000/svg"
   xmlns:sodipodi="http://sodipodi.sourceforge.net/DTD/sodipodi-0.dtd"
   xmlns:inkscape="http://www.inkscape.org/namespaces/inkscape"
   width="64"
   height="64"
   id="svg3604"
   sodipodi:version="0.32"
   inkscape:version="0.91 r13725"
   sodipodi:docname="exherbo.svg"
   inkscape:output_extension="org.inkscape.output.svg.inkscape"
   inkscape:export-filename="/home/ajp/exherbo3.png"
   inkscape:export-xdpi="43.599186"
   inkscape:export-ydpi="43.599186"
   version="1.0">
  <defs
     id="defs3606" />
  <sodipodi:namedview
     id="base"
     pagecolor="#ffffff"
     bordercolor="#666666"
     borderopacity="1.0"
     gridtolerance="10000"
     guidetolerance="10"
     objecttolerance="10"
     inkscape:pageopacity="0.0"
     inkscape:pageshadow="2"
     inkscape:zoom="5.6568542"
     inkscape:cx="84.797505"
     inkscape:cy="40.718254"
     inkscape:document-units="px"
     inkscape:current-layer="layer1"
     inkscape:window-width="1916"
     inkscape:window-height="1029"
     inkscape:window-x="0"
     inkscape:window-y="24"
     width="204.87px"
     height="1052.36px"
     showgrid="false"
     fit-margin-top="0"
     fit-margin-left="0"
     fit-margin-right="0"
     fit-margin-bottom="0"
     inkscape:window-maximized="0" />
  <metadata
     id="metadata3609">
    <rdf:RDF>
      <cc:Work
         rdf:about="">
        <dc:format>image/svg+xml</dc:format>
        <dc:type
           rdf:resource="http://purl.org/dc/dcmitype/StillImage" />
        <dc:title></dc:title>
      </cc:Work>
    </rdf:RDF>
  </metadata>
  <g
     inkscape:label="Layer 1"
     inkscape:groupmode="layer"
     id="layer1"
     transform="translate(-0.21457938,-168.80371)">
    <g
       id="g3925"
       transform="matrix(0.2748326,0,0,0.2748326,-65.587587,118.95785)">
      <path
         style="fill:#ffffff;fill-opacity:1;fill-rule:evenodd;stroke:#000000;stroke-width:5;stroke-linecap:butt;stroke-linejoin:miter;stroke-miterlimit:4;stroke-dasharray:none;stroke-opacity:1"
         d="m 292.34172,208.19065 c -0.77246,-0.45919 -9.5868,-5.83462 -10.55258,-12.59509 -1.01015,-7.07107 0,-11.11168 0,-11.11168 1e-5,0 7.76382,2.44288 12.6269,7.57614 2.47365,2.61108 4.23687,4.73607 5.49311,6.44619"
         id="path6457"
         inkscape:connector-curvature="0" />
      <path
         style="fill:#fff6f6;fill-opacity:1;fill-rule:evenodd;stroke:#000000;stroke-width:8;stroke-linecap:butt;stroke-linejoin:miter;stroke-miterlimit:4;stroke-dasharray:none;stroke-opacity:1"
         d="m 378.36021,299.15409 c 0,0 25.00663,-6.25166 30.73731,2.08388 5.73069,8.33554 7.81457,9.37749 0.52097,10.9404 -7.2936,1.56292 -19.27594,2.08389 -19.27594,2.08389 l -11.98234,-15.10817 z"
         id="path6459"
         inkscape:connector-curvature="0" />
      <path
         style="fill:#fff6f6;fill-opacity:1;fill-rule:evenodd;stroke:#000000;stroke-width:8;stroke-linecap:butt;stroke-linejoin:miter;stroke-miterlimit:4;stroke-dasharray:none;stroke-opacity:1"
         d="m 310.63393,303.84283 c 0,0 -21.35983,-10.41943 -34.38411,1.56291 -13.02428,11.98235 29.1744,15.10817 29.1744,15.10817 l 5.20971,-16.67108 z"
         id="path6461"
         inkscape:connector-curvature="0" />
      <path
         style="fill:#ffffff;fill-opacity:1;fill-rule:evenodd;stroke:#000000;stroke-width:5;stroke-linecap:butt;stroke-linejoin:miter;stroke-miterlimit:4;stroke-dasharray:none;stroke-opacity:1"
         d="m 308.54061,287.23926 c 0,0 7.36765,6.63088 -13.26177,31.68088 -20.62941,25.05 11.05148,50.83677 11.05148,50.83677 0,0 27.99706,31.68089 60.41471,23.57647 32.41765,-8.10441 28.73382,-7.36764 41.99559,-20.62941 13.26177,-13.26177 3.68383,-36.83824 0,-49.36324 -3.68382,-12.525 -39.7853,-42.73236 -39.7853,-42.73236 l -60.41471,6.63089 z"
         id="path6463"
         inkscape:connector-curvature="0" />
      <path
         style="fill:#ffffff;fill-opacity:1;fill-rule:evenodd;stroke:#000000;stroke-width:5;stroke-linecap:butt;stroke-linejoin:miter;stroke-miterlimit:4;stroke-dasharray:none;stroke-opacity:1"
         d="m 306.53788,286.5093 c -9.87843,-11.42132 -19.88132,-23.96081 -22.84955,-39.13555 -1.079,-12.43377 -0.25583,-25.74474 6.42494,-36.64848 4.57804,-7.6899 10.50138,-15.21678 19.25845,-18.27818 11.5205,-4.4461 24.39151,-4.97629 36.46739,-2.85942 19.4547,3.94692 39.20465,18.40835 46.17103,36.96808 5.6579,15.23159 11.76739,28.33938 -1.04822,56.418 -7.10142,13.35158 -24.69195,19.71052 -34.17857,20.46859 -7.22259,0.61271 -19.006,-1.86226 -26.19662,-3.43653 -6.68196,-0.81847 -18.89633,-8.05592 -24.04885,-13.49651 z"
         id="path6465"
         sodipodi:nodetypes="cccccccccc"
         inkscape:connector-curvature="0" />
      <path
         style="fill:#ffffff;fill-opacity:1;fill-rule:evenodd;stroke:#000000;stroke-width:5;stroke-linecap:butt;stroke-linejoin:miter;stroke-miterlimit:4;stroke-dasharray:none;stroke-opacity:1"
         d="m 371.39746,201.29314 c 2.9403,-1.86207 10.67785,-5.39326 17.46785,3.39379 4.59462,5.94598 1.66873,9.8672 -2.0447,12.22801"
         id="path6467"
         inkscape:connector-curvature="0" />
      <path
         sodipodi:nodetypes="ccccsscscsscscccccscsscsccsccccccc"
         style="fill:#000000;fill-opacity:1;fill-rule:evenodd;stroke:#000000;stroke-width:1px;stroke-linecap:butt;stroke-linejoin:miter;stroke-opacity:1"
         d="m 332.04572,188.40142 c -7.73156,0.0293 -15.48718,1.25244 -22.6875,4.03125 -3.08297,1.07778 -5.80453,2.72178 -8.25,4.71875 l -0.125,0.46875 c 3.53554,20.70812 2.5211,12.13245 3.53125,20.71875 1.01014,8.58629 -1.51793,-14.14848 9.59375,-24.25 11.11168,-10.10153 6.16964,9.91518 6.16964,9.91518 0,0 2.41554,1.6903 9.48661,6.74107 7.07108,5.05075 2.03125,0.5 2.03125,0.5 0,0 -2.52538,-13.63595 0,-15.65625 2.52538,-2.02031 9.09454,-8.57614 12.125,-1 3.03046,7.57615 -1.03125,15.65625 -1.03125,15.65625 10e-6,0 13.66291,7.06362 19.21875,-8.59375 0.97928,-2.7598 1.76761,-4.32734 2.40625,-5.0625 -5.95366,-3.30107 -12.34304,-5.71285 -18.6875,-7 -4.52846,-0.79383 -9.14232,-1.20507 -13.78125,-1.1875 z m 34.34375,9.25 c 0.91047,3.27487 0.75,10.5625 0.75,10.5625 -1e-5,0 0.0117,3.02617 5.0625,3.53125 5.05076,0.50507 -5.63393,8.27232 -5.63393,8.27232 1e-5,-1e-5 -2.45316,5.38393 3.10268,5.38393 5.55585,0 -2.53315,-3.53125 10.09375,-3.53125 12.62691,0 13.7378,19.6875 13.7378,19.6875 1.55639,6.53688 4.58526,19.19654 -4.50611,33.84375 -9.09137,14.64721 -18.78874,20.66076 -30.63916,22.3003 -25.12501,1.1148 -39.68628,-8.6753 -39.68628,-8.6753 0,1e-5 -10.11722,-4.52855 -20.21875,-14.125 -0.67761,-0.64373 -1.38684,-0.95283 -2.125,-1 3.21044,4.39047 6.72196,8.5508 10.21875,12.59375 5.15252,5.44059 17.34928,12.68152 24.03125,13.5 7.19062,1.57427 18.99615,4.05021 26.21875,3.4375 9.48662,-0.75807 27.99233,-7.11717 35.09375,-20.46875 12.81561,-28.07862 5.7829,-41.17466 0.125,-56.40625 -4.4551,-11.86922 -14.13422,-22.06742 -25.625,-28.90625 z"
         id="path6469"
         inkscape:connector-curvature="0" />
      <path
         style="fill:#ba7e8d;fill-opacity:1;fill-rule:evenodd;stroke:#000000;stroke-width:5;stroke-linecap:butt;stroke-linejoin:miter;stroke-miterlimit:4;stroke-dasharray:none;stroke-opacity:1"
         d="m 299.97188,262.26563 c 0,0 3.03046,-22.22336 26.76904,-21.71828 23.73859,0.50507 40.40611,9.09137 40.40611,9.09137 0,0 13.63706,9.59645 13.13198,18.68782 -0.50508,9.09137 -9.09137,16.66752 -20.20305,18.18275 -6.97039,0.95051 -40.91118,-2.52538 -48.9924,-6.06092 -8.08122,-3.53553 -11.61676,-14.14213 -11.11168,-18.18274 z"
         id="path6471"
         sodipodi:nodetypes="cscsssc"
         inkscape:connector-curvature="0" />
      <path
         style="fill:#758fff;fill-opacity:1;fill-rule:evenodd;stroke:#000000;stroke-width:8;stroke-linecap:butt;stroke-linejoin:miter;stroke-miterlimit:4;stroke-dasharray:none;stroke-opacity:1"
         d="m 323.24709,224.4683 c 0,0 -9.46555,-0.85371 -6.56599,5.55584 2.39911,5.3033 5.05076,5.17703 5.05076,5.17703 0,0 4.29315,1.38897 6.06092,-4.67195 1.98495,-6.80552 -2.90419,-6.18719 -4.54569,-6.06092 z"
         id="path6473"
         sodipodi:nodetypes="cscsc"
         inkscape:connector-curvature="0" />
      <path
         style="fill:#758fff;fill-opacity:1;fill-rule:evenodd;stroke:#000000;stroke-width:8;stroke-linecap:butt;stroke-linejoin:miter;stroke-miterlimit:4;stroke-dasharray:none;stroke-opacity:1"
         d="m 353.10914,216.42996 c 0,0 -8.33376,2.39911 -7.70241,9.3439 0.63135,6.9448 5.17703,10.60661 8.33376,10.10153 3.15673,-0.50508 8.83883,-1.51523 7.82868,-9.09137 -1.01015,-7.57615 -5.05076,-10.85914 -8.46003,-10.35406 z"
         id="path6475"
         sodipodi:nodetypes="csssc"
         inkscape:connector-curvature="0" />
      <path
         style="fill:#000000;fill-opacity:1;fill-rule:evenodd;stroke:none;stroke-width:1px;stroke-linecap:butt;stroke-linejoin:miter;stroke-opacity:1"
         d="m 361.59119,258.09875 c 0,0 -7.32361,-0.63135 -8.33376,6.94479 -1.01015,7.57615 4.67195,10.2278 6.43972,10.10153 1.76777,-0.12627 7.32361,1.26269 8.08122,-7.44988 0.75762,-8.71256 -6.31345,-9.97525 -6.18718,-9.59644 z"
         id="path6477"
         inkscape:connector-curvature="0" />
      <path
         style="fill:#000000;fill-opacity:1;fill-rule:evenodd;stroke:none;stroke-width:1px;stroke-linecap:butt;stroke-linejoin:miter;stroke-opacity:1"
         d="m 321.05882,253.80559 c 0,0 -6.69226,1.13643 -5.93465,6.06092 0.75762,4.9245 3.283,6.06092 7.07107,5.80838 3.78807,-0.25254 5.93464,-5.68211 4.54568,-8.46003 -1.38895,-2.77792 -5.55583,-3.53554 -5.6821,-3.40927 z"
         id="path6479"
         sodipodi:nodetypes="csssc"
         inkscape:connector-curvature="0" />
      <path
         sodipodi:nodetypes="ccccccccccc"
         id="path6481"
         d="m 295.26529,324.16071 c 4.88222,-3.70891 8.3147,-8.54506 13.99502,-12.40246 6.15196,-3.00372 11.99041,-5.13432 18.09164,-3.60878 8.67267,0.25626 17.25252,1.75087 25.88796,2.37582 6.79404,-0.21993 13.40878,-2.14988 19.67376,-4.68542 3.33062,-1.05881 7.3637,-3.0053 7.28828,0.71598 -1.04455,2.86798 -3.65187,4.82598 -5.48889,7.19691 -1.83559,2.05322 -2.95844,4.8089 -5.66861,5.92872 -6.22884,3.11429 -13.36523,1.44879 -19.99492,1.15083 -10.02316,-0.79902 -20.03518,-2.32822 -30.10726,-2.11506 -7.08678,0.55543 -13.93076,2.86946 -20.29069,5.96445"
         style="fill:#000000;fill-opacity:1;fill-rule:evenodd;stroke:none;stroke-width:1px;stroke-linecap:butt;stroke-linejoin:miter;stroke-opacity:1"
         inkscape:connector-curvature="0" />
      <path
         sodipodi:nodetypes="cccccccccccc"
         id="path6483"
         d="m 305.16373,339.52939 c -4.65105,0.83881 -6.76628,-7.21029 -2.20511,-8.64779 5.97786,-3.77506 13.7738,-6.64787 20.60209,-3.35749 12.61252,5.00867 26.39296,4.44586 39.70527,4.88536 6.82886,0.26091 12.93438,-3.75756 18.22307,-7.65714 4.16394,-2.12925 5.96567,-7.05356 10.25822,-8.79421 3.48251,0.1348 3.28403,4.84531 2.68572,7.34459 -2.29706,8.42878 -10.31836,13.52379 -17.80088,16.96401 -4.33261,2.19063 -8.99128,3.75546 -13.87183,3.97284 -6.33853,0.39564 -12.71227,-0.0663 -19.0183,-0.66377 -7.86546,-1.33423 -15.40266,-6.2292 -23.59176,-4.48393 -4.33314,1.14695 -14.46637,0.43794 -14.98649,0.43753 z"
         style="fill:#000000;fill-opacity:1;fill-rule:evenodd;stroke:none;stroke-width:1px;stroke-linecap:butt;stroke-linejoin:miter;stroke-opacity:1"
         inkscape:connector-curvature="0" />
      <path
         style="fill:none;fill-opacity:1;fill-rule:evenodd;stroke:none;stroke-width:1px;stroke-linecap:butt;stroke-linejoin:miter;stroke-opacity:1"
         d="m 314.54123,361.41018 c 3.66229,0.13656 7.76093,-0.73517 10.95289,1.57604 10.36017,2.46199 21.05917,0.88849 31.56305,0.77436 8.02308,-0.94647 15.62731,-3.88549 23.21811,-6.47784 3.43523,-2.16527 6.48672,-4.89179 9.90825,-7.05109 1.97216,-2.53023 9.35151,-6.43522 6.64221,-3.17685 -2.66602,6.8001 -5.94131,10.84465 -8.73379,12.6841 -3.43981,5.41083 -5.85109,12.39826 -12.23611,15.03453 -8.12379,3.15798 -16.54722,3.66833 -25.31491,3.10505 -7.05762,-0.25776 -14.41381,1.38088 -21.43609,0.58961 -3.75289,-0.41837 -7.903,-2.05835 -9.28742,-5.88837 -2.04522,-3.50916 -6.06579,-6.65859 -5.27619,-11.16954 z"
         id="path6485"
         sodipodi:nodetypes="cccccccccccc"
         inkscape:connector-curvature="0" />
      <path
         style="fill:#000000;fill-opacity:1;fill-rule:evenodd;stroke:none;stroke-width:1px;stroke-linecap:butt;stroke-linejoin:miter;stroke-opacity:1"
         d="m 320.53238,364.2755 c 18.42538,0.10317 37.46173,0.78441 55.02853,-5.71245 4.06849,-1.63315 8.42741,-3.11043 11.42511,-6.48697 1.892,-1.69629 4.13921,-4.02332 6.92103,-3.452 2.29406,2.19878 -0.9757,5.5389 -2.54807,7.38905 -3.24338,2.91597 -5.26773,6.93053 -7.89612,10.38212 -2.57546,3.60395 -5.54,7.08367 -9.43163,9.31155 -14.65707,2.94094 -29.65689,3.26382 -44.49882,4.63317 -5.42353,-0.0881 -11.58746,-1.05504 -15.3005,-5.39264 -2.2595,-3.5265 -0.46604,-8.83879 3.16681,-10.63515 0.35724,-0.0738 0.70375,-0.18301 1.04977,-0.29717"
         id="path6487"
         inkscape:connector-curvature="0" />
      <path
         id="path7505"
         d="m 395.30844,305.13847 c -10.6726,37.6568 -52.92431,58.12243 -85.125,68.5 8.70549,8.16717 31.25943,26.01327 56.5625,19.6875 32.41766,-8.10439 28.73823,-7.36323 42,-20.625 13.26178,-13.26176 3.68383,-36.85 0,-49.375 -1.32832,-4.5163 -6.89168,-11.3183 -13.4375,-18.1875 z"
         style="opacity:0.22105264;fill:#000000;fill-opacity:1;fill-rule:evenodd;stroke:none;stroke-width:1px;stroke-linecap:butt;stroke-linejoin:miter;stroke-opacity:1"
         inkscape:connector-curvature="0" />
      <path
         style="fill:#ffffff;fill-opacity:1;fill-rule:evenodd;stroke:#000000;stroke-width:8;stroke-linecap:butt;stroke-linejoin:miter;stroke-miterlimit:4;stroke-dasharray:none;stroke-opacity:1"
         d="m 261.75605,349.1275 c 0,0 19.547,-14.84541 38.68015,-2.2103 19.52427,12.89339 24.31324,16.57721 30.57574,31.31251 6.2625,14.73529 -1.10515,22.10294 -3.68383,24.68162 -2.86534,2.86534 -6.63088,10.68309 -43.10074,-8.84118 -36.46985,-19.52427 -25.64123,-43.69753 -22.47132,-44.94265 z"
         id="path6489"
         sodipodi:nodetypes="cssssc"
         inkscape:connector-curvature="0" />
      <path
         sodipodi:nodetypes="cccccccccccccc"
         id="path6491"
         d="m 263.59796,374.91428 c 1.87677,-1.73151 4.81515,-2.28046 6.00789,-4.72599 2.3681,-3.44017 4.03793,-5.6489 5.28542,-8.8922 2.03808,-3.70669 4.11271,-8.82708 4.35464,-10.09621 -0.14579,-1.78515 1.88607,-3.90912 3.36135,-2.4411 1.72814,2.20789 1.2904,5.2219 2.38963,7.69515 1.45397,4.93179 2.38432,10.28284 0.88025,15.31845 -0.7753,2.50437 -2.56304,4.70316 -4.99475,5.74839 -1.91995,1.08038 -4.00707,2.08037 -5.35466,3.89397 -0.57071,1.67581 -1.92584,3.63478 -3.94069,3.34889 -2.35067,-0.57739 -3.17502,-3.1018 -4.50708,-4.82571 -1.40915,-1.43582 -1.44328,-3.99998 -3.15231,-5.00424 l -0.32969,-0.0194 0,0 z"
         style="fill:#000000;fill-opacity:1;fill-rule:evenodd;stroke:none;stroke-width:1px;stroke-linecap:butt;stroke-linejoin:miter;stroke-opacity:1"
         inkscape:connector-curvature="0" />
      <path
         sodipodi:nodetypes="ccccccccccc"
         id="path6493"
         d="m 276.49133,390.01794 c 4.59352,0.5484 9.55836,-0.38702 13.18353,-3.39642 4.0458,-2.99451 4.76745,-4.24759 7.50068,-7.88558 2.33189,-3.22645 3.08854,-7.28639 5.37157,-10.54108 2.56172,-2.57795 3.36447,-3.58561 4.39502,-1.46986 1.54101,3.89 -0.40108,7.99218 0.0423,11.98742 -0.0868,6.31129 -2.30225,13.02016 -7.49704,16.94465 -1.32155,0.9642 -2.90294,1.61824 -3.85927,3.0086 -1.11473,1.36606 -2.90827,2.86081 -4.756,1.99605 -2.28205,-0.98799 -3.5068,-3.56963 -6.00874,-4.18319 -3.24285,-1.56783 -4.56031,-5.86874 -8.37207,-6.46059 z"
         style="fill:#000000;fill-opacity:1;fill-rule:evenodd;stroke:none;stroke-width:1px;stroke-linecap:butt;stroke-linejoin:miter;stroke-opacity:1"
         inkscape:connector-curvature="0" />
      <path
         style="fill:#ffffff;fill-opacity:1;fill-rule:evenodd;stroke:#000000;stroke-width:8;stroke-linecap:butt;stroke-linejoin:miter;stroke-miterlimit:4;stroke-dasharray:none;stroke-opacity:1"
         d="m 388.77964,393.44991 c 0,0 -4.68875,-22.92274 9.37748,-36.98897 14.06623,-14.06623 31.25828,-17.19206 48.45034,-6.25166 17.19206,10.9404 1.46784,39.69542 1.46784,39.69542 0,0 -13.71494,21.42653 -34.28904,20.21629 -8.85651,-0.52097 -24.3645,-10.72419 -25.00662,-16.67108 z"
         id="path6495"
         sodipodi:nodetypes="csscsc"
         inkscape:connector-curvature="0" />
      <path
         sodipodi:nodetypes="cccccccccccc"
         id="path6497"
         d="m 390.86353,371.56912 c 2.17593,-0.57291 1.02404,1.07802 3.76879,3.67874 1.45141,3.07736 5.95695,2.8669 9.14239,4.22903 3.92239,1.02179 7.65233,2.63206 11.4155,4.11173 3.15399,2.06508 4.14617,4.46996 9.50005,6.20548 1.85383,0.41663 4.86632,0.20779 4.79758,2.56617 -0.37487,2.03336 -2.87937,2.61112 -4.62368,2.18831 -5.20807,-0.34797 -10.77148,0.61949 -15.60604,-1.85767 -4.78377,-2.32689 -9.93971,-3.73162 -14.97275,-5.37414 -1.97224,-1.0327 -4.61066,-1.69001 -5.4204,-4.03088 -0.93626,-2.86903 -0.41097,-5.94076 -0.76967,-8.88493 0.15608,-1.38608 1.17046,-3.03779 2.76823,-2.83184 z"
         style="fill:#000000;fill-opacity:1;fill-rule:evenodd;stroke:none;stroke-width:1px;stroke-linecap:butt;stroke-linejoin:miter;stroke-opacity:1"
         inkscape:connector-curvature="0" />
      <path
         style="fill:#000000;fill-opacity:1;fill-rule:evenodd;stroke:none;stroke-width:1px;stroke-linecap:butt;stroke-linejoin:miter;stroke-opacity:1"
         d="m 398.93857,355.80971 c 5.88145,8.08601 16.219,10.6981 24.37791,15.80113 7.73442,3.81799 15.86283,10.19906 25.60713,2.73994 -3.64505,-6.97473 -10.11013,-5.95283 -14.75326,-9.00879 -7.57764,-4.94094 -17.08023,-8.01587 -21.75642,-16.35112 -5.16287,-4.18106 -9.41426,3.86444 -12.82414,6.55837"
         id="path6499"
         sodipodi:nodetypes="cccccc"
         inkscape:connector-curvature="0" />
      <path
         sodipodi:nodetypes="cccscc"
         id="path6503"
         d="m 454.93344,363.20097 c -30.52448,27.42465 -53.73465,30.34317 -66.375,28.9375 0.12089,0.82388 0.21875,1.3125 0.21875,1.3125 4.68875,7.81457 16.1435,16.13526 25,16.65625 20.5741,1.21024 33.9785,-21.43507 33.97851,-21.43506 0,0 9.23588,-13.38539 7.17774,-25.47119 z"
         style="opacity:0.22631579;fill:#000000;fill-opacity:1;fill-rule:evenodd;stroke:#000000;stroke-width:1px;stroke-linecap:butt;stroke-linejoin:miter;stroke-opacity:1"
         inkscape:connector-curvature="0" />
      <path
         id="path7477"
         d="m 262.52719,348.57597 c -0.46162,0.31251 -0.78125,0.5625 -0.78125,0.5625 -0.36839,0 -14.0011,25.41321 22.46875,44.9375 26.34162,14.10208 35.64131,13.94487 39.84375,11.6875 -26.82136,-8.11519 -47.96286,-34.86668 -61.53125,-57.1875 z"
         style="opacity:0.2157895;fill:#000000;fill-opacity:1;fill-rule:evenodd;stroke:none;stroke-width:1px;stroke-linecap:butt;stroke-linejoin:miter;stroke-opacity:1"
         inkscape:connector-curvature="0" />
    </g>
  </g>
</svg>
