<?xml version="1.0" encoding="UTF-8"?>
<svg version="1.0" viewBox="0 0 24 24" xmlns="http://www.w3.org/2000/svg" xmlns:cc="http://creativecommons.org/ns#" xmlns:dc="http://purl.org/dc/elements/1.1/" xmlns:rdf="http://www.w3.org/1999/02/22-rdf-syntax-ns#">
<metadata>
<rdf:RDF>
<cc:Work rdf:about="">
<dc:format>image/svg+xml</dc:format>
<dc:type rdf:resource="http://purl.org/dc/dcmitype/StillImage"/>
<dc:title/>
</cc:Work>
</rdf:RDF>
</metadata>
<g transform="translate(-.21458 -208.8)">
<g transform="matrix(.10306 0 0 .10306 -24.498 190.12)">
<path d="m292.34 208.19c-0.77246-0.45919-9.5868-5.8346-10.553-12.595-1.0102-7.0711 0-11.112 0-11.112 1e-5 0 7.7638 2.4429 12.627 7.5761 2.4736 2.6111 4.2369 4.7361 5.4931 6.4462" fill="#fff" fill-rule="evenodd" stroke="#000" stroke-width="5"/>
<path d="m378.36 299.15s25.007-6.2517 30.737 2.0839c5.7307 8.3355 7.8146 9.3775 0.52097 10.94-7.2936 1.5629-19.276 2.0839-19.276 2.0839z" fill="#fff6f6" fill-rule="evenodd" stroke="#000" stroke-width="8"/>
<path d="m310.63 303.84s-21.36-10.419-34.384 1.5629c-13.024 11.982 29.174 15.108 29.174 15.108z" fill="#fff6f6" fill-rule="evenodd" stroke="#000" stroke-width="8"/>
<path d="m308.54 287.24s7.3676 6.6309-13.262 31.681c-20.629 25.05 11.051 50.837 11.051 50.837s27.997 31.681 60.415 23.576c32.418-8.1044 28.734-7.3676 41.996-20.629s3.6838-36.838 0-49.363c-3.6838-12.525-39.785-42.732-39.785-42.732z" fill="#fff" fill-rule="evenodd" stroke="#000" stroke-width="5"/>
<path d="m306.54 286.51c-9.8784-11.421-19.881-23.961-22.85-39.136-1.079-12.434-0.25583-25.745 6.4249-36.648 4.578-7.6899 10.501-15.217 19.258-18.278 11.52-4.4461 24.392-4.9763 36.467-2.8594 19.455 3.9469 39.205 18.408 46.171 36.968 5.6579 15.232 11.767 28.339-1.0482 56.418-7.1014 13.352-24.692 19.711-34.179 20.469-7.2226 0.61271-19.006-1.8623-26.197-3.4365-6.682-0.81847-18.896-8.0559-24.049-13.497z" fill="#fff" fill-rule="evenodd" stroke="#000" stroke-width="5"/>
<path d="m371.4 201.29c2.9403-1.8621 10.678-5.3933 17.468 3.3938 4.5946 5.946 1.6687 9.8672-2.0447 12.228" fill="#fff" fill-rule="evenodd" stroke="#000" stroke-width="5"/>
<path d="m332.05 188.4c-7.7316 0.0293-15.487 1.2524-22.688 4.0312-3.083 1.0778-5.8045 2.7218-8.25 4.7188l-0.125 0.46875c3.5355 20.708 2.5211 12.132 3.5312 20.719 1.0101 8.5863-1.5179-14.148 9.5938-24.25 11.112-10.102 6.1696 9.9152 6.1696 9.9152s2.4155 1.6903 9.4866 6.7411c7.0711 5.0508 2.0312 0.5 2.0312 0.5s-2.5254-13.636 0-15.656c2.5254-2.0203 9.0945-8.5761 12.125-1 3.0305 7.5762-1.0312 15.656-1.0312 15.656 1e-5 0 13.663 7.0636 19.219-8.5938 0.97928-2.7598 1.7676-4.3273 2.4062-5.0625-5.9537-3.3011-12.343-5.7128-18.688-7-4.5285-0.79383-9.1423-1.2051-13.781-1.1875zm34.344 9.25c0.91047 3.2749 0.75 10.562 0.75 10.562-1e-5 0 0.0117 3.0262 5.0625 3.5312 5.0508 0.50507-5.6339 8.2723-5.6339 8.2723 1e-5 -1e-5 -2.4532 5.3839 3.1027 5.3839 5.5558 0-2.5332-3.5312 10.094-3.5312 12.627 0 13.738 19.688 13.738 19.688 1.5564 6.5369 4.5853 19.197-4.5061 33.844s-18.789 20.661-30.639 22.3c-25.125 1.1148-39.686-8.6753-39.686-8.6753 0 1e-5 -10.117-4.5286-20.219-14.125-0.67761-0.64373-1.3868-0.95283-2.125-1 3.2104 4.3905 6.722 8.5508 10.219 12.594 5.1525 5.4406 17.349 12.682 24.031 13.5 7.1906 1.5743 18.996 4.0502 26.219 3.4375 9.4866-0.75807 27.992-7.1172 35.094-20.469 12.816-28.079 5.7829-41.175 0.125-56.406-4.4551-11.869-14.134-22.067-25.625-28.906z" fill-rule="evenodd" stroke="#000" stroke-width="1px"/>
<path d="m299.97 262.27s3.0305-22.223 26.769-21.718c23.739 0.50507 40.406 9.0914 40.406 9.0914s13.637 9.5964 13.132 18.688-9.0914 16.668-20.203 18.183c-6.9704 0.95051-40.911-2.5254-48.992-6.0609-8.0812-3.5355-11.617-14.142-11.112-18.183z" fill="#ba7e8d" fill-rule="evenodd" stroke="#000" stroke-width="5"/>
<path d="m323.25 224.47s-9.4656-0.85371-6.566 5.5558c2.3991 5.3033 5.0508 5.177 5.0508 5.177s4.2932 1.389 6.0609-4.672c1.985-6.8055-2.9042-6.1872-4.5457-6.0609z" fill="#758fff" fill-rule="evenodd" stroke="#000" stroke-width="8"/>
<path d="m353.11 216.43s-8.3338 2.3991-7.7024 9.3439c0.63135 6.9448 5.177 10.607 8.3338 10.102s8.8388-1.5152 7.8287-9.0914c-1.0102-7.5762-5.0508-10.859-8.46-10.354z" fill="#758fff" fill-rule="evenodd" stroke="#000" stroke-width="8"/>
<path d="m361.59 258.1s-7.3236-0.63135-8.3338 6.9448c-1.0102 7.5762 4.672 10.228 6.4397 10.102s7.3236 1.2627 8.0812-7.4499c0.75762-8.7126-6.3134-9.9752-6.1872-9.5964z" fill-rule="evenodd"/>
<path d="m321.06 253.81s-6.6923 1.1364-5.9346 6.0609c0.75762 4.9245 3.283 6.0609 7.0711 5.8084s5.9346-5.6821 4.5457-8.46c-1.389-2.7779-5.5558-3.5355-5.6821-3.4093z" fill-rule="evenodd"/>
<path d="m295.27 324.16c4.8822-3.7089 8.3147-8.5451 13.995-12.402 6.152-3.0037 11.99-5.1343 18.092-3.6088 8.6727 0.25626 17.253 1.7509 25.888 2.3758 6.794-0.21993 13.409-2.1499 19.674-4.6854 3.3306-1.0588 7.3637-3.0053 7.2883 0.71598-1.0446 2.868-3.6519 4.826-5.4889 7.1969-1.8356 2.0532-2.9584 4.8089-5.6686 5.9287-6.2288 3.1143-13.365 1.4488-19.995 1.1508-10.023-0.79902-20.035-2.3282-30.107-2.1151-7.0868 0.55543-13.931 2.8695-20.291 5.9644" fill-rule="evenodd"/>
<path d="m305.16 339.53c-4.651 0.83881-6.7663-7.2103-2.2051-8.6478 5.9779-3.7751 13.774-6.6479 20.602-3.3575 12.613 5.0087 26.393 4.4459 39.705 4.8854 6.8289 0.26091 12.934-3.7576 18.223-7.6571 4.1639-2.1292 5.9657-7.0536 10.258-8.7942 3.4825 0.1348 3.284 4.8453 2.6857 7.3446-2.2971 8.4288-10.318 13.524-17.801 16.964-4.3326 2.1906-8.9913 3.7555-13.872 3.9728-6.3385 0.39564-12.712-0.0663-19.018-0.66377-7.8655-1.3342-15.403-6.2292-23.592-4.4839-4.3331 1.147-14.466 0.43794-14.986 0.43753z" fill-rule="evenodd"/>
<path d="m314.54 361.41c3.6623 0.13656 7.7609-0.73517 10.953 1.576 10.36 2.462 21.059 0.88849 31.563 0.77436 8.0231-0.94647 15.627-3.8855 23.218-6.4778 3.4352-2.1653 6.4867-4.8918 9.9082-7.0511 1.9722-2.5302 9.3515-6.4352 6.6422-3.1768-2.666 6.8001-5.9413 10.845-8.7338 12.684-3.4398 5.4108-5.8511 12.398-12.236 15.035-8.1238 3.158-16.547 3.6683-25.315 3.105-7.0576-0.25776-14.414 1.3809-21.436 0.58961-3.7529-0.41837-7.903-2.0584-9.2874-5.8884-2.0452-3.5092-6.0658-6.6586-5.2762-11.17z" fill="none"/>
<path d="m320.53 364.28c18.425 0.10317 37.462 0.78441 55.029-5.7124 4.0685-1.6332 8.4274-3.1104 11.425-6.487 1.892-1.6963 4.1392-4.0233 6.921-3.452 2.2941 2.1988-0.9757 5.5389-2.5481 7.389-3.2434 2.916-5.2677 6.9305-7.8961 10.382-2.5755 3.604-5.54 7.0837-9.4316 9.3116-14.657 2.9409-29.657 3.2638-44.499 4.6332-5.4235-0.0881-11.587-1.055-15.3-5.3926-2.2595-3.5265-0.46604-8.8388 3.1668-10.635 0.35724-0.0738 0.70375-0.18301 1.0498-0.29717" fill-rule="evenodd"/>
<path d="m395.31 305.14c-10.673 37.657-52.924 58.122-85.125 68.5 8.7055 8.1672 31.259 26.013 56.562 19.688 32.418-8.1044 28.738-7.3632 42-20.625 13.262-13.262 3.6838-36.85 0-49.375-1.3283-4.5163-6.8917-11.318-13.438-18.188z" fill-rule="evenodd" opacity=".22105"/>
<path d="m261.76 349.13s19.547-14.845 38.68-2.2103c19.524 12.893 24.313 16.577 30.576 31.313 6.2625 14.735-1.1052 22.103-3.6838 24.682-2.8653 2.8653-6.6309 10.683-43.101-8.8412-36.47-19.524-25.641-43.698-22.471-44.943z" fill="#fff" fill-rule="evenodd" stroke="#000" stroke-width="8"/>
<path d="m263.6 374.91c1.8768-1.7315 4.8152-2.2805 6.0079-4.726 2.3681-3.4402 4.0379-5.6489 5.2854-8.8922 2.0381-3.7067 4.1127-8.8271 4.3546-10.096-0.14579-1.7852 1.8861-3.9091 3.3614-2.4411 1.7281 2.2079 1.2904 5.2219 2.3896 7.6952 1.454 4.9318 2.3843 10.283 0.88025 15.318-0.7753 2.5044-2.563 4.7032-4.9948 5.7484-1.92 1.0804-4.0071 2.0804-5.3547 3.894-0.57071 1.6758-1.9258 3.6348-3.9407 3.3489-2.3507-0.57739-3.175-3.1018-4.5071-4.8257-1.4092-1.4358-1.4433-4-3.1523-5.0042z" fill-rule="evenodd"/>
<path d="m276.49 390.02c4.5935 0.5484 9.5584-0.38702 13.184-3.3964 4.0458-2.9945 4.7674-4.2476 7.5007-7.8856 2.3319-3.2264 3.0885-7.2864 5.3716-10.541 2.5617-2.578 3.3645-3.5856 4.395-1.4699 1.541 3.89-0.40108 7.9922 0.0423 11.987-0.0868 6.3113-2.3022 13.02-7.497 16.945-1.3216 0.9642-2.9029 1.6182-3.8593 3.0086-1.1147 1.3661-2.9083 2.8608-4.756 1.996-2.282-0.98799-3.5068-3.5696-6.0087-4.1832-3.2428-1.5678-4.5603-5.8687-8.3721-6.4606z" fill-rule="evenodd"/>
<path d="m388.78 393.45s-4.6888-22.923 9.3775-36.989 31.258-17.192 48.45-6.2517 1.4678 39.695 1.4678 39.695-13.715 21.427-34.289 20.216c-8.8565-0.52097-24.364-10.724-25.007-16.671z" fill="#fff" fill-rule="evenodd" stroke="#000" stroke-width="8"/>
<path d="m390.86 371.57c2.1759-0.57291 1.024 1.078 3.7688 3.6787 1.4514 3.0774 5.957 2.8669 9.1424 4.229 3.9224 1.0218 7.6523 2.6321 11.416 4.1117 3.154 2.0651 4.1462 4.47 9.5 6.2055 1.8538 0.41663 4.8663 0.20779 4.7976 2.5662-0.37487 2.0334-2.8794 2.6111-4.6237 2.1883-5.2081-0.34797-10.771 0.61949-15.606-1.8577-4.7838-2.3269-9.9397-3.7316-14.973-5.3741-1.9722-1.0327-4.6107-1.69-5.4204-4.0309-0.93626-2.869-0.41097-5.9408-0.76967-8.8849 0.15608-1.3861 1.1705-3.0378 2.7682-2.8318z" fill-rule="evenodd"/>
<path d="m398.94 355.81c5.8814 8.086 16.219 10.698 24.378 15.801 7.7344 3.818 15.863 10.199 25.607 2.7399-3.645-6.9747-10.11-5.9528-14.753-9.0088-7.5776-4.9409-17.08-8.0159-21.756-16.351-5.1629-4.1811-9.4143 3.8644-12.824 6.5584" fill-rule="evenodd"/>
<path d="m454.93 363.2c-30.524 27.425-53.735 30.343-66.375 28.938 0.12089 0.82388 0.21875 1.3125 0.21875 1.3125 4.6888 7.8146 16.144 16.135 25 16.656 20.574 1.2102 33.978-21.435 33.979-21.435 0 0 9.2359-13.385 7.1777-25.471z" fill-rule="evenodd" opacity=".22632" stroke="#000" stroke-width="1px"/>
<path d="m262.53 348.58c-0.46162 0.31251-0.78125 0.5625-0.78125 0.5625-0.36839 0-14.001 25.413 22.469 44.938 26.342 14.102 35.641 13.945 39.844 11.688-26.821-8.1152-47.963-34.867-61.531-57.188z" fill-rule="evenodd" opacity=".21579"/>
</g>
</g>
</svg>
