<?xml version="1.0" encoding="UTF-8"?>
<svg enable-background="new 0 0 595.276 841.89" version="1.1" viewBox="0 0 24 24" xml:space="preserve" xmlns="http://www.w3.org/2000/svg" xmlns:cc="http://creativecommons.org/ns#" xmlns:dc="http://purl.org/dc/elements/1.1/" xmlns:rdf="http://www.w3.org/1999/02/22-rdf-syntax-ns#"><metadata><rdf:RDF><cc:Work rdf:about=""><dc:format>image/svg+xml</dc:format><dc:type rdf:resource="http://purl.org/dc/dcmitype/StillImage"/><dc:title/></cc:Work></rdf:RDF></metadata><path d="m1.2977 1.7809c-1.2985 1.2982 2.0374 6.7395 2.6115 7.3137 0.57415 0.57387 2.0917-0.013665 3.3903-1.3119 1.2985-1.2982 1.8858-2.8164 1.3119-3.3903-0.57415-0.57414-6.0152-3.9098-7.3137-2.6115z" stroke-width=".42308"/><path d="m1.6145 1.9429c-1.1833 1.1248 2 6.3915 2.5413 6.961 0.54137 0.5695 1.9396 0.11964 3.1223-1.0052 1.1827-1.1251 1.7025-2.4987 1.1609-3.0679-0.54164-0.56978-5.642-4.0122-6.8245-2.8879z" fill="#fff" stroke-width=".42308"/><path d="m1.5394 1.7615c-1.1543 1.098 2.1928 6.4912 2.7527 7.0807 0.56022 0.58889 1.9502 0.17645 3.1045-0.92131 1.1543-1.098 1.6364-2.4654 1.0759-3.0546-0.56022-0.5889-5.7789-4.2029-6.9332-3.1048z" stroke-width=".42308"/><path d="m1.6924 1.8524c-0.99533 1.0511 2.4889 5.9646 3.0499 6.4959 0.56158 0.53127 1.8227 0.10953 2.8177-0.94125 0.99479-1.0511 1.3466-2.3337 0.78529-2.8647-0.56131-0.53154-5.6582-3.741-6.6529-2.6899z" fill="#f30" stroke-width=".42308"/><g transform="matrix(.27314 0 0 .27314 -10.958 -189.04)"><circle cx="84.439" cy="737.54" r="38.751"/></g><circle cx="12.106" cy="12.415" r="10.315" fill="#fff" stroke-width=".27314"/><g transform="matrix(.27314 0 0 .27314 -10.958 -189.04)"><circle cx="82.958" cy="736.06" r="37.271"/></g><ellipse cx="10.993" cy="11.033" rx="8.7982" ry="9.0003" fill="#f30" stroke-width=".27314"/><path d="m22.708 1.7506c1.2922 1.2925-2.0928 6.7734-2.6727 7.3533-0.57988 0.57988-2.0975 0.00212-3.39-1.2906-1.2928-1.2925-1.8702-2.8106-1.2906-3.3903 0.57988-0.57988 6.0608-3.9649 7.3533-2.6724z" stroke-width=".42308"/><path d="m22.37 2.1562c1.1808 1.1811-2.0232 6.2992-2.5673 6.8436-0.5441 0.5441-1.9423 0.027881-3.1234-1.1529-1.1808-1.1808-1.6968-2.5793-1.1529-3.1237 0.54465-0.54383 5.6628-3.7478 6.8436-2.567z" fill="#fff" stroke-width=".42308"/><path d="m22.327 1.8956c1.1341 1.1344-2.2204 6.3282-2.7795 6.887-0.55912 0.5594-1.9317 0.09287-3.066-1.0412-1.1344-1.1341-1.6006-2.5072-1.0415-3.066 0.55885-0.55912 5.7529-3.9139 6.887-2.7798z" stroke-width=".42308"/><path d="m22.382 1.7776c1.0401 1.115-2.6148 6.2156-3.2031 6.7647-0.58835 0.54929-1.9087 0.089591-2.9491-1.0257-1.0401-1.115-1.407-2.464-0.81834-3.0128 0.58808-0.54956 5.9299-3.8415 6.9706-2.7262z" fill="#f30" stroke-width=".42308"/><path d="m20.015 8.855c-0.54601 0.54629-1.9767 0.00169-3.1947-1.2163-1.2179-1.2179-1.7623-2.6484-1.216-3.1952 0.11964-0.11936 0.46107-0.36601 0.93497-0.66619-0.7017-0.28052-1.2909-0.29718-1.6069 0.018827-0.64489 0.64516 0.09232 2.4282 1.6468 3.9827 1.5545 1.5545 3.3375 2.2919 3.9827 1.6468 0.2909-0.2909 0.29991-0.81424 0.08003-1.4436-0.28188 0.44085-0.51214 0.75852-0.62686 0.87296z" stroke-width=".42308"/></svg>
