<?xml version="1.0" encoding="UTF-8"?>
<svg width="64" height="64" enable-background="new 0 0 595.276 841.89" version="1.1" viewBox="0 0 64 63.999999" xml:space="preserve" xmlns="http://www.w3.org/2000/svg" xmlns:cc="http://creativecommons.org/ns#" xmlns:dc="http://purl.org/dc/elements/1.1/" xmlns:rdf="http://www.w3.org/1999/02/22-rdf-syntax-ns#"><metadata><rdf:RDF><cc:Work rdf:about=""><dc:format>image/svg+xml</dc:format><dc:type rdf:resource="http://purl.org/dc/dcmitype/StillImage"/></cc:Work></rdf:RDF></metadata><path d="m6.7036 7.8457c-3.0692 3.0686 4.8156 15.93 6.1727 17.287 1.3571 1.3564 4.9441-0.0323 8.0133-3.1009 3.0692-3.0686 4.4573-6.6569 3.1009-8.0133-1.3571-1.3571-14.218-9.2413-17.287-6.1727z"/><path d="m7.4525 8.2286c-2.7968 2.6586 4.7272 15.107 6.0068 16.453 1.2796 1.3461 4.5845 0.28278 7.38-2.3758 2.7955-2.6593 4.0241-5.906 2.7438-7.2515-1.2802-1.3468-13.336-9.4834-16.131-6.826z" fill="#fff"/><path d="m7.2749 7.7999c-2.7284 2.5953 5.183 15.343 6.5065 16.736 1.3241 1.3919 4.6097 0.41706 7.338-2.1776 2.7284-2.5954 3.8679-5.8273 2.5431-7.2199-1.3241-1.3919-13.659-9.934-16.388-7.3387z"/><path d="m7.6365 8.0149c-2.3526 2.4843 5.8828 14.098 7.2089 15.354 1.3274 1.2557 4.3082 0.25889 6.6601-2.2248 2.3513-2.4843 3.1829-5.5161 1.8561-6.7712-1.3267-1.2564-13.374-8.8423-15.725-6.358z" fill="#f30"/><g transform="matrix(.64561 0 0 .64561 -22.265 -443.18)"><circle cx="84.439" cy="737.54" r="38.751" d="m 123.19,737.54401 c 0,21.40158 -17.34941,38.751 -38.750997,38.751 -21.401586,0 -38.750999,-17.34942 -38.750999,-38.751 0,-21.40159 17.349413,-38.751 38.750999,-38.751 21.401587,0 38.750997,17.34941 38.750997,38.751 z"/></g><circle transform="matrix(.64561 0 0 .64561 -22.265 -443.18)" cx="84.439" cy="737.54" r="37.763" fill="#fff"/><g transform="matrix(.64561 0 0 .64561 -22.265 -443.18)"><circle cx="82.958" cy="736.06" r="37.271" d="m 120.229,736.06201 c 0,20.58421 -16.68679,37.271 -37.271,37.271 -20.584205,0 -37.271,-16.68679 -37.271,-37.271 0,-20.5842 16.686795,-37.271 37.271,-37.271 20.58421,0 37.271,16.6868 37.271,37.271 z"/></g><ellipse transform="matrix(.64561 0 0 .64561 -22.265 -443.18)" cx="80.366" cy="732.48" rx="32.211" ry="32.951" fill="#f30"/><path d="m57.31 7.774c3.0544 3.055-4.9467 16.01-6.3173 17.38s-4.9576 5e-3 -8.0127-3.0505c-3.0557-3.055-4.4205-6.6433-3.0505-8.0133 1.3706-1.3706 14.325-9.3717 17.38-6.3167z"/><path d="m56.511 8.7328c2.791 2.7916-4.782 14.889-6.0681 16.176-1.2861 1.2861-4.5909 0.0659-7.3826-2.7251-2.791-2.791-4.0105-6.0965-2.7251-7.3832 1.2873-1.2854 13.385-8.8584 16.176-6.0675z" fill="#fff"/><path d="m56.41 8.1169c2.6806 2.6812-5.2482 14.958-6.5697 16.278-1.3216 1.3222-4.5658 0.21951-7.247-2.4611-2.6812-2.6806-3.7833-5.9261-2.4617-7.247 1.3209-1.3216 13.598-9.2509 16.278-6.5704z"/><path d="m56.54 7.838c2.4585 2.6354-6.1804 14.692-7.5711 15.989-1.3906 1.2983-4.5115 0.21176-6.9707-2.4243-2.4585-2.6354-3.3255-5.8241-1.9342-7.1211 1.39-1.299 14.016-9.0799 16.476-6.4438z" fill="#f30"/><path d="m50.945 24.566c-1.2906 1.2912-4.6723 4e-3 -7.5511-2.8749-2.8788-2.8788-4.1655-6.2598-2.8743-7.5524 0.28278-0.28213 1.0898-0.86512 2.2099-1.5746-1.6586-0.66305-3.0512-0.70243-3.7981 0.0445-1.5243 1.5249 0.21822 5.7395 3.8924 9.4136 3.6742 3.6742 7.8887 5.4173 9.4137 3.8924 0.68758-0.68757 0.70888-1.9246 0.18916-3.412-0.66627 1.042-1.2105 1.7929-1.4817 2.0634z"/></svg>
