<?xml version="1.0" encoding="UTF-8" standalone="no"?>
<!-- Generator: Adobe Illustrator 17.0.2, SVG Export Plug-In . SVG Version: 6.00 Build 0)  -->

<svg
   xmlns:dc="http://purl.org/dc/elements/1.1/"
   xmlns:cc="http://creativecommons.org/ns#"
   xmlns:rdf="http://www.w3.org/1999/02/22-rdf-syntax-ns#"
   xmlns:svg="http://www.w3.org/2000/svg"
   xmlns="http://www.w3.org/2000/svg"
   xmlns:sodipodi="http://sodipodi.sourceforge.net/DTD/sodipodi-0.dtd"
   xmlns:inkscape="http://www.inkscape.org/namespaces/inkscape"
   version="1.1"
   id="Layer_1"
   x="0px"
   y="0px"
   width="64"
   height="64"
   viewBox="0 0 64 63.999999"
   enable-background="new 0 0 595.276 841.89"
   xml:space="preserve"
   inkscape:version="0.48.5 r10040"
   sodipodi:docname="logo-simple.svg"><metadata
     id="metadata639"><rdf:RDF><cc:Work
         rdf:about=""><dc:format>image/svg+xml</dc:format><dc:type
           rdf:resource="http://purl.org/dc/dcmitype/StillImage" /></cc:Work></rdf:RDF></metadata><defs
     id="defs637" /><sodipodi:namedview
     pagecolor="#ffffff"
     bordercolor="#666666"
     borderopacity="1"
     objecttolerance="10"
     gridtolerance="10"
     guidetolerance="10"
     inkscape:pageopacity="0"
     inkscape:pageshadow="2"
     inkscape:window-width="1185"
     inkscape:window-height="685"
     id="namedview635"
     showgrid="false"
     inkscape:zoom="1.5857387"
     inkscape:cx="247.18833"
     inkscape:cy="118.24697"
     inkscape:window-x="159"
     inkscape:window-y="151"
     inkscape:window-maximized="0"
     inkscape:current-layer="Layer_1" /><path
     d="m 6.7035768,7.8457192 c -3.069234,3.0685798 4.8156112,15.9297998 6.1726852,17.2868698 1.357074,1.35643 4.944088,-0.0323 8.013322,-3.10087 3.069233,-3.06859 4.457297,-6.65689 3.100868,-8.01332 C 22.633378,12.661329 9.772811,4.7771292 6.7035768,7.8457192 z"
     id="path91"
     inkscape:connector-curvature="0" /><path
     d="m 7.4524858,8.2285592 c -2.796786,2.6586298 4.7271622,15.1072998 6.0067632,16.4533898 1.2796,1.3461 4.584482,0.28278 7.379977,-2.37584 2.795495,-2.65927 4.024092,-5.90605 2.743846,-7.2515 C 22.302826,13.707859 10.247335,5.5712292 7.4524858,8.2285592 z"
     id="path93"
     inkscape:connector-curvature="0"
     style="fill:#ffffff" /><path
     d="m 7.2749428,7.7998792 c -2.728352,2.5953498 5.1829632,15.3429398 6.5064662,16.7361698 1.324147,1.39193 4.609661,0.41706 7.338012,-2.17765 2.728351,-2.59535 3.867855,-5.82728 2.543061,-7.21986 C 22.338334,13.746599 10.003294,5.2045192 7.2749428,7.7998792 z"
     id="path95"
     inkscape:connector-curvature="0" /><path
     d="m 7.6364848,8.0148692 c -2.352606,2.4843098 5.8828062,14.0981998 7.2088902,15.3539098 1.327376,1.25572 4.308161,0.25889 6.660121,-2.22477 2.351315,-2.48431 3.182862,-5.5161 1.856131,-6.77117 C 22.034897,13.116479 9.987799,5.5305592 7.6364848,8.0148692 z"
     id="path97"
     inkscape:connector-curvature="0"
     style="fill:#ff3300" /><g
     id="g99"
     transform="matrix(0.64561082,0,0,0.64561082,-22.26498,-443.18446)"><circle
       cx="84.439003"
       cy="737.54401"
       r="38.750999"
       id="circle101"
       sodipodi:cx="84.439003"
       sodipodi:cy="737.54401"
       sodipodi:rx="38.750999"
       sodipodi:ry="38.750999"
       d="m 123.19,737.54401 c 0,21.40158 -17.34941,38.751 -38.750997,38.751 -21.401586,0 -38.750999,-17.34942 -38.750999,-38.751 0,-21.40159 17.349413,-38.751 38.750999,-38.751 21.401587,0 38.750997,17.34941 38.750997,38.751 z" /></g><circle
     cx="84.439003"
     cy="737.54401"
     r="37.763"
     id="circle103"
     sodipodi:cx="84.439003"
     sodipodi:cy="737.54401"
     sodipodi:rx="37.763"
     sodipodi:ry="37.763"
     transform="matrix(0.64561082,0,0,0.64561082,-22.26498,-443.18446)"
     style="fill:#ffffff" /><g
     id="g105"
     transform="matrix(0.64561082,0,0,0.64561082,-22.26498,-443.18446)"><circle
       cx="82.958"
       cy="736.06201"
       r="37.271"
       id="circle107"
       sodipodi:cx="82.958"
       sodipodi:cy="736.06201"
       sodipodi:rx="37.271"
       sodipodi:ry="37.271"
       d="m 120.229,736.06201 c 0,20.58421 -16.68679,37.271 -37.271,37.271 -20.584205,0 -37.271,-16.68679 -37.271,-37.271 0,-20.5842 16.686795,-37.271 37.271,-37.271 20.58421,0 37.271,16.6868 37.271,37.271 z" /></g><ellipse
     cx="80.365997"
     cy="732.48199"
     rx="32.210999"
     ry="32.951"
     id="ellipse109"
     sodipodi:cx="80.365997"
     sodipodi:cy="732.48199"
     sodipodi:rx="32.210999"
     sodipodi:ry="32.951"
     transform="matrix(0.64561082,0,0,0.64561082,-22.26498,-443.18446)"
     style="fill:#ff3300" /><path
     d="m 57.310427,7.7740492 c 3.054385,3.0550298 -4.94667,16.0098598 -6.317302,17.3804898 -1.370632,1.37063 -4.957646,0.005 -8.012676,-3.05051 -3.055676,-3.05503 -4.420497,-6.64333 -3.050511,-8.01332 1.370632,-1.37063 14.325458,-9.3716898 17.380489,-6.3166598 z"
     id="path111"
     inkscape:connector-curvature="0" /><path
     d="m 56.511161,8.7327792 c 2.790975,2.7916298 -4.78204,14.8890798 -6.068096,16.1757798 -1.286057,1.28606 -4.590939,0.0659 -7.38256,-2.72512 -2.790976,-2.79097 -4.010535,-6.0965 -2.725123,-7.3832 1.287348,-1.28542 13.384803,-8.8584298 16.175779,-6.0674598 z"
     id="path113"
     inkscape:connector-curvature="0"
     style="fill:#ffffff" /><path
     d="m 56.4098,8.1168692 c 2.680576,2.6812198 -5.248171,14.9575098 -6.569736,16.2784298 -1.321565,1.32221 -4.56576,0.21951 -7.246981,-2.46107 -2.681222,-2.68057 -3.78328,-5.92606 -2.461714,-7.24698 1.320919,-1.32156 13.597855,-9.2509498 16.278431,-6.5703798 z"
     id="path115"
     inkscape:connector-curvature="0" /><path
     d="m 56.540213,7.8379692 c 2.458486,2.6353798 -6.180432,14.6915198 -7.571078,15.9891998 -1.390646,1.29832 -4.511528,0.21176 -6.97066,-2.42427 -2.458486,-2.63539 -3.325541,-5.82406 -1.93425,-7.12109 1.39,-1.29897 14.016211,-9.0798698 16.475988,-6.4438398 z"
     id="path117"
     inkscape:connector-curvature="0"
     style="fill:#ff3300" /><path
     d="m 50.944704,24.566389 c -1.290576,1.29122 -4.672285,0.004 -7.551064,-2.8749 -2.878779,-2.87878 -4.165481,-6.25985 -2.874259,-7.55236 0.282777,-0.28213 1.089791,-0.86512 2.209925,-1.57464 -1.658574,-0.66305 -3.051156,-0.70243 -3.798128,0.0445 -1.524287,1.52493 0.218216,5.73948 3.892388,9.41365 3.674171,3.67417 7.888718,5.41732 9.413651,3.89239 0.687576,-0.68757 0.708881,-1.92456 0.189164,-3.41205 -0.66627,1.04201 -1.21052,1.79286 -1.481677,2.06337 z"
     id="path119"
     inkscape:connector-curvature="0" /></svg>