<?xml version="1.0" encoding="UTF-8" standalone="no"?>
<!-- Created using Karbon, part of Calligra: http://www.calligra.org/karbon -->

<svg
   xmlns:dc="http://purl.org/dc/elements/1.1/"
   xmlns:cc="http://creativecommons.org/ns#"
   xmlns:rdf="http://www.w3.org/1999/02/22-rdf-syntax-ns#"
   xmlns:svg="http://www.w3.org/2000/svg"
   xmlns="http://www.w3.org/2000/svg"
   xmlns:sodipodi="http://sodipodi.sourceforge.net/DTD/sodipodi-0.dtd"
   xmlns:inkscape="http://www.inkscape.org/namespaces/inkscape"
   width="51.2pt"
   height="51.2pt"
   id="svg2"
   version="1.1"
   inkscape:version="0.48.4 r9939"
   sodipodi:docname="gentoo.svg"
   inkscape:export-filename="/home/matthias/Projekte/OpenRAWeb/content/images/platforms/gentoo-fallback.png"
   inkscape:export-xdpi="90"
   inkscape:export-ydpi="90">
  <metadata
     id="metadata67">
    <rdf:RDF>
      <cc:Work
         rdf:about="">
        <dc:format>image/svg+xml</dc:format>
        <dc:type
           rdf:resource="http://purl.org/dc/dcmitype/StillImage" />
        <dc:title />
      </cc:Work>
    </rdf:RDF>
  </metadata>
  <sodipodi:namedview
     pagecolor="#ffffff"
     bordercolor="#666666"
     borderopacity="1"
     objecttolerance="10"
     gridtolerance="10"
     guidetolerance="10"
     inkscape:pageopacity="0"
     inkscape:pageshadow="2"
     inkscape:window-width="1366"
     inkscape:window-height="721"
     id="namedview65"
     showgrid="false"
     inkscape:zoom="2.6074563"
     inkscape:cx="47.26387"
     inkscape:cy="38.249266"
     inkscape:window-x="-2"
     inkscape:window-y="-3"
     inkscape:window-maximized="1"
     inkscape:current-layer="svg2" />
  <defs
     id="defs4">
    <linearGradient
       id="gradient0"
       gradientTransform="matrix(1.23712 0 0 1.23712 -1063.12 -1035.93)"
       gradientUnits="objectBoundingBox"
       x1="1.31816449897"
       y1="-0.50364900172"
       x2="1.84925915195"
       y2="2.15349410597"
       spreadMethod="pad">
      <stop
         stop-color="#ffffff"
         offset="0.00000000000"
         stop-opacity="1.00000000000"
         id="stop7" />
      <stop
         stop-color="#ffffff"
         offset="0.34214258194"
         stop-opacity="1.00000000000"
         id="stop9" />
      <stop
         stop-color="#bebdf3"
         offset="0.51998251677"
         stop-opacity="1.00000000000"
         id="stop11" />
      <stop
         stop-color="#8f82f9"
         offset="0.75408828259"
         stop-opacity="1.00000000000"
         id="stop13" />
      <stop
         stop-color="#9f99c7"
         offset="0.87114119530"
         stop-opacity="1.00000000000"
         id="stop15" />
      <stop
         stop-color="#524c76"
         offset="1.00000000000"
         stop-opacity="1.00000000000"
         id="stop17" />
    </linearGradient>
    <linearGradient
       id="gradient1"
       gradientTransform="matrix(1.23712 0 0 1.23712 -197.727 -404.598)"
       gradientUnits="objectBoundingBox"
       x1="0.81031797627"
       y1="1.21151764034"
       x2="0.64372788816"
       y2="0.46851210243"
       spreadMethod="pad">
      <stop
         stop-color="#ffffff"
         offset="0.00000000000"
         stop-opacity="1.00000000000"
         id="stop20" />
      <stop
         stop-color="#ffffff"
         offset="0.34214258194"
         stop-opacity="1.00000000000"
         id="stop22" />
      <stop
         stop-color="#bebdf3"
         offset="0.51998251677"
         stop-opacity="1.00000000000"
         id="stop24" />
      <stop
         stop-color="#8f82f9"
         offset="0.75408828259"
         stop-opacity="1.00000000000"
         id="stop26" />
      <stop
         stop-color="#9f99c7"
         offset="0.87114119530"
         stop-opacity="1.00000000000"
         id="stop28" />
      <stop
         stop-color="#524c76"
         offset="1.00000000000"
         stop-opacity="1.00000000000"
         id="stop30" />
    </linearGradient>
    <radialGradient
       id="gradient2"
       gradientTransform="matrix(3.28737 0 0 2.51965 -110.711 -758.688)"
       gradientUnits="objectBoundingBox"
       cx="0.25880547360"
       cy="1.98811643224"
       fx="0.25880547360"
       fy="1.98811643224"
       r="0.12774735760"
       spreadMethod="pad">
      <stop
         stop-color="#ffffff"
         offset="0.00000000000"
         stop-opacity="1.00000000000"
         id="stop33" />
      <stop
         stop-color="#ffffff"
         offset="0.34214258194"
         stop-opacity="1.00000000000"
         id="stop35" />
      <stop
         stop-color="#bebdf3"
         offset="0.51998251677"
         stop-opacity="1.00000000000"
         id="stop37" />
      <stop
         stop-color="#8f82f9"
         offset="0.75408828259"
         stop-opacity="1.00000000000"
         id="stop39" />
      <stop
         stop-color="#9f99c7"
         offset="0.87114119530"
         stop-opacity="1.00000000000"
         id="stop41" />
      <stop
         stop-color="#524c76"
         offset="1.00000000000"
         stop-opacity="1.00000000000"
         id="stop43" />
    </radialGradient>
    <radialGradient
       id="gradient3"
       gradientTransform="matrix(-0.0660395 4.19027 -3.57375 -0.0562683 2108.38 -1212.18)"
       gradientUnits="objectBoundingBox"
       cx="0.64223786312"
       cy="1.11110697058"
       fx="0.64223786312"
       fy="1.11110697058"
       r="0.29373448151"
       spreadMethod="pad">
      <stop
         stop-color="#ffffff"
         offset="0.00000000000"
         stop-opacity="1.00000000000"
         id="stop46" />
      <stop
         stop-color="#ffffff"
         offset="0.34214258194"
         stop-opacity="1.00000000000"
         id="stop48" />
      <stop
         stop-color="#bebdf3"
         offset="0.51998251677"
         stop-opacity="1.00000000000"
         id="stop50" />
      <stop
         stop-color="#8f82f9"
         offset="0.75408828259"
         stop-opacity="1.00000000000"
         id="stop52" />
      <stop
         stop-color="#9f99c7"
         offset="0.87114119530"
         stop-opacity="1.00000000000"
         id="stop54" />
      <stop
         stop-color="#524c76"
         offset="1.00000000000"
         stop-opacity="1.00000000000"
         id="stop56" />
    </radialGradient>
  </defs>
  <g
     id="layer2">
    <path
       id="path2973"
       transform="matrix(1 0 0 1 2.02853 1.07055)"
       fill="url(#gradient0)"
       fill-rule="evenodd"
       d="M0.00652759 49.2468C0.0132917 46.6416 2.22803 43.0042 5.37493 39.6996C7.47798 37.4913 9.61384 35.5528 14.2698 31.583C11.0492 29.8158 6.04029 27.6837 3.52704 24.8914C2.59709 23.8582 0.911541 21.5175 1.23847 18.3902C1.90481 12.0164 9.77194 2.34346 20.9544 0.29843C24.6752 -0.382014 28.9471 0.10916 32.463 1.68983C43.4931 6.64874 56.9824 18.9684 58.6421 24.9837C59.2263 27.101 59.114 30.476 58.1069 32.3569C56.8587 34.6882 52.5377 39.4231 46.6259 44.309C37.3499 51.9753 24.3513 60.2072 14.6454 61.5923C11.5093 62.0399 8.30519 61.5731 6.05664 60.3043C2.53859 58.3192 1.37079 55.6689 0.960275 54.8746C-0.131348 52.7622 0.00414845 50.086 0.00652759 49.2468ZM26.1127 19.976C26.2325 18.4989 32.025 19.9695 31.659 21.1393C31.2728 22.3735 25.9753 21.6706 26.1127 19.976Z" />
  </g>
  <g
     id="layer4"
     style="fill:#e2e2f9;fill-opacity:1">
    <path
       id="path2975"
       transform="matrix(1 0 0 1 3.11438 1.24273)"
       fill="url(#gradient1)"
       fill-rule="evenodd"
       d="M16.3189 28.97C13.2707 31.5436 11.2441 33.2789 8.70323 35.6011C2.5844 41.1936 -1.57308 45.4505 0.570342 51.2695C3.04293 57.9821 8.46306 57.6418 14.819 56.3941C31.2021 53.1628 58.133 32.4588 56.7603 24.8115C55.6496 18.6237 40.6036 6.32147 31.6952 1.94375C28.9122 0.576112 25.7048 -0.131217 22.4877 0.0201495C10.2382 0.598306 0.672106 11.7509 1.16078 17.7935C1.63619 23.6723 16.4942 28.7946 16.3189 28.97ZM14.4801 8.44719C10.7942 12.5481 13.1509 20.4824 19.2635 24.8071C26.416 29.8675 37.9987 30.7837 40.3036 26.8811C44.6028 19.6019 39.9087 11.9049 32.9015 8.4715C25.9772 5.07866 16.7778 5.89087 14.4801 8.44719Z"
       style="fill:#e2e2f9;fill-opacity:1" />
    <path
       id="path4976"
       transform="matrix(1 0 0 1 21.5439 10.0436)"
       fill="url(#gradient2)"
       fill-rule="evenodd"
       d="M8.62088 15.8342C13.7955 16.5535 18.2558 14.4811 18.9533 9.37136C19.4846 5.479 13.5276 1.22627 9.94607 0.245398C6.95528 -0.573689 0.462101 0.479566 0.0243586 6.13623C-0.430693 12.0166 5.60358 15.4148 8.62088 15.8342ZM6.0868 6.05403C2.68603 11.3224 11.0245 12.9422 12.3011 11.9814C17.805 7.83911 7.5851 3.7329 6.0868 6.05403Z"
       style="fill:#e2e2f9;fill-opacity:1" />
  </g>
  <g
     id="layer5"
     style="fill:#c3c2f4;fill-opacity:1">
    <path
       id="path2977"
       transform="matrix(1 0 0 1 5.41001 2.58198)"
       fill="url(#gradient3)"
       fill-rule="evenodd"
       d="M19.2047 0.0807518C13.1893 0.714681 12.0372 1.4889 6.58766 5.61193C4.76123 6.99379 1.39966 10.3561 0.538345 14.3449C0.210308 15.8641 0.598063 17.1756 1.69217 18.0954C5.19555 21.0408 11.0591 23.4303 15.8696 25.7402C17.2786 26.4168 16.3457 27.6436 14.0736 29.6106C8.34008 34.5743 0.588326 40.6164 0.0471629 45.2204C-0.207847 47.39 0.534889 50.338 3.16823 51.8466C6.24439 53.609 12.63 52.4587 16.894 50.8709C23.1249 48.5506 31.3099 43.4298 37.808 38.3962C44.5651 33.1619 50.8478 26.5136 51.1586 25.4292C51.5402 24.0977 51.5022 22.8679 50.7657 21.4539C49.6091 19.2334 48.0629 17.5834 46.4026 15.7366C41.9479 11.0401 37.2345 6.91343 31.5952 3.75109C27.5228 1.46745 23.9398 -0.418252 19.2047 0.0807518ZM28.0411 10.6098C32.387 12.7109 36.8499 18.2298 28.0024 21.4062C25.5965 22.27 17.9665 19.2849 18.2001 15.2112C18.5407 9.19361 22.7347 8.0443 28.0411 10.6098Z"
       style="fill:#c3c2f4;fill-opacity:1" />
  </g>
</svg>
