<?xml version="1.0" encoding="UTF-8" standalone="no"?>
<!-- Created with Inkscape (http://www.inkscape.org/) -->

<svg
   xmlns:dc="http://purl.org/dc/elements/1.1/"
   xmlns:cc="http://creativecommons.org/ns#"
   xmlns:rdf="http://www.w3.org/1999/02/22-rdf-syntax-ns#"
   xmlns:svg="http://www.w3.org/2000/svg"
   xmlns="http://www.w3.org/2000/svg"
   version="1.1"
   width="64"
   height="64"
   id="svg2985">
  <metadata
     id="metadata2991">
    <rdf:RDF>
      <cc:Work
         rdf:about="">
        <dc:format>image/svg+xml</dc:format>
        <dc:type
           rdf:resource="http://purl.org/dc/dcmitype/StillImage" />
        <dc:title></dc:title>
      </cc:Work>
    </rdf:RDF>
  </metadata>
  <g
     transform="translate(0.5879549,-0.44555069)"
     id="g3192">
    <g
       transform="translate(0.38351506,0.76703071)"
       id="layer2"
       style="fill:#524c76;fill-opacity:1">
      <path
         d="M 0.00652759,49.2468 C 0.0132917,46.6416 2.22803,43.0042 5.37493,39.6996 7.47798,37.4913 9.61384,35.5528 14.2698,31.583 11.0492,29.8158 6.04029,27.6837 3.52704,24.8914 2.59709,23.8582 0.911541,21.5175 1.23847,18.3902 1.90481,12.0164 9.77194,2.34346 20.9544,0.29843 24.6752,-0.382014 28.9471,0.10916 32.463,1.68983 43.4931,6.64874 56.9824,18.9684 58.6421,24.9837 59.2263,27.101 59.114,30.476 58.1069,32.3569 56.8587,34.6882 52.5377,39.4231 46.6259,44.309 37.3499,51.9753 24.3513,60.2072 14.6454,61.5923 11.5093,62.0399 8.30519,61.5731 6.05664,60.3043 2.53859,58.3192 1.37079,55.6689 0.960275,54.8746 -0.131348,52.7622 0.00414845,50.086 0.00652759,49.2468 z M 26.1127,19.976 c 0.1198,-1.4771 5.9123,-0.0065 5.5463,1.1633 -0.3862,1.2342 -5.6837,0.5313 -5.5463,-1.1633 z"
         transform="translate(2.02853,1.07055)"
         id="path2973"
         style="fill:#524c76;fill-opacity:1;fill-rule:evenodd" />
    </g>
    <g
       transform="translate(0.38351506,0.76703071)"
       id="layer4"
       style="fill:#e2e2f9;fill-opacity:1">
      <path
         d="M 6.0868,6.05403 C 2.68603,11.3224 11.0245,12.9422 12.3011,11.9814 17.805,7.83911 7.5851,3.7329 6.0868,6.05403 z m -8.19742,14.1151 c -3.0482,2.5736 -5.0748,4.3089 -7.61567,6.6311 -6.11883,5.5925 -10.27631,9.8494 -8.132888,15.6684 2.472588,6.7126 7.892718,6.3723 14.248658,5.1246 16.3831,-3.2313 43.314,-23.9353 41.9413,-31.5826 C 37.22008,9.82283 22.17408,-2.4794 13.26568,-6.85712 10.48268,-8.224758 7.27528,-8.932087 4.05818,-8.7807205 -8.19132,-8.202564 -17.757414,2.95003 -17.26874,8.99263 c 0.47541,5.8788 15.33342,11.0011 15.15812,11.1765 z"
         transform="translate(21.5439,10.0436)"
         id="path4976"
         style="fill:#e2e2f9;fill-opacity:1;fill-rule:evenodd" />
    </g>
    <path
       d="m 24.998225,3.4297627 c -6.0154,0.633929 -7.1675,1.408148 -12.61704,5.531178 -1.82643,1.3818603 -5.188,4.7441703 -6.049315,8.7329703 -0.328037,1.5192 0.05972,2.8307 1.153825,3.7505 3.50338,2.9454 9.36693,5.3349 14.17743,7.6448 1.409,0.6766 0.4761,1.9034 -1.796,3.8704 -5.73352,4.9637 -13.485274,11.0058 -14.026437,15.6098 -0.25501,2.1696 0.487726,5.1176 3.121067,6.6262 3.07616,1.7624 9.46177,0.6121 13.72577,-0.9757 6.2309,-2.3203 14.4159,-7.4411 20.914,-12.4747 6.7571,-5.2343 13.0398,-11.8826 13.3506,-12.967 0.3816,-1.3315 0.3436,-2.5613 -0.3929,-3.9753 -1.1566,-2.2205 -2.7028,-3.8705 -4.3631,-5.7173 -4.4547,-4.6965 -9.1681,-8.82317 -14.8074,-11.9855103 -4.0724,-2.28364 -7.6554,-4.169342 -12.3905,-3.670338 z m 8.8364,10.5290483 c 4.3459,2.1011 8.8088,7.62 -0.0387,10.7964 -2.4059,0.8638 -10.0359,-2.1213 -9.8023,-6.195 0.3406,-6.01759 4.5346,-7.1669 9.841,-4.6014 z"
       id="path2977"
       style="fill:#c3c2f4;fill-opacity:1;fill-rule:evenodd" />
  </g>
</svg>