<?xml version="1.0" encoding="UTF-8"?>
<svg version="1.1" viewBox="0 0 24 24" xmlns="http://www.w3.org/2000/svg" xmlns:cc="http://creativecommons.org/ns#" xmlns:dc="http://purl.org/dc/elements/1.1/" xmlns:rdf="http://www.w3.org/1999/02/22-rdf-syntax-ns#">
<metadata>
<rdf:RDF>
<cc:Work rdf:about="">
<dc:format>image/svg+xml</dc:format>
<dc:type rdf:resource="http://purl.org/dc/dcmitype/StillImage"/>
<dc:title/>
</cc:Work>
</rdf:RDF>
</metadata>
<g transform="matrix(.37291 0 0 .37291 .10053 -.21527)">
<g transform="translate(.38352 .76703)" fill="#524c76">
<path transform="translate(2.0285 1.0706)" d="m0.0065276 49.247c0.0067641-2.6052 2.2215-6.2426 5.3684-9.5472 2.103-2.2083 4.2389-4.1468 8.8949-8.1166-3.2206-1.7672-8.2295-3.8993-10.743-6.6916-0.92995-1.0332-2.6155-3.3739-2.2886-6.5012 0.66634-6.3738 8.5335-16.047 19.716-18.092 3.7208-0.68044 7.9927-0.18927 11.509 1.3914 11.03 4.9589 24.519 17.279 26.179 23.294 0.5842 2.1173 0.4719 5.4923-0.5352 7.3732-1.2482 2.3313-5.5692 7.0662-11.481 11.952-9.276 7.6663-22.275 15.898-31.98 17.283-3.1361 0.4476-6.3402-0.0192-8.5888-1.288-3.518-1.9851-4.6858-4.6354-5.0964-5.4297-1.0916-2.1124-0.95613-4.7886-0.95375-5.6278zm26.106-29.271c0.1198-1.4771 5.9123-0.0065 5.5463 1.1633-0.3862 1.2342-5.6837 0.5313-5.5463-1.1633z" fill="#524c76" fill-rule="evenodd"/>
</g>
<g transform="translate(.38352 .76703)" fill="#e2e2f9">
<path transform="translate(21.544 10.044)" d="m6.0868 6.054c-3.4008 5.2684 4.9377 6.8882 6.2143 5.9274 5.5039-4.1423-4.716-8.2485-6.2143-5.9274zm-8.1974 14.115c-3.0482 2.5736-5.0748 4.3089-7.6157 6.6311-6.1188 5.5925-10.276 9.8494-8.1329 15.668 2.4726 6.7126 7.8927 6.3723 14.249 5.1246 16.383-3.2313 43.314-23.935 41.941-31.583-1.1107-6.1878-16.157-18.49-25.065-22.868-2.783-1.3676-5.9904-2.075-9.2075-1.9236-12.25 0.57816-21.816 11.731-21.327 17.773 0.47541 5.8788 15.333 11.001 15.158 11.176z" fill="#e2e2f9" fill-rule="evenodd"/>
</g>
<path d="m24.998 3.4298c-6.0154 0.63393-7.1675 1.4081-12.617 5.5312-1.8264 1.3819-5.188 4.7442-6.0493 8.733-0.32804 1.5192 0.05972 2.8307 1.1538 3.7505 3.5034 2.9454 9.3669 5.3349 14.177 7.6448 1.409 0.6766 0.4761 1.9034-1.796 3.8704-5.7335 4.9637-13.485 11.006-14.026 15.61-0.25501 2.1696 0.48773 5.1176 3.1211 6.6262 3.0762 1.7624 9.4618 0.6121 13.726-0.9757 6.2309-2.3203 14.416-7.4411 20.914-12.475 6.7571-5.2343 13.04-11.883 13.351-12.967 0.3816-1.3315 0.3436-2.5613-0.3929-3.9753-1.1566-2.2205-2.7028-3.8705-4.3631-5.7173-4.4547-4.6965-9.1681-8.8232-14.807-11.986-4.0724-2.2836-7.6554-4.1693-12.39-3.6703zm8.8364 10.529c4.3459 2.1011 8.8088 7.62-0.0387 10.796-2.4059 0.8638-10.036-2.1213-9.8023-6.195 0.3406-6.0176 4.5346-7.1669 9.841-4.6014z" fill="#c3c2f4" fill-rule="evenodd"/>
</g>
</svg>
