<?xml version="1.0" encoding="UTF-8"?>
<svg version="1.1" viewBox="0 0 64 64" xmlns="http://www.w3.org/2000/svg" xmlns:cc="http://creativecommons.org/ns#" xmlns:dc="http://purl.org/dc/elements/1.1/" xmlns:rdf="http://www.w3.org/1999/02/22-rdf-syntax-ns#">
<metadata>
<rdf:RDF>
<cc:Work rdf:about="">
<dc:format>image/svg+xml</dc:format>
<dc:type rdf:resource="http://purl.org/dc/dcmitype/StillImage"/>
<dc:title/>
</cc:Work>
</rdf:RDF>
</metadata>
<path d="m56.183 50.225c-8.3e-4 -8.33e-4 -0.0017-0.0017-0.0017-0.0021-0.42819-0.4833-0.63216-1.3793-0.85152-2.3339-0.21879-0.95389-0.46354-1.9826-1.2467-2.6493-0.0017-0.0017-0.0037-0.0029-0.0049-0.0042-0.15528-0.13549-0.31473-0.24972-0.47489-0.34503-0.16079-0.09525-0.32384-0.17286-0.48676-0.23424 1.0887-3.2285 0.66184-6.4436-0.4374-9.3484-1.3483-3.5658-3.7027-6.6722-5.5011-8.7973-2.0129-2.5393-3.9814-4.9494-3.9426-8.5096 0.05991-5.4334 0.59752-15.509-8.964-15.523-0.38876-8.315e-4 -0.79444 0.015517-1.2171 0.04939-10.685 0.86006-7.8506 12.149-8.0093 15.928-0.19544 2.7643-0.75564 4.943-2.6571 7.6453-2.233 2.6557-5.3784 6.9545-6.8678 11.43-0.70272 2.1117-1.0371 4.2642-0.72882 6.3018-0.09666 0.08678-0.18838 0.17786-0.27657 0.271-0.65545 0.7006-1.1402 1.5486-1.6799 2.1194-0.50447 0.50383-1.2227 0.69503-2.0129 0.97788-0.79021 0.2837-1.6573 0.70131-2.1837 1.7116 0 0 0 8.31e-4 -8.315e-4 8.31e-4 -8.327e-4 0.0012-0.0012 0.0032-0.00295 0.0049-0.24765 0.46213-0.32808 0.96095-0.32808 1.4668 0 0.46778 0.069145 0.94197 0.13899 1.3984 0.14534 0.94966 0.2928 1.8477 0.09737 2.456-0.62511 1.7095-0.70554 2.8913-0.26528 3.7493 0.44167 0.85935 1.3483 1.2382 2.3734 1.4527 2.0503 0.42756 4.8266 0.32173 7.0145 1.4816l0.18838-0.35489-0.18626 0.35559c2.3424 1.2248 4.7173 1.6595 6.6116 1.227 1.3744-0.3132 2.4892-1.1316 3.0621-2.3904 1.4816-0.0071 3.1079-0.63499 5.7128-0.77814 1.7674-0.14259 3.975 0.62786 6.5143 0.48676 0.06632 0.27516 0.16234 0.54044 0.29351 0.79232 0.0017 0.0021 0.0029 0.0049 0.0042 0.0071 0.98416 1.9685 2.8129 2.8687 4.7624 2.7149 1.9515-0.15388 4.0265-1.3045 5.7043-3.3005l-0.30762-0.25823 0.3098 0.25541c1.5988-1.9388 4.2523-2.7424 6.0126-3.8036 0.87982-0.53057 1.5931-1.1951 1.6489-2.1604 0.0549-0.96448-0.51166-2.0454-1.8141-3.491z" fill="#202020" stroke-width=".070554"/>
<path d="m57.194 53.67c-0.03387 0.59541-0.46495 1.0379-1.2615 1.5176-1.5918 0.96024-4.4132 1.7956-6.2144 3.9778-1.565 1.8619-3.4728 2.8843-5.1526 3.0169-1.6798 0.13264-3.1291-0.56444-3.9842-2.2796l-0.0017-0.0032-0.0021-0.0043c-0.53065-1.009-0.30981-2.6 0.1368-4.2791 0.44661-1.6785 1.0887-3.4028 1.1747-4.8033v-0.0044c0.09023-1.7948 0.1912-3.3626 0.4924-4.5726 0.30197-1.21 0.7768-2.0284 1.6179-2.4892 0.03952-0.02118 0.07823-0.04162 0.11705-0.06068 0.09532 1.5543 0.86506 3.1404 2.2253 3.4833 1.4888 0.39235 3.6343-0.88475 4.5402-1.9268 0.18125-0.0071 0.35764-0.01622 0.52916-0.02046 0.79515-0.01913 1.4612 0.02679 2.1427 0.62229l0.0021 0.0021 0.0021 0.0017c0.52351 0.44379 0.77257 1.282 0.98847 2.2203 0.21597 0.93915 0.38805 1.9614 1.0358 2.6902l8.32e-4 8.31e-4 8.3e-4 0.0017c1.2446 1.3807 1.6447 2.3135 1.6101 2.9097z" fill="#f8bf11" stroke-width=".070554"/>
<path d="m26.944 58.071-8.31e-4 0.0042v0.0049c-0.14393 1.8866-1.2079 2.9139-2.8419 3.2871-1.6326 0.37323-3.8473 0.0017-6.0585-1.155-8.31e-4 0-0.0012-8.31e-4 -0.0021-8.31e-4 -2.4468-1.296-5.3572-1.1669-7.2248-1.5571-0.93339-0.19472-1.543-0.48823-1.8224-1.0329-0.2794-0.54538-0.28574-1.4958 0.30832-3.1164l0.00294-0.0071 0.00206-0.0071c0.29421-0.90662 0.076197-1.8986-0.066312-2.8299-0.14252-0.93054-0.21237-1.7779 0.10583-2.3678l0.00294-0.0057c0.4071-0.78456 1.004-1.0654 1.7448-1.3307 0.74152-0.26599 1.6199-0.47476 2.3135-1.1705l0.0042-0.0032 0.0032-0.0032c0.64134-0.67662 1.1232-1.5254 1.687-2.1272 0.47554-0.50799 0.95178-0.84454 1.6693-0.84948 0.0085 8.34e-4 0.01622 8.34e-4 0.02471 0 0.12559 8.34e-4 0.25894 0.01128 0.40004 0.03324 0.95248 0.14393 1.7829 0.80989 2.583 1.895l2.3099 4.21 8.34e-4 0.0021 0.0012 0.0012c0.61452 1.2834 1.9127 2.6952 3.0127 4.1352 1.0999 1.4394 1.9508 2.885 1.8401 3.9913z" fill="#f8bf11" stroke-width=".070554"/>
<path d="m38.464 18.824c-0.18556-0.36335-0.56444-0.70907-1.2093-0.97365l-0.0012-8.32e-4 -0.0021-8.31e-4c-1.3413-0.57431-1.9234-0.61523-2.6719-1.1021-1.2185-0.78315-2.2253-1.0576-3.0621-1.0541-0.43814 0.0012-0.82972 0.07902-1.1804 0.20037-1.0195 0.35065-1.6961 1.0823-2.1202 1.4838l-8.34e-4 8.33e-4c0 8.31e-4 -8.31e-4 8.31e-4 -8.31e-4 0.0012-0.08325 0.07902-0.1905 0.15099-0.45014 0.34148-0.26176 0.1912-0.65404 0.47906-1.2185 0.90239-0.50164 0.37605-0.66462 0.8657-0.49106 1.4393 0.17286 0.57361 0.726 1.2354 1.7378 1.8076l0.0012 0.0012 0.0021 8.32e-4c0.62793 0.369 1.0569 0.86641 1.5494 1.2622 0.24623 0.19755 0.50517 0.37394 0.81702 0.50728 0.31185 0.13335 0.67591 0.22366 1.1317 0.25047 1.0696 0.06209 1.857-0.25894 2.5519-0.65686 0.69637-0.39722 1.2861-0.88334 1.9628-1.1028l0.0012-8.32e-4 0.0017-8.33e-4c1.387-0.43321 2.3763-1.306 2.6859-2.135 0.15522-0.41486 0.15028-0.80855-0.03457-1.1719z" fill="#f8bf11" stroke-width=".070554"/>
<path d="m34.945 20.872c-1.1035 0.57521-2.3925 1.2728-3.7641 1.2728-1.3709 0-2.4539-0.63358-3.2328-1.2509-0.38946-0.30832-0.70554-0.61523-0.94402-0.83819-0.41376-0.3266-0.36419-0.78468-0.1942-0.77116 0.28495 0.03557 0.32803 0.41075 0.50746 0.57854 0.24271 0.22719 0.5468 0.5214 0.91509 0.81349 0.73659 0.58348 1.7187 1.1514 2.9485 1.1514 1.2276 0 2.6607-0.72072 3.5355-1.2114 0.49559-0.278 1.1262-0.77632 1.6409-1.1541 0.39375-0.28902 0.37939-0.63705 0.70449-0.59916 0.32511 0.03788 0.08461 0.38521-0.37067 0.78255s-1.1675 0.92454-1.7461 1.2261z" fill="#202020" stroke-width=".070554"/>
<path d="m51.842 44.42c-0.1531-0.0057-0.30409-0.0049-0.45084-0.0012-0.01339 8.3e-4 -0.02679 8.3e-4 -0.04093 8.3e-4 0.37888-1.1966-0.45931-2.0792-2.6931-3.0896-2.3163-1.0187-4.162-0.91791-4.4738 1.1493-0.01976 0.10795-0.03598 0.21872-0.04798 0.33019-0.17356 0.06068-0.34713 0.13688-0.5221 0.23212-1.0872 0.59548-1.6813 1.675-2.0115 3-0.32948 1.3236-0.42474 2.9231-0.51504 4.7215v0.0012c-0.05574 0.90387-0.42826 2.1272-0.80503 3.4227-3.7944 2.7071-9.0606 3.8797-13.532 0.82753-0.30268-0.47906-0.65051-0.95389-1.0082-1.4224-0.2286-0.29908-0.46354-0.59618-0.69637-0.88962 0.4586 8.32e-4 0.84877-0.07486 1.1641-0.21731 0.39228-0.1785 0.66745-0.46354 0.80432-0.8305 0.27234-0.73306-0.0012-1.7674-0.87417-2.9492-0.87276-1.1811-2.3509-2.5139-4.5225-3.8459v-8.32e-4c-1.5959-0.9927-2.4877-2.2091-2.9054-3.5298-0.41838-1.3215-0.35983-2.7502-0.0374-4.1606 0.61806-2.7072 2.2055-5.3403 3.2187-6.9926 0.27234-0.20038 0.09737 0.37252-1.0259 2.4581-1.0061 1.9064-2.8878 6.3061-0.31185 9.7408 0.06914-2.4441 0.65263-4.9368 1.6326-7.2686 1.4273-3.2349 4.4125-8.8461 4.6495-13.318 0.12277 0.0889 0.54256 0.37253 0.72954 0.47906 8.31e-4 8.32e-4 8.31e-4 8.32e-4 0.0012 8.32e-4 0.5475 0.32244 0.95883 0.79374 1.4915 1.222 0.5341 0.42897 1.2008 0.79938 2.2083 0.85794 0.09666 0.0057 0.1912 0.0084 0.28362 0.0084 1.0386 0 1.8485-0.33866 2.523-0.72459 0.73313-0.41909 1.3187-0.88334 1.874-1.064 8.32e-4 -8.33e-4 0.0012-8.33e-4 0.0021-8.33e-4 1.1733-0.36688 2.1053-1.016 2.6358-1.7723 0.91156 3.5926 3.031 8.7819 4.3935 11.314 0.72459 1.3434 2.1652 4.198 2.7876 7.6375 0.3944-0.01206 0.82901 0.04515 1.294 0.16432 1.6277-4.2199-1.38-8.7643-2.7559-10.03-0.55526-0.53903-0.58207-0.78033-0.3062-0.76904 1.4915 1.3201 3.4507 3.9736 4.1634 6.9694 0.32519 1.3659 0.3944 2.8024 0.0458 4.2199 0.17003 0.07055 0.3436 0.14746 0.51928 0.23078 2.6126 1.272 3.5785 2.3783 3.1143 3.8882z" fill="#fff" stroke-width=".070554"/>
<path d="m33.224 33.013a12.029 17.803 0 0 0 -11.166 11.289l0.26458 0.16468v0.01489c2.0371 1.2934 3.4878 2.5911 4.3844 3.8044v1.41e-4h1.39e-4c0.94774 1.2833 1.3695 2.5332 0.96792 3.6141l-1.44e-4 4.17e-4 -1.39e-4 4.13e-4c-0.2033 0.54503-0.63641 0.98181-1.1731 1.226l-8.32e-4 4.14e-4 -8.32e-4 4.17e-4c-0.05641 0.02546-0.11667 0.04432-0.17515 0.06616 0.32102 0.42114 0.63547 0.85503 0.9252 1.3007 4.0913 2.7229 8.8507 1.7155 12.423-0.74798 0.34884-1.2021 0.66654-2.323 0.71023-3.0238 0.09043-1.8006 0.18126-3.4315 0.53494-4.8523v-1.39e-4c0.35646-1.4305 1.0499-2.7323 2.3572-3.4483l8.32e-4 -4.16e-4 8.31e-4 -4.16e-4c0.07347-0.03998 0.14724-0.06334 0.2209-0.09811 0.02359-0.14146 0.05631-0.27765 0.09605-0.40899a12.029 17.803 0 0 0 -10.37 -8.9014zm10.266 9.3389-0.0037 0.02176c3.5e-4 -0.0025 0.0012-0.0047 0.0017-0.0071 8.33e-4 -0.0048 0.0012-0.0098 0.0021-0.0146z" color="#000000" color-rendering="auto" fill="#e6e6e6" image-rendering="auto" shape-rendering="auto" solid-color="#000000" style="isolation:auto;mix-blend-mode:normal"/>
<path d="m38.587 14.686c0.0057 0.71189-0.11712 1.318-0.38734 1.9367-0.15381 0.35277-0.33083 0.6491-0.54319 0.90591-0.07204-0.03457-0.14675-0.06772-0.22443-0.09948-0.26881-0.115-0.50658-0.20955-0.71959-0.28998-0.21314-0.08043-0.37943-0.13539-0.55095-0.19466 0.12424-0.15028 0.369-0.32737 0.46008-0.54962 0.13829-0.33513 0.20602-0.6625 0.21872-1.0527 0-0.01552 0.0049-0.02891 0.0049-0.04727 0.0077-0.37394-0.04163-0.69355-0.15099-1.0209-0.1143-0.3436-0.25971-0.59054-0.46989-0.79585-0.21096-0.20531-0.42121-0.29845-0.67379-0.30691-0.01198-8.31e-4 -0.0233-8.31e-4 -0.03528-8.31e-4 -0.23706 8.31e-4 -0.44308 0.08256-0.65623 0.26035-0.22366 0.18697-0.38946 0.42615-0.52768 0.75916-0.13758 0.33302-0.20531 0.66321-0.21879 1.0555-0.0021 0.01552-0.0021 0.02891-0.0021 0.04445-0.0049 0.2159 0.0092 0.41345 0.04233 0.60536-0.48542-0.242-1.1064-0.41847-1.5354-0.52077-0.02471-0.18556-0.03881-0.37676-0.04304-0.57713v-0.05433c-0.0077-0.70977 0.10866-1.3187 0.3817-1.9367 0.27304-0.61876 0.611-1.0633 1.0865-1.4252 0.47624-0.36123 0.94409-0.52704 1.4979-0.53268h0.02613c0.54186 0 1.0054 0.15945 1.4816 0.50446 0.48329 0.35136 0.83183 0.79021 1.1126 1.404 0.27516 0.5983 0.40781 1.1832 0.42128 1.8767-7.1e-5 0.01835-7.1e-5 0.03388 0.0048 0.05221z" fill="#fff" stroke-width=".070554"/>
<path d="m30.397 15.395c-0.07127 0.02046-0.1404 0.04233-0.20884 0.06563-0.38805 0.13405-0.69615 0.282-0.99389 0.47884 0.02891-0.20602 0.03315-0.41486 0.0106-0.64839-0.0021-0.01269-0.0021-0.0233-0.0021-0.03598-0.03103-0.30973-0.09666-0.56937-0.20602-0.83183-0.11641-0.27305-0.24694-0.46566-0.41839-0.61382-0.15522-0.13405-0.30197-0.19614-0.46424-0.19473-0.01622 0-0.03315 8.31e-4 -0.05009 0.0021-0.18203 0.01552-0.33302 0.10442-0.47624 0.27869-0.14252 0.17356-0.23636 0.38946-0.30409 0.67591-0.06772 0.28574-0.08537 0.56655-0.05714 0.88898 0 0.01269 0.0029 0.0233 0.0029 0.03598 0.03103 0.31255 0.09384 0.57219 0.20531 0.83466 0.1143 0.27022 0.24694 0.46284 0.41839 0.611 0.02891 0.02471 0.05714 0.04727 0.08537 0.06703-0.1778 0.13758-0.29725 0.23517-0.44401 0.34241-0.09384 0.06845-0.20531 0.15028-0.33513 0.24624-0.28282-0.26535-0.50365-0.59836-0.69697-1.0379-0.2286-0.51928-0.35066-1.0393-0.38734-1.6531v-0.0049c-0.03387-0.61382 0.02613-1.1416 0.19473-1.6877 0.16933-0.54609 0.3951-0.9412 0.72319-1.2657 0.32737-0.32526 0.65756-0.48894 1.0555-0.5094 0.03104-0.0012 0.06136-0.0021 0.09172-0.0021 0.36053 8.32e-4 0.68226 0.12065 1.0153 0.38664 0.36124 0.28857 0.63428 0.65757 0.86288 1.1775 0.2293 0.51999 0.35136 1.04 0.38523 1.6538v0.0049c0.01622 0.25752 0.01412 0.50023-0.0064 0.73518z" fill="#fff" stroke-width=".070554"/>
<path d="m32.207 16.863c0.04564 0.14649 0.28172 0.12221 0.41813 0.19247 0.11969 0.06165 0.21595 0.19677 0.35054 0.20066 0.12844 0.0037 0.32833-0.04449 0.34503-0.17188 0.02209-0.16832-0.22371-0.27528-0.38188-0.33694-0.20353-0.07935-0.46429-0.11961-0.65521-0.01348-0.04374 0.02434-0.0915 0.08138-0.07662 0.12916z" fill="#202020"/>
<path d="m30.812 16.863c-0.04563 0.14649-0.28172 0.12221-0.41813 0.19247-0.11969 0.06165-0.21596 0.19677-0.35053 0.20066-0.12844 0.0037-0.32833-0.04449-0.34504-0.17188-0.02209-0.16832 0.22371-0.27528 0.38188-0.33694 0.20353-0.07935 0.46429-0.11961 0.65521-0.01348 0.04375 0.02434 0.0915 0.08138 0.07661 0.12916z" fill="#202020"/>
</svg>
