<?xml version="1.0" encoding="UTF-8" standalone="no"?>
<!-- Created with Inkscape (http://www.inkscape.org/) -->

<svg
   xmlns:dc="http://purl.org/dc/elements/1.1/"
   xmlns:cc="http://creativecommons.org/ns#"
   xmlns:rdf="http://www.w3.org/1999/02/22-rdf-syntax-ns#"
   xmlns:svg="http://www.w3.org/2000/svg"
   xmlns="http://www.w3.org/2000/svg"
   xmlns:sodipodi="http://sodipodi.sourceforge.net/DTD/sodipodi-0.dtd"
   xmlns:inkscape="http://www.inkscape.org/namespaces/inkscape"
   version="1.1"
   width="24"
   height="24"
   id="svg2985"
   inkscape:version="0.92.2 5c3e80d, 2017-08-06"
   sodipodi:docname="opensuse.svg"
   viewBox="0 0 14.4 14.4"
   inkscape:export-filename="/home/matthias/Entwicklung/OpenRAWeb/content/images/platforms/opensuse-fallback.png"
   inkscape:export-xdpi="96"
   inkscape:export-ydpi="96">
  <sodipodi:namedview
     pagecolor="#ffffff"
     bordercolor="#666666"
     borderopacity="1"
     objecttolerance="10"
     gridtolerance="10"
     guidetolerance="10"
     inkscape:pageopacity="0"
     inkscape:pageshadow="2"
     inkscape:window-width="1920"
     inkscape:window-height="1007"
     id="namedview23"
     showgrid="false"
     inkscape:zoom="1.84375"
     inkscape:cx="-24.041385"
     inkscape:cy="5.0273189"
     inkscape:window-x="0"
     inkscape:window-y="0"
     inkscape:window-maximized="1"
     inkscape:current-layer="svg2985"
     scale-x="0.6" />
  <defs
     id="defs24" />
  <metadata
     id="metadata2991">
    <rdf:RDF>
      <cc:Work
         rdf:about="">
        <dc:format>image/svg+xml</dc:format>
        <dc:type
           rdf:resource="http://purl.org/dc/dcmitype/StillImage" />
        <dc:title></dc:title>
      </cc:Work>
    </rdf:RDF>
  </metadata>
  <g
     transform="matrix(0.09386569,0,0,0.09386569,-2.200129,-2.2067092)"
     id="g4851"
     style="fill:#73ba25;fill-opacity:1">
    <path
       d="m 100,30.15625 c -38.57068,0 -69.84375,31.269508 -69.84375,69.84375 0,38.57424 31.273072,69.84375 69.84375,69.84375 38.57068,0 69.84374,-31.26951 69.84375,-69.84375 0,-38.57424 -31.27307,-69.84375 -69.84375,-69.84375 z m 0.33443,9.672652 c 33.23352,0 60.19682,26.941143 60.19682,60.171098 0,33.23353 -26.96686,60.1711 -60.19682,60.1711 -17.944821,0 -34.047203,-7.86473 -45.070445,-20.32286 4.532491,-3.51775 12.115629,-2.65954 21.454765,-1.59496 4.475525,0.50915 9.577453,1.09159 14.843405,1.20908 14.711895,0.0855 30.541335,-2.5996 40.311295,-6.86861 6.31629,-2.77006 10.36035,-4.59427 12.88829,-6.89434 0.91149,-0.7477 1.39015,-1.99679 1.87794,-3.29281 l 0.33442,-0.87466 c 0.40946,-1.04678 0.99706,-3.29926 1.26053,-4.52762 0.1175,-0.53764 0.17517,-1.1158 -0.2058,-1.41489 l -1.36343,0.25726 c -4.28682,2.57066 -14.99713,7.4667 -25.03056,7.66609 -12.43319,0.25991 -37.492093,-12.51643 -40.105489,-13.86585 l -0.257252,-0.3087 c -0.626644,-1.49541 -4.376768,-10.39808 -5.170752,-12.270896 18.037389,11.877766 32.991863,18.452076 44.453043,19.473926 12.74296,1.13224 22.683,-5.82499 26.93421,-8.79799 0.8296,-0.56612 1.46367,-1.01005 1.72359,-1.10618 l 0.28298,-0.46306 c -0.70498,-4.47909 -7.39073,-26.153517 -12.42525,-31.35894 -1.39571,-1.427752 -2.50536,-2.81725 -4.75915,-4.141747 C 114.08824,60.052429 70.821318,53.655843 68.795407,53.360325 l -0.334426,0.1029 -0.128626,0.282977 c 0,0 -0.162274,8.984421 -0.180076,9.981353 -1.484722,-0.491344 -6.088485,-1.998597 -12.682493,-3.80732 8.603733,-10.645844 21.789033,-20.091332 44.864644,-20.091333 z m 15.89813,31.847721 c 0.30705,-0.0046 0.61701,-0.01024 0.92611,0 10.20789,0.366729 18.22788,8.964457 17.87897,19.165228 -0.18159,4.934825 -2.26212,9.494349 -5.86533,12.862569 -3.6139,3.38602 -8.31087,5.1509 -13.27417,4.99068 -10.1901,-0.38097 -18.2101,-8.978697 -17.878976,-19.165231 0.174464,-4.941948 2.266486,-9.530764 5.891056,-12.888294 3.38468,-3.174391 7.71664,-4.895833 12.32234,-4.964952 z m -0.48878,5.453729 c -2.97293,0.180743 -5.77842,1.387872 -7.97479,3.447169 -2.50301,2.349915 -3.97993,5.531532 -4.0903,8.978073 -0.23499,7.120959 5.33713,13.113596 12.45097,13.377076 3.45722,0.10681 6.73667,-1.10438 9.26105,-3.447173 2.51726,-2.360599 3.98349,-5.571496 4.0903,-9.003798 0.23855,-7.131643 -5.35929,-13.102113 -12.47669,-13.351347 -0.43082,-0.01602 -0.83583,-0.02582 -1.26054,0 z m 3.39572,6.45701 c 3.16171,0 5.71099,1.718121 5.71098,3.833045 0,2.104248 -2.54927,3.833044 -5.71098,3.833046 -3.17239,0 -5.7367,-1.732365 -5.7367,-3.833046 0,-2.114922 2.56431,-3.833043 5.7367,-3.833045 z"
       id="path2445"
       style="font-size:20.48839951px;font-family:TrebuchetMS-Bold;fill:#73ba25;fill-opacity:1;fill-rule:evenodd;stroke:none"
       inkscape:connector-curvature="0" />
  </g>
</svg>
