<?xml version="1.0" encoding="UTF-8"?>
<svg version="1.1" viewBox="0 0 24 24" xmlns="http://www.w3.org/2000/svg" xmlns:cc="http://creativecommons.org/ns#" xmlns:dc="http://purl.org/dc/elements/1.1/" xmlns:rdf="http://www.w3.org/1999/02/22-rdf-syntax-ns#">
<metadata>
<rdf:RDF>
<cc:Work rdf:about="">
<dc:format>image/svg+xml</dc:format>
<dc:type rdf:resource="http://purl.org/dc/dcmitype/StillImage"/>
<dc:title/>
</cc:Work>
</rdf:RDF>
</metadata>
<path d="m7.6763 5.5395c0.70307 0 1.5513 0.14517 2.5449 0.43572 1.0028 0.29074 1.6683 0.43592 1.9964 0.43592 0.42172 0 1.1108-0.16397 2.0668-0.49211 0.95602-0.32794 1.7857-0.49211 2.4885-0.49211 1.153 0 2.1794 0.30934 3.0792 0.92802 0.5061 0.35613 1.0076 0.83884 1.5043 1.4481-0.74986 0.63748-1.2982 1.2046-1.6449 1.7013-0.62808 0.89983-0.94202 1.8934-0.94202 2.9806 0 1.1904 0.33274 2.2636 0.99821 3.2198 0.66547 0.95602 1.4247 1.5605 2.278 1.8137-0.35653 1.153-0.94702 2.3583-1.7719 3.6141-1.2466 1.8836-2.4839 2.8255-3.7117 2.8255-0.48751 0-1.1624-0.15397-2.0246-0.46391-0.85304-0.30994-1.5747-0.46391-2.1652-0.46391-0.59069 0-1.2796 0.15997-2.0668 0.47791-0.77805 0.32794-1.4107 0.49191-1.8982 0.49191-1.4715 0-2.915-1.2458-4.3304-3.7393-1.4153-2.4657-2.123-4.8841-2.123-7.2554-2e-6 -2.2028 0.53896-3.9976 1.6169-5.385 1.0872-1.3873 2.4557-2.0808 4.1054-2.0808m8.8577-5.5395c0.03739 0.12187 0.06099 0.22968 0.07039 0.32338 0.0092 0.093762 0.014 0.18748 0.014 0.28121 0 0.5999-0.14057 1.256-0.42172 1.9684-0.28135 0.71226-0.72646 1.3731-1.3357 1.9824-0.5249 0.5155-1.0452 0.86223-1.5607 1.0404-0.32794 0.10318-0.82484 0.18277-1.4903 0.23895 0.0188-1.4247 0.38892-2.6573 1.1108-3.6977 0.73106-1.0404 1.9354-1.7528 3.6133-2.137" fill="#c0c0c0" stroke-width=".44648"/>
</svg>
