<?xml version="1.0" encoding="UTF-8"?>
<svg version="1.1" viewBox="0 0 64 64" xmlns="http://www.w3.org/2000/svg" xmlns:cc="http://creativecommons.org/ns#" xmlns:dc="http://purl.org/dc/elements/1.1/" xmlns:rdf="http://www.w3.org/1999/02/22-rdf-syntax-ns#">
<metadata>
<rdf:RDF>
<cc:Work rdf:about="">
<dc:format>image/svg+xml</dc:format>
<dc:type rdf:resource="http://purl.org/dc/dcmitype/StillImage"/>
<dc:title/>
</cc:Work>
</rdf:RDF>
</metadata>
<path d="m22.316 14.654c1.5747 0 3.4745 0.32515 5.6999 0.97588 2.246 0.65119 3.7365 0.97633 4.4714 0.97633 0.94454 0 2.4879-0.36724 4.6291-1.1022 2.1412-0.73449 3.9994-1.1022 5.5736-1.1022 2.5824 0 4.8812 0.69284 6.8966 2.0785 1.1335 0.79764 2.2568 1.8788 3.3692 3.2434-1.6795 1.4278-2.9075 2.6979-3.6841 3.8104-1.4067 2.0154-2.1099 4.2408-2.1099 6.6758 0 2.6661 0.74524 5.0698 2.2357 7.2114 1.4905 2.1412 3.191 3.4951 5.102 4.0621-0.79853 2.5824-2.1211 5.2821-3.9685 8.0946-2.792 4.2188-5.5633 6.3282-8.3132 6.3282-1.0919 0-2.6034-0.34485-4.5346-1.039-1.9106-0.69418-3.5269-1.039-4.8494-1.039-1.323 0-2.8659 0.35829-4.6291 1.0704-1.7426 0.73449-3.1596 1.1017-4.2515 1.1017-3.2958 0-6.5289-2.7902-9.6988-8.375-3.1699-5.5226-4.7549-10.939-4.7549-16.25-4.4e-6 -4.9336 1.2071-8.9536 3.6213-12.061 2.4351-3.1072 5.5002-4.6604 9.195-4.6604m19.839-12.407c0.08375 0.27295 0.1366 0.51441 0.15765 0.72428 0.0206 0.21 0.03135 0.41991 0.03135 0.62982 0 1.3436-0.31484 2.813-0.94454 4.4087-0.63014 1.5953-1.6271 3.0754-2.9917 4.4401-1.1756 1.1546-2.341 1.9312-3.4955 2.3302-0.73449 0.2311-1.8474 0.40934-3.3379 0.53519 0.0421-3.191 0.87109-5.9516 2.4879-8.2818 1.6374-2.3302 4.3348-3.9257 8.0928-4.7863" fill="#c0c0c0"/>
</svg>
