<?xml version="1.0" encoding="UTF-8" standalone="no"?>
<!-- Created with Inkscape (http://www.inkscape.org/) -->

<svg
   xmlns:dc="http://purl.org/dc/elements/1.1/"
   xmlns:cc="http://creativecommons.org/ns#"
   xmlns:rdf="http://www.w3.org/1999/02/22-rdf-syntax-ns#"
   xmlns:svg="http://www.w3.org/2000/svg"
   xmlns="http://www.w3.org/2000/svg"
   xmlns:xlink="http://www.w3.org/1999/xlink"
   version="1.1"
   width="64"
   height="64"
   id="svg2985">
  <defs
     id="defs24" />
  <metadata
     id="metadata2991">
    <rdf:RDF>
      <cc:Work
         rdf:about="">
        <dc:format>image/svg+xml</dc:format>
        <dc:type
           rdf:resource="http://purl.org/dc/dcmitype/StillImage" />
        <dc:title></dc:title>
      </cc:Work>
    </rdf:RDF>
  </metadata>
  <g
     transform="matrix(0.24340045,0,0,0.24340045,20.659955,20.659955)"
     id="g4851"
     style="fill:#73ba25;fill-opacity:1">
    <path
       d="m 100,30.15625 c -38.57068,0 -69.84375,31.269508 -69.84375,69.84375 0,38.57424 31.273072,69.84375 69.84375,69.84375 38.57068,0 69.84374,-31.26951 69.84375,-69.84375 0,-38.57424 -31.27307,-69.84375 -69.84375,-69.84375 z m 0.33443,9.672652 c 33.23352,0 60.19682,26.941143 60.19682,60.171098 0,33.23353 -26.96686,60.1711 -60.19682,60.1711 -17.944821,0 -34.047203,-7.86473 -45.070445,-20.32286 4.532491,-3.51775 12.115629,-2.65954 21.454765,-1.59496 4.475525,0.50915 9.577453,1.09159 14.843405,1.20908 14.711895,0.0855 30.541335,-2.5996 40.311295,-6.86861 6.31629,-2.77006 10.36035,-4.59427 12.88829,-6.89434 0.91149,-0.7477 1.39015,-1.99679 1.87794,-3.29281 l 0.33442,-0.87466 c 0.40946,-1.04678 0.99706,-3.29926 1.26053,-4.52762 0.1175,-0.53764 0.17517,-1.1158 -0.2058,-1.41489 l -1.36343,0.25726 c -4.28682,2.57066 -14.99713,7.4667 -25.03056,7.66609 -12.43319,0.25991 -37.492093,-12.51643 -40.105489,-13.86585 l -0.257252,-0.3087 c -0.626644,-1.49541 -4.376768,-10.39808 -5.170752,-12.270896 18.037389,11.877766 32.991863,18.452076 44.453043,19.473926 12.74296,1.13224 22.683,-5.82499 26.93421,-8.79799 0.8296,-0.56612 1.46367,-1.01005 1.72359,-1.10618 l 0.28298,-0.46306 c -0.70498,-4.47909 -7.39073,-26.153517 -12.42525,-31.35894 -1.39571,-1.427752 -2.50536,-2.81725 -4.75915,-4.141747 C 114.08824,60.052429 70.821318,53.655843 68.795407,53.360325 l -0.334426,0.1029 -0.128626,0.282977 c 0,0 -0.162274,8.984421 -0.180076,9.981353 -1.484722,-0.491344 -6.088485,-1.998597 -12.682493,-3.80732 8.603733,-10.645844 21.789033,-20.091332 44.864644,-20.091333 z m 15.89813,31.847721 c 0.30705,-0.0046 0.61701,-0.01024 0.92611,0 10.20789,0.366729 18.22788,8.964457 17.87897,19.165228 -0.18159,4.934825 -2.26212,9.494349 -5.86533,12.862569 -3.6139,3.38602 -8.31087,5.1509 -13.27417,4.99068 -10.1901,-0.38097 -18.2101,-8.978697 -17.878976,-19.165231 0.174464,-4.941948 2.266486,-9.530764 5.891056,-12.888294 3.38468,-3.174391 7.71664,-4.895833 12.32234,-4.964952 z m -0.48878,5.453729 c -2.97293,0.180743 -5.77842,1.387872 -7.97479,3.447169 -2.50301,2.349915 -3.97993,5.531532 -4.0903,8.978073 -0.23499,7.120959 5.33713,13.113596 12.45097,13.377076 3.45722,0.10681 6.73667,-1.10438 9.26105,-3.447173 2.51726,-2.360599 3.98349,-5.571496 4.0903,-9.003798 0.23855,-7.131643 -5.35929,-13.102113 -12.47669,-13.351347 -0.43082,-0.01602 -0.83583,-0.02582 -1.26054,0 z m 3.39572,6.45701 c 3.16171,0 5.71099,1.718121 5.71098,3.833045 0,2.104248 -2.54927,3.833044 -5.71098,3.833046 -3.17239,0 -5.7367,-1.732365 -5.7367,-3.833046 0,-2.114922 2.56431,-3.833043 5.7367,-3.833045 z"
       id="path2445"
       style="font-size:20.48839951px;fill:#73ba25;fill-opacity:1;fill-rule:evenodd;stroke:none;font-family:TrebuchetMS-Bold" />
  </g>
  <g
     transform="matrix(0.6129282,0,0,0.615551,-146.62265,64.379565)"
     id="g6117"
     style="fill:#ffffff;fill-opacity:1">
    <path
       d="m 560.78054,141.07184 -0.16152,0 c -0.1867,0 -0.34854,-0.16185 -0.34854,-0.34854 l 0,-2.50132 -0.54768,0.83376 c -0.0621,0.087 -0.17428,0.12426 -0.27368,0.12426 l -0.0625,0 c -0.0994,0 -0.21154,-0.0373 -0.27367,-0.12426 l -0.5601,-0.83376 0,2.50132 c 0,0.18669 -0.16185,0.34854 -0.36097,0.34854 l -0.16154,0 c -0.18669,0 -0.34854,-0.16185 -0.34854,-0.34854 l 0,-2.98687 -1.6803,0 0,2.98687 c 0,0.18669 -0.17427,0.34854 -0.37307,0.34854 l -0.14943,0 c -0.1867,0 -0.34855,-0.16185 -0.34855,-0.34854 l 0,-2.98687 -1.25687,0 c -0.18669,0 -0.33611,-0.12458 -0.33611,-0.32339 l 0,-0.17426 c 0,-0.19913 0.14942,-0.3237 0.33611,-0.3237 l 4.40559,0 c 0.17428,0 0.28611,0.0621 0.34856,0.16185 l 0.83376,1.25687 0.83378,-1.25687 c 0.0621,-0.0873 0.16185,-0.16185 0.34855,-0.16185 l 0.5601,0 0,3.83307 c 0,0.18669 -0.17428,0.34854 -0.3734,0.34854"
       id="path2095"
       style="fill:#ffffff;fill-opacity:1;stroke:none" />
    <path
       d="m 416.72658,135.83248 c -6.02344,0 -9.35885,5.10236 -9.35885,8.6369 l 0,4.53017 c 0,5.18966 4.24374,8.41293 8.18895,8.41293 l 13.81415,0 c 1.72999,0 2.09096,1.1323 2.09096,2.09063 l 0,2.92474 c 0,0.31096 -0.0497,3.12388 -2.09096,3.12388 l -18.85438,0 c -1.867,0 -3.22327,1.29415 -3.22327,3.07383 l 0,0.80894 c 0,1.76726 1.34385,3.07416 3.22327,3.07416 l 19.88759,0 c 5.18966,0 8.54993,-3.60941 8.54993,-9.20975 l 0,-4.89082 c 0,-5.2521 -3.78337,-7.604 -7.52945,-7.604 l -13.59017,0 c -2.05369,0 -2.97444,-1.51845 -2.97444,-2.61348 l 0,-2.68833 c 0,-1.70482 1.1323,-2.67559 3.12354,-2.67559 l 15.0589,0 c 1.84184,0 3.22328,-1.31931 3.22328,-3.07416 l 0,-0.80893 c 0,-1.74241 -1.4063,-3.07385 -3.28539,-3.07385 l -16.22881,0"
       id="path2097"
       style="fill:#ffffff;fill-opacity:1;stroke:none" />
    <path
       d="m 473.2655,135.83248 c -1.7797,0 -3.22326,1.44357 -3.22326,3.22326 l 0,23.14815 c 0,1.84181 -1.50601,3.33541 -3.33542,3.33541 l -10.50389,0 c -1.84183,0 -3.33543,-1.4936 -3.33543,-3.33541 l 0,-23.14815 c 0,-1.77969 -1.43113,-3.22326 -3.22326,-3.22326 l -1.02047,0 c -1.79212,0 -3.22327,1.41872 -3.22327,3.22326 l 0,24.03162 c 0,5.58792 4.39317,9.64527 10.45388,9.64527 l 11.22584,0 c 6.06071,0 10.45387,-4.05735 10.45387,-9.64527 l 0,-24.03162 c 0,-1.80454 -1.41871,-3.22326 -3.22326,-3.22326 l -1.02048,0"
       id="path2099"
       style="fill:#ffffff;fill-opacity:1;stroke:none" />
    <path
       d="m 493.38949,135.83248 c -6.02342,0 -9.35884,5.10236 -9.35884,8.6369 l 0,4.53017 c 0,5.18966 4.25617,8.41293 8.18895,8.41293 l 13.81414,0 c 1.73,0 2.1034,1.1323 2.1034,2.09063 l 0,2.92474 c 0,0.31096 -0.0621,3.12388 -2.1034,3.12388 l -18.85437,0 c -1.86699,0 -3.22327,1.29415 -3.22327,3.07383 l 0,0.80894 c 0,1.76726 1.35628,3.07416 3.22327,3.07416 l 19.87516,0 c 5.20209,0 8.54961,-3.60941 8.54961,-9.20975 l 0,-4.89082 c 0,-5.2521 -3.77061,-7.604 -7.52914,-7.604 l -13.59048,0 c -2.05337,0 -2.97412,-1.51845 -2.97412,-2.61348 l 0,-2.68833 c 0,-1.70482 1.1323,-2.67559 3.11112,-2.67559 l 15.05891,0 c 1.8294,0 3.22327,-1.31931 3.22327,-3.07416 l 0,-0.80893 c 0,-1.74241 -1.4063,-3.07385 -3.29813,-3.07385 l -16.21608,0"
       id="path2101"
       style="fill:#ffffff;fill-opacity:1;stroke:none" />
    <path
       d="m 525.16212,135.83248 c -1.77938,0 -3.1484,1.319 -3.1484,3.07383 l 0,30.52819 c 0,1.74241 1.319,3.07416 3.08627,3.07416 l 24.33046,0 c 1.86699,0 3.22359,-1.29447 3.22359,-3.07416 l 0,-0.80894 c 0,-1.76726 -1.34417,-3.07383 -3.22359,-3.07383 0,0 -19.02865,0 -19.92487,0 0,-0.7965 0,-6.98179 0,-7.77829 0.89622,0 14.59854,0 14.59854,0 1.86667,0 3.22326,-1.29446 3.22326,-3.08659 l 0,-0.79649 c 0,-1.7797 -1.35659,-3.08627 -3.22326,-3.08627 0,0 -13.70232,0 -14.59854,0 0,-0.79649 0,-7.19334 0,-7.98983 0.89622,0 18.91682,0 18.91682,0 1.867,0 3.22359,-1.29446 3.22359,-3.07416 l 0,-0.80892 c 0,-1.7797 -1.35659,-3.07384 -3.22359,-3.07384 l -23.24753,0"
       id="path2103"
       style="fill:#ffffff;fill-opacity:1;stroke:none" />
    <path
       d="m 318.3093,150.35583 c -3.03665,0 -5.51327,2.36463 -5.51327,5.28937 l 0,11.51195 c 0,2.96201 2.3895,5.37636 5.3266,5.37636 l 7.44225,0 c 2.93711,0 5.33902,-2.41435 5.33902,-5.37636 l 0,-11.51195 c 0,-2.91231 -2.4766,-5.28937 -5.51326,-5.28937 l -7.08134,0 z m -1.60546,16.35305 0,-10.50358 c 0,-1.23234 1.00808,-2.24039 2.24017,-2.24039 l 5.79949,0 c 1.20721,0 2.24014,1.02079 2.24014,2.24039 l 0,10.50358 c 0,1.23235 -1.00805,2.24038 -2.24014,2.24038 l -5.84929,0 c -1.23208,0 -2.19037,-0.98318 -2.19037,-2.24038"
       id="path2105"
       style="fill:#ffffff;fill-opacity:1;stroke:none" />
    <path
       d="m 347.77981,150.21914 c -2.15309,0 -3.75857,0.77165 -5.06534,1.39387 -0.78404,0.37309 -1.46852,0.69678 -2.00367,0.69678 -0.22401,0 -0.43559,-0.0994 -0.54761,-0.27368 l -0.48535,-0.94592 c -0.11202,-0.24883 -0.60983,-0.73436 -1.23209,-0.73436 l -0.72182,0 c -0.69693,0 -1.26942,0.62253 -1.26942,1.40628 l 0,29.18433 c 0,0.90832 0.70939,1.63027 1.63033,1.63027 l 0.63471,0 c 0.89606,0 1.63034,-0.73437 1.63034,-1.63027 l 0,-9.68255 c 0,-0.2861 0.18667,-0.58495 0.36091,-0.58495 0.53515,0 1.21963,0.29885 2.01613,0.67225 1.29431,0.58494 2.91222,1.33142 5.06531,1.33142 l 0.67192,0 c 3.79579,0 6.16044,-2.1652 6.16044,-5.65003 l 0,-11.13855 c 0,-3.43482 -2.41435,-5.66247 -6.16044,-5.66247 l -0.68435,0 0,0 0,-0.0124 z m -7.44238,16.26576 0,-10.0432 c 0,-1.38144 1.08276,-2.46436 2.46418,-2.46436 l 5.42615,0 c 1.38145,0 2.46405,1.08292 2.46405,2.46436 l 0,10.0432 c 0,1.35659 -1.09503,2.46436 -2.46405,2.46436 l -5.42615,0 c -1.35654,0 -2.46418,-1.10777 -2.46418,-2.46436"
       id="path2107"
       style="fill:#ffffff;fill-opacity:1;stroke:none" />
    <path
       d="m 365.651,150.35583 c -3.03657,0 -5.51304,2.36463 -5.51304,5.28937 l 0,11.42465 c 0,2.96201 2.40191,5.47608 5.23936,5.47608 l 7.67887,0 c 0.94561,0 1.63028,-0.64739 1.63028,-1.54329 l 0,-0.49798 c 0,-0.8959 -0.68467,-1.54296 -1.63028,-1.54296 l -6.29743,0 c -1.76727,0 -2.70076,-0.85895 -2.70076,-2.51407 0,0 0,-2.87473 0,-3.33542 0.5104,0 11.37526,0 11.37526,0 1.81697,0 2.912,-1.11987 2.912,-3.01171 l 0,-4.43044 c 0,-2.91232 -2.47647,-5.28907 -5.51304,-5.28907 l -7.16848,0 -0.0127,-0.0252 z m -1.60543,5.79946 c 0,-1.21961 0.95835,-2.19038 2.19037,-2.19038 l 5.98616,0 c 1.23234,0 2.19037,0.95834 2.19037,2.19038 0,0 0,3.099 0,3.55939 -0.48522,0 -9.88135,0 -10.3669,0 0,-0.46039 0,-3.55939 0,-3.55939"
       id="path2109"
       style="fill:#ffffff;fill-opacity:1;stroke:none" />
    <path
       d="m 394.17581,150.21914 c -2.14066,0 -3.75851,0.75922 -5.05298,1.38145 -0.80892,0.37309 -1.5057,0.7092 -2.0658,0.7092 -0.24882,0 -0.34854,-0.0248 -0.53524,-0.36098 l -0.44795,-0.82135 c -0.24883,-0.51007 -0.68435,-0.77163 -1.28173,-0.77163 l -0.63497,0 c -0.7589,0 -1.30657,0.58493 -1.30657,1.40628 l 0,19.1408 c 0,0.90865 0.72163,1.64302 1.63027,1.64302 l 0.63465,0 c 0.89622,0 1.63027,-0.73437 1.63027,-1.64302 l 0,-14.48606 c 0,-1.35659 1.10777,-2.46436 2.46437,-2.46436 l 5.42606,0 c 1.35659,0 2.46405,1.10777 2.46405,2.46436 l 0,14.48606 c 0,0.90865 0.72194,1.64302 1.63059,1.64302 l 0.63465,0 c 0.8959,0 1.63027,-0.73437 1.63027,-1.64302 l 0,-15.02131 c 0,-3.43481 -2.41435,-5.66246 -6.16044,-5.66246 l -0.68435,0"
       id="path2111"
       style="fill:#ffffff;fill-opacity:1;stroke:none" />
  </g>
  <g
     transform="matrix(0.12770033,0,0,0.12770033,1.9522082,1.9520055)"
     id="g4396">
    <path
       d="m 266.62575,133.50613 c 0,-73.52485 -59.60353,-133.1303 -133.12783,-133.1303 -73.49124,0 -133.07153,59.5554 -133.12367,133.03642 l 0,103.02105 c 0.03955,16.68433 13.5712,30.19087 30.26602,30.19087 l 102.91165,0 c 73.49975,-0.0288 133.07383,-59.61275 133.07383,-133.11804"
       id="voice"
       style="fill:#294172" />
    <path
       d="m 77.126289,142.09756 c 0,0 47.844751,0 47.844751,0 0,0 0,47.84478 0,47.84478 0,26.41029 -21.43445,47.84473 -47.844751,47.84473 -26.41031,0 -47.844759,-21.43444 -47.844759,-47.84473 0,-26.41031 21.434449,-47.84478 47.844759,-47.84478 z"
       id="in"
       style="fill:none;stroke:#3c6eb4;stroke-width:29.20999908" />
    <use
       transform="matrix(-1,0,0,-1,249.71151,284.2882)"
       id="finity"
       x="0"
       y="0"
       width="1"
       height="1"
       xlink:href="#in" />
    <path
       d="m 139.6074,127.52923 0,62.34618 c 0,34.50402 -27.97537,62.48 -62.48061,62.48 -5.23494,0 -8.95649,-0.59101 -13.80235,-1.8577 -7.06595,-1.84912 -12.84046,-7.64253 -12.84286,-14.38111 0,-8.14513 5.91236,-14.0699 14.75029,-14.0699 4.20637,0 5.73267,0.80765 11.89492,0.80765 18.19161,0 32.94764,-14.73519 32.97955,-32.92679 l 0,-28.65657 c 0,-2.56775 -2.08663,-4.64825 -4.65867,-4.64825 l -21.66521,-0.004 c -8.07212,0 -14.59401,-6.43843 -14.59401,-14.53266 -0.0043,-8.14456 6.5888,-14.55657 14.74808,-14.55657"
       id="free"
       style="fill:#ffffff" />
    <use
       transform="matrix(-1,0,0,-1,249.71152,284.28821)"
       id="dom"
       x="0"
       y="0"
       width="1"
       height="1"
       xlink:href="#free" />
  </g>
</svg>
