<?xml version="1.0" encoding="UTF-8"?>
<svg width="24" height="24" version="1.1" viewBox="0 0 24 24" xmlns="http://www.w3.org/2000/svg" xmlns:cc="http://creativecommons.org/ns#" xmlns:dc="http://purl.org/dc/elements/1.1/" xmlns:rdf="http://www.w3.org/1999/02/22-rdf-syntax-ns#">
 <metadata>
  <rdf:RDF>
   <cc:Work rdf:about="">
    <dc:format>image/svg+xml</dc:format>
    <dc:type rdf:resource="http://purl.org/dc/dcmitype/StillImage"/>
    <dc:title/>
   </cc:Work>
  </rdf:RDF>
 </metadata>
 <polygon id="plate" transform="translate(-6,-9)" points="0 0 148 0 148 32 0 32" fill="none"/>
 <g fill="#82bfa1" fill-rule="evenodd">
  <polygon transform="matrix(.76428 0 0 .76428 -5.0882 -.57467)" points="24.719 8.2803 31.643 11.357 24.719 18.281"/>
  <polygon transform="matrix(.76428 0 0 .76428 -5.0882 -.57467)" points="11.5 31.5 23.716 19.284 19.989 15.58"/>
  <polygon transform="matrix(.76428 0 0 .76428 -5.0882 -.57467)" points="6.6575 1.5 24.132 18.868 24.132 7.816"/>
 </g>
 <polygon transform="matrix(.76428 0 0 .76428 -5.0882 -.57467)" points="35.185 7.8154 25.122 7.8154 38.06 13.565" fill="#fa6340" fill-rule="evenodd"/>
</svg>
