<?xml version="1.0" encoding="UTF-8"?>
<!-- Created with Inkscape (http://www.inkscape.org/) -->
<svg width="24" height="24" version="1.1" viewBox="0 0 6.3794 6.375" xmlns="http://www.w3.org/2000/svg" xmlns:cc="http://creativecommons.org/ns#" xmlns:dc="http://purl.org/dc/elements/1.1/" xmlns:rdf="http://www.w3.org/1999/02/22-rdf-syntax-ns#">
 <metadata>
  <rdf:RDF>
   <cc:Work rdf:about="">
    <dc:format>image/svg+xml</dc:format>
    <dc:type rdf:resource="http://purl.org/dc/dcmitype/StillImage"/>
    <dc:title/>
   </cc:Work>
  </rdf:RDF>
 </metadata>
 <g transform="translate(0 -1046.1)">
  <g transform="matrix(.046315 0 0 .046316 40.504 1083.7)">
   <circle cx="-805.62" cy="-743.73" r="63.165" fill="#4c5263"/>
   <g fill-rule="evenodd" shape-rendering="auto">
    <path d="m-828.32-810.84c-9.5051 31.048-23.556 60.596-39.478 88.826l-0.98696 1.9739 1.5214 0.78409c1.3357 0.62011 3.0941 1.0371 5.4745 1.5132 2.3805 0.4761 5.3087 0.95061 8.5992 1.4207 6.5811 0.94016 14.605 1.8591 22.39 2.6679 15.569 1.6176 30.183 2.797 30.183 2.797l2.4867 0.20049-0.19083-2.4886s-3.856-50.167-4.5762-58.41l-0.0385-0.44528-0.2159-0.39324c-4.5634-7.2876-22.289-37.588-25.168-38.446zm1.9739 8.8826c6.739 11.855 12.561 18.577 19.739 31.583 0.71623 8.2886 3.5362 51.084 3.8404 55.038-2.1294-0.17401-13.371-1.0783-27.594-2.5561-7.7539-0.8056-15.74-1.7202-22.226-2.6467-3.2427-0.46324-6.1114-0.9312-8.366-1.3821-1.1124-0.22247-1.1369-0.86929-1.9109-1.079 11.629-20.547 30.101-52.77 36.517-78.956z" color="#000000" color-rendering="auto" fill="#4c5263" image-rendering="auto" solid-color="#000000" style="isolation:auto;mix-blend-mode:normal;text-decoration-color:#000000;text-decoration-line:none;text-decoration-style:solid;text-indent:0;text-transform:none;white-space:normal"/>
    <path d="m-743.8-730.75c-9.2238 12.443-26.262 19.094-46.56 22.043-21.177 3.0769-45.734 2.1627-67.645 0.29107 1.0494 1.5677 2.2013 3.0875 3.3868 4.555 21.093 1.6723 44.332 2.3558 64.871-0.62841 17.13-2.4889 32.609-7.5385 43.228-16.923 1.1587-3.0172 2.1115-6.3592 2.7193-9.3377z" color="#000000" color-rendering="auto" fill="#fff" image-rendering="auto" solid-color="#000000" style="isolation:auto;mix-blend-mode:normal;text-decoration-color:#000000;text-decoration-line:none;text-decoration-style:solid;text-indent:0;text-transform:none;white-space:normal"/>
    <path d="m-794.76-764.46-1.0153 4.4408c9.9175 6.6338 19.369 12.426 25.507 18.584 6.1378 6.1588 9.014 12.22 6.6812 20.707l-1.0872 3.9613 3.8649-1.3918c12.076-4.345 17.814-12.765 21.319-19.654l0.98696-1.9739-1.9739-1.9739c-5.8854-6.1978-14.976-10.306-25.523-14.045-10.547-3.7395-22.035-7.0332-28.759-8.6547zm11.78 7.847c4.9085 1.349 10.256 2.9464 15.554 4.8249 9.6136 3.4084 18.715 7.791 23.858 12.528-2.9408 5.4232-7.4259 11.678-15.163 15.566 0.82955-8.1146-2.746-14.953-8.5202-20.747-4.2622-4.2768-9.828-8.2165-15.73-12.171z" color="#000000" color-rendering="auto" fill="#4c5263" image-rendering="auto" solid-color="#000000" style="isolation:auto;mix-blend-mode:normal;text-decoration-color:#000000;text-decoration-line:none;text-decoration-style:solid;text-indent:0;text-transform:none;white-space:normal"/>
   </g>
   <circle cx="-805.55" cy="-743.8" r="63.239" fill-opacity="0"/>
   <path d="m-789.75-704.49c-21.464 3.0287-43.328 2.2778-64.867 0.63039 13.861 17.677 37.952 26.585 60.204 22.291 21.476-3.6914 40.301-19.419 47.884-39.824-12.753 9.0464-27.821 14.537-43.221 16.902z" fill="#5294e2"/>
   <g fill="#fff" fill-rule="evenodd">
    <path d="m-801.67-768.4c9.5128 19.596 9.5214 38.984 3.9478 53.296 7.848 0.0474 20.655 0.92751 34.543-5.9218-11.415-26.065-38.491-47.374-38.491-47.374z"/>
    <path d="m-826.35-801.96c-6.4166 26.186-24.889 58.41-36.517 78.956l10.279 2.4631c6.4853 0.92646 14.472 1.841 22.226 2.6467 14.222 1.4776 25.569 2.6118 27.7 2.7859-0.30437-3.9566-3.2314-46.979-3.9478-55.27-7.1784-13.006-13-19.727-19.739-31.583z"/>
    <path d="m-782.92-756.56c5.9033 3.9558 11.528 7.5657 15.791 11.843 5.7738 5.7935 8.7245 13.599 7.8956 21.713 7.7361-3.8871 12.85-10.368 15.791-15.791-5.1434-4.7364-14.074-9.4222-23.687-12.83-5.3006-1.8793-10.881-3.5855-15.791-4.9348z"/>
   </g>
  </g>
 </g>
</svg>
