<?xml version="1.0" encoding="UTF-8" standalone="no"?>
<!-- Created with Inkscape (http://www.inkscape.org/) -->

<svg
   xmlns:dc="http://purl.org/dc/elements/1.1/"
   xmlns:cc="http://creativecommons.org/ns#"
   xmlns:rdf="http://www.w3.org/1999/02/22-rdf-syntax-ns#"
   xmlns:svg="http://www.w3.org/2000/svg"
   xmlns="http://www.w3.org/2000/svg"
   version="1.1"
   width="64"
   height="64"
   id="svg2985">
  <metadata
     id="metadata2991">
    <rdf:RDF>
      <cc:Work
         rdf:about="">
        <dc:format>image/svg+xml</dc:format>
        <dc:type
           rdf:resource="http://purl.org/dc/dcmitype/StillImage" />
        <dc:title></dc:title>
      </cc:Work>
    </rdf:RDF>
  </metadata>
  <defs
     id="defs2989" />
  <path
     d="m 9.199728,13.199728 45.600544,0 0,37.600544 -45.600544,0 z"
     id="rect2990"
     style="fill:#141200;fill-opacity:1;stroke:none" />
  <g
     transform="matrix(0.75898268,0,0,1.0190073,-0.3508032,-0.3826369)"
     id="text3760"
     style="font-size:16.43829918px;font-style:normal;font-weight:normal;line-height:125%;letter-spacing:0px;word-spacing:0px;fill:#ffffff;fill-opacity:1;stroke:none;font-family:Sans">
    <path
       d="m 18.292029,19.59122 0,-1.460825 10.28999,3.732329 0,1.332401 -10.28999,3.732329 0,-1.460826 8.267309,-2.929677 -8.267309,-2.945731"
       id="path3765" />
    <path
       d="m 38.241038,30.41096 0,1.147792 -10.077796,0 0,-1.147792"
       id="path3767" />
  </g>
  <path
     d="M 9.09375,12 A 1.1998477,1.1998477 0 0 0 8,13.1875 l 0,37.625 A 1.1998477,1.1998477 0 0 0 9.1875,52 l 45.625,0 A 1.1998477,1.1998477 0 0 0 56,50.8125 l 0,-37.625 A 1.1998477,1.1998477 0 0 0 54.8125,12 l -45.625,0 a 1.1998477,1.1998477 0 0 0 -0.09375,0 z m 1.3125,2.40625 43.1875,0 0,35.1875 -43.1875,0 0,-35.1875 z"
     id="path10"
     style="font-size:medium;font-style:normal;font-variant:normal;font-weight:normal;font-stretch:normal;text-indent:0;text-align:start;text-decoration:none;line-height:normal;letter-spacing:normal;word-spacing:normal;text-transform:none;direction:ltr;block-progression:tb;writing-mode:lr-tb;text-anchor:start;baseline-shift:baseline;color:#000000;fill:#c0c0c0;fill-opacity:1;fill-rule:nonzero;stroke:none;stroke-width:2.39945555;marker:none;visibility:visible;display:inline;overflow:visible;enable-background:accumulate;font-family:Sans;-inkscape-font-specification:Sans" />
</svg>
