<?xml version="1.0" encoding="UTF-8"?>
<svg width="24" height="24" preserveAspectRatio="xMidYMid" version="1.1" viewBox="0 0 24 24" xmlns="http://www.w3.org/2000/svg" xmlns:cc="http://creativecommons.org/ns#" xmlns:dc="http://purl.org/dc/elements/1.1/" xmlns:rdf="http://www.w3.org/1999/02/22-rdf-syntax-ns#">
 <metadata>
  <rdf:RDF>
   <cc:Work rdf:about="">
    <dc:format>image/svg+xml</dc:format>
    <dc:type rdf:resource="http://purl.org/dc/dcmitype/StillImage"/>
    <dc:title/>
   </cc:Work>
  </rdf:RDF>
 </metadata>
 <g transform="matrix(.094016 0 0 .094016 -.032479 2.0734)">
  <path d="m128.02 0c-22.032 0.046783-43.493 7.0073-61.359 19.9l23.903 23.903c11.277-6.8986 24.236-10.56 37.456-10.582 39.772-7.9e-5 72.014 32.242 72.014 72.014-0.0318 13.215-3.6996 26.167-10.602 37.437l23.948 23.948c12.889-17.876 19.84-39.347 19.874-61.385 0-58.12-47.115-105.23-105.23-105.23z" fill="#abc2ab"/>
  <path d="m189.38 190.57-23.903-23.903c-11.277 6.8986-24.236 10.56-37.456 10.582-39.772 8e-5 -72.014-32.242-72.014-72.014 0.03183-13.215 3.6995-26.167 10.602-37.437l-23.948-23.948c-12.889 17.876-19.84 39.347-19.874 61.385 0 58.12 47.115 105.23 105.23 105.23 22.032-0.0468 43.493-7.0073 61.359-19.9z" fill="#478061"/>
  <circle cx="128" cy="105.23" r="33.503" fill="#abc2ab"/>
  <g>
   <path d="m30.592 124.81c-1.1476 0.81968-2.1927 1.2295-3.1353 1.2295h-4.0575c-0.57378 0-1.0246-0.10245-1.3525-0.30737-0.32787-0.20493-0.59427-0.51231-0.7992-0.92215l-20.779-38.607c-0.08197-0.08197-0.12296-0.18443-0.12296-0.30738v-0.36886c0-0.40984 0.14345-0.73772 0.43034-0.98363 0.32787-0.28689 0.84018-0.43033 1.5369-0.43033h25.267c1.3525 0 2.2336 0.40984 2.6435 1.2295l12.787 24.652 35.841-24.652c1.1885-0.81968 2.4386-1.2295 3.7501-1.2295h3.996c0.53281 0 0.79921 0.22541 0.79921 0.67624 0 0.36886-0.32787 0.81968-0.98361 1.3525z"/>
   <path d="m86.353 126.04c-2.1312 0-4.0165-0.32787-5.6558-0.98362-1.6394-0.69673-3.0124-1.6394-4.1189-2.8279-1.1066-1.1886-1.9468-2.582-2.5205-4.1804-0.57377-1.6394-0.86066-3.4017-0.86066-5.287 0-2.4181 0.40984-4.7952 1.2295-7.1313 0.81968-2.3361 1.9468-4.5698 3.3812-6.701 1.4754-2.1312 3.1968-4.0984 5.164-5.9017 2.0082-1.8033 4.1804-3.3607 6.5165-4.6722 2.3771-1.3115 4.8771-2.3361 7.5001-3.0738 2.623-0.7787 5.3075-1.168 8.0534-1.168h30.123c2.1722 0 4.078 0.32787 5.7173 0.98361 1.6804 0.65575 3.0738 1.5779 4.1804 2.7665 1.1066 1.1476 1.9468 2.5205 2.5205 4.1189 0.57379 1.5984 0.86069 3.3402 0.86069 5.2255 0 2.4181-0.43034 4.8157-1.291 7.1928-0.8197 2.3361-1.9673 4.5698-3.4427 6.7009-1.4754 2.1312-3.2173 4.1189-5.2255 5.9632-2.0082 1.8033-4.2009 3.3812-6.578 4.7337-2.3771 1.3115-4.8771 2.3566-7.5001 3.1353-2.623 0.73772-5.2665 1.1066-7.9305 1.1066zm37.009-25.144c1.3525-2.8689 2.0287-5.0206 2.0287-6.455 0-1.1885-0.43035-2.0082-1.291-2.4591-0.81969-0.45083-2.0492-0.67624-3.6886-0.67624h-8.3608c-1.1885 0-2.2951 0.16394-3.3197 0.49181-0.98363 0.2869-1.9058 0.7992-2.7664 1.5369-0.86067 0.73772-1.7008 1.7214-2.5205 2.9509-0.77869 1.2295-1.5779 2.7664-2.3976 4.6107l-2.9509 6.701c-1.5574 3.4837-2.3361 6.1067-2.3361 7.869 0 1.1885 0.34836 2.0492 1.0451 2.582 0.69675 0.49181 1.7009 0.73772 3.0123 0.73772h8.4223c1.2705 0 2.4386-0.18443 3.5042-0.55328 1.0656-0.40985 2.0902-1.0451 3.0738-1.9058s1.9263-2.0082 2.8279-3.4427c0.90166-1.4344 1.8238-3.1968 2.7664-5.287z"/>
   <path d="m144.12 126.04c-0.73771 0-1.1066-0.2459-1.1066-0.73771 0-0.2459 0.0615-0.55329 0.18444-0.92215l17.275-38.669c0.49183-1.0656 1.2705-1.5984 2.3361-1.5984h21.148c0.7787 0 1.168 0.26639 1.168 0.79918 0 0.24591-0.082 0.51231-0.24589 0.79921l-17.213 38.669c-0.49182 1.1066-1.2705 1.6599-2.3361 1.6599z"/>
   <path d="m174.35 126.04c-0.73772 0-1.1066-0.2459-1.1066-0.73771 0-0.2459 0.0615-0.55329 0.18443-0.92215l17.275-38.669c0.49182-1.0656 1.2705-1.5984 2.3361-1.5984h49.427c2.1312 0 4.0165 0.32787 5.6558 0.98361 1.6394 0.65575 3.0123 1.5779 4.1189 2.7665 1.1066 1.1476 1.9468 2.5205 2.5206 4.1189 0.57377 1.5984 0.86066 3.3402 0.86066 5.2255 0 2.5001-0.43033 4.9591-1.291 7.3772-0.86067 2.3771-2.0492 4.6312-3.5656 6.7624-1.4754 2.1312-3.2378 4.0984-5.287 5.9017-2.0082 1.8033-4.2009 3.3607-6.578 4.6722-2.3361 1.2705-4.7952 2.2746-7.3772 3.0124-2.582 0.73772-5.164 1.1066-7.746 1.1066zm53.485-25.144c1.3115-2.9509 1.9672-5.1025 1.9672-6.455 0-1.1885-0.40984-2.0082-1.2295-2.4591-0.81969-0.45083-2.0082-0.67624-3.5656-0.67624h-12.48l-12.172 27.48h12.418c1.2295 0 2.3771-0.18443 3.4427-0.55328 1.0656-0.40985 2.0697-1.0451 3.0123-1.9058 0.98363-0.90166 1.9263-2.0492 2.8279-3.4427 0.94264-1.4344 1.8853-3.1968 2.8279-5.287z"/>
  </g>
 </g>
</svg>
