<?xml version="1.0" encoding="UTF-8"?>
<svg version="1.1" viewBox="0 0 24 24" xmlns="http://www.w3.org/2000/svg" xmlns:cc="http://creativecommons.org/ns#" xmlns:dc="http://purl.org/dc/elements/1.1/" xmlns:rdf="http://www.w3.org/1999/02/22-rdf-syntax-ns#">
<metadata>
<rdf:RDF>
<cc:Work rdf:about="">
<dc:format>image/svg+xml</dc:format>
<dc:type rdf:resource="http://purl.org/dc/dcmitype/StillImage"/>
<dc:title/>
</cc:Work>
</rdf:RDF>
</metadata>
<g transform="matrix(.42308 0 0 .42308 -1.75 -1.8558)">
<path d="m38.436 14.957c-0.05504 0.0049-0.09661 0.03921-0.17372 0.08752v-0.01749c-1e-3 0-0.08686 0.07002-0.08686 0.07002-0.1664 0.12121-0.26776 0.21601-0.29532 0.28009 0 0.0023-0.01736 0.05254-0.01736 0.05254 0 0.0028-4.8467 16.385-4.8467 16.385-0.01332 0.03896-0.03475 0.08996-0.03475 0.12252 0 0.17942 0.17001 0.26205 0.17372 0.26258 0.38472 0.25205 0.78224 0.49345 1.1813 0.71773 1.8627 1.1326 3.7038 1.8778 5.6284 2.2932 1.1144 0.24243 2.2853 0.3739 3.457 0.38512 1.2665 0.01187 2.5811-0.11182 3.926-0.36761 1.9962-0.30866 4.0259-0.91823 6.028-1.8031 0.03816-0.01761 0.13187-0.06048 0.17372-0.14004 0-0.0033 4.9336-16.543 4.9336-16.543 0.0091-0.02935 0.01737-0.0603 0.01737-0.08752 0-0.14204-0.12344-0.26455-0.2432-0.36762-0.06623-0.06193-0.16277-0.13084-0.22583-0.15754-0.13406-0.06191-0.27136-0.04152-0.31269-0.01749-1.2087 0.48648-2.3836 0.88748-3.4917 1.2079-1.0598 0.30545-2.0987 0.54536-3.0748 0.70022-0.92947 0.14737-1.8288 0.2328-2.6926 0.24508-0.81502 0.01138-1.6284-0.04859-2.3973-0.15754-1.3799-0.19545-2.6964-0.57052-4.0302-1.1729-1.3259-0.59755-2.5167-1.3425-3.4048-1.9256-0.07631-0.03364-0.13604-0.05741-0.19109-0.05252z" fill="#6c3"/>
<path d="m20.717 30.064c-0.86006 0.02137-1.7794 0.1072-2.71 0.26258-0.97558 0.16286-2.0118 0.40587-3.0748 0.71772-1.1086 0.32414-2.2782 0.7341-3.4917 1.2254h-0.01738c-0.04134 0.01816-0.05571 0.06071-0.06948 0.10502l-4.8467 16.508c-0.02649 0.08758 0.03175 0.162 0.086855 0.21006l0.31269 0.24508s0.013147 0.01284 0.017374 0.01749c0.077893 0.05179 0.15982 0.03979 0.19109 0.03502 1.8107-0.68619 3.4238-1.1776 4.9336-1.5055 1.4716-0.31827 2.8101-0.46102 4.065-0.45514 1.0503 7e-3 2.0244 0.11848 3.0053 0.3326 0.88602 0.19598 1.7555 0.46006 2.6405 0.84027 1.2411 0.54414 2.379 1.2341 3.2311 1.7681 0 0 5.31e-4 0.01749 0 0.01749 0.02649 0.01349 0.11531 0.03418 0.19109 0 0 0 0.21383-0.11962 0.27795-0.15754l0.01737-0.01748c0.04348-0.0299 0.10359-0.06424 0.1216-0.14004v-0.01749c0.009401-0.03152 4.812-16.07 4.812-16.07l0.17372-0.54267c0.0027-0.01349 0-0.03811 0-0.05253 0-0.06352-0.02338-0.10744-0.06949-0.14006h-0.01737v-0.01749c-2.0476-1.3542-4.3496-2.6492-7.4003-3.046-0.7652-0.10095-1.566-0.1423-2.3799-0.12253z" fill="#02a5ff"/>
<path d="m32.72 34.949c-0.05618 2e-3 -0.10364 0.03522-0.19109 0.08752-0.02173 0.01496-0.07538 0.05699-0.13899 0.10502-0.1293 0.09934-0.22041 0.17257-0.2432 0.22757-5.31e-4 0.0037 0 0.01749 0 0.01749l-4.8467 16.35c-0.08371 0.24511 0.14828 0.38821 0.17372 0.40263 1.2411 0.81221 2.4199 1.4422 3.6133 1.9431 0.69949 0.29584 1.424 0.55249 2.1367 0.75274 0.77262 0.21894 1.5666 0.37801 2.3625 0.49015 0.85317 0.11906 1.7224 0.17719 2.6057 0.17506 0.93849-0.0047 1.9065-0.06804 2.8837-0.21007 1.0328-0.15004 2.1022-0.37673 3.179-0.68272 1.1319-0.3204 2.3089-0.73303 3.4917-1.2254 0.0016 0 0.01736-0.01749 0.01736-0.01749 0.03286-0.02083 0.09869-0.06101 0.13897-0.14004 0-0.0016 4.7235-16.083 4.7251-16.088v-0.01749c0.0064-0.02402 0.01737-0.04811 0.01737-0.07002 0-0.13244-0.08581-0.20846-0.08686-0.21007 0 0.0016-0.39954-0.29759-0.39954-0.29759v-0.01749c-0.02596-0.02776-0.09155-0.05905-0.26058-0.03502-1.2119 0.40103-2.3905 0.72025-3.4917 0.98031-1.0609 0.24885-2.0882 0.44216-3.0574 0.56018-1.8282 0.22695-3.4818 0.22695-5.0552 0-1.3847-0.19705-2.6866-0.56541-3.9955-1.1379-1.0572-0.46191-2.1489-1.0645-3.4048-1.8906-0.07631-0.03472-0.12656-0.05253-0.17372-0.05253z" fill="#fc0"/>
<path d="m26.936 10.003c-1.3672-0.02778-2.8445 0.12673-4.395 0.45514-1.6751 0.35404-3.5031 0.91839-5.4373 1.698-0.01696 7e-3 -0.06883 0.03506-0.08686 0.10503l-0.26057 0.84026-4.6382 15.72c-0.0054 0.01609-0.01738 0.03222-0.01738 0.05252 0 0.07637 0.03079 0.16586 0.06948 0.19256 0.0075 0.0058 0.02839 0.01381 0.03475 0.01748l0.01738 0.01749 0.29532 0.22757c0.0095 0.0077 0.02838 0.01333 0.03475 0.01749 0.05883 0.0235 0.07148 0.01912 0.08686 0.0175h0.01738c0.0424-0.0037 0.13844-0.05145 0.13898-0.05253 4.2399-1.6405 7.6255-2.2362 10.666-1.8731 1.2967 0.15488 2.5546 0.50096 3.8391 1.0328 1.0227 0.42453 2.0764 0.98266 3.318 1.7505h0.0521v0.01749c5.29e-4 0 0.09264 0.03834 0.17372 0.01749 0-0.0011 0.31269-0.12252 0.31269-0.12252l0.01737-0.0175c0.0408-0.02937 0.10359-0.07958 0.1216-0.15754l3.0574-10.311 1.6503-5.5492 0.10423-0.36761c0-5.39e-4 0.08686-0.26258 0.08686-0.26258 2e-3 -0.0088-0.0016-0.02486 0-0.03502v-0.0175c0-0.06194-0.02338-0.12712-0.06949-0.15754-0.9724-0.64294-1.7437-1.0923-2.5015-1.488l-0.05209-0.03502c-2.1891-1.1379-4.3028-1.6849-6.636-1.733z" fill="#f30"/>
</g>
</svg>
