<?xml version="1.0" encoding="UTF-8" standalone="no"?>
<!-- Created with Inkscape (http://www.inkscape.org/) -->

<svg
   xmlns:dc="http://purl.org/dc/elements/1.1/"
   xmlns:cc="http://creativecommons.org/ns#"
   xmlns:rdf="http://www.w3.org/1999/02/22-rdf-syntax-ns#"
   xmlns:svg="http://www.w3.org/2000/svg"
   xmlns="http://www.w3.org/2000/svg"
   version="1.1"
   width="64"
   height="64"
   id="svg2985">
  <metadata
     id="metadata2991">
    <rdf:RDF>
      <cc:Work
         rdf:about="">
        <dc:format>image/svg+xml</dc:format>
        <dc:type
           rdf:resource="http://purl.org/dc/dcmitype/StillImage" />
        <dc:title></dc:title>
      </cc:Work>
    </rdf:RDF>
  </metadata>
  <defs
     id="defs2989" />
  <g
     transform="translate(-0.49999798,-0.74999973)"
     id="g2993">
    <path
       d="m 38.435716,14.957242 c -0.05504,0.0049 -0.09661,0.03921 -0.173716,0.08752 l 0,-0.01749 c -10e-4,0 -0.08686,0.07002 -0.08686,0.07002 -0.166395,0.121209 -0.267761,0.21601 -0.295318,0.280087 0,0.0023 -0.01736,0.05254 -0.01736,0.05254 0,0.0028 -4.846693,16.385147 -4.846693,16.385147 -0.01332,0.03896 -0.03475,0.08996 -0.03475,0.122525 0,0.179423 0.170007,0.26205 0.173718,0.262583 0.384721,0.252049 0.782245,0.493446 1.181272,0.717726 1.862663,1.132617 3.703757,1.877768 5.62842,2.293222 1.114419,0.242431 2.285314,0.373902 3.456962,0.385117 1.266503,0.01187 2.581065,-0.111817 3.925997,-0.367613 1.996201,-0.308655 4.025937,-0.91823 6.027967,-1.803068 0.03816,-0.01761 0.131869,-0.06048 0.173718,-0.140043 0,-0.0033 4.933553,-16.542694 4.933553,-16.542694 0.0091,-0.02935 0.01737,-0.0603 0.01737,-0.08752 0,-0.142041 -0.123435,-0.264546 -0.243204,-0.367615 -0.06623,-0.06193 -0.162772,-0.130845 -0.22583,-0.157544 -0.134062,-0.06191 -0.271355,-0.04152 -0.312692,-0.01749 -1.20874,0.486481 -2.383645,0.887476 -3.491705,1.20788 -1.059836,0.305447 -2.098672,0.54536 -3.074785,0.700221 -0.929474,0.147371 -1.828842,0.232797 -2.692605,0.245076 -0.815018,0.01138 -1.62838,-0.04859 -2.397291,-0.157544 -1.379909,-0.195448 -2.696423,-0.570519 -4.030227,-1.172868 -1.325855,-0.597548 -2.516704,-1.34248 -3.404848,-1.925608 -0.07631,-0.03364 -0.136045,-0.05741 -0.191089,-0.05252 z"
       id="path3754"
       style="fill:#66cc33;fill-opacity:1;stroke:none" />
    <path
       d="m 20.716614,30.064487 c -0.860056,0.02137 -1.779442,0.107201 -2.709979,0.262584 -0.975581,0.162864 -2.011769,0.40587 -3.074785,0.717725 -1.108588,0.324137 -2.278189,0.734102 -3.491703,1.225382 l -0.01738,0 c -0.04134,0.01816 -0.05571,0.06071 -0.06948,0.105024 l -4.846693,16.50769 c -0.02649,0.08758 0.03175,0.161996 0.086855,0.210065 l 0.3126898,0.245079 c 0,0 0.013147,0.01284 0.017374,0.01749 0.077893,0.05179 0.1598235,0.03979 0.1910891,0.03502 1.8107302,-0.68619 3.4238161,-1.177598 4.9335541,-1.505472 1.471584,-0.318267 2.810123,-0.461016 4.06497,-0.455143 1.050299,0.007 2.02442,0.118478 3.0053,0.332603 0.88602,0.195979 1.755529,0.460055 2.640492,0.840266 1.241066,0.544145 2.379022,1.234052 3.231128,1.768054 0,0 5.31e-4,0.01749 0,0.01749 0.02649,0.01349 0.115309,0.03418 0.191088,0 0,0 0.213827,-0.119617 0.277946,-0.157544 l 0.01737,-0.01748 c 0.04348,-0.0299 0.103594,-0.06424 0.121599,-0.140043 l 0,-0.01749 C 25.60745,50.024267 30.41,33.985741 30.41,33.985741 l 0.173716,-0.54267 c 0.0027,-0.01349 0,-0.03811 0,-0.05253 0,-0.06352 -0.02338,-0.107445 -0.06949,-0.140058 -0.0016,0 -0.01737,0 -0.01737,0 l 0,-0.01749 C 28.449263,31.878751 26.147274,30.583785 23.096535,30.18702 22.331334,30.086069 21.53057,30.044718 20.716614,30.064487 z"
       id="path3752"
       style="fill:#02a5ff;fill-opacity:1;stroke:none" />
    <path
       d="m 32.720437,34.948517 c -0.05618,0.002 -0.103641,0.03522 -0.191088,0.08752 -0.02173,0.01496 -0.07538,0.05699 -0.138987,0.105023 -0.129301,0.09934 -0.220414,0.172567 -0.243201,0.22757 -5.31e-4,0.0037 0,0.01749 0,0.01749 l -4.846692,16.35014 c -0.08371,0.245108 0.148282,0.388209 0.173717,0.402628 1.241069,0.812213 2.419932,1.442215 3.613307,1.943109 0.699493,0.295837 1.423975,0.552488 2.136716,0.752736 0.772619,0.218939 1.566608,0.378013 2.362546,0.490154 0.853167,0.119063 1.722376,0.177191 2.605749,0.175056 0.938486,-0.0047 1.906529,-0.06804 2.883697,-0.210066 1.03281,-0.150037 2.102223,-0.376733 3.179016,-0.682717 1.131905,-0.320397 2.308928,-0.733034 3.491704,-1.225384 0.0016,0 0.01736,-0.01749 0.01736,-0.01749 0.03286,-0.02083 0.09869,-0.06101 0.13897,-0.140044 0,-0.0016 4.723504,-16.082747 4.725093,-16.087552 0,-0.0011 0,-0.01749 0,-0.01749 0.0064,-0.02402 0.01737,-0.04811 0.01737,-0.07002 0,-0.132437 -0.08581,-0.208462 -0.08686,-0.210067 0,0.0016 -0.399545,-0.297593 -0.399545,-0.297593 l 0,-0.01749 c -0.02596,-0.02776 -0.09155,-0.05905 -0.260576,-0.03502 -1.211924,0.401033 -2.390537,0.72025 -3.491706,0.980307 -1.060895,0.248846 -2.088194,0.442163 -3.057413,0.560177 -1.828219,0.226948 -3.481829,0.226948 -5.055156,0 -1.384676,-0.197048 -2.686585,-0.565411 -3.995483,-1.13786 -1.057188,-0.461908 -2.148941,-1.064492 -3.404846,-1.890591 -0.07631,-0.03472 -0.126555,-0.05253 -0.173715,-0.05253 z"
       id="path3393"
       style="fill:#ffcc00;fill-opacity:1;stroke:none" />
    <path
       d="m 26.935671,10.003188 c -1.367187,-0.02778 -2.844491,0.126729 -4.395032,0.455145 -1.675069,0.354041 -3.503128,0.91839 -5.437328,1.69803 -0.01696,0.007 -0.06883,0.03506 -0.08686,0.105029 l -0.26057,0.840265 -4.638238,15.719936 c -0.0054,0.01609 -0.01738,0.03222 -0.01738,0.05252 0,0.07637 0.03079,0.165861 0.06948,0.19256 0.0075,0.0058 0.02839,0.01381 0.03475,0.01748 l 0.01738,0.01749 0.295318,0.227571 c 0.0095,0.0077 0.02838,0.01333 0.03475,0.01749 0.05883,0.0235 0.07148,0.01912 0.08686,0.0175 l 0.01738,0 c 0.0424,-0.0037 0.138442,-0.05145 0.138979,-0.05253 4.239875,-1.640451 7.62553,-2.236211 10.666203,-1.873091 1.296709,0.154879 2.554617,0.50096 3.839138,1.032826 1.022743,0.42453 2.076389,0.982657 3.317988,1.750549 l 0.01737,0 0.01736,0 0.01737,0 0,0.01749 c 5.29e-4,0 0.09264,0.03834 0.173717,0.01749 0,-0.0011 0.312689,-0.122525 0.312689,-0.122525 l 0.01737,-0.0175 c 0.0408,-0.02937 0.103593,-0.07958 0.121599,-0.157543 l 3.057438,-10.310742 1.650308,-5.549244 0.104227,-0.367611 c 0,-5.39e-4 0.08686,-0.262583 0.08686,-0.262583 0.002,-0.0088 -0.0016,-0.02486 0,-0.03502 0,-0.0068 0,-0.01008 0,-0.0175 0,-0.06194 -0.02338,-0.127124 -0.06949,-0.157544 -0.972401,-0.642937 -1.743735,-1.092273 -2.501522,-1.487969 l -0.05209,-0.03502 c -2.189113,-1.137869 -4.302769,-1.684898 -6.636,-1.732962 z"
       id="path3756"
       style="fill:#ff3300;fill-opacity:1;stroke:none" />
  </g>
</svg>
