<svg xmlns:dc="http://purl.org/dc/elements/1.1/" xmlns:cc="http://creativecommons.org/ns#" xmlns:rdf="http://www.w3.org/1999/02/22-rdf-syntax-ns#" xmlns:svg="http://www.w3.org/2000/svg" xmlns="http://www.w3.org/2000/svg" id="svg2985" height="45" width="140" version="1.1">
  <metadata id="metadata2991">
    <rdf:RDF>
      <cc:Work rdf:about="">
        <dc:format>
          image/svg+xml
        </dc:format>
        <dc:type rdf:resource="http://purl.org/dc/dcmitype/StillImage"/>
      </cc:Work>
    </rdf:RDF>
  </metadata>
  <defs id="defs2989"/>
  <rect id="rect4152" width="140" height="45" x="0" y="0" ry="10" rx="10" fill="#bd0000"/>
  <text id="text4150" y="24.84" x="110.15" xml:space="preserve" style="fill:#fff;font-family:sans-serif;font-size:40px;letter-spacing:0px;line-height:125%;text-align:center;text-anchor:middle;word-spacing:0px">
    <tspan y="24.84" x="75.91" id="tspan4152" style="-inkscape-font-specification:Collegiate;fill:#fff;font-family:Collegiate;font-size:17.5px;text-align:center;text-anchor:middle"/>
  </text>
  <rect rx="9" ry="9" y="1.5" x="1.5" height="42" width="137" id="rect4163" style="fill:none;stroke-dasharray:3.99999997, 0.99999998;stroke:#ffff56"/>
  <text xml:space="preserve" x="102.63" y="17.46" id="text4184" style="fill:#000;font-family:sans-serif;font-size:40px;letter-spacing:0px;line-height:125%;word-spacing:0px">
    <tspan id="tspan4186" x="102.63" y="17.46"/>
  </text>
  <flowRoot xml:space="preserve" id="flowRoot4231" style="fill:#000;font-family:sans-serif;font-size:40px;letter-spacing:0px;line-height:125%;word-spacing:0px">
    <flowRegion id="flowRegion4233">
      <rect id="rect4235" width="107.31" height="60.04" x="25.98" y="-75.66"/>
    </flowRegion>
    <flowPara id="flowPara4237">
      installnow
    </flowPara>
    <flowPara id="flowPara4239"/>
    <flowPara id="flowPara4241"/>
  </flowRoot>
  <text xml:space="preserve" x="55.08" y="-37.61" id="text4243" style="fill:#000;font-family:sans-serif;font-size:40px;letter-spacing:0px;line-height:125%;word-spacing:0px">
    <tspan id="tspan4245" x="55.08" y="-37.61"/>
  </text>
  <g transform="translate(0,11.438232)" id="flowRoot4247" style="-inkscape-font-specification:Collegiate;fill:#fff;font-family:Collegiate;font-size:15px;letter-spacing:0px;line-height:125%;text-align:center;text-anchor:middle;word-spacing:0px;writing-mode:lr-tb">
    <path d="m19.09 17.94 3.52-13.34 2.96 0 2.2 8.3 1.04 0 0 2.12-0.48 0 0.78 2.92-2.78 0q0-0.32-0.24-1.3l-0.4-1.62-3.48 0-0.46 1.62q-0.28 1.02-0.28 1.3l-2.38 0zm3.7-5.04 2.36 0-1.12-4.46-1.24 4.46z" id="path4379" style="fill:#fff;font-size:20px"/>
    <path d="m34.3 18q-1.08 0-1.8-0.78l0 0.72-2.12 0q0.06-0.34 0.06-1.26l0-10.58q0-1.18-0.06-1.5l2.28 0q-0.04 0.36-0.04 1.5l0 3.48q0.92-0.58 1.8-0.58 1.58 0 2.48 1.4 0.76 1.22 0.76 2.96 0 1.78-0.8 3.1-0.96 1.54-2.56 1.54zm-0.3-6.9q-0.66 0-1.38 0.66l0 3.46q0.64 0.62 1.26 0.62 0.78 0 1.18-0.86 0.32-0.68 0.32-1.62 0-2.26-1.38-2.26z" id="path4381" style="fill:#fff;font-size:20px"/>
    <path d="m42.49 18.08q-1.92 0-2.88-1.34-0.82-1.18-0.82-3.2 0-4.52 3.7-4.52 3.66 0 3.66 4.52 0 2-0.82 3.18-0.94 1.36-2.84 1.36zm-0.02-7.1q-0.92 0-1.22 0.88-0.18 0.5-0.18 1.68 0 1.18 0.18 1.68 0.3 0.88 1.22 0.88 0.92 0 1.22-0.86 0.18-0.5 0.18-1.7 0-1.18-0.18-1.68-0.3-0.88-1.22-0.88z" id="path4383" style="fill:#fff;font-size:20px"/>
    <path d="m50.63 18.02q-1.58 0-2.34-1.4-0.6-1.14-0.6-2.98l0-2.74q0-1.36-0.08-1.84l2.4 0q-0.06 0.44-0.08 1.88l-0.02 2.7q0 1.14 0.26 1.64 0.3 0.62 1.1 0.62 0.56 0 1.26-0.66l0-4.92q0-0.34-0.04-0.78-0.04-0.44-0.04-0.48l2.32 0q-0.04 0.34-0.04 1.26l0 6.12q0 1.18 0.04 1.5l-2.18 0 0-0.72q-0.92 0.8-1.96 0.8z" id="path4385" style="fill:#fff;font-size:20px"/>
    <path d="m59.07 9.06 1.74 0 0 1.94q-0.1 0-0.38-0.02-0.26-0.02-0.5-0.02l-0.86 0 0 3.72q0 1.34 0.88 1.34 0.62 0 1.12-0.34l0 2q-0.74 0.4-1.78 0.4-1.46 0-2.02-1.04-0.42-0.78-0.42-2.46l0-3.58 0.02 0 0-0.04-0.3-0.02q-0.26 0-0.68 0.06l0-1.94 0.98 0 0-0.78q0-0.56-0.06-0.9l2.32 0q-0.06 0.38-0.06 0.86l0 0.82z" id="path4387" style="fill:#fff;font-size:20px"/>
    <path d="m70.29 18.18q-2.1 0-3.38-1.38-1.26-1.38-1.26-3.68l0.02-3.94q0-2.06 1.28-3.44 1.28-1.38 3.4-1.38 2.06 0 3.32 1.38 1.26 1.38 1.24 3.44 0 0.56 0.02 3.94 0 2.18-1.24 3.58-1.28 1.48-3.4 1.48zm0.08-11.68q-2.16 0-2.18 3.42l0 2.86q-0.02 3.26 2.12 3.26 1.26 0 1.76-1.06 0.32-0.74 0.32-2.2l0.02-2.7q0-3.58-2.04-3.58z" id="path4389" style="fill:#fff;font-size:20px"/>
    <path d="m80.43 8.98q-1.06 0-1.78 0.8l0-0.72-2.12 0q0.04 0.34 0.04 1.26l0 10.76q0 1.16-0.04 1.48l2.28 0q-0.04-0.34-0.04-1.48l0-3.54q0.78 0.5 1.8 0.5 1.42 0 2.36-1.42 0.88-1.3 0.88-2.98 0-1.78-0.82-3.1-0.94-1.56-2.56-1.56zm-0.38 7.06q-0.6 0-1.28-0.64l0-3.62q0.68-0.68 1.28-0.68 0.78 0 1.18 0.9 0.3 0.68 0.3 1.64 0 0.86-0.36 1.56-0.42 0.84-1.12 0.84z" id="path4391" style="fill:#fff;font-size:20px"/>
    <path d="m91.76 14.18-4.44 0q0.16 1.92 1.9 1.92 1.14 0 2-0.58l0 2.14q-1.2 0.46-2.14 0.46-1.98 0-3.06-1.34-1.04-1.26-1.04-3.38 0-1.8 0.86-3.04 0.96-1.36 2.64-1.36 1.64 0 2.52 1.12 0.82 1.06 0.82 2.82 0 0.68-0.06 1.24zm-3.22-3.34q-1.16 0-1.24 1.52l2.46 0q-0.04-1.52-1.22-1.52z" id="path4393" style="fill:#fff;font-size:20px"/>
    <path d="m97.39 8.98q1.62-0.02 2.5 1.4 0.74 1.2 0.74 2.98l0 2.74q0 1.36 0.08 1.84l-2.4 0q0.06-0.46 0.08-1.88l0.02-2.7q0.02-2.26-1.44-2.26-0.66 0-1.36 0.66l0 4.92q0 0.34 0.02 0.78 0.04 0.42 0.04 0.48l-2.32 0q0.06-0.34 0.06-1.26l0-6.14q0-1.16-0.06-1.48l2.2 0 0 0.72q0.9-0.8 1.84-0.8z" id="path4395" style="fill:#fff;font-size:20px"/>
    <path d="m105.97 14.82-0.98 0.54-0.02 0.7q-0.02 1.4 0.1 1.88l-2.62 0q0.08-0.84 0.08-1.88l0-9.56q0-1.4-0.08-1.9l3.02 0q2.24 0 3.62 1.26 1.38 1.24 1.38 3.16 0 2.18-1.66 3.9l1.18 3.52q0.26 0.74 0.62 1.5l-2.68 0-1.02-3.58q-0.44 0.26-0.94 0.46zm-0.46-8.04-0.54 0 0.02 5.98q1.16-0.44 2.04-1.38 0.98-1.06 0.98-2.22 0-1.12-0.78-1.78-0.7-0.6-1.72-0.6z" id="path4397" style="fill:#fff;font-size:20px"/>
    <path d="m111.17 17.94 3.52-13.34 2.96 0 2.2 8.3 1.04 0 0 2.12-0.48 0 0.78 2.92-2.78 0q0-0.32-0.24-1.3l-0.4-1.62-3.48 0-0.46 1.62q-0.28 1.02-0.28 1.3l-2.38 0zm3.7-5.04 2.36 0-1.12-4.46-1.24 4.46z" id="path4399" style="fill:#fff;font-size:20px"/>
  </g>
</svg>
