<svg xmlns:dc="http://purl.org/dc/elements/1.1/" xmlns:cc="http://creativecommons.org/ns#" xmlns:rdf="http://www.w3.org/1999/02/22-rdf-syntax-ns#" xmlns:svg="http://www.w3.org/2000/svg" xmlns="http://www.w3.org/2000/svg" width="104.98252mm" height="5.2453647mm" viewBox="0 0 371.98536 18.585938" id="svg4177" version="1.1">
  <defs id="defs4179"/>
  <metadata id="metadata4182">
    <rdf:RDF>
      <cc:Work rdf:about="">
        <dc:format>
          image/svg+xml
        </dc:format>
        <dc:type rdf:resource="http://purl.org/dc/dcmitype/StillImage"/>
      </cc:Work>
    </rdf:RDF>
  </metadata>
  <g id="layer1" transform="matrix(0.8997815,0,0,0.89469358,-94.035783,-222.61834)">
    <g transform="matrix(0.89963472,0,0,0.8911287,31.235512,28.208894)" id="flowRoot4725" style="-inkscape-font-specification:Copperplate;fill:#000;font-family:Copperplate;font-size:35;letter-spacing:0;line-height:125;stroke-width:1.87;stroke:#000;word-spacing:0">
      <path d="m86.827266 249.75812q-0.455 0-0.455 0.49 0 0.175 0.14 0.56 0.14 0.35 0.35 0.91l3.08 8.505 0.07 0 2.975-8.33q0.175-0.49 0.315-0.91 0.175-0.455 0.175-0.735 0-0.49-0.56-0.49l0-0.63 5.005 0 0 0.63q-0.63 0-0.63 0.42 0 0.245 0.175 0.735 0.175 0.455 0.35 0.875l3.080004 8.435 3.255-8.505q0.175-0.49 0.28-0.84 0.14-0.385 0.14-0.63 0-0.49-0.56-0.49l0-0.63 4.445 0 0 0.63q-0.595 0-1.05 1.295l-4.025 10.675q-0.21 0.595-0.42 1.085-0.21 0.455-0.21 0.63 0 0.455 0.49 0.455l0 0.63-4.900004 0 0-0.63q0.28-0.035 0.35-0.105 0.07-0.105 0.07-0.385 0-0.14-0.315-1.05-0.315-0.91-0.84-2.275-0.49-1.4-1.085-3.115-0.595-1.715-1.155-3.465l-0.07 0q-0.07 0.315-0.385 1.155-0.315 0.805-0.735 1.89-0.42 1.05-0.91 2.24-0.455 1.155-0.875 2.17-0.385 0.98-0.665 1.68-0.245 0.665-0.245 0.77 0 0.28 0.105 0.385 0.105 0.105 0.42 0.105l0 0.63-4.305 0 0-0.63q0.14 0 0.245-0.035 0.105-0.035 0.105-0.245 0-0.21-0.14-0.525-0.105-0.35-0.175-0.525l-4.62-12.145q-0.21-0.56-0.735-0.665l0-0.63 4.445 0 0 0.63z" id="path4828" style="stroke-width:1.87;stroke:#000"/>
      <path d="m125.4093 252.38312q0-0.665-1.085-0.665l-8.54 0 0 3.5 5.39 0q0.595 0 0.875-0.07 0.28-0.105 0.28-0.49l0.63 0 0 3.71-0.7 0q0.105-0.385-0.28-0.455-0.385-0.105-1.085-0.105l-5.11 0 0 4.13 8.96 0q0.42 0 0.7-0.175 0.28-0.21 0.28-0.525l0.63 0 0 3.675-0.63 0q0-0.315-0.28-0.35-0.28-0.035-0.7-0.035l-12.845 0 0-0.63q0.175 0 0.35-0.105 0.175-0.14 0.175-0.42l0-13.09q0-0.28-0.175-0.385-0.175-0.14-0.35-0.14l0-0.63 12.425 0q1.085 0 1.085-0.63l0.63 0 0 3.885-0.63 0z" id="path4830" style="stroke-width:1.87;stroke:#000"/>
      <path d="m136.17836 249.12812 0 0.63q-0.805 0-0.805 0.525l0 11.655 9.45 0q0.42 0 0.7-0.175 0.28-0.21 0.28-0.56l0.63 0 0 3.675-0.63 0q0-0.28-0.28-0.315-0.28-0.035-0.7-0.035l-13.72 0 0-0.63q0.91 0 0.91-0.525l0-13.09q0-0.525-0.91-0.525l0-0.63 5.075 0z" id="path4832" style="stroke-width:1.87;stroke:#000"/>
      <path d="m162.94078 253.53812q0-0.07-0.035-0.14 0-0.07 0-0.175 0-0.175-0.35-0.455-0.35-0.315-1.015-0.595-0.63-0.28-1.505-0.455-0.875-0.21-1.925-0.21-1.26 0-2.31 0.35-1.015 0.315-1.785 0.98-0.77 0.665-1.19 1.645-0.42 0.98-0.42 2.24 0 1.26 0.455 2.275 0.49 0.98 1.26 1.715 0.77 0.7 1.75 1.085 0.98 0.35 1.995 0.35 0.945 0 1.925-0.245 0.98-0.245 1.785-0.56 0.805-0.35 1.295-0.735 0.525-0.385 0.525-0.7l0-0.28q0-0.21-0.035-0.35l0.385-0.35 2.59 3.71-0.35 0.175q-0.42-0.175-0.595-0.175-0.28 0-0.91 0.315-0.63 0.315-1.61 0.735-0.945 0.385-2.24 0.665-1.26 0.28-2.835 0.28-1.61 0-3.185-0.455-1.575-0.455-2.8-1.435-1.225-1.015-1.995-2.485-0.77-1.505-0.77-3.465 0-1.96 0.77-3.43 0.77-1.47 2.03-2.45 1.26-1.015 2.87-1.505 1.645-0.49 3.36-0.49 1.33 0 2.415 0.245 1.12 0.245 1.96 0.56 0.84 0.315 1.4 0.56 0.56 0.245 0.805 0.245 0.175 0 0.28-0.105 0.14-0.105 0.28-0.175l0.42 0.245-2.31 3.325-0.385-0.28z" id="path4834" style="stroke-width:1.87;stroke:#000"/>
      <path d="m178.01484 251.50812q-1.12 0-2.205 0.385-1.05 0.35-1.89 1.05-0.84 0.665-1.365 1.645-0.49 0.98-0.49 2.24 0 1.26 0.49 2.24 0.525 0.98 1.365 1.68 0.84 0.665 1.89 1.05 1.085 0.35 2.205 0.35 1.12 0 2.17-0.35 1.085-0.385 1.925-1.05 0.84-0.7 1.33-1.68 0.525-0.98 0.525-2.24 0-1.26-0.525-2.24-0.49-0.98-1.33-1.645-0.84-0.7-1.925-1.05-1.05-0.385-2.17-0.385zm0-2.59q1.925 0 3.605 0.49 1.715 0.49 2.975 1.47 1.26 0.98 1.995 2.485 0.735 1.47 0.735 3.465 0 1.995-0.735 3.5-0.735 1.47-1.995 2.45-1.26 0.98-2.975 1.435-1.68 0.42-3.605 0.42-1.925 0-3.64-0.42-1.68-0.455-2.94-1.435-1.26-0.98-1.995-2.45-0.735-1.505-0.735-3.5 0-1.995 0.735-3.465 0.735-1.505 1.995-2.485 1.26-0.98 2.94-1.47 1.715-0.49 3.64-0.49z" id="path4836" style="stroke-width:1.87;stroke:#000"/>
      <path d="m191.99133 263.89812q0.175-0.035 0.28-0.14 0.14-0.105 0.14-0.49l0-12.81q0-0.49-0.105-0.595-0.07-0.105-0.315-0.105l0-0.63 4.865 0 0 0.63q-0.35 0-0.35 0.315 0 0.14 0.105 0.385 0.14 0.21 0.385 0.63l4.27 7.875 4.305-7.84q0.245-0.42 0.385-0.665 0.14-0.28 0.14-0.385 0-0.315-0.28-0.315l0-0.63 4.935 0 0 0.63q-0.175 0-0.35 0.105-0.14 0.07-0.14 0.35l0 13.16q0 0.28 0.14 0.42 0.175 0.105 0.35 0.105l0 0.63-4.06 0 0-0.63q0.735 0 0.63-0.525l0-9.835-0.07 0-5.95 10.99-0.28 0-5.635-10.99 0.035 0-0.07 0 0 9.835q0 0.525 0.595 0.525l0 0.63-3.955 0 0-0.63z" id="path4838" style="stroke-width:1.87;stroke:#000"/>
      <path d="m230.4093 252.38312q0-0.665-1.085-0.665l-8.54 0 0 3.5 5.39 0q0.595 0 0.875-0.07 0.28-0.105 0.28-0.49l0.63 0 0 3.71-0.7 0q0.105-0.385-0.28-0.455-0.385-0.105-1.085-0.105l-5.11 0 0 4.13 8.96 0q0.42 0 0.7-0.175 0.28-0.21 0.28-0.525l0.63 0 0 3.675-0.63 0q0-0.315-0.28-0.35-0.28-0.035-0.7-0.035l-12.845 0 0-0.63q0.175 0 0.35-0.105 0.175-0.14 0.175-0.42l0-13.09q0-0.28-0.175-0.385-0.175-0.14-0.35-0.14l0-0.63 12.425 0q1.085 0 1.085-0.63l0.63 0 0 3.885-0.63 0z" id="path4840" style="stroke-width:1.87;stroke:#000"/>
      <path d="m256.95242 255.21812q0.84 0 1.575-0.35 0.735-0.35 0.735-1.435 0-0.56-0.21-0.875-0.21-0.35-0.525-0.525-0.315-0.21-0.735-0.245-0.42-0.07-0.84-0.07l-6.23 0 0 3.5 6.23 0zm-0.07 6.72q1.61 0 2.205-0.525 0.595-0.525 0.595-1.47 0-1.085-0.77-1.61-0.77-0.525-2.59-0.525l-5.6 0 0 4.13 6.16 0zm-9.52-11.655q0-0.28-0.28-0.385-0.245-0.14-0.525-0.14l0-0.63 10.885 0q1.33 0 2.275 0.315 0.98 0.315 1.61 0.875 0.665 0.525 0.98 1.225 0.315 0.7 0.315 1.47 0 0.63-0.21 1.19-0.21 0.525-0.56 0.98-0.315 0.42-0.735 0.77-0.385 0.35-0.805 0.56l0 0.035q0.49 0.21 0.98 0.56 0.49 0.35 0.875 0.84 0.385 0.49 0.63 1.12 0.245 0.63 0.245 1.365 0 0.84-0.315 1.575-0.315 0.735-1.015 1.295-0.665 0.56-1.785 0.91-1.085 0.315-2.625 0.315l-10.745 0 0-0.63q0.28 0 0.525-0.105 0.28-0.14 0.28-0.42l0-13.09z" id="path4842" style="stroke-width:1.87;stroke:#000"/>
      <path d="m277.71891 258.08812-2.835-5.88-2.485 5.88 5.32 0zm-11.69 5.81q0.42-0.07 0.665-0.385 0.28-0.35 0.42-0.63l5.215-11.375q0.21-0.49 0.315-0.77 0.14-0.315 0.14-0.595 0-0.21-0.105-0.245-0.07-0.07-0.175-0.14l0-0.63 5.285 0 0 0.63q-0.105 0.07-0.245 0.105-0.105 0.035-0.105 0.28 0 0.21 0.14 0.525 0.175 0.28 0.35 0.665l5.67 11.9q0.175 0.315 0.385 0.455 0.21 0.14 0.455 0.21l0 0.63-4.97 0 0-0.525q0.175 0 0.35-0.105 0.21-0.105 0.21-0.385 0-0.21-0.07-0.385-0.07-0.175-0.175-0.455l-0.945-1.995-7.49 0-0.98 1.89q-0.14 0.28-0.245 0.525-0.07 0.21-0.07 0.385 0 0.28 0.175 0.35 0.175 0.07 0.49 0.07l0 0.63-4.69 0 0-0.63z" id="path4844" style="stroke-width:1.87;stroke:#000"/>
      <path d="m300.00133 253.53812q0-0.07-0.035-0.14 0-0.07 0-0.175 0-0.175-0.35-0.455-0.35-0.315-1.015-0.595-0.63-0.28-1.505-0.455-0.875-0.21-1.925-0.21-1.26 0-2.31 0.35-1.015 0.315-1.785 0.98-0.77 0.665-1.19 1.645-0.42 0.98-0.42 2.24 0 1.26 0.455 2.275 0.49 0.98 1.26 1.715 0.77 0.7 1.75 1.085 0.98 0.35 1.995 0.35 0.945 0 1.925-0.245 0.98-0.245 1.785-0.56 0.805-0.35 1.295-0.735 0.525-0.385 0.525-0.7l0-0.28q0-0.21-0.035-0.35l0.385-0.35 2.59 3.71-0.35 0.175q-0.42-0.175-0.595-0.175-0.28 0-0.91 0.315-0.63 0.315-1.61 0.735-0.945 0.385-2.24 0.665-1.26 0.28-2.835 0.28-1.61 0-3.185-0.455-1.575-0.455-2.8-1.435-1.225-1.015-1.995-2.485-0.77-1.505-0.77-3.465 0-1.96 0.77-3.43 0.77-1.47 2.03-2.45 1.26-1.015 2.87-1.505 1.645-0.49 3.36-0.49 1.33 0 2.415 0.245 1.12 0.245 1.96 0.56 0.84 0.315 1.4 0.56 0.56 0.245 0.805 0.245 0.175 0 0.28-0.105 0.14-0.105 0.28-0.175l0.42 0.245-2.31 3.325-0.385-0.28z" id="path4846" style="stroke-width:1.87;stroke:#000"/>
      <path d="m310.91039 263.37312q0 0.525 0.665 0.525l0 0.63-4.585 0 0-0.63q0.56 0 0.56-0.525l0-13.09q0-0.525-0.56-0.525l0-0.63 4.585 0 0 0.63q-0.665 0-0.665 0.525l0 5.705q1.19-0.98 2.45-1.96 1.26-1.015 2.275-1.855 1.015-0.84 1.68-1.4 0.665-0.595 0.665-0.735 0-0.175-0.21-0.28-0.175-0.105-0.35-0.105l0-0.525 5.775 0 0 0.63q-0.42 0.14-1.26 0.805l-5.845 4.725 5.53 6.86q0.42 0.525 0.91 1.085 0.49 0.525 0.98 0.665l0 0.63-5.18 0 0-0.63q0.385 0 0.385-0.21 0-0.14-0.175-0.385-0.14-0.245-0.595-0.77l-4.305-5.25-2.73 2.17 0 3.92z" id="path4848" style="stroke-width:1.87;stroke:#000"/>
      <path d="m325.70281 268.58812q0.525-0.14 1.19-0.56 0.665-0.385 1.19-0.945 0.56-0.525 0.91-1.155 0.35-0.63 0.28-1.26-0.07-0.14-0.385-0.175-0.315-0.035-0.595-0.035-0.875 0-1.54-0.56-0.63-0.595-0.63-1.645 0-1.015 0.7-1.75 0.735-0.735 1.645-0.735 1.4 0 2.1 1.015 0.735 1.015 0.735 2.485 0 1.12-0.49 2.135-0.455 1.05-1.225 1.925-0.77 0.875-1.785 1.505-1.015 0.63-2.1 0.875l0-1.12z" id="path4850" style="stroke-width:1.87;stroke:#000"/>
      <path d="m360.2943 253.53812q0-0.07-0.035-0.14 0-0.07 0-0.175 0-0.175-0.35-0.455-0.35-0.315-1.015-0.595-0.63-0.28-1.505-0.455-0.875-0.21-1.925-0.21-1.26 0-2.31 0.35-1.015 0.315-1.785 0.98-0.77 0.665-1.19 1.645-0.42 0.98-0.42 2.24 0 1.26 0.455 2.275 0.49 0.98 1.26 1.715 0.77 0.7 1.75 1.085 0.98 0.35 1.995 0.35 0.945 0 1.925-0.245 0.98-0.245 1.785-0.56 0.805-0.35 1.295-0.735 0.525-0.385 0.525-0.7l0-0.28q0-0.21-0.035-0.35l0.385-0.35 2.59 3.71-0.35 0.175q-0.42-0.175-0.595-0.175-0.28 0-0.91 0.315-0.63 0.315-1.61 0.735-0.945 0.385-2.24 0.665-1.26 0.28-2.835 0.28-1.61 0-3.185-0.455-1.575-0.455-2.8-1.435-1.225-1.015-1.995-2.485-0.77-1.505-0.77-3.465 0-1.96 0.77-3.43 0.77-1.47 2.03-2.45 1.26-1.015 2.87-1.505 1.645-0.49 3.36-0.49 1.33 0 2.415 0.245 1.12 0.245 1.96 0.56 0.84 0.315 1.4 0.56 0.56 0.245 0.805 0.245 0.175 0 0.28-0.105 0.14-0.105 0.28-0.175l0.42 0.245-2.31 3.325-0.385-0.28z" id="path4852" style="stroke-width:1.87;stroke:#000"/>
      <path d="m375.36836 251.50812q-1.12 0-2.205 0.385-1.05 0.35-1.89 1.05-0.84 0.665-1.365 1.645-0.49 0.98-0.49 2.24 0 1.26 0.49 2.24 0.525 0.98 1.365 1.68 0.84 0.665 1.89 1.05 1.085 0.35 2.205 0.35 1.12 0 2.17-0.35 1.085-0.385 1.925-1.05 0.84-0.7 1.33-1.68 0.525-0.98 0.525-2.24 0-1.26-0.525-2.24-0.49-0.98-1.33-1.645-0.84-0.7-1.925-1.05-1.05-0.385-2.17-0.385zm0-2.59q1.925 0 3.605 0.49 1.715 0.49 2.975 1.47 1.26 0.98 1.995 2.485 0.735 1.47 0.735 3.465 0 1.995-0.735 3.5-0.735 1.47-1.995 2.45-1.26 0.98-2.975 1.435-1.68 0.42-3.605 0.42-1.925 0-3.64-0.42-1.68-0.455-2.94-1.435-1.26-0.98-1.995-2.45-0.735-1.505-0.735-3.5 0-1.995 0.735-3.465 0.735-1.505 1.995-2.485 1.26-0.98 2.94-1.47 1.715-0.49 3.64-0.49z" id="path4854" style="stroke-width:1.87;stroke:#000"/>
      <path d="m389.34484 263.89812q0.175-0.035 0.28-0.14 0.14-0.105 0.14-0.49l0-12.81q0-0.49-0.105-0.595-0.07-0.105-0.315-0.105l0-0.63 4.865 0 0 0.63q-0.35 0-0.35 0.315 0 0.14 0.105 0.385 0.14 0.21 0.385 0.63l4.27 7.875 4.305-7.84q0.245-0.42 0.385-0.665 0.14-0.28 0.14-0.385 0-0.315-0.28-0.315l0-0.63 4.935 0 0 0.63q-0.175 0-0.35 0.105-0.14 0.07-0.14 0.35l0 13.16q0 0.28 0.14 0.42 0.175 0.105 0.35 0.105l0 0.63-4.06 0 0-0.63q0.735 0 0.63-0.525l0-9.835-0.07 0-5.95 10.99-0.28 0-5.635-10.99 0.035 0-0.07 0 0 9.835q0 0.525 0.595 0.525l0 0.63-3.955 0 0-0.63z" id="path4856" style="stroke-width:1.87;stroke:#000"/>
      <path d="m414.63781 263.89812q0.175-0.035 0.28-0.14 0.14-0.105 0.14-0.49l0-12.81q0-0.49-0.105-0.595-0.07-0.105-0.315-0.105l0-0.63 4.865 0 0 0.63q-0.35 0-0.35 0.315 0 0.14 0.105 0.385 0.14 0.21 0.385 0.63l4.27 7.875 4.305-7.84q0.245-0.42 0.385-0.665 0.14-0.28 0.14-0.385 0-0.315-0.28-0.315l0-0.63 4.935 0 0 0.63q-0.175 0-0.35 0.105-0.14 0.07-0.14 0.35l0 13.16q0 0.28 0.14 0.42 0.175 0.105 0.35 0.105l0 0.63-4.06 0 0-0.63q0.735 0 0.63-0.525l0-9.835-0.07 0-5.95 10.99-0.28 0-5.635-10.99 0.035 0-0.07 0 0 9.835q0 0.525 0.595 0.525l0 0.63-3.955 0 0-0.63z" id="path4858" style="stroke-width:1.87;stroke:#000"/>
      <path d="m448.89078 258.08812-2.835-5.88-2.485 5.88 5.32 0zm-11.69 5.81q0.42-0.07 0.665-0.385 0.28-0.35 0.42-0.63l5.215-11.375q0.21-0.49 0.315-0.77 0.14-0.315 0.14-0.595 0-0.21-0.105-0.245-0.07-0.07-0.175-0.14l0-0.63 5.285 0 0 0.63q-0.105 0.07-0.245 0.105-0.105 0.035-0.105 0.28 0 0.21 0.14 0.525 0.175 0.28 0.35 0.665l5.67 11.9q0.175 0.315 0.385 0.455 0.21 0.14 0.455 0.21l0 0.63-4.97 0 0-0.525q0.175 0 0.35-0.105 0.21-0.105 0.21-0.385 0-0.21-0.07-0.385-0.07-0.175-0.175-0.455l-0.945-1.995-7.49 0-0.98 1.89q-0.14 0.28-0.245 0.525-0.07 0.21-0.07 0.385 0 0.28 0.175 0.35 0.175 0.07 0.49 0.07l0 0.63-4.69 0 0-0.63z" id="path4860" style="stroke-width:1.87;stroke:#000"/>
      <path d="m458.9932 263.89812q0.63 0 0.63-0.525l0-13.09q0-0.525-0.63-0.525l0-0.63 5.145 0 0 0.63q-0.245 0.035-0.245 0.175 0 0.175 0.77 0.945l8.4 8.89 0-9.485q0-0.525-0.7-0.525l0-0.63 4.27 0 0 0.63q-0.63 0-0.63 0.525l0 13.09q0 0.525 0.63 0.525l0 0.63-4.55 0 0-0.63q0.245 0 0.245-0.175 0-0.14-0.35-0.49-0.315-0.35-0.735-0.805l-8.68-9.24 0 10.185q0 0.525 0.735 0.525l0 0.63-4.305 0 0-0.63z" id="path4862" style="stroke-width:1.87;stroke:#000"/>
      <path d="m490.52875 261.93812q1.085 0 2.065-0.14 0.98-0.175 1.715-0.7 0.735-0.56 1.155-1.575 0.455-1.05 0.455-2.8 0-1.75-0.455-2.73-0.42-1.015-1.155-1.505-0.735-0.525-1.715-0.63-0.98-0.14-2.065-0.14l-4.55 0 0 10.22 4.55 0zm-8.715 1.96q0.805 0 0.805-0.525l0-13.09q0-0.525-0.805-0.525l0-0.63 9.73 0q2.065 0 3.535 0.665 1.47 0.665 2.38 1.75 0.945 1.05 1.365 2.45 0.455 1.365 0.455 2.835 0 1.47-0.42 2.87-0.42 1.365-1.33 2.45-0.91 1.05-2.345 1.715-1.435 0.665-3.5 0.665l-9.87 0 0-0.63z" id="path4864" style="stroke-width:1.87;stroke:#000"/>
      <path d="m517.24523 252.38312q0-0.665-1.085-0.665l-8.54 0 0 3.5 5.39 0q0.595 0 0.875-0.07 0.28-0.105 0.28-0.49l0.63 0 0 3.71-0.7 0q0.105-0.385-0.28-0.455-0.385-0.105-1.085-0.105l-5.11 0 0 4.13 8.96 0q0.42 0 0.7-0.175 0.28-0.21 0.28-0.525l0.63 0 0 3.675-0.63 0q0-0.315-0.28-0.35-0.28-0.035-0.7-0.035l-12.845 0 0-0.63q0.175 0 0.35-0.105 0.175-0.14 0.175-0.42l0-13.09q0-0.28-0.175-0.385-0.175-0.14-0.35-0.14l0-0.63 12.425 0q1.085 0 1.085-0.63l0.63 0 0 3.885-0.63 0z" id="path4866" style="stroke-width:1.87;stroke:#000"/>
      <path d="m532.5993 255.77812q3.43 0 3.43-2.17 0-0.875-0.84-1.365-0.805-0.525-2.59-0.525l-5.53 0 0 4.06 5.53 0zm0.07-6.65q3.115 0 4.865 1.05 1.75 1.015 1.75 3.5 0 0.945-0.35 1.68-0.35 0.735-0.945 1.295-0.56 0.525-1.26 0.875-0.7 0.315-1.435 0.49l3.43 5.005q0.28 0.385 0.595 0.595 0.35 0.175 0.735 0.28l0 0.63-5.355 0 0-0.63q0.455 0 0.455-0.315 0-0.35-0.525-1.085l-2.765-4.13-4.865 0 0 5.005q0 0.28 0.21 0.42 0.245 0.105 0.455 0.105l0 0.63-4.655 0 0-0.63q0.63 0 0.63-0.525l0-13.09q0-0.525-0.63-0.525l0-0.63 9.66 0z" id="path4868" style="stroke-width:1.87;stroke:#000"/>
    </g>
    <g transform="matrix(0.89963472,0,0,0.8911287,31.235512,28.208894)" id="flowRoot4776" style="-inkscape-font-specification:Copperplate;fill:#fff;font-family:Copperplate;font-size:35;letter-spacing:0;line-height:125;word-spacing:0">
      <path d="m86.827266 249.75812q-0.455 0-0.455 0.49 0 0.175 0.14 0.56 0.14 0.35 0.35 0.91l3.08 8.505 0.07 0 2.975-8.33q0.175-0.49 0.315-0.91 0.175-0.455 0.175-0.735 0-0.49-0.56-0.49l0-0.63 5.005 0 0 0.63q-0.63 0-0.63 0.42 0 0.245 0.175 0.735 0.175 0.455 0.35 0.875l3.080004 8.435 3.255-8.505q0.175-0.49 0.28-0.84 0.14-0.385 0.14-0.63 0-0.49-0.56-0.49l0-0.63 4.445 0 0 0.63q-0.595 0-1.05 1.295l-4.025 10.675q-0.21 0.595-0.42 1.085-0.21 0.455-0.21 0.63 0 0.455 0.49 0.455l0 0.63-4.900004 0 0-0.63q0.28-0.035 0.35-0.105 0.07-0.105 0.07-0.385 0-0.14-0.315-1.05-0.315-0.91-0.84-2.275-0.49-1.4-1.085-3.115-0.595-1.715-1.155-3.465l-0.07 0q-0.07 0.315-0.385 1.155-0.315 0.805-0.735 1.89-0.42 1.05-0.91 2.24-0.455 1.155-0.875 2.17-0.385 0.98-0.665 1.68-0.245 0.665-0.245 0.77 0 0.28 0.105 0.385 0.105 0.105 0.42 0.105l0 0.63-4.305 0 0-0.63q0.14 0 0.245-0.035 0.105-0.035 0.105-0.245 0-0.21-0.14-0.525-0.105-0.35-0.175-0.525l-4.62-12.145q-0.21-0.56-0.735-0.665l0-0.63 4.445 0 0 0.63z" id="path4785"/>
      <path d="m125.4093 252.38312q0-0.665-1.085-0.665l-8.54 0 0 3.5 5.39 0q0.595 0 0.875-0.07 0.28-0.105 0.28-0.49l0.63 0 0 3.71-0.7 0q0.105-0.385-0.28-0.455-0.385-0.105-1.085-0.105l-5.11 0 0 4.13 8.96 0q0.42 0 0.7-0.175 0.28-0.21 0.28-0.525l0.63 0 0 3.675-0.63 0q0-0.315-0.28-0.35-0.28-0.035-0.7-0.035l-12.845 0 0-0.63q0.175 0 0.35-0.105 0.175-0.14 0.175-0.42l0-13.09q0-0.28-0.175-0.385-0.175-0.14-0.35-0.14l0-0.63 12.425 0q1.085 0 1.085-0.63l0.63 0 0 3.885-0.63 0z" id="path4787"/>
      <path d="m136.17836 249.12812 0 0.63q-0.805 0-0.805 0.525l0 11.655 9.45 0q0.42 0 0.7-0.175 0.28-0.21 0.28-0.56l0.63 0 0 3.675-0.63 0q0-0.28-0.28-0.315-0.28-0.035-0.7-0.035l-13.72 0 0-0.63q0.91 0 0.91-0.525l0-13.09q0-0.525-0.91-0.525l0-0.63 5.075 0z" id="path4789"/>
      <path d="m162.94078 253.53812q0-0.07-0.035-0.14 0-0.07 0-0.175 0-0.175-0.35-0.455-0.35-0.315-1.015-0.595-0.63-0.28-1.505-0.455-0.875-0.21-1.925-0.21-1.26 0-2.31 0.35-1.015 0.315-1.785 0.98-0.77 0.665-1.19 1.645-0.42 0.98-0.42 2.24 0 1.26 0.455 2.275 0.49 0.98 1.26 1.715 0.77 0.7 1.75 1.085 0.98 0.35 1.995 0.35 0.945 0 1.925-0.245 0.98-0.245 1.785-0.56 0.805-0.35 1.295-0.735 0.525-0.385 0.525-0.7l0-0.28q0-0.21-0.035-0.35l0.385-0.35 2.59 3.71-0.35 0.175q-0.42-0.175-0.595-0.175-0.28 0-0.91 0.315-0.63 0.315-1.61 0.735-0.945 0.385-2.24 0.665-1.26 0.28-2.835 0.28-1.61 0-3.185-0.455-1.575-0.455-2.8-1.435-1.225-1.015-1.995-2.485-0.77-1.505-0.77-3.465 0-1.96 0.77-3.43 0.77-1.47 2.03-2.45 1.26-1.015 2.87-1.505 1.645-0.49 3.36-0.49 1.33 0 2.415 0.245 1.12 0.245 1.96 0.56 0.84 0.315 1.4 0.56 0.56 0.245 0.805 0.245 0.175 0 0.28-0.105 0.14-0.105 0.28-0.175l0.42 0.245-2.31 3.325-0.385-0.28z" id="path4791"/>
      <path d="m178.01484 251.50812q-1.12 0-2.205 0.385-1.05 0.35-1.89 1.05-0.84 0.665-1.365 1.645-0.49 0.98-0.49 2.24 0 1.26 0.49 2.24 0.525 0.98 1.365 1.68 0.84 0.665 1.89 1.05 1.085 0.35 2.205 0.35 1.12 0 2.17-0.35 1.085-0.385 1.925-1.05 0.84-0.7 1.33-1.68 0.525-0.98 0.525-2.24 0-1.26-0.525-2.24-0.49-0.98-1.33-1.645-0.84-0.7-1.925-1.05-1.05-0.385-2.17-0.385zm0-2.59q1.925 0 3.605 0.49 1.715 0.49 2.975 1.47 1.26 0.98 1.995 2.485 0.735 1.47 0.735 3.465 0 1.995-0.735 3.5-0.735 1.47-1.995 2.45-1.26 0.98-2.975 1.435-1.68 0.42-3.605 0.42-1.925 0-3.64-0.42-1.68-0.455-2.94-1.435-1.26-0.98-1.995-2.45-0.735-1.505-0.735-3.5 0-1.995 0.735-3.465 0.735-1.505 1.995-2.485 1.26-0.98 2.94-1.47 1.715-0.49 3.64-0.49z" id="path4793"/>
      <path d="m191.99133 263.89812q0.175-0.035 0.28-0.14 0.14-0.105 0.14-0.49l0-12.81q0-0.49-0.105-0.595-0.07-0.105-0.315-0.105l0-0.63 4.865 0 0 0.63q-0.35 0-0.35 0.315 0 0.14 0.105 0.385 0.14 0.21 0.385 0.63l4.27 7.875 4.305-7.84q0.245-0.42 0.385-0.665 0.14-0.28 0.14-0.385 0-0.315-0.28-0.315l0-0.63 4.935 0 0 0.63q-0.175 0-0.35 0.105-0.14 0.07-0.14 0.35l0 13.16q0 0.28 0.14 0.42 0.175 0.105 0.35 0.105l0 0.63-4.06 0 0-0.63q0.735 0 0.63-0.525l0-9.835-0.07 0-5.95 10.99-0.28 0-5.635-10.99 0.035 0-0.07 0 0 9.835q0 0.525 0.595 0.525l0 0.63-3.955 0 0-0.63z" id="path4795"/>
      <path d="m230.4093 252.38312q0-0.665-1.085-0.665l-8.54 0 0 3.5 5.39 0q0.595 0 0.875-0.07 0.28-0.105 0.28-0.49l0.63 0 0 3.71-0.7 0q0.105-0.385-0.28-0.455-0.385-0.105-1.085-0.105l-5.11 0 0 4.13 8.96 0q0.42 0 0.7-0.175 0.28-0.21 0.28-0.525l0.63 0 0 3.675-0.63 0q0-0.315-0.28-0.35-0.28-0.035-0.7-0.035l-12.845 0 0-0.63q0.175 0 0.35-0.105 0.175-0.14 0.175-0.42l0-13.09q0-0.28-0.175-0.385-0.175-0.14-0.35-0.14l0-0.63 12.425 0q1.085 0 1.085-0.63l0.63 0 0 3.885-0.63 0z" id="path4797"/>
      <path d="m256.95242 255.21812q0.84 0 1.575-0.35 0.735-0.35 0.735-1.435 0-0.56-0.21-0.875-0.21-0.35-0.525-0.525-0.315-0.21-0.735-0.245-0.42-0.07-0.84-0.07l-6.23 0 0 3.5 6.23 0zm-0.07 6.72q1.61 0 2.205-0.525 0.595-0.525 0.595-1.47 0-1.085-0.77-1.61-0.77-0.525-2.59-0.525l-5.6 0 0 4.13 6.16 0zm-9.52-11.655q0-0.28-0.28-0.385-0.245-0.14-0.525-0.14l0-0.63 10.885 0q1.33 0 2.275 0.315 0.98 0.315 1.61 0.875 0.665 0.525 0.98 1.225 0.315 0.7 0.315 1.47 0 0.63-0.21 1.19-0.21 0.525-0.56 0.98-0.315 0.42-0.735 0.77-0.385 0.35-0.805 0.56l0 0.035q0.49 0.21 0.98 0.56 0.49 0.35 0.875 0.84 0.385 0.49 0.63 1.12 0.245 0.63 0.245 1.365 0 0.84-0.315 1.575-0.315 0.735-1.015 1.295-0.665 0.56-1.785 0.91-1.085 0.315-2.625 0.315l-10.745 0 0-0.63q0.28 0 0.525-0.105 0.28-0.14 0.28-0.42l0-13.09z" id="path4799"/>
      <path d="m277.71891 258.08812-2.835-5.88-2.485 5.88 5.32 0zm-11.69 5.81q0.42-0.07 0.665-0.385 0.28-0.35 0.42-0.63l5.215-11.375q0.21-0.49 0.315-0.77 0.14-0.315 0.14-0.595 0-0.21-0.105-0.245-0.07-0.07-0.175-0.14l0-0.63 5.285 0 0 0.63q-0.105 0.07-0.245 0.105-0.105 0.035-0.105 0.28 0 0.21 0.14 0.525 0.175 0.28 0.35 0.665l5.67 11.9q0.175 0.315 0.385 0.455 0.21 0.14 0.455 0.21l0 0.63-4.97 0 0-0.525q0.175 0 0.35-0.105 0.21-0.105 0.21-0.385 0-0.21-0.07-0.385-0.07-0.175-0.175-0.455l-0.945-1.995-7.49 0-0.98 1.89q-0.14 0.28-0.245 0.525-0.07 0.21-0.07 0.385 0 0.28 0.175 0.35 0.175 0.07 0.49 0.07l0 0.63-4.69 0 0-0.63z" id="path4801"/>
      <path d="m300.00133 253.53812q0-0.07-0.035-0.14 0-0.07 0-0.175 0-0.175-0.35-0.455-0.35-0.315-1.015-0.595-0.63-0.28-1.505-0.455-0.875-0.21-1.925-0.21-1.26 0-2.31 0.35-1.015 0.315-1.785 0.98-0.77 0.665-1.19 1.645-0.42 0.98-0.42 2.24 0 1.26 0.455 2.275 0.49 0.98 1.26 1.715 0.77 0.7 1.75 1.085 0.98 0.35 1.995 0.35 0.945 0 1.925-0.245 0.98-0.245 1.785-0.56 0.805-0.35 1.295-0.735 0.525-0.385 0.525-0.7l0-0.28q0-0.21-0.035-0.35l0.385-0.35 2.59 3.71-0.35 0.175q-0.42-0.175-0.595-0.175-0.28 0-0.91 0.315-0.63 0.315-1.61 0.735-0.945 0.385-2.24 0.665-1.26 0.28-2.835 0.28-1.61 0-3.185-0.455-1.575-0.455-2.8-1.435-1.225-1.015-1.995-2.485-0.77-1.505-0.77-3.465 0-1.96 0.77-3.43 0.77-1.47 2.03-2.45 1.26-1.015 2.87-1.505 1.645-0.49 3.36-0.49 1.33 0 2.415 0.245 1.12 0.245 1.96 0.56 0.84 0.315 1.4 0.56 0.56 0.245 0.805 0.245 0.175 0 0.28-0.105 0.14-0.105 0.28-0.175l0.42 0.245-2.31 3.325-0.385-0.28z" id="path4803"/>
      <path d="m310.91039 263.37312q0 0.525 0.665 0.525l0 0.63-4.585 0 0-0.63q0.56 0 0.56-0.525l0-13.09q0-0.525-0.56-0.525l0-0.63 4.585 0 0 0.63q-0.665 0-0.665 0.525l0 5.705q1.19-0.98 2.45-1.96 1.26-1.015 2.275-1.855 1.015-0.84 1.68-1.4 0.665-0.595 0.665-0.735 0-0.175-0.21-0.28-0.175-0.105-0.35-0.105l0-0.525 5.775 0 0 0.63q-0.42 0.14-1.26 0.805l-5.845 4.725 5.53 6.86q0.42 0.525 0.91 1.085 0.49 0.525 0.98 0.665l0 0.63-5.18 0 0-0.63q0.385 0 0.385-0.21 0-0.14-0.175-0.385-0.14-0.245-0.595-0.77l-4.305-5.25-2.73 2.17 0 3.92z" id="path4805"/>
      <path d="m325.70281 268.58812q0.525-0.14 1.19-0.56 0.665-0.385 1.19-0.945 0.56-0.525 0.91-1.155 0.35-0.63 0.28-1.26-0.07-0.14-0.385-0.175-0.315-0.035-0.595-0.035-0.875 0-1.54-0.56-0.63-0.595-0.63-1.645 0-1.015 0.7-1.75 0.735-0.735 1.645-0.735 1.4 0 2.1 1.015 0.735 1.015 0.735 2.485 0 1.12-0.49 2.135-0.455 1.05-1.225 1.925-0.77 0.875-1.785 1.505-1.015 0.63-2.1 0.875l0-1.12z" id="path4807"/>
      <path d="m360.2943 253.53812q0-0.07-0.035-0.14 0-0.07 0-0.175 0-0.175-0.35-0.455-0.35-0.315-1.015-0.595-0.63-0.28-1.505-0.455-0.875-0.21-1.925-0.21-1.26 0-2.31 0.35-1.015 0.315-1.785 0.98-0.77 0.665-1.19 1.645-0.42 0.98-0.42 2.24 0 1.26 0.455 2.275 0.49 0.98 1.26 1.715 0.77 0.7 1.75 1.085 0.98 0.35 1.995 0.35 0.945 0 1.925-0.245 0.98-0.245 1.785-0.56 0.805-0.35 1.295-0.735 0.525-0.385 0.525-0.7l0-0.28q0-0.21-0.035-0.35l0.385-0.35 2.59 3.71-0.35 0.175q-0.42-0.175-0.595-0.175-0.28 0-0.91 0.315-0.63 0.315-1.61 0.735-0.945 0.385-2.24 0.665-1.26 0.28-2.835 0.28-1.61 0-3.185-0.455-1.575-0.455-2.8-1.435-1.225-1.015-1.995-2.485-0.77-1.505-0.77-3.465 0-1.96 0.77-3.43 0.77-1.47 2.03-2.45 1.26-1.015 2.87-1.505 1.645-0.49 3.36-0.49 1.33 0 2.415 0.245 1.12 0.245 1.96 0.56 0.84 0.315 1.4 0.56 0.56 0.245 0.805 0.245 0.175 0 0.28-0.105 0.14-0.105 0.28-0.175l0.42 0.245-2.31 3.325-0.385-0.28z" id="path4809"/>
      <path d="m375.36836 251.50812q-1.12 0-2.205 0.385-1.05 0.35-1.89 1.05-0.84 0.665-1.365 1.645-0.49 0.98-0.49 2.24 0 1.26 0.49 2.24 0.525 0.98 1.365 1.68 0.84 0.665 1.89 1.05 1.085 0.35 2.205 0.35 1.12 0 2.17-0.35 1.085-0.385 1.925-1.05 0.84-0.7 1.33-1.68 0.525-0.98 0.525-2.24 0-1.26-0.525-2.24-0.49-0.98-1.33-1.645-0.84-0.7-1.925-1.05-1.05-0.385-2.17-0.385zm0-2.59q1.925 0 3.605 0.49 1.715 0.49 2.975 1.47 1.26 0.98 1.995 2.485 0.735 1.47 0.735 3.465 0 1.995-0.735 3.5-0.735 1.47-1.995 2.45-1.26 0.98-2.975 1.435-1.68 0.42-3.605 0.42-1.925 0-3.64-0.42-1.68-0.455-2.94-1.435-1.26-0.98-1.995-2.45-0.735-1.505-0.735-3.5 0-1.995 0.735-3.465 0.735-1.505 1.995-2.485 1.26-0.98 2.94-1.47 1.715-0.49 3.64-0.49z" id="path4811"/>
      <path d="m389.34484 263.89812q0.175-0.035 0.28-0.14 0.14-0.105 0.14-0.49l0-12.81q0-0.49-0.105-0.595-0.07-0.105-0.315-0.105l0-0.63 4.865 0 0 0.63q-0.35 0-0.35 0.315 0 0.14 0.105 0.385 0.14 0.21 0.385 0.63l4.27 7.875 4.305-7.84q0.245-0.42 0.385-0.665 0.14-0.28 0.14-0.385 0-0.315-0.28-0.315l0-0.63 4.935 0 0 0.63q-0.175 0-0.35 0.105-0.14 0.07-0.14 0.35l0 13.16q0 0.28 0.14 0.42 0.175 0.105 0.35 0.105l0 0.63-4.06 0 0-0.63q0.735 0 0.63-0.525l0-9.835-0.07 0-5.95 10.99-0.28 0-5.635-10.99 0.035 0-0.07 0 0 9.835q0 0.525 0.595 0.525l0 0.63-3.955 0 0-0.63z" id="path4813"/>
      <path d="m414.63781 263.89812q0.175-0.035 0.28-0.14 0.14-0.105 0.14-0.49l0-12.81q0-0.49-0.105-0.595-0.07-0.105-0.315-0.105l0-0.63 4.865 0 0 0.63q-0.35 0-0.35 0.315 0 0.14 0.105 0.385 0.14 0.21 0.385 0.63l4.27 7.875 4.305-7.84q0.245-0.42 0.385-0.665 0.14-0.28 0.14-0.385 0-0.315-0.28-0.315l0-0.63 4.935 0 0 0.63q-0.175 0-0.35 0.105-0.14 0.07-0.14 0.35l0 13.16q0 0.28 0.14 0.42 0.175 0.105 0.35 0.105l0 0.63-4.06 0 0-0.63q0.735 0 0.63-0.525l0-9.835-0.07 0-5.95 10.99-0.28 0-5.635-10.99 0.035 0-0.07 0 0 9.835q0 0.525 0.595 0.525l0 0.63-3.955 0 0-0.63z" id="path4815"/>
      <path d="m448.89078 258.08812-2.835-5.88-2.485 5.88 5.32 0zm-11.69 5.81q0.42-0.07 0.665-0.385 0.28-0.35 0.42-0.63l5.215-11.375q0.21-0.49 0.315-0.77 0.14-0.315 0.14-0.595 0-0.21-0.105-0.245-0.07-0.07-0.175-0.14l0-0.63 5.285 0 0 0.63q-0.105 0.07-0.245 0.105-0.105 0.035-0.105 0.28 0 0.21 0.14 0.525 0.175 0.28 0.35 0.665l5.67 11.9q0.175 0.315 0.385 0.455 0.21 0.14 0.455 0.21l0 0.63-4.97 0 0-0.525q0.175 0 0.35-0.105 0.21-0.105 0.21-0.385 0-0.21-0.07-0.385-0.07-0.175-0.175-0.455l-0.945-1.995-7.49 0-0.98 1.89q-0.14 0.28-0.245 0.525-0.07 0.21-0.07 0.385 0 0.28 0.175 0.35 0.175 0.07 0.49 0.07l0 0.63-4.69 0 0-0.63z" id="path4817"/>
      <path d="m458.9932 263.89812q0.63 0 0.63-0.525l0-13.09q0-0.525-0.63-0.525l0-0.63 5.145 0 0 0.63q-0.245 0.035-0.245 0.175 0 0.175 0.77 0.945l8.4 8.89 0-9.485q0-0.525-0.7-0.525l0-0.63 4.27 0 0 0.63q-0.63 0-0.63 0.525l0 13.09q0 0.525 0.63 0.525l0 0.63-4.55 0 0-0.63q0.245 0 0.245-0.175 0-0.14-0.35-0.49-0.315-0.35-0.735-0.805l-8.68-9.24 0 10.185q0 0.525 0.735 0.525l0 0.63-4.305 0 0-0.63z" id="path4819"/>
      <path d="m490.52875 261.93812q1.085 0 2.065-0.14 0.98-0.175 1.715-0.7 0.735-0.56 1.155-1.575 0.455-1.05 0.455-2.8 0-1.75-0.455-2.73-0.42-1.015-1.155-1.505-0.735-0.525-1.715-0.63-0.98-0.14-2.065-0.14l-4.55 0 0 10.22 4.55 0zm-8.715 1.96q0.805 0 0.805-0.525l0-13.09q0-0.525-0.805-0.525l0-0.63 9.73 0q2.065 0 3.535 0.665 1.47 0.665 2.38 1.75 0.945 1.05 1.365 2.45 0.455 1.365 0.455 2.835 0 1.47-0.42 2.87-0.42 1.365-1.33 2.45-0.91 1.05-2.345 1.715-1.435 0.665-3.5 0.665l-9.87 0 0-0.63z" id="path4821"/>
      <path d="m517.24523 252.38312q0-0.665-1.085-0.665l-8.54 0 0 3.5 5.39 0q0.595 0 0.875-0.07 0.28-0.105 0.28-0.49l0.63 0 0 3.71-0.7 0q0.105-0.385-0.28-0.455-0.385-0.105-1.085-0.105l-5.11 0 0 4.13 8.96 0q0.42 0 0.7-0.175 0.28-0.21 0.28-0.525l0.63 0 0 3.675-0.63 0q0-0.315-0.28-0.35-0.28-0.035-0.7-0.035l-12.845 0 0-0.63q0.175 0 0.35-0.105 0.175-0.14 0.175-0.42l0-13.09q0-0.28-0.175-0.385-0.175-0.14-0.35-0.14l0-0.63 12.425 0q1.085 0 1.085-0.63l0.63 0 0 3.885-0.63 0z" id="path4823"/>
      <path d="m532.5993 255.77812q3.43 0 3.43-2.17 0-0.875-0.84-1.365-0.805-0.525-2.59-0.525l-5.53 0 0 4.06 5.53 0zm0.07-6.65q3.115 0 4.865 1.05 1.75 1.015 1.75 3.5 0 0.945-0.35 1.68-0.35 0.735-0.945 1.295-0.56 0.525-1.26 0.875-0.7 0.315-1.435 0.49l3.43 5.005q0.28 0.385 0.595 0.595 0.35 0.175 0.735 0.28l0 0.63-5.355 0 0-0.63q0.455 0 0.455-0.315 0-0.35-0.525-1.085l-2.765-4.13-4.865 0 0 5.005q0 0.28 0.21 0.42 0.245 0.105 0.455 0.105l0 0.63-4.655 0 0-0.63q0.63 0 0.63-0.525l0-13.09q0-0.525-0.63-0.525l0-0.63 9.66 0z" id="path4825"/>
    </g>
  </g>
</svg>
