<?xml version="1.0" encoding="UTF-8" standalone="no"?>
<!-- Created with Inkscape (http://www.inkscape.org/) -->

<svg
   xmlns:dc="http://purl.org/dc/elements/1.1/"
   xmlns:cc="http://creativecommons.org/ns#"
   xmlns:rdf="http://www.w3.org/1999/02/22-rdf-syntax-ns#"
   xmlns:svg="http://www.w3.org/2000/svg"
   xmlns="http://www.w3.org/2000/svg"
   version="1.1"
   width="134"
   height="134"
   id="svg2985">
  <metadata
     id="metadata2991">
    <rdf:RDF>
      <cc:Work
         rdf:about="">
        <dc:format>image/svg+xml</dc:format>
        <dc:type
           rdf:resource="http://purl.org/dc/dcmitype/StillImage" />
        <dc:title></dc:title>
      </cc:Work>
    </rdf:RDF>
  </metadata>
  <defs
     id="defs2989" />
  <rect
     width="273.03757"
     height="30.787558"
     x="-44.329716"
     y="-30.331417"
     transform="matrix(0.70710678,0.70710678,-0.70710678,0.70710678,0,0)"
     id="rect3047"
     style="fill:#800000;fill-opacity:1;stroke:none" />
  <path
     d="m 36.63697,-2.9610096 2.828427,2.82842708 0.707107,-0.70710678 -2.828427,-2.8284271 z m 3.535534,3.53553386 2.828427,2.82842714 0.707107,-0.7071068 -2.828427,-2.82842712 z m 3.535534,3.53553394 2.828427,2.8284271 0.707107,-0.7071068 -2.828427,-2.8284271 z m 3.535534,3.5355339 2.828427,2.8284269 0.707107,-0.7071066 -2.828427,-2.8284271 z m 3.535534,3.5355339 2.828427,2.828427 0.707107,-0.707107 -2.828428,-2.828427 z m 3.535534,3.535534 2.828427,2.828427 0.707106,-0.707107 -2.828427,-2.828427 z m 3.535533,3.535534 2.828428,2.828427 0.707106,-0.707107 -2.828427,-2.828427 z m 3.535534,3.535534 2.828427,2.828427 0.707107,-0.707107 -2.828427,-2.828427 z m 3.535534,3.535534 2.828427,2.828427 0.707107,-0.707107 -2.828427,-2.828427 z m 3.535534,3.535533 2.828427,2.828428 0.707107,-0.707107 -2.828427,-2.828427 z m 3.535534,3.535534 2.828427,2.828427 0.707107,-0.707106 -2.828427,-2.828427 z m 3.535534,3.535534 2.828427,2.828427 0.707107,-0.707106 -2.828427,-2.828428 z m 3.535534,3.535534 2.828427,2.828427 0.707107,-0.707107 -2.828427,-2.828427 z m 3.535534,3.535534 2.828427,2.828427 0.707107,-0.707107 -2.828427,-2.828427 z m 3.535534,3.535534 2.828427,2.828427 0.707107,-0.707107 -2.828428,-2.828427 z m 3.535534,3.535534 2.828427,2.828427 0.707106,-0.707107 -2.828427,-2.828427 z m 3.535533,3.535534 2.828428,2.828427 0.707106,-0.707107 -2.828427,-2.828427 z m 3.535534,3.535534 2.828427,2.828427 0.707107,-0.707107 -2.828427,-2.828427 z m 3.535534,3.535534 2.82843,2.828427 0.7071,-0.707107 -2.82842,-2.828427 z m 3.53553,3.535533 2.82843,2.828428 0.70711,-0.707107 -2.82843,-2.828427 z m 3.53554,3.535534 2.82843,2.828427 0.7071,-0.707106 -2.82843,-2.828427 z m 3.53553,3.535534 2.82843,2.828427 0.70711,-0.707106 -2.82843,-2.828428 z m 3.53554,3.535534 2.82842,2.828427 0.70711,-0.707107 -2.82843,-2.828427 z m 3.53553,3.535534 2.82843,2.828427 0.7071,-0.707107 -2.82842,-2.828427 z m 3.53553,3.535534 2.82843,2.828427 0.70711,-0.707107 -2.82843,-2.828427 z m 3.53554,3.535534 2.82842,2.828427 0.70711,-0.707107 -2.82843,-2.828427 z m 3.53553,3.535534 2.82843,2.828427 0.70711,-0.707107 -2.82843,-2.828427 z m 3.53554,3.535534 2.82842,2.828427 0.70711,-0.707107 -2.82843,-2.828427 z m 4.66248,43.023024 c -91.17258,-1.01429 -45.58629,-0.50714 0,0 z M -1.1269514,-2.3643883 1.7014757,0.46403882 2.4085825,-0.24306796 -0.41984465,-3.0714951 z M 2.4085825,1.1711456 5.2370096,3.9995727 5.9441164,3.2924659 3.1156892,0.46403882 z M 5.9441164,4.7066795 8.7725435,7.5351066 9.4796503,6.8279998 6.6512231,3.9995727 z m 3.5355339,3.5355339 2.8284267,2.8284276 0.707107,-0.707107 -2.828427,-2.8284274 z m 3.5355337,3.5355336 2.828427,2.828427 0.707107,-0.707106 -2.828427,-2.828427 z m 3.535534,3.535534 2.828427,2.828427 0.707107,-0.707106 -2.828427,-2.828428 z m 3.535534,3.535534 2.828427,2.828427 0.707107,-0.707107 -2.828427,-2.828427 z m 3.535534,3.535534 2.828427,2.828427 0.707107,-0.707107 -2.828427,-2.828427 z m 3.535534,3.535534 2.828427,2.828427 0.707107,-0.707107 -2.828427,-2.828427 z m 3.535534,3.535534 2.828427,2.828427 0.707107,-0.707107 -2.828428,-2.828427 z m 3.535534,3.535534 2.828427,2.828427 0.707106,-0.707107 -2.828427,-2.828427 z m 3.535533,3.535534 2.828428,2.828427 0.707106,-0.707107 -2.828427,-2.828427 z m 3.535534,3.535534 2.828427,2.828427 0.707107,-0.707107 -2.828427,-2.828427 z m 3.535534,3.535533 2.828427,2.828428 0.707107,-0.707107 -2.828427,-2.828427 z m 3.535534,3.535534 2.828427,2.828427 0.707107,-0.707106 -2.828427,-2.828427 z m 3.535534,3.535534 2.828427,2.828427 0.707107,-0.707106 -2.828427,-2.828428 z m 3.535534,3.535534 2.828427,2.828427 0.707107,-0.707107 -2.828427,-2.828427 z m 3.535534,3.535534 2.828427,2.828427 0.707107,-0.707107 -2.828427,-2.828427 z m 3.535534,3.535534 2.828427,2.828427 0.707107,-0.707107 -2.828427,-2.828427 z m 3.535534,3.535534 2.828427,2.828427 0.707107,-0.707107 -2.828428,-2.828427 z m 3.535534,3.535534 2.828427,2.828427 0.707106,-0.707107 -2.828427,-2.828427 z m 3.535533,3.535534 2.828428,2.828427 0.707106,-0.707107 -2.828427,-2.828427 z m 3.535534,3.535534 2.828427,2.828427 0.707107,-0.707107 -2.828427,-2.828427 z m 3.535534,3.535533 2.828427,2.828428 0.707107,-0.707107 -2.828427,-2.828427 z m 3.535534,3.535534 2.828427,2.828427 0.707107,-0.707106 -2.828427,-2.828427 z m 3.535534,3.535534 2.828427,2.828427 0.707107,-0.707106 -2.828427,-2.828428 z m 3.535534,3.535534 2.828427,2.828427 0.707107,-0.707107 -2.828427,-2.828427 z m 3.535534,3.535534 2.828427,2.828427 0.707107,-0.707107 -2.828427,-2.828427 z m 3.535534,3.535534 2.828422,2.828427 0.70711,-0.707107 -2.828425,-2.828427 z m 3.535532,3.535529 2.82843,2.82843 0.70711,-0.7071 -2.82843,-2.828432 z m 3.53554,3.53554 2.82842,2.82843 0.70711,-0.70711 -2.82843,-2.82843 z m 3.53553,3.53553 2.82843,2.82843 0.7071,-0.70711 -2.82842,-2.82842 z m 3.53553,3.53554 2.82843,2.82842 0.70711,-0.7071 -2.82843,-2.82843 z m 3.53554,3.53553 2.82842,2.82843 0.70711,-0.70711 -2.82843,-2.82843 z m 3.53553,3.53553 2.82843,2.82843 0.70711,-0.70711 -2.82843,-2.82842 z m 3.53554,3.53554 2.82842,2.82843 0.70711,-0.70711 -2.82843,-2.82843 z m 3.53553,3.53553 2.82843,2.82843 0.7071,-0.70711 -2.82842,-2.82842 z m 3.53553,3.53554 2.82843,2.82842 0.70711,-0.7071 -2.82843,-2.82843 z m 3.53554,3.53553 2.82842,2.82843 0.70711,-0.70711 -2.82843,-2.82843 z"
     id="rect3753"
     style="font-size:medium;font-style:normal;font-variant:normal;font-weight:normal;font-stretch:normal;text-indent:0;text-align:start;text-decoration:none;line-height:normal;letter-spacing:normal;word-spacing:normal;text-transform:none;direction:ltr;block-progression:tb;writing-mode:lr-tb;text-anchor:start;baseline-shift:baseline;color:#000000;fill:#ffff56;fill-opacity:1;stroke:none;stroke-width:1;marker:none;visibility:visible;display:inline;overflow:visible;enable-background:accumulate;font-family:Sans;-inkscape-font-specification:Sans" />
  <g
     transform="matrix(0.70710678,0.70710678,-0.70710678,0.70710678,0,0)"
     id="text3817"
     style="font-size:15.95371246px;font-style:normal;font-variant:normal;font-weight:normal;font-stretch:normal;line-height:125%;letter-spacing:0px;word-spacing:0px;fill:#ffffff;fill-opacity:1;stroke:none;font-family:Collegiate;-inkscape-font-specification:Collegiate">
    <path
       d="m 45.735462,-18.315122 c -10e-7,-0.723225 -0.02127,-1.223108 -0.06381,-1.499649 l 5.121141,0 0,1.786816 c -0.233993,-0.0319 -0.627518,-0.04785 -1.180574,-0.04786 l -1.9304,0 0,2.48878 1.611325,0 c 0.489243,6e-6 0.85086,-0.01595 1.084853,-0.04786 l 0,1.754909 c -0.212722,-0.0319 -0.526478,-0.04786 -0.941269,-0.04786 l -1.754909,0 0,3.334326 c -2e-6,0.6275131 0.02127,1.1008061 0.06381,1.41988 l -2.073982,0 c 0.04254,-0.3084382 0.06381,-0.8083206 0.06381,-1.499649 l 0,-7.641828"
       id="path2986" />
    <path
       d="m 54.491059,-9.061969 c -1.02104,-1e-7 -1.786818,-0.3562994 -2.297335,-1.068899 -0.436069,-0.627511 -0.654103,-1.478375 -0.654102,-2.552594 -1e-6,-2.403687 0.983811,-3.605532 2.951437,-3.605539 1.946347,7e-6 2.919523,1.201852 2.919529,3.605539 -6e-6,1.063584 -0.21804,1.909129 -0.654102,2.536641 -0.499888,0.7232347 -1.25503,1.0848519 -2.265427,1.084852 m -0.01595,-5.663568 c -0.48925,6e-6 -0.813642,0.233993 -0.973177,0.701963 -0.09572,0.2659 -0.143585,0.712604 -0.143583,1.340112 -2e-6,0.627516 0.04786,1.074219 0.143583,1.340112 0.159535,0.467977 0.483927,0.701965 0.973177,0.701963 0.489243,2e-6 0.813635,-0.228668 0.973176,-0.686009 0.09572,-0.265893 0.143579,-0.717914 0.143584,-1.356066 -5e-6,-0.627508 -0.04787,-1.074212 -0.143584,-1.340112 -0.159541,-0.46797 -0.483933,-0.701957 -0.973176,-0.701963"
       id="path2988" />
    <path
       d="m 58.477493,-9.173645 c 0.03191,-0.212716 0.04786,-0.5743331 0.04786,-1.084852 l 0,-4.961605 c -1e-6,-0.499876 -0.01595,-0.84554 -0.04786,-1.036991 l 1.738954,0 0,0.478611 c 0.319072,-0.372246 0.70196,-0.558373 1.148668,-0.55838 0.19144,7e-6 0.398838,0.04255 0.622194,0.12763 l 0,1.802769 c -0.276535,-0.191439 -0.526476,-0.287161 -0.749824,-0.287167 -0.297806,6e-6 -0.622198,0.154225 -0.973177,0.462658 l 0,3.876752 c -2e-6,0.5424271 0.01595,0.9359516 0.04786,1.180575 l -1.834677,0"
       id="path2990" />
    <path
       d="m 63.043495,-9.173645 c 0.03191,-0.212716 0.04786,-0.5743331 0.04786,-1.084852 l 0,-8.519283 c -10e-7,-0.499873 -0.01595,-0.845536 -0.04786,-1.036991 l 1.818723,0 c -0.03191,0.202091 -0.04786,0.537118 -0.04786,1.005084 l 0,4.482993 1.084852,-1.435834 c 0.159533,-0.202074 0.276527,-0.3882 0.350982,-0.55838 l 2.058029,0 -2.137798,2.744038 2.345196,4.403225 -1.866584,0 c -0.04255,-0.159537 -0.16486,-0.4307498 -0.366936,-0.8136394 l -1.467741,-2.8078536 0,2.440918 c -3e-6,0.5424271 0.01595,0.9359516 0.04786,1.180575 l -1.818723,0"
       id="path2992" />
    <path
       d="m 77.050605,-15.650852 c 0.531784,-0.436062 1.164614,-0.654095 1.898492,-0.654102 0.829585,7e-6 1.457097,0.37226 1.882538,1.116759 0.340336,0.616883 0.510509,1.403932 0.510519,2.36115 l 0,2.185658 c -10e-6,0.7232361 0.02126,1.2124828 0.06382,1.467742 l -1.898492,0 c 0.05317,-0.3403455 0.07976,-0.840228 0.07977,-1.499649 l 0,-2.153751 c -8e-6,-1.169934 -0.319082,-1.754903 -0.957222,-1.754909 -0.436075,6e-6 -0.760467,0.08509 -0.973177,0.25526 0.09572,0.446709 0.143577,0.946591 0.143584,1.499649 l 0,2.185658 c -7e-6,0.7232361 0.02126,1.2124828 0.06381,1.467742 l -1.914445,0 c 0.05317,-0.3403455 0.07976,-0.840228 0.07977,-1.499649 l 0.01595,-2.153751 c -4e-6,-0.670052 -0.06382,-1.127391 -0.191444,-1.372019 -0.116998,-0.255255 -0.34035,-0.382884 -0.670056,-0.38289 -0.319078,6e-6 -0.627516,0.143589 -0.925316,0.430751 l 0,3.972474 c -2e-6,0.1808097 0.0053,0.3882077 0.01595,0.6221949 0.02127,0.2233521 0.0319,0.3509817 0.03191,0.3828891 l -1.850631,0 c 0.03191,-0.1808086 0.04786,-0.5158362 0.04786,-1.005084 l 0,-4.977558 c -10e-7,-0.574327 -0.01596,-0.94658 -0.04786,-1.11676 l 1.754908,0.01595 0,0.510518 c 0.467973,-0.372246 0.909358,-0.558372 1.324158,-0.558379 0.627508,7e-6 1.132709,0.21804 1.515603,0.654102"
       id="path2994" />
    <path
       d="m 87.843791,-12.172943 -3.541724,0 c 0.08508,1.02104 0.590284,1.531558 1.515603,1.531556 0.606236,2e-6 1.138026,-0.154217 1.595371,-0.462657 l 0,1.707047 c -0.638154,0.2446236 -1.207169,0.3669352 -1.707047,0.3669354 -1.052948,-2e-7 -1.866587,-0.3562994 -2.440918,-1.0688984 -0.553063,-0.670055 -0.829594,-1.56878 -0.829594,-2.696178 0,-0.957218 0.22867,-1.765539 0.68601,-2.424964 0.510517,-0.723228 1.21248,-1.084845 2.10589,-1.084852 0.872132,7e-6 1.542187,0.297809 2.010168,0.893407 0.436062,0.563704 0.654096,1.313528 0.654102,2.249474 -6e-6,0.361621 -0.01596,0.691331 -0.04786,0.98913 m -2.568548,-2.66427 c -0.616879,6e-6 -0.946589,0.404166 -0.98913,1.212482 l 1.962307,0 c -0.02128,-0.808316 -0.345668,-1.212476 -0.973177,-1.212482"
       id="path2996" />
    <path
       d="m 94.811573,-9.061969 c -1.02104,-1e-7 -1.786817,-0.3562994 -2.297334,-1.068899 -0.436069,-0.627511 -0.654103,-1.478375 -0.654103,-2.552594 0,-2.403687 0.983811,-3.605532 2.951437,-3.605539 1.946348,7e-6 2.919523,1.201852 2.91953,3.605539 -7e-6,1.063584 -0.218041,1.909129 -0.654103,2.536641 -0.499888,0.7232347 -1.255029,1.0848519 -2.265427,1.084852 m -0.01595,-5.663568 c -0.489251,6e-6 -0.813642,0.233993 -0.973177,0.701963 -0.09573,0.2659 -0.143586,0.712604 -0.143583,1.340112 -3e-6,0.627516 0.04786,1.074219 0.143583,1.340112 0.159535,0.467977 0.483926,0.701965 0.973177,0.701963 0.489243,2e-6 0.813635,-0.228668 0.973176,-0.686009 0.09572,-0.265893 0.143579,-0.717914 0.143583,-1.356066 -4e-6,-0.627508 -0.04787,-1.074212 -0.143583,-1.340112 -0.159541,-0.46797 -0.483933,-0.701957 -0.973176,-0.701963"
       id="path2998" />
    <path
       d="m 102.08447,-16.320908 c 0.8615,-0.01063 1.52623,0.361624 1.99422,1.11676 0.39351,0.638154 0.59028,1.43052 0.59028,2.377103 l 0,2.185658 c 0,0.7232361 0.0213,1.2124828 0.0638,1.467742 l -1.91445,0 c 0.0319,-0.2446234 0.0532,-0.7445059 0.0638,-1.499649 l 0.016,-2.153751 c 0.0106,-1.201842 -0.37226,-1.802764 -1.14867,-1.80277 -0.35098,6e-6 -0.7126,0.175496 -1.08485,0.526473 l 0,3.924613 c 0,0.1808097 0.005,0.3882077 0.016,0.6221949 0.0213,0.2233521 0.0319,0.3509817 0.0319,0.3828891 l -1.850628,0 c 0.03191,-0.1808086 0.04786,-0.5158362 0.04786,-1.005084 l 0,-4.89779 c -1e-6,-0.61687 -0.01595,-1.010395 -0.04786,-1.180574 l 1.754908,0 0,0.574333 c 0.47861,-0.425425 0.96786,-0.638141 1.46774,-0.638148"
       id="path3000" />
    <path
       d="m 114.95314,-10.067053 c -0.13828,0.2552601 -0.39353,0.4839298 -0.76578,0.6860097 -0.45735,0.2446236 -0.98382,0.3669352 -1.57942,0.3669354 -2.63768,-2e-7 -3.95652,-1.8453111 -3.95652,-5.5359381 0,-1.754901 0.37225,-3.095012 1.11676,-4.020336 0.7445,-0.925305 1.83999,-1.387962 3.28646,-1.387973 0.82959,1.1e-5 1.54751,0.265906 2.15376,0.797686 l 0,1.818723 c -0.6807,-0.584961 -1.39862,-0.877445 -2.15376,-0.877454 -1.56346,9e-6 -2.34519,1.239079 -2.34519,3.717215 0,2.510054 0.63283,3.765078 1.89849,3.765076 1.03167,2e-6 1.54751,-0.638146 1.54751,-1.914445 0.0106,-0.127626 0,-0.542423 -0.0319,-1.24439 l 1.94636,0 c -0.0426,0.457344 -0.0638,0.962545 -0.0638,1.515603 l 0,1.85063 c -1e-5,0.297804 0.0106,0.5743349 0.0319,0.8295935 0.0213,0.2552596 0.0319,0.4307503 0.0319,0.5264725 -0.0745,0.021272 -0.18614,0.021272 -0.33503,0 l -0.78173,-0.893408"
       id="path3002" />
    <path
       d="m 118.3089,-17.501483 c -0.30844,8e-6 -0.57434,-0.116985 -0.79769,-0.350982 -0.21272,-0.233978 -0.31907,-0.510509 -0.31907,-0.829593 0,-0.3297 0.10635,-0.611549 0.31907,-0.845546 0.22335,-0.233978 0.48925,-0.350971 0.79769,-0.350982 0.2978,1.1e-5 0.55306,0.117004 0.76577,0.350982 0.22335,0.233997 0.33503,0.515846 0.33503,0.845546 0,0.319084 -0.11168,0.595615 -0.33503,0.829593 -0.21271,0.233997 -0.46797,0.35099 -0.76577,0.350982 m -0.90937,8.327838 c 0.0213,-0.212716 0.0319,-0.5743331 0.0319,-1.084852 l 0,-4.961605 c 0,-0.499876 -0.0106,-0.84554 -0.0319,-1.036991 l 1.80277,0 c -0.0213,0.202087 -0.0319,0.537115 -0.0319,1.005084 l 0,4.897789 c -1e-5,0.5424271 0.0106,0.9359516 0.0319,1.180575 l -1.80277,0"
       id="path3004" />
    <path
       d="m 122.58948,-16.257093 1.38798,0 0,1.54751 c -0.0532,5e-6 -0.15423,-0.0053 -0.30312,-0.01595 -0.13827,-0.01063 -0.27122,-0.01595 -0.39885,-0.01595 l -0.68601,0 0,2.967391 c 0,0.712601 0.23399,1.0689 0.70197,1.068899 0.3297,10e-7 0.62751,-0.0904 0.8934,-0.271214 l 0,1.5953717 c -0.39352,0.2127162 -0.86682,0.3190742 -1.41988,0.3190743 -0.77641,-10e-8 -1.31352,-0.2765309 -1.61132,-0.8295931 -0.22335,-0.4147949 -0.33503,-1.0688969 -0.33503,-1.9623069 l 0,-2.855714 0.016,0 0,-0.03191 -0.23931,-0.01595 c -0.13827,5e-6 -0.31908,0.01596 -0.54243,0.04786 l 0,-1.54751 0.78174,0 0,-0.622195 c -1e-5,-0.297795 -0.016,-0.5371 -0.0479,-0.717917 l 1.85063,0 c -0.0319,0.202088 -0.0479,0.430758 -0.0479,0.686009 l 0,0.654103"
       id="path3006" />
    <path
       d="m 132.06997,-15.68276 0.52647,0 0,1.738955 -0.52647,0 0,3.6534 c -1e-5,0.4998837 0.0213,0.8721366 0.0638,1.11676 l -2.08994,0 c 0.0425,-0.2765308 0.0638,-0.6806911 0.0638,-1.212482 l 0,-3.557678 -2.90358,0 0,3.541724 c 0,0.5743344 0.0213,0.9838126 0.0638,1.228436 l -2.07398,0 c 0.0425,-0.2552592 0.0638,-0.6275121 0.0638,-1.11676 l 0,-8.407606 c 0,-0.489238 -0.0213,-0.86149 -0.0638,-1.11676 l 2.07398,0 c -0.0425,0.265905 -0.0638,0.638158 -0.0638,1.11676 l 0,3.015251 2.90358,0 0,-2.791899 c -1e-5,-0.648775 -0.0213,-1.095478 -0.0638,-1.340112 l 2.08994,0 c -0.0426,0.233998 -0.0638,0.55839 -0.0638,0.973176 l 0,3.158835"
       id="path3008" />
    <path
       d="m 136.16958,-9.1098302 c -0.84023,0 -1.46243,-0.372253 -1.86659,-1.1167598 -0.31907,-0.606239 -0.47861,-1.398606 -0.47861,-2.377103 l 0,-2.185659 c 0,-0.723228 -0.0213,-1.212475 -0.0638,-1.467741 l 1.91444,0 c -0.0319,0.233994 -0.0532,0.733877 -0.0638,1.499649 l -0.016,2.153751 c -1e-5,0.606244 0.0691,1.042311 0.20739,1.308204 0.15954,0.329712 0.45202,0.494567 0.87746,0.494565 0.2978,2e-6 0.63282,-0.175489 1.00508,-0.526472 l 0,-3.924613 c 0,-0.180803 -0.0106,-0.388201 -0.0319,-0.622195 -0.0213,-0.233981 -0.0319,-0.361611 -0.0319,-0.382889 l 1.85063,0 c -0.0213,0.180815 -0.0319,0.515843 -0.0319,1.005084 l 0,4.881836 c -1e-5,0.6275128 0.0106,1.0263552 0.0319,1.196528 l -1.73896,0 0,-0.5743337 c -0.48925,0.4254325 -1.0104,0.6381485 -1.56346,0.6381485"
       id="path3010" />
    <path
       d="m 144.0542,-9.1257839 c -0.57434,0 -1.05295,-0.2073981 -1.43584,-0.6221948 l 0,0.5743337 -1.69109,0 c 0.0319,-0.1808086 0.0479,-0.5158362 0.0479,-1.005084 l 0,-8.439514 c 0,-0.627502 -0.016,-1.026345 -0.0479,-1.196528 l 1.81872,0 c -0.0213,0.191455 -0.0319,0.590297 -0.0319,1.196528 l 0,2.775946 c 0.48924,-0.308431 0.96785,-0.46265 1.43583,-0.462657 0.84022,7e-6 1.49964,0.37226 1.97826,1.116759 0.40416,0.64879 0.60624,1.435839 0.60624,2.36115 0,0.946589 -0.21272,1.770864 -0.63815,2.472825 -0.51052,0.8189579 -1.19121,1.2284361 -2.04207,1.2284361 m -0.23931,-5.5040311 c -0.35098,6e-6 -0.71792,0.175496 -1.1008,0.526473 l 0,2.759992 c 0.34034,0.329712 0.67537,0.494567 1.00508,0.494565 0.41479,2e-6 0.72855,-0.228668 0.94127,-0.686009 0.17017,-0.361615 0.25525,-0.792365 0.25526,-1.292251 -10e-6,-1.201842 -0.36694,-1.802764 -1.10081,-1.80277"
       id="path3012" />
  </g>
</svg>
