<?xml version="1.0" encoding="UTF-8" standalone="no"?>
<!-- Created with Inkscape (http://www.inkscape.org/) -->

<svg
   xmlns:dc="http://purl.org/dc/elements/1.1/"
   xmlns:cc="http://creativecommons.org/ns#"
   xmlns:rdf="http://www.w3.org/1999/02/22-rdf-syntax-ns#"
   xmlns:svg="http://www.w3.org/2000/svg"
   xmlns="http://www.w3.org/2000/svg"
   version="1.1"
   width="150"
   height="60"
   id="svg2">
  <metadata
     id="metadata31">
    <rdf:RDF>
      <cc:Work
         rdf:about="">
        <dc:format>image/svg+xml</dc:format>
        <dc:type
           rdf:resource="http://purl.org/dc/dcmitype/StillImage" />
        <dc:title></dc:title>
      </cc:Work>
    </rdf:RDF>
  </metadata>
  <defs
     id="defs29" />
  <g
     transform="translate(-26.149211,-304.97016)"
     id="g1">
    <path
       d="m 156.57116,308.21692 -116.098703,0 -12.289495,54.30159 82.111318,0 c 3.32717,1.29075 7.09183,1.44668 9.99058,1.44305 25.5069,-2.39132 60.83166,-35.38868 44.07327,-38.39459 18.44345,-15.93636 8.40729,-22.98088 -7.78697,-17.35005 z"
       id="path3010"
       style="fill:#ffffff;fill-opacity:1" />
    <path
       d="m 40.07879,307.72087 c 4e-6,0 -12.679579,55.32084 -12.679579,55.32084 0.0036,0 0.0041,0 0.01139,0 0,0 58.658724,0 58.658724,0 0,0 30.508465,0 30.508465,0 -3.63459,-0.31716 -6.50407,-1.59309 -8.21382,-3.91893 -0.31715,-0.43018 -0.57918,-0.89361 -0.80885,-1.37847 -0.14581,-0.35726 -0.28298,-0.71771 -0.42151,-1.08226 -0.36456,-1.15928 -0.50992,-2.44569 -0.4443,-3.81641 0.18228,-3.8205 1.97497,-8.36501 5.08094,-13.12387 3.2992,-5.05744 8.08075,-10.35812 14.00108,-15.27702 1.32697,-1.10168 2.69905,-2.18959 4.13539,-3.2468 1.77536,-1.30618 3.56441,-2.50911 5.35436,-3.63412 6.59475,-4.15189 13.17309,-7.0571 19.00228,-8.53282 -5.57036,1.81731 -11.82835,4.90242 -18.01116,9.10243 -0.22237,0.1502 -0.44202,0.30404 -0.66075,0.45569 -3.43044,2.37688 -6.53824,4.90123 -9.25051,7.45054 -8.72738,8.20607 -13.34033,16.70925 -11.24415,21.69085 0.14947,0.34268 0.32763,0.66986 0.53544,0.97973 2.25292,3.31378 7.83649,3.88659 14.91245,2.10757 0.48121,-0.12031 0.96242,-0.25655 1.45821,-0.39873 2.26023,-0.65255 4.65989,-1.53385 7.13156,-2.62021 0.59421,-0.26249 1.19482,-0.53225 1.79997,-0.82025 0.062,-0.0292 0.1203,-0.0583 0.18228,-0.0911 7.80141,-3.87629 13.79693,-8.33649 15.09473,-11.01632 0.28436,-0.58291 0.35271,-1.0799 0.1595,-1.4696 -0.92596,-1.87744 -7.40543,-0.60908 -15.25423,2.7911 -0.63068,0.27342 -1.26865,0.55476 -1.9139,0.85442 0.52495,-0.4874 1.07132,-0.97663 1.62909,-1.45821 0.88951,-0.76629 1.81046,-1.51562 2.7911,-2.25566 1.53477,-1.16219 3.0864,-2.21283 4.61387,-3.14426 7.1525,-5.3961 10.76841,-10.50056 10.01379,-12.39477 -0.14218,-0.3569 -0.44476,-0.60243 -0.91139,-0.7519 -1.49102,-0.47427 -4.21239,0.0918 -7.51888,1.44682 -2.72685,1.11845 -5.85881,2.77725 -9.03406,4.84171 0,0 -0.4329,0.2848 -0.4329,0.2848 0,0 -0.0797,0.0456 -0.0797,0.0456 1e-5,0 -1.52656,1.01391 -1.52656,1.01391 -1e-5,-10e-6 0.8772,-1.60631 0.8772,-1.60631 1.30146,-2.38235 3.42132,-4.86805 6.06068,-7.17712 1.93577,-1.68824 4.14724,-3.27896 6.52776,-4.67083 0.90045,-0.52713 1.79952,-1.01673 2.69996,-1.4582 0.92233,-0.4506 1.84509,-0.85106 2.74554,-1.20759 2.61606,-1.03461 5.11329,-1.66325 7.29104,-1.83419 -0.19832,0 -6.11764,0 -6.11764,0 0,0 -20.61998,0 -20.61998,0 10e-6,0 -90.921586,0 -90.921586,0 0,0 -7.211296,0 -7.211296,0 z m 65.41433,0.0798 c -0.35726,5.45263 0.69993,13.43906 3.09869,22.30606 0.42653,1.57778 0.89088,3.18345 1.40126,4.80754 0.31716,1.00287 0.64434,1.99008 0.97972,2.96198 -0.19685,0.28946 -0.39509,0.57708 -0.581,0.86581 -2.99297,4.58679 -4.74236,8.92151 -5.18347,12.69097 -1.265,-4.23609 -2.21739,-8.87602 -2.75693,-13.79602 -0.15311,-1.40972 -0.27296,-2.80367 -0.35316,-4.18095 -0.59059,-10.00441 0.71543,-19.07337 3.39489,-25.65539 z m -59.729593,7.0974 c 0.06827,-0.002 0.135571,0 0.205059,0 0,0 13.477038,0 13.477038,0 1.151989,0 2.042859,0.21591 2.677182,0.64936 0.630671,0.43601 0.867179,0.99997 0.717711,1.68605 0,1e-5 -1.606307,7.25687 -1.606307,7.25687 0,0 -4.750571,0 -4.750571,0 4e-6,0 1.560739,-7.0632 1.560739,-7.0632 -5e-6,0 -11.893514,0 -11.893514,0 -4e-6,0 -4.294882,19.41241 -4.294882,19.41241 5e-6,0 -1.549346,7.02902 -1.549346,7.02902 0,0 11.882123,0 11.882123,0 0,0 0.01139,-0.0456 0.01139,-0.0456 0,1e-5 2.38098,-10.75429 2.38098,-10.75429 0,0 -5.582204,0 -5.582204,0 0,0 0.535435,-2.42654 0.535435,-2.42654 -2e-6,-1e-5 10.332781,0 10.332781,0 0,-1e-5 -2.961992,13.42007 -2.961992,13.42007 -0.0401,0.19103 -0.110275,0.3641 -0.205061,0.53544 -0.244248,0.44475 -0.670319,0.82571 -1.264539,1.13923 -0.823883,0.43382 -1.810002,0.64935 -2.961987,0.64935 0,0 -13.465645,0 -13.465645,0 -1.151989,0 -2.04286,-0.21554 -2.67718,-0.64935 -0.63067,-0.43382 -0.870824,-0.98785 -0.717711,-1.67467 2e-6,0 5.935364,-26.82876 5.935364,-26.82876 0.153109,-0.68608 0.630679,-1.25005 1.458209,-1.68606 0.02917,-0.0157 0.06198,-0.0192 0.09114,-0.0342 0.755309,-0.37834 1.64174,-0.591 2.665789,-0.61519 z m 21.121239,0 c 0,0 16.963069,0 16.963069,0 1.1374,0 2.03147,0.21591 2.66578,0.64936 0.63798,0.43601 0.88223,0.99997 0.72911,1.68605 1e-5,1e-5 -3.16704,14.30868 -3.16704,14.30868 -0.14946,0.68171 -0.63843,1.23792 -1.46961,1.67466 -0.83117,0.43819 -1.80954,0.66075 -2.950592,0.66075 0,0 -12.326418,0 -12.326418,0 0,0 -2.38098,10.7429 -2.38098,10.7429 0,0 -0.387337,1.7658 -0.387337,1.7658 0,0 -4.648041,0 -4.648041,0 0,0 0.353159,-1.59492 0.353159,-1.59492 0,0 6.6189,-29.89328 6.6189,-29.89328 z m 23.433869,0 c 0,0 4.64804,0 4.64804,0 1e-5,0 -5.26322,23.77564 -5.26322,23.77564 10e-6,0 -1.15062,5.19487 -1.15062,5.19487 0,0 11.11884,0 11.11884,0 0.11666,0.85269 0.25291,1.69015 0.398725,2.51769 0,0 -16.723825,0 -16.723825,0 0,0 1.3215,-5.96955 1.3215,-5.96955 1e-5,0 5.65056,-25.51865 5.65056,-25.51865 z m -19.34405,2.52908 c 6e-6,0 -3.087298,13.92134 -3.087298,13.92134 0,-1e-5 11.585924,0 11.585924,0 0,-1e-5 3.075904,-13.92134 3.075904,-13.92134 1e-5,0 -11.57453,0 -11.57453,0 z m -9.740375,31.14642 c 0.04547,-0.001 0.09091,0 0.136709,0 0.539537,10e-6 1.010714,0.0948 1.389851,0.27342 0.404655,0.18957 0.694019,0.47119 0.85442,0.84303 0.15676,0.36091 0.197771,0.77057 0.113924,1.21897 0,0 -0.03419,0.17089 -0.03419,0.17089 0,-10e-6 -1.332896,0 -1.332896,0 0,-10e-6 0.0114,-0.1595 0.0114,-0.1595 0.03443,-0.31329 -0.0042,-0.55965 -0.125317,-0.7291 -0.01575,-0.0212 -0.03861,-0.0493 -0.05693,-0.0684 -0.03008,-0.0307 -0.07525,-0.0658 -0.113924,-0.0911 -0.186498,-0.11748 -0.478243,-0.18228 -0.85442,-0.18228 -0.499434,0 -0.872645,0.087 -1.127831,0.26202 -0.247894,0.17134 -0.404655,0.36273 -0.455691,0.5924 -0.05102,0.23331 0.03282,0.3559 0.09114,0.42151 0.0018,0.002 0.0092,0.009 0.0114,0.0114 0.07386,0.063 0.330374,0.21052 1.127831,0.39872 0.72181,0.17499 1.199833,0.3322 1.469604,0.46709 0.408301,0.20779 0.693559,0.4771 0.843027,0.80885 0.149463,0.3281 0.182273,0.71224 0.09114,1.12783 -0.09114,0.40465 -0.29757,0.77787 -0.603792,1.12783 -0.302577,0.34998 -0.687639,0.62704 -1.150617,0.82025 -0.459343,0.18956 -0.963331,0.29619 -1.480997,0.29619 -0.656195,0 -1.182967,-0.0993 -1.594913,-0.29619 -0.430174,-0.20415 -0.740498,-0.52632 -0.922772,-0.94556 -0.174986,-0.4083 -0.212354,-0.87173 -0.113925,-1.37846 0,-10e-6 0.03418,-0.15949 0.03418,-0.15949 0,0 1.310107,0 1.310107,0 0,0 -0.0114,0.15949 -0.0114,0.15949 -0.03282,0.30258 -4.3e-4,0.54682 0.07975,0.7291 0.07655,0.17499 0.222375,0.3199 0.45569,0.43291 0.247888,0.1203 0.557763,0.18227 0.911376,0.18227 0.317162,0 0.606985,-0.0533 0.865812,-0.14809 0.255187,-0.0911 0.45797,-0.21145 0.603792,-0.36456 0.14217,-0.15312 0.225569,-0.31488 0.26202,-0.48986 0.03646,-0.15677 0.02781,-0.28936 -0.03419,-0.39873 -0.06926,-0.11665 -0.206424,-0.22011 -0.421508,-0.30759 0,-10e-6 -1.116445,-0.33038 -1.116445,-0.33038 -0.623384,-0.15676 -1.043072,-0.30623 -1.287326,-0.45569 -0.331746,-0.19686 -0.570979,-0.44931 -0.694928,-0.75189 -0.123947,-0.29894 -0.137161,-0.63022 -0.05696,-0.99112 0.08385,-0.38643 0.270223,-0.75417 0.558213,-1.08227 0.29165,-0.33174 0.668047,-0.59194 1.116445,-0.76328 0.39645,-0.14866 0.81366,-0.23585 1.253149,-0.25063 z m 11.961867,0.0228 c 0.0721,-0.005 0.139896,0 0.216456,0 0,0 0.820242,0.0911 0.820242,0.0911 -6e-6,0 0.273412,0.0228 0.273412,0.0228 0,1e-5 -0.398728,1.01391 -0.398728,1.01391 0,1e-5 -0.07975,0.15949 -0.07975,0.15949 0,0 -0.626571,-0.0569 -0.626571,-0.0569 -0.185012,0 -0.320922,0.0285 -0.410122,0.0911 -0.006,0.004 -0.01731,0.018 -0.0228,0.0228 -0.01194,0.0104 -0.03205,0.0288 -0.04559,0.0456 -0.05484,0.0719 -0.12167,0.2005 -0.170886,0.43291 0,0 -0.02369,0.0984 -0.04559,0.18228 0.287998,0 0.979736,0 0.979736,0 0,0 -0.250627,1.12783 -0.250627,1.12783 0,-10e-6 -0.71635,0 -0.956951,0 -0.07291,0.32809 -0.968344,4.34044 -0.968344,4.34044 0,0 -1.321503,0 -1.321503,0 0,0 0.858979,-3.85559 0.968344,-4.34044 -0.222382,-10e-6 -0.76328,0 -0.76328,0 0,-10e-6 0.250627,-1.12783 0.250627,-1.12783 6e-6,0 0.544097,0 0.751888,0 0.03646,-0.15677 0.09114,-0.35317 0.09114,-0.35317 0.0802,-0.36455 0.164048,-0.62657 0.273412,-0.80885 0.149474,-0.25153 0.360458,-0.46207 0.626577,-0.61518 0.21919,-0.12736 0.496409,-0.20351 0.80885,-0.22784 z m 3.155652,0.0569 c 0,0 -0.345412,1.55437 -0.432906,1.94808 0.255187,0 0.85442,0 0.85442,0 0,0 -0.250627,1.12784 -0.250627,1.12784 0,-1e-5 -0.628398,0 -0.85442,0 -0.06927,0.3135 -0.615178,2.74553 -0.615178,2.74553 0,0 -0.04559,0.29209 -0.04559,0.37594 6.6e-5,0.003 -2.09e-4,0.009 0,0.0114 1.85e-4,6e-4 -2.09e-4,0.0107 0,0.0114 4.3e-4,5.9e-4 0.01098,-4.3e-4 0.0114,0 0,0 0.136709,0.0114 0.136709,0.0114 0,0 0.626572,-0.0456 0.626572,-0.0456 0,0 -0.06835,1.01391 -0.06835,1.01391 0,0 0.0114,0.18228 0.0114,0.18228 -6e-6,-1e-5 -0.899989,0.10253 -0.899989,0.10253 -0.357259,-1e-5 -0.619284,-0.0583 -0.80885,-0.18228 -0.200498,-0.13124 -0.317161,-0.30531 -0.364551,-0.52404 -0.0073,-0.0401 -0.0228,-0.0984 -0.0228,-0.18228 0,-0.16404 0.03097,-0.44156 0.136703,-0.92277 6e-6,10e-6 0.478929,-2.14539 0.581008,-2.59744 -0.171334,0 -0.626578,0 -0.626578,0 6e-6,0 0.250628,-1.12783 0.250628,-1.12783 0,1e-5 0.444298,0 0.626577,0 0.05831,-0.26247 0.26202,-1.16201 0.26202,-1.16201 0,0 1.059483,-0.55822 1.059483,-0.55822 0,1e-5 0.432906,-0.22784 0.432906,-0.22784 z m -41.980459,0.0456 c 4e-6,0 5.126516,0 5.126516,0 0,0 -0.284805,1.27593 -0.284805,1.27593 0,10e-6 -3.419956,0 -3.748053,0 -0.05832,0.25884 -0.292098,1.30692 -0.375944,1.68605 0.47392,0 3.246792,0 3.246792,0 0,0 -0.284807,1.27594 -0.284807,1.27594 -2e-6,0 -2.918694,0 -3.246793,0 -0.06926,0.31716 -0.694928,3.13287 -0.694928,3.13287 4e-6,0 -1.378461,0 -1.378461,0 2e-6,0 1.640483,-7.37079 1.640483,-7.37079 z m 6.869529,1.79998 c 0.05145,-0.006 0.107658,0 0.159493,0 0.328097,0 0.631132,0.0998 0.922774,0.30759 0,0 0.182274,0.12531 0.182274,0.12531 0,0 -0.706319,1.16201 -0.706319,1.16201 0,-10e-6 -0.193666,-0.13671 -0.193666,-0.13671 -0.142176,-0.0911 -0.295287,-0.1367 -0.455691,-0.1367 -0.138531,0 -0.267491,0.0492 -0.39873,0.1367 -0.138526,0.0911 -0.254276,0.2119 -0.341766,0.37595 -0.153113,0.28071 -0.265214,0.59513 -0.341769,0.93416 0,1e-5 -0.615181,2.8025 -0.615181,2.8025 0,0 -1.321503,0 -1.321503,0 0,0 1.218973,-5.46828 1.218973,-5.46828 4e-6,0 1.230363,0 1.230363,0 0,0 -0.04238,0.16587 -0.05696,0.22784 0.05833,-0.0437 0.119847,-0.1039 0.170886,-0.13671 0.17658,-0.10537 0.363087,-0.1711 0.546825,-0.19366 z m 3.918937,0 c 0.07957,-0.006 0.1579,0 0.239239,0 0.743688,0 1.306463,0.26065 1.67466,0.77467 0.229665,0.33174 0.353163,0.74186 0.353163,1.23036 0,0.26977 -0.03327,0.56004 -0.10253,0.87721 0,0 -0.102534,0.39872 -0.102534,0.39872 0,0 -3.342029,0 -3.713873,0 -0.0073,0.0766 -0.01139,0.15859 -0.01139,0.22785 0,0.28435 0.05833,0.50809 0.182276,0.67214 0.0589,0.0802 0.127181,0.15243 0.205061,0.20506 0.146824,0.0958 0.336358,0.1481 0.558221,0.1481 0.269772,0 0.506726,-0.0743 0.729103,-0.21645 0.211445,-0.13489 0.41377,-0.35042 0.592398,-0.64936 0,0 1.412639,0 1.412639,0 0,0 -0.125313,0.27341 -0.125313,0.27341 -0.269769,0.54684 -0.646169,0.97336 -1.116442,1.27594 -0.470271,0.30258 -1.032139,0.46708 -1.651878,0.46708 -0.805661,-1e-5 -1.405349,-0.26065 -1.777193,-0.77467 -0.368195,-0.50309 -0.447486,-1.19847 -0.250627,-2.07339 0.19686,-0.88951 0.589664,-1.60038 1.162009,-2.09618 0.512996,-0.4448 1.095107,-0.69153 1.743015,-0.74049 z m 5.935368,0 c 0.07957,-0.006 0.157896,0 0.239235,0 0.74369,0 1.306465,0.26065 1.674663,0.77467 0.229668,0.33174 0.353159,0.74186 0.353159,1.23036 0,0.26612 -0.03327,0.5523 -0.102532,0.86581 0,1e-5 -0.102527,0.41012 -0.102527,0.41012 0,0 -3.342035,0 -3.713876,0 -0.0036,0.051 -0.0077,0.0971 -0.01139,0.14811 -0.0027,0.0191 0.0013,0.0482 0,0.0683 -1.07e-4,0.004 0,0.008 0,0.0114 0,0.0547 0.0077,0.10846 0.01139,0.1595 0.01821,0.20779 0.07246,0.38141 0.170883,0.51264 0.01875,0.0256 0.03636,0.057 0.05696,0.0797 0.166969,0.17863 0.403286,0.27341 0.706321,0.27341 0.269771,0 0.510373,-0.0743 0.729105,-0.21645 0.211443,-0.13488 0.413765,-0.35042 0.592397,-0.64935 0,-1e-5 1.424031,0 1.424031,0 -2e-6,-1e-5 -0.136708,0.27341 -0.136708,0.27341 -0.269767,0.54683 -0.646167,0.97335 -1.11644,1.27593 -0.470274,0.30258 -1.032139,0.46708 -1.651876,0.46708 -0.805658,0 -1.405349,-0.26065 -1.777193,-0.77467 -0.240605,-0.3281 -0.353161,-0.74596 -0.353161,-1.24175 0,-0.0766 0.0041,-0.15904 0.01139,-0.23924 0.01458,-0.18957 0.04375,-0.38096 0.09114,-0.5924 0.196863,-0.88586 0.578272,-1.60038 1.150617,-2.09618 0.512994,-0.4448 1.106502,-0.69152 1.754409,-0.74049 z m 16.165606,0 c 0.08142,-0.006 0.156307,0 0.239241,0 0.758267,0 1.341095,0.25655 1.720231,0.76328 0.375491,0.50672 0.466624,1.19026 0.273412,2.0506 -0.149468,0.67078 -0.365464,1.21259 -0.660748,1.60631 -0.295296,0.39372 -0.671693,0.71544 -1.116445,0.93417 -0.4411,0.21873 -0.908189,0.33037 -1.378465,0.33037 -0.772846,-1e-5 -1.348387,-0.2643 -1.720231,-0.77467 -0.240608,-0.32445 -0.364552,-0.74232 -0.364552,-1.24176 6e-6,-0.26977 0.0296,-0.5564 0.102532,-0.8772 0.218736,-0.97701 0.665308,-1.72114 1.321503,-2.19871 0.481662,-0.34769 1.013591,-0.54858 1.583522,-0.59239 z m 20.016195,0 c 0.0961,-0.006 0.18512,0 0.2848,0 0.45934,0 0.82025,0.0465 1.09366,0.15948 0.29164,0.11667 0.49853,0.28162 0.61518,0.47848 0.11302,0.18592 0.17089,0.41423 0.17089,0.69493 0,0 -0.13671,0.83163 -0.13671,0.83163 10e-6,0 -0.25063,1.12784 -0.25063,1.12784 -0.21509,0.96241 -0.26248,1.32332 -0.27341,1.45821 -0.0109,0.18228 0.006,0.35999 0.0569,0.52404 0,-10e-6 0.0911,0.2962 0.0911,0.2962 0,0 -1.34429,0 -1.34429,0 0,0 -0.0569,-0.17088 -0.0569,-0.17088 -0.0219,-0.0802 -0.0155,-0.18228 -0.0228,-0.27342 -0.25518,0.15676 -0.51083,0.29574 -0.7405,0.37595 -0.33902,0.11665 -0.69082,0.18227 -1.04808,0.18227 -0.61974,-1e-5 -1.07862,-0.16131 -1.35568,-0.47848 -0.21144,-0.2333 -0.30759,-0.51857 -0.30759,-0.84302 -1e-5,-0.12395 0.0164,-0.25246 0.0455,-0.38734 0.062,-0.27706 0.17454,-0.53361 0.35317,-0.76328 0.17499,-0.22603 0.38187,-0.41194 0.61518,-0.54682 0.22603,-0.13489 0.47802,-0.23059 0.7405,-0.29621 -10e-6,0 0.80885,-0.13671 0.80885,-0.13671 0.62338,-0.0729 1.08864,-0.16358 1.42403,-0.26202 0.007,-0.0365 0.0228,-0.0797 0.0228,-0.0797 0.0529,-0.23456 0.0463,-0.41087 -0.0114,-0.50126 -0.004,-0.006 -0.018,-0.0178 -0.0228,-0.0228 -0.0123,-0.0131 -0.0312,-0.0337 -0.0456,-0.0455 -0.13712,-0.10851 -0.37093,-0.1595 -0.68354,-0.1595 -0.35362,0 -0.61518,0.0579 -0.79746,0.17088 -0.17863,0.11302 -0.34405,0.3199 -0.48986,0.61519 -1e-5,-10e-6 -1.37847,0 -1.37847,0 10e-6,-10e-6 0.12532,-0.27341 0.12532,-0.27341 0.16404,-0.37915 0.35954,-0.69356 0.60379,-0.93417 0.24425,-0.24061 0.57416,-0.42698 0.95695,-0.55822 0.29335,-0.0968 0.61367,-0.1611 0.95695,-0.18228 z m 5.77587,0 c 0.0514,-0.006 0.10766,0 0.1595,0 0.33173,0 0.64252,0.0998 0.93416,0.30759 0,0 0.17088,0.12531 0.17088,0.12531 0,0 -0.70631,1.16201 -0.70631,1.16201 0,-10e-6 -0.19368,-0.13671 -0.19368,-0.13671 -0.14217,-0.0911 -0.28754,-0.1367 -0.44429,-0.1367 -0.13854,0 -0.27524,0.0492 -0.41013,0.1367 -0.13852,0.0911 -0.23923,0.2119 -0.33037,0.37595 -0.14947,0.28071 -0.26521,0.59513 -0.34177,0.93416 0,1e-5 -0.62657,2.8025 -0.62657,2.8025 0,0 -1.3215,0 -1.3215,0 0,0 1.21896,-5.46828 1.21896,-5.46828 0,0 1.23037,0 1.23037,0 0,0 -0.031,0.16587 -0.0455,0.22784 0.0583,-0.0437 0.1162,-0.1039 0.17088,-0.13671 0.17374,-0.10537 0.35184,-0.1711 0.53544,-0.19366 z m 3.90754,0 c 0.0795,-0.006 0.1579,0 0.23924,0 0.74369,0 1.31011,0.26065 1.67467,0.77467 0.23331,0.33174 0.35315,0.74186 0.35315,1.23036 0,0.26977 -0.0446,0.56004 -0.11392,0.87721 0,0 -0.0911,0.39872 -0.0911,0.39872 -1e-5,0 -3.34569,0 -3.71388,0 -0.007,0.0766 -0.0228,0.15859 -0.0228,0.22785 0,0.28435 0.062,0.50809 0.18227,0.67214 0.0187,0.0256 0.0477,0.057 0.0684,0.0797 0.012,0.0128 0.0329,0.0337 0.0456,0.0455 0.16298,0.14817 0.38478,0.22785 0.66075,0.22785 0.26977,0 0.50673,-0.0743 0.7291,-0.21645 0.21145,-0.13489 0.41013,-0.35042 0.5924,-0.64936 0,0 1.42404,0 1.42404,0 0,0 -0.13671,0.27341 -0.13671,0.27341 -0.26977,0.54684 -0.64982,0.97336 -1.11644,1.27594 -0.47392,0.30258 -1.02849,0.46708 -1.65188,0.46708 -0.80565,-10e-6 -1.39395,-0.26065 -1.7658,-0.77467 -0.3682,-0.50309 -0.45524,-1.19847 -0.26202,-2.07339 0.19685,-0.88951 0.57827,-1.60038 1.15062,-2.09618 0.51624,-0.4448 1.10709,-0.69153 1.7544,-0.74049 z m -19.947837,0.10253 c 6e-6,0 1.355686,0 1.355686,0 0,0 0.167234,3.24497 0.17088,3.29235 0.05466,-0.1162 0.09711,-0.21396 0.102532,-0.22784 0,1e-5 1.492379,-3.06451 1.492379,-3.06451 1e-5,0 1.24176,0 1.24176,0 0,0 0.11392,3.20577 0.11392,3.224 0.0365,-0.0656 1.69745,-3.224 1.69745,-3.224 -1e-5,0 1.34429,0 1.34429,0 -1e-5,0 -2.96199,5.46828 -2.96199,5.46828 0,0 -1.21897,0 -1.21897,0 0,0 -0.11802,-2.96518 -0.12532,-3.13287 -0.50308,1.03168 -1.526563,3.13287 -1.526563,3.13287 0,0 -1.253142,0 -1.253142,0 0,0 -0.432912,-5.46828 -0.432912,-5.46828 z m -31.829956,1.03669 c -0.314037,0.0132 -0.599231,0.12645 -0.865809,0.34177 -0.211439,0.16769 -0.354075,0.39782 -0.467086,0.64936 0,0 2.244274,0 2.244274,0 0.0036,-0.0401 0.01139,-0.0889 0.01139,-0.12532 -4e-6,-0.20779 -0.03691,-0.36911 -0.102529,-0.47847 -0.160399,-0.26248 -0.398272,-0.38734 -0.751889,-0.38734 -0.02118,0 -0.04742,-6e-4 -0.06835,0 z m 5.935362,0 c -0.314033,0.0132 -0.599231,0.12645 -0.86581,0.34177 -0.211443,0.16769 -0.350423,0.39782 -0.46708,0.64936 0,0 2.244272,0 2.244272,0 0.0036,-0.0401 0.01139,-0.0889 0.01139,-0.12532 -2e-6,-0.20779 -0.03327,-0.36911 -0.102532,-0.47847 -0.03184,-0.0533 -0.07492,-0.10634 -0.113922,-0.1481 -0.152213,-0.15729 -0.361704,-0.23924 -0.637965,-0.23924 -0.02119,0 -0.04742,-6e-4 -0.06836,0 z m 45.910791,0 c -0.32294,0.01 -0.62452,0.11928 -0.89999,0.34177 -0.20779,0.16769 -0.35043,0.39782 -0.46709,0.64936 10e-6,0 2.23289,0 2.23289,0 0.004,-0.0401 0.0114,-0.0889 0.0114,-0.12532 -1e-5,-0.20779 -0.0332,-0.36911 -0.10253,-0.47847 -0.15676,-0.25884 -0.39828,-0.38369 -0.75189,-0.38734 -0.0105,1.1e-4 -0.0124,-2.1e-4 -0.0228,0 z m -29.847706,0.0228 c -0.301359,0.0358 -0.581574,0.17328 -0.843033,0.41012 -0.313509,0.28435 -0.540898,0.73093 -0.672135,1.3215 -0.05466,0.24789 -0.07975,0.45979 -0.07975,0.64936 6e-6,0.25883 0.04965,0.46207 0.148102,0.61518 0.0262,0.0393 0.06097,0.0808 0.09114,0.11393 0.16206,0.17206 0.388363,0.26202 0.672141,0.26202 0.368198,-1e-5 0.692652,-0.13717 1.002521,-0.42152 0.313521,-0.288 0.537258,-0.73913 0.672141,-1.34429 0.12395,-0.55412 0.106631,-0.96788 -0.06835,-1.23036 -0.167693,-0.25519 -0.412854,-0.37594 -0.751888,-0.37594 -0.05753,0 -0.115076,-0.007 -0.17088,0 z m 20.585806,1.99364 c -0.30987,0.0838 -0.65711,0.15448 -1.11644,0.21646 -0.34268,0.051 -0.58694,0.1048 -0.72911,0.15948 -0.12394,0.051 -0.22374,0.12167 -0.30759,0.21646 -0.0802,0.0911 -0.13397,0.18683 -0.15949,0.2962 -0.007,0.0437 -0.0114,0.0889 -0.0114,0.12531 0,0.003 -6e-5,0.008 0,0.0114 4.3e-4,0.009 -5.9e-4,0.0258 0,0.0342 0.002,0.0165 0.007,0.0415 0.0114,0.0569 0.002,0.005 0.009,0.0178 0.0114,0.0228 0.004,0.01 0.006,0.0248 0.0114,0.0342 0.005,0.009 0.0166,0.0253 0.0228,0.0342 0.01,0.0131 0.0225,0.0332 0.0342,0.0456 0.0911,0.10208 0.27295,0.1481 0.53543,0.1481 0.28801,0 0.56506,-0.0547 0.82024,-0.18227 0.25155,-0.12395 0.45433,-0.30896 0.6038,-0.52405 0.10937,-0.15311 0.19686,-0.38871 0.27341,-0.69492 z"
       id="path1"
       style="fill:#bd0000" />
    <path
       d="m 106.36051,357.30918 c 0.14799,0.38045 0.29598,0.76029 0.45013,1.1318 0.2374,0.5047 0.51179,0.98782 0.84168,1.43888 1.78203,2.42237 4.76645,3.74872 8.55556,4.07892 0,0 4.07584,0 4.07584,0 1.28872,-0.10051 2.63911,-0.28796 4.03883,-0.56175 2.41405,-0.47201 4.97301,-1.19715 7.63063,-2.16617 2.01325,-0.73408 4.082,-1.60259 6.18158,-2.61199 4.57222,-2.19176 9.2955,-5.01864 13.92938,-8.43007 1.52612,-1.12255 2.99058,-2.27439 4.39648,-3.44565 1.28872,-1.0723 2.52504,-2.16125 3.70586,-3.26222 3.29581,-3.17619 5.78386,-6.40202 7.19283,-9.23445 1.46754,-2.94958 1.76044,-5.47155 0.55805,-7.06027 -0.73687,-0.97517 -1.9701,-1.49776 -3.55789,-1.62077 7.15275,-5.36703 11.32109,-11.87758 9.8258,-15.98239 -0.47481,-1.31005 -1.51997,-2.28737 -3.01835,-2.82785 -0.66594,-0.23954 -1.41514,-0.39125 -2.23216,-0.4603 0,0 -2.20131,0 -2.20131,0 -3.07383,0.22168 -7.54379,1.32233 -11.33598,3.18085"
       id="path2"
       style="fill:none;stroke:#bd0000;stroke-width:1.82276082;stroke-linecap:butt;stroke-linejoin:miter;stroke-miterlimit:4" />
  </g>
</svg>
