<?xml version="1.0" encoding="UTF-8" standalone="no"?>
<svg
   xmlns:dc="http://purl.org/dc/elements/1.1/"
   xmlns:cc="http://creativecommons.org/ns#"
   xmlns:rdf="http://www.w3.org/1999/02/22-rdf-syntax-ns#"
   xmlns:svg="http://www.w3.org/2000/svg"
   xmlns="http://www.w3.org/2000/svg"
   xmlns:sodipodi="http://sodipodi.sourceforge.net/DTD/sodipodi-0.dtd"
   xmlns:inkscape="http://www.inkscape.org/namespaces/inkscape"
   id="svg2985"
   height="45"
   width="140"
   version="1.1"
   inkscape:version="0.91 r13725"
   sodipodi:docname="install-button.svg">
  <sodipodi:namedview
     pagecolor="#ffffff"
     bordercolor="#666666"
     borderopacity="1"
     objecttolerance="10"
     gridtolerance="10"
     guidetolerance="10"
     inkscape:pageopacity="0"
     inkscape:pageshadow="2"
     inkscape:window-width="1494"
     inkscape:window-height="897"
     id="namedview31"
     showgrid="false"
     inkscape:zoom="2.2142857"
     inkscape:cx="8.5625806"
     inkscape:cy="-63.910676"
     inkscape:window-x="624"
     inkscape:window-y="242"
     inkscape:window-maximized="0"
     inkscape:current-layer="svg2985" />
  <metadata
     id="metadata2991">
    <rdf:RDF>
      <cc:Work
         rdf:about="">
        <dc:format>
          image/svg+xml
        </dc:format>
        <dc:type
           rdf:resource="http://purl.org/dc/dcmitype/StillImage" />
      </cc:Work>
    </rdf:RDF>
  </metadata>
  <defs
     id="defs2989" />
  <text
     id="text4150"
     y="24.84"
     x="110.15"
     xml:space="preserve"
     style="fill:#fff;font-family:sans-serif;font-size:40px;letter-spacing:0px;line-height:125%;text-align:center;text-anchor:middle;word-spacing:0px"><tspan
       y="24.84"
       x="75.91"
       id="tspan4152"
       style="-inkscape-font-specification:Collegiate;fill:#fff;font-family:Collegiate;font-size:17.5px;text-align:center;text-anchor:middle" /></text>
  <text
     xml:space="preserve"
     x="102.63"
     y="17.46"
     id="text4184"
     style="fill:#000;font-family:sans-serif;font-size:40px;letter-spacing:0px;line-height:125%;word-spacing:0px"><tspan
       id="tspan4186"
       x="102.63"
       y="17.46" /></text>
  <flowRoot
     xml:space="preserve"
     id="flowRoot4231"
     style="fill:#000;font-family:sans-serif;font-size:40px;letter-spacing:0px;line-height:125%;word-spacing:0px"><flowRegion
       id="flowRegion4233"><rect
         id="rect4235"
         width="107.31"
         height="60.04"
         x="25.98"
         y="-75.66" /></flowRegion><flowPara
       id="flowPara4237">
      installnow
    </flowPara><flowPara
       id="flowPara4239" /><flowPara
       id="flowPara4241" /></flowRoot>  <text
     xml:space="preserve"
     x="55.08"
     y="-37.61"
     id="text4243"
     style="fill:#000;font-family:sans-serif;font-size:40px;letter-spacing:0px;line-height:125%;word-spacing:0px"><tspan
       id="tspan4245"
       x="55.08"
       y="-37.61" /></text>
  <g
     transform="translate(0,11.300232)"
     id="flowRoot4247"
     style="-inkscape-font-specification:Collegiate;fill:#fff;font-family:Collegiate;font-size:15px;letter-spacing:0px;line-height:125%;text-align:center;text-anchor:middle;word-spacing:0px;writing-mode:lr-tb">
    <path
       d="m31 17.94q0.08-0.52 0.08-1.88l0-9.58q0-1.48-0.08-1.88l2.72 0q-0.08 0.46-0.08 1.84l0 9.66q0 1.36 0.08 1.84l-2.72 0z"
       id="path4272"
       style="fill:#fff;font-size:20px" />
    <path
       d="m39.77 8.98q1.62-0.02 2.5 1.4 0.74 1.2 0.74 2.98l0 2.74q0 1.36 0.08 1.84l-2.4 0q0.06-0.46 0.08-1.88l0.02-2.7q0.02-2.26-1.44-2.26-0.66 0-1.36 0.66l0 4.92q0 0.34 0.02 0.78 0.04 0.42 0.04 0.48l-2.32 0q0.06-0.34 0.06-1.26l0-6.14q0-1.16-0.06-1.48l2.2 0 0 0.72q0.9-0.8 1.84-0.8z"
       id="path4274"
       style="fill:#fff;font-size:20px" />
    <path
       d="m46.81 18.1q-1.22 0-2.34-0.56l0-2.3q1.04 0.78 2.34 0.78 1.16 0 1.16-0.62 0-0.44-0.68-0.78-0.3-0.16-1.06-0.58-1.74-1.02-1.74-2.58 0-1.22 0.82-1.88 0.76-0.6 1.94-0.6 1.28 0 2.36 0.56l0 1.72q-1.16-0.54-2.26-0.54-0.78 0-0.78 0.56 0 0.38 0.54 0.68 0.74 0.38 1.26 0.68 1.84 1.06 1.84 2.64 0 1.46-1.06 2.2-0.9 0.62-2.34 0.62z"
       id="path4276"
       style="fill:#fff;font-size:20px" />
    <path
       d="m54.07 9.06 1.74 0 0 1.94q-0.1 0-0.38-0.02-0.26-0.02-0.5-0.02l-0.86 0 0 3.72q0 1.34 0.88 1.34 0.62 0 1.12-0.34l0 2q-0.74 0.4-1.78 0.4-1.46 0-2.02-1.04-0.42-0.78-0.42-2.46l0-3.58 0.02 0 0-0.04-0.3-0.02q-0.26 0-0.68 0.06l0-1.94 0.98 0 0-0.78q0-0.56-0.06-0.9l2.32 0q-0.06 0.38-0.06 0.86l0 0.82z"
       id="path4278"
       style="fill:#fff;font-size:20px" />
    <path
       d="m61.34 17.94 0-0.74q-0.94 0.9-2.02 0.9-1.12 0-1.84-0.78-0.7-0.8-0.7-1.98 0-1.44 0.96-2.28 0.9-0.82 2.26-0.82 0.64 0 1.22 0.16l0-0.2q0-1.26-1.36-1.26-0.86 0-2.12 0.48l0-2.04q1.5-0.4 2.38-0.4 1.84 0 2.54 0.82 0.7 0.8 0.7 2.72l0 4.2q0 0.88 0.06 1.22l-2.08 0zm-0.12-3.7q-0.42-0.18-0.9-0.18-0.56 0-0.94 0.24-0.46 0.3-0.46 0.86 0 0.4 0.28 0.66 0.3 0.24 0.68 0.24 0.58 0 0.96-0.36 0.38-0.38 0.38-0.92l0-0.54z"
       id="path4280"
       style="fill:#fff;font-size:20px" />
    <path
       d="m65.01 17.94q0.06-0.4 0.06-1.36l0-10.68q0-0.94-0.06-1.3l2.28 0q-0.06 0.38-0.06 1.26l0 10.6q0 1.02 0.06 1.48l-2.28 0z"
       id="path4282"
       style="fill:#fff;font-size:20px" />
    <path
       d="m68.91 17.94q0.06-0.4 0.06-1.36l0-10.68q0-0.94-0.06-1.3l2.28 0q-0.06 0.38-0.06 1.26l0 10.6q0 1.02 0.06 1.48l-2.28 0z"
       id="path4284"
       style="fill:#fff;font-size:20px" />
    <path
       d="m80.75 8.98q1.62-0.02 2.5 1.4 0.74 1.2 0.74 2.98l0 2.74q0 1.36 0.08 1.84l-2.4 0q0.06-0.46 0.08-1.88l0.02-2.7q0.02-2.26-1.44-2.26-0.66 0-1.36 0.66l0 4.92q0 0.34 0.02 0.78 0.04 0.42 0.04 0.48l-2.32 0q0.06-0.34 0.06-1.26l0-6.14q0-1.16-0.06-1.48l2.2 0 0 0.72q0.9-0.8 1.84-0.8z"
       id="path4286"
       style="fill:#fff;font-size:20px" />
    <path
       d="m89.13 18.08q-1.92 0-2.88-1.34-0.82-1.18-0.82-3.2 0-4.52 3.7-4.52 3.66 0 3.66 4.52 0 2-0.82 3.18-0.94 1.36-2.84 1.36zm-0.02-7.1q-0.92 0-1.22 0.88-0.18 0.5-0.18 1.68 0 1.18 0.18 1.68 0.3 0.88 1.22 0.88 0.92 0 1.22-0.86 0.18-0.5 0.18-1.7 0-1.18-0.18-1.68-0.3-0.88-1.22-0.88z"
       id="path4288"
       style="fill:#fff;font-size:20px" />
    <path
       d="m100.69 17.94-1.24-4.62-1.16 4.62-2.12 0-2.4-8.88 2.34 0q0 0.98 0.08 1.3l0.96 3.98 0.96-3.98q0.14-0.54 0.14-1.3l2.28 0q0 0.46 0.1 1.3l0.94 3.98 0.98-3.98q0.24-1.04 0.24-1.3l2.22 0-2.2 8.88-2.12 0z"
       id="path4290"
       style="fill:#fff;font-size:20px" />
    <path
       d="m108.9 6.1-0.06 8.16-2.16 0-0.06-8.16q0-0.52-0.06-1.5l2.4 0q-0.06 0.38-0.06 1.5zm-1.14 11.98q-0.64 0-1.1-0.46-0.44-0.46-0.44-1.1 0-0.66 0.44-1.1 0.44-0.46 1.1-0.46 0.62 0 1.06 0.46 0.46 0.46 0.46 1.1 0 0.62-0.46 1.1-0.46 0.46-1.06 0.46z"
       id="path4292"
       style="fill:#fff;font-size:20px" />
  </g>
  <text
     sodipodi:linespacing="125%"
     id="text4150-3"
     y="128.08994"
     x="106.08549"
     xml:space="preserve"
     style="font-size:40px;line-height:125%;font-family:sans-serif;text-align:center;letter-spacing:0px;word-spacing:0px;text-anchor:middle;fill:#ffffff"><tspan
       y="128.08994"
       x="71.84549"
       id="tspan4152-2"
       style="font-size:17.5px;font-family:Collegiate;-inkscape-font-specification:Collegiate;text-align:center;text-anchor:middle;fill:#ffffff" /></text>
  <rect
     rx="9"
     ry="9"
     y="1.5"
     x="1.5"
     height="42"
     width="137"
     id="rect4163-9"
     style="fill:none;stroke:#ffff56;stroke-dasharray:3.99999997, 0.99999998" />
  <text
     sodipodi:linespacing="125%"
     xml:space="preserve"
     x="98.565483"
     y="120.70993"
     id="text4184-9"
     style="font-size:40px;line-height:125%;font-family:sans-serif;letter-spacing:0px;word-spacing:0px;fill:#000000"><tspan
       id="tspan4186-2"
       x="98.565483"
       y="120.70993" /></text>
  <text
     sodipodi:linespacing="125%"
     xml:space="preserve"
     x="51.015484"
     y="65.639931"
     id="text4243-6"
     style="font-size:40px;line-height:125%;font-family:sans-serif;letter-spacing:0px;word-spacing:0px;fill:#000000"><tspan
       id="tspan4245-0"
       x="51.015484"
       y="65.639931" /></text>
</svg>
