<?xml version="1.0" encoding="UTF-8" standalone="no"?>
<!-- Created with Inkscape (http://www.inkscape.org/) -->

<svg
   xmlns:dc="http://purl.org/dc/elements/1.1/"
   xmlns:cc="http://creativecommons.org/ns#"
   xmlns:rdf="http://www.w3.org/1999/02/22-rdf-syntax-ns#"
   xmlns:svg="http://www.w3.org/2000/svg"
   xmlns="http://www.w3.org/2000/svg"
   xmlns:xlink="http://www.w3.org/1999/xlink"
   version="1.1"
   width="128"
   height="138"
   viewBox="0 0 128 138"
   id="svg2"
   xml:space="preserve"><metadata
   id="metadata28"><rdf:RDF><cc:Work
       rdf:about=""><dc:format>image/svg+xml</dc:format><dc:type
         rdf:resource="http://purl.org/dc/dcmitype/StillImage" /><dc:title></dc:title></cc:Work></rdf:RDF></metadata><defs
   id="defs26"><linearGradient
   id="linearGradient3799"><stop
     id="stop3801"
     style="stop-color:#ff0000;stop-opacity:1"
     offset="0" /><stop
     id="stop3803"
     style="stop-color:#440000;stop-opacity:1"
     offset="1" /></linearGradient><linearGradient
   id="linearGradient3777"><stop
     id="stop3779"
     style="stop-color:#ffd300;stop-opacity:1"
     offset="0" /><stop
     id="stop3781"
     style="stop-color:#a07100;stop-opacity:1"
     offset="1" /></linearGradient><linearGradient
   id="linearGradient3767"><stop
     id="stop3769"
     style="stop-color:#000000;stop-opacity:1"
     offset="0" /></linearGradient><linearGradient
   id="linearGradient3761"><stop
     id="stop3763"
     style="stop-color:#ffd300;stop-opacity:1"
     offset="0" /></linearGradient><linearGradient
   x1="16"
   y1="126"
   x2="225"
   y2="126"
   id="linearGradient3797"
   xlink:href="#linearGradient3777"
   gradientUnits="userSpaceOnUse" /><linearGradient
   x1="-21"
   y1="128.5"
   x2="279"
   y2="128.5"
   id="linearGradient3805"
   xlink:href="#linearGradient3799"
   gradientUnits="userSpaceOnUse" /><linearGradient
   x1="16"
   y1="126"
   x2="225"
   y2="126"
   id="linearGradient3833"
   xlink:href="#linearGradient3777"
   gradientUnits="userSpaceOnUse" /><linearGradient
   x1="16"
   y1="126"
   x2="225"
   y2="126"
   id="linearGradient3835"
   xlink:href="#linearGradient3777"
   gradientUnits="userSpaceOnUse" /><linearGradient
   x1="16"
   y1="126"
   x2="225"
   y2="126"
   id="linearGradient3837"
   xlink:href="#linearGradient3777"
   gradientUnits="userSpaceOnUse" /><linearGradient
   x1="16"
   y1="126"
   x2="225"
   y2="126"
   id="linearGradient3839"
   xlink:href="#linearGradient3777"
   gradientUnits="userSpaceOnUse" /><linearGradient
   x1="16"
   y1="126"
   x2="225"
   y2="126"
   id="linearGradient3841"
   xlink:href="#linearGradient3777"
   gradientUnits="userSpaceOnUse" /><linearGradient
   x1="16"
   y1="126"
   x2="225"
   y2="126"
   id="linearGradient3843"
   xlink:href="#linearGradient3777"
   gradientUnits="userSpaceOnUse" /><linearGradient
   x1="16"
   y1="126"
   x2="225"
   y2="126"
   id="linearGradient3845"
   xlink:href="#linearGradient3777"
   gradientUnits="userSpaceOnUse" />
	
<linearGradient
   x1="16"
   y1="126"
   x2="225"
   y2="126"
   id="linearGradient3852"
   xlink:href="#linearGradient3777"
   gradientUnits="userSpaceOnUse" /><linearGradient
   x1="16"
   y1="126"
   x2="225"
   y2="126"
   id="linearGradient3854"
   xlink:href="#linearGradient3777"
   gradientUnits="userSpaceOnUse" /><linearGradient
   x1="16"
   y1="126"
   x2="225"
   y2="126"
   id="linearGradient3856"
   xlink:href="#linearGradient3777"
   gradientUnits="userSpaceOnUse" />
		
		
	<linearGradient
   x1="16"
   y1="126"
   x2="225"
   y2="126"
   id="linearGradient3862"
   xlink:href="#linearGradient3777"
   gradientUnits="userSpaceOnUse" /><linearGradient
   x1="16"
   y1="126"
   x2="225"
   y2="126"
   id="linearGradient3864"
   xlink:href="#linearGradient3777"
   gradientUnits="userSpaceOnUse" /><linearGradient
   x1="-21"
   y1="128.5"
   x2="279"
   y2="128.5"
   id="linearGradient3866"
   xlink:href="#linearGradient3799"
   gradientUnits="userSpaceOnUse" /><linearGradient
   x1="-21"
   y1="128.5"
   x2="279"
   y2="128.5"
   id="linearGradient3868"
   xlink:href="#linearGradient3799"
   gradientUnits="userSpaceOnUse" /><linearGradient
   x1="-21"
   y1="128.5"
   x2="279"
   y2="128.5"
   id="linearGradient3870"
   xlink:href="#linearGradient3799"
   gradientUnits="userSpaceOnUse" />
	
<linearGradient
   x1="-21"
   y1="128.5"
   x2="279"
   y2="128.5"
   id="linearGradient3876"
   xlink:href="#linearGradient3799"
   gradientUnits="userSpaceOnUse" /><linearGradient
   x1="-21"
   y1="128.5"
   x2="279"
   y2="128.5"
   id="linearGradient3878"
   xlink:href="#linearGradient3799"
   gradientUnits="userSpaceOnUse" /><linearGradient
   x1="-21"
   y1="128.5"
   x2="279"
   y2="128.5"
   id="linearGradient3880"
   xlink:href="#linearGradient3799"
   gradientUnits="userSpaceOnUse" />
		
		
	<linearGradient
   x1="-21"
   y1="128.5"
   x2="279"
   y2="128.5"
   id="linearGradient3885"
   xlink:href="#linearGradient3799"
   gradientUnits="userSpaceOnUse" /><linearGradient
   x1="-21"
   y1="128.5"
   x2="279"
   y2="128.5"
   id="linearGradient3887"
   xlink:href="#linearGradient3799"
   gradientUnits="userSpaceOnUse" /><linearGradient
   x1="65.91964"
   y1="69.056839"
   x2="89.046608"
   y2="92.378876"
   id="linearGradient3924"
   xlink:href="#linearGradient3777"
   gradientUnits="userSpaceOnUse"
   gradientTransform="matrix(-0.28515346,0.95848188,-0.95848188,-0.28515346,138.19612,62.774228)"
   spreadMethod="pad" /><linearGradient
   x1="118.38983"
   y1="128.49998"
   x2="173.77965"
   y2="236.97458"
   id="linearGradient3932"
   xlink:href="#linearGradient3799"
   gradientUnits="userSpaceOnUse" /></defs>
   
   <polygon
      points="15,102.333 100.333,100.333 130.5,19.333 158,100.333 243,102.667 175.819,154.676 199.667,237.667 129.5,188.333 57.667,237.667 82.667,154 "
      transform="matrix(0.5,0,0,0.5,-0.19491524,0.3898305)"
      id="polygon11"
      style="fill:url(#linearGradient3932);fill-opacity:1;stroke:#000000;stroke-width:8;stroke-miterlimit:10" />
   <path d="m 69.101543,81.487184 c -0.751417,-0.397263 -11.910726,5.382068 -11.926645,6.189554 -0.009,0.445938 3.914404,8.467772 3.914404,8.467772 l -22.627001,11.17844 c 0,0 -1.225123,-5.23312 0.679885,-9.88295 1.905008,-4.649832 4.705827,-6.894358 12.36332,-10.580332 2.232727,-1.07496 0.07017,-4.326625 0.07017,-4.326625 l 1.015048,-2.827968 c 0,0 -0.232141,-3.894383 -2.80139,-3.44172 -1.556897,0.27444 -2.142836,-18.62376 -11.750249,-14.276873 -9.04211,4.091482 3.485652,16.338802 3.951773,17.695026 0.46612,1.356224 -21.252744,4.805732 -17.30753,33.627342 0,0 -4.678985,2.40826 -4.808243,2.74279 -0.188251,0.48547 4.91241,11.37297 5.591494,11.57501 0.578923,0.17223 6.537351,-3.27169 6.537351,-3.27169 0,0 10.156973,15.54155 33.655152,8.37145 1.721786,-0.52534 9.699516,-3.50622 15.959002,-8.84757 3.630116,-3.09798 8.006498,-7.10699 12.723992,-13.84242 1.511778,-2.15853 -4.399563,1.81271 -11.967477,5.86389 -4.426352,2.36917 -9.497506,4.21943 -12.973752,5.49566 -12.29781,4.51415 -21.324811,0.77482 -25.055182,-3.4545 0,0 11.719892,-5.81548 22.419936,-11.06633 0,0 4.914186,9.19975 5.512194,8.94312 1.877033,-0.80518 1.937597,-0.6458 3.316296,-1.79591 0,0 -0.02355,-1.87767 0.653198,-4.51363 0.95496,-3.72015 2.687232,-8.61699 2.492914,-8.98258 C 78.07909,99.283531 70.228362,82.083246 69.101548,81.487184 z"
      id="path3813" style="fill:url(#linearGradient3924);fill-opacity:1;fill-rule:nonzero;stroke:#000000;stroke-width:2.20000005;stroke-miterlimit:10;stroke-dasharray:none" />

</svg>